<?xml version="1.0" encoding="utf-8" standalone="no"?>
<!DOCTYPE svg PUBLIC "-//W3C//DTD SVG 1.1//EN"
  "http://www.w3.org/Graphics/SVG/1.1/DTD/svg11.dtd">
<svg xmlns:xlink="http://www.w3.org/1999/xlink" width="219.522344pt" height="209.389594pt" viewBox="0 0 219.522344 209.389594" xmlns="http://www.w3.org/2000/svg" version="1.1">
 <metadata>
  <rdf:RDF xmlns:dc="http://purl.org/dc/elements/1.1/" xmlns:cc="http://creativecommons.org/ns#" xmlns:rdf="http://www.w3.org/1999/02/22-rdf-syntax-ns#">
   <cc:Work>
    <dc:type rdf:resource="http://purl.org/dc/dcmitype/StillImage"/>
    <dc:date>2025-04-28T20:17:51.240270</dc:date>
    <dc:format>image/svg+xml</dc:format>
    <dc:creator>
     <cc:Agent>
      <dc:title>Matplotlib v3.7.2, https://matplotlib.org/</dc:title>
     </cc:Agent>
    </dc:creator>
   </cc:Work>
  </rdf:RDF>
 </metadata>
 <defs>
  <style type="text/css">*{stroke-linejoin: round; stroke-linecap: butt}</style>
 </defs>
 <g id="figure_1">
  <g id="patch_1">
   <path d="M 0 209.389594 
L 219.522344 209.389594 
L 219.522344 0 
L 0 0 
z
" style="fill: #ffffff"/>
  </g>
  <g id="axes_1">
   <g id="patch_2">
    <path d="M 38.195312 173.3685 
L 172.115313 173.3685 
L 172.115313 34.7685 
L 38.195312 34.7685 
z
" style="fill: #ffffff"/>
   </g>
   <g id="PathCollection_1">
    <path d="M 38.753313 176.576833 
L 46.565313 176.576833 
L 54.377313 176.576833 
L 62.189313 176.576833 
L 70.001313 176.576833 
L 77.813313 176.576833 
L 85.625313 176.576833 
L 93.437313 176.576833 
L 101.249313 176.576833 
L 109.061313 176.576833 
L 116.873313 176.576833 
L 124.685313 176.576833 
L 132.497313 176.576833 
L 140.309313 176.576833 
L 148.121313 176.576833 
L 155.933312 176.576833 
L 163.745313 176.576833 
L 171.557313 176.576833 
L 179.369313 176.576833 
L 179.369313 167.5935 
L 179.369313 158.610167 
L 179.369313 149.626833 
L 179.369313 140.6435 
L 179.369313 131.660167 
L 179.369313 122.676833 
L 179.369313 113.6935 
L 179.369313 104.710167 
L 179.369313 95.726833 
L 179.369313 86.7435 
L 179.369313 77.760167 
L 179.369313 68.776833 
L 179.369313 59.7935 
L 179.369313 50.810167 
L 179.369313 41.826833 
L 179.369313 32.8435 
L 179.369313 23.860167 
L 179.369313 14.876833 
L 179.369313 5.8935 
L 171.557313 5.8935 
L 163.745313 5.8935 
L 155.933312 5.8935 
L 148.121313 5.8935 
L 140.309313 5.8935 
L 132.497313 5.8935 
L 124.685313 5.8935 
L 116.873313 5.8935 
L 109.061313 5.8935 
L 101.249313 5.8935 
L 93.437313 5.8935 
L 85.625313 5.8935 
L 77.813313 5.8935 
L 70.001313 5.8935 
L 62.189313 5.8935 
L 54.377313 5.8935 
L 46.565313 5.8935 
L 38.753313 5.8935 
L 30.941313 5.8935 
L 30.941313 14.876833 
L 30.941313 23.860167 
L 30.941313 32.8435 
L 30.941313 41.826833 
L 30.941313 50.810167 
L 30.941313 59.7935 
L 30.941313 68.776833 
L 30.941313 77.760167 
L 30.941313 86.7435 
L 30.941313 95.726833 
L 30.941313 104.710167 
L 30.941313 113.6935 
L 30.941313 122.676833 
L 30.941313 131.660167 
L 30.941313 140.6435 
L 30.941313 149.626833 
L 30.941313 158.610167 
L 30.941313 167.5935 
L 30.941313 176.576833 
z
M 60.767525 140.6435 
L 56.490613 131.660167 
L 54.377313 123.972919 
L 53.764468 122.676833 
L 51.428134 113.6935 
L 52.930343 104.710167 
L 54.377313 96.980553 
L 54.441224 95.726833 
L 54.377313 95.32204 
L 50.746659 86.7435 
L 48.899327 77.760167 
L 49.214347 68.776833 
L 52.191877 59.7935 
L 54.377313 56.406406 
L 62.189313 51.394836 
L 70.001313 51.302622 
L 77.813313 52.869765 
L 85.625313 57.017821 
L 89.329086 59.7935 
L 93.437313 61.042439 
L 101.249313 64.279549 
L 107.162607 68.776833 
L 109.061313 69.507614 
L 116.873313 72.892382 
L 123.550381 77.760167 
L 124.685313 78.453937 
L 132.497313 84.062567 
L 136.727057 86.7435 
L 140.309313 88.990047 
L 148.121313 92.499057 
L 151.302538 95.726833 
L 154.308479 104.710167 
L 148.121313 110.352349 
L 140.309313 112.230721 
L 134.886539 113.6935 
L 132.497313 114.393589 
L 124.685313 118.923147 
L 116.873313 121.479803 
L 110.347917 122.676833 
L 109.061313 123.340945 
L 101.249313 128.244299 
L 93.437313 131.036155 
L 91.70388 131.660167 
L 85.625313 136.363237 
L 77.813313 140.607837 
L 77.714789 140.6435 
L 70.001313 145.779165 
L 62.189313 142.621744 
z
" clip-path="url(#pb20dc82a4b)" style="fill: #372466"/>
   </g>
   <g id="PathCollection_2">
    <path d="M 62.189313 142.621744 
L 70.001313 145.779165 
L 77.714789 140.6435 
L 77.813313 140.607837 
L 85.625313 136.363237 
L 91.70388 131.660167 
L 93.437313 131.036155 
L 101.249313 128.244299 
L 109.061313 123.340945 
L 110.347917 122.676833 
L 116.873313 121.479803 
L 124.685313 118.923147 
L 132.497313 114.393589 
L 134.886539 113.6935 
L 140.309313 112.230721 
L 148.121313 110.352349 
L 154.308479 104.710167 
L 151.302538 95.726833 
L 148.121313 92.499057 
L 140.309313 88.990047 
L 136.727057 86.7435 
L 132.497313 84.062567 
L 124.685313 78.453937 
L 123.550381 77.760167 
L 116.873313 72.892382 
L 109.061313 69.507614 
L 107.162607 68.776833 
L 101.249313 64.279549 
L 93.437313 61.042439 
L 89.329086 59.7935 
L 85.625313 57.017821 
L 77.813313 52.869765 
L 70.001313 51.302622 
L 62.189313 51.394836 
L 54.377313 56.406406 
L 52.191877 59.7935 
L 49.214347 68.776833 
L 48.899327 77.760167 
L 50.746659 86.7435 
L 54.377313 95.32204 
L 54.441224 95.726833 
L 54.377313 96.980553 
L 52.930343 104.710167 
L 51.428134 113.6935 
L 53.764468 122.676833 
L 54.377313 123.972919 
L 56.490613 131.660167 
L 60.767525 140.6435 
z
M 61.338399 131.660167 
L 56.885516 122.676833 
L 55.358612 113.6935 
L 55.841019 104.710167 
L 56.457787 95.726833 
L 54.849833 86.7435 
L 54.377313 83.23243 
L 52.522942 77.760167 
L 53.342977 68.776833 
L 54.377313 66.461544 
L 57.787723 59.7935 
L 62.189313 55.74373 
L 70.001313 54.325166 
L 77.813313 56.755498 
L 82.157046 59.7935 
L 85.625313 60.96102 
L 93.437313 64.039129 
L 100.367375 68.776833 
L 101.249313 69.094881 
L 109.061313 72.356798 
L 116.320882 77.760167 
L 116.873313 78.14247 
L 124.685313 83.223935 
L 128.626842 86.7435 
L 132.497313 93.107691 
L 136.388528 95.726833 
L 137.658679 104.710167 
L 132.497313 107.336024 
L 124.685313 113.40086 
L 124.22406 113.6935 
L 116.873313 118.030815 
L 109.061313 120.406069 
L 101.752638 122.676833 
L 101.249313 123.012477 
L 93.437313 128.105601 
L 85.625313 131.16884 
L 84.220776 131.660167 
L 77.813313 136.45698 
L 70.001313 139.190091 
L 62.189313 133.201635 
z
" clip-path="url(#pb20dc82a4b)" style="fill: #4249b1"/>
   </g>
   <g id="PathCollection_3">
    <path d="M 62.189313 133.201635 
L 70.001313 139.190091 
L 77.813313 136.45698 
L 84.220776 131.660167 
L 85.625313 131.16884 
L 93.437313 128.105601 
L 101.249313 123.012477 
L 101.752638 122.676833 
L 109.061313 120.406069 
L 116.873313 118.030815 
L 124.22406 113.6935 
L 124.685313 113.40086 
L 132.497313 107.336024 
L 137.658679 104.710167 
L 136.388528 95.726833 
L 132.497313 93.107691 
L 128.626842 86.7435 
L 124.685313 83.223935 
L 116.873313 78.14247 
L 116.320882 77.760167 
L 109.061313 72.356798 
L 101.249313 69.094881 
L 100.367375 68.776833 
L 93.437313 64.039129 
L 85.625313 60.96102 
L 82.157046 59.7935 
L 77.813313 56.755498 
L 70.001313 54.325166 
L 62.189313 55.74373 
L 57.787723 59.7935 
L 54.377313 66.461544 
L 53.342977 68.776833 
L 52.522942 77.760167 
L 54.377313 83.23243 
L 54.849833 86.7435 
L 56.457787 95.726833 
L 55.841019 104.710167 
L 55.358612 113.6935 
L 56.885516 122.676833 
L 61.338399 131.660167 
z
M 66.425513 131.660167 
L 62.189313 127.507676 
L 59.592694 122.676833 
L 57.212879 113.6935 
L 57.660194 104.710167 
L 58.47435 95.726833 
L 56.288942 86.7435 
L 54.955526 77.760167 
L 55.639527 68.776833 
L 62.189313 59.949616 
L 62.801321 59.7935 
L 70.001313 57.34771 
L 76.154376 59.7935 
L 77.813313 60.075878 
L 85.625313 62.83127 
L 93.437313 67.035819 
L 95.983975 68.776833 
L 101.249313 70.675637 
L 109.061313 75.205982 
L 112.492927 77.760167 
L 116.873313 80.791558 
L 123.869078 86.7435 
L 124.685313 88.131981 
L 129.930229 95.726833 
L 130.043162 104.710167 
L 124.685313 109.692375 
L 118.378822 113.6935 
L 116.873313 114.581827 
L 109.061313 117.968499 
L 101.249313 121.086768 
L 97.161207 122.676833 
L 93.437313 125.175046 
L 85.625313 129.229259 
L 78.676164 131.660167 
L 77.813313 132.306123 
L 70.001313 134.750127 
z
" clip-path="url(#pb20dc82a4b)" style="fill: #466be3"/>
   </g>
   <g id="PathCollection_4">
    <path d="M 70.001313 134.750127 
L 77.813313 132.306123 
L 78.676164 131.660167 
L 85.625313 129.229259 
L 93.437313 125.175046 
L 97.161207 122.676833 
L 101.249313 121.086768 
L 109.061313 117.968499 
L 116.873313 114.581827 
L 118.378822 113.6935 
L 124.685313 109.692375 
L 130.043162 104.710167 
L 129.930229 95.726833 
L 124.685313 88.131981 
L 123.869078 86.7435 
L 116.873313 80.791558 
L 112.492927 77.760167 
L 109.061313 75.205982 
L 101.249313 70.675637 
L 95.983975 68.776833 
L 93.437313 67.035819 
L 85.625313 62.83127 
L 77.813313 60.075878 
L 76.154376 59.7935 
L 70.001313 57.34771 
L 62.801321 59.7935 
L 62.189313 59.949616 
L 55.639527 68.776833 
L 54.955526 77.760167 
L 56.288942 86.7435 
L 58.47435 95.726833 
L 57.660194 104.710167 
L 57.212879 113.6935 
L 59.592694 122.676833 
L 62.189313 127.507676 
L 66.425513 131.660167 
z
M 62.276529 122.676833 
L 62.189313 122.464104 
L 59.067145 113.6935 
L 59.479369 104.710167 
L 60.490913 95.726833 
L 57.728051 86.7435 
L 56.139772 77.760167 
L 57.323665 68.776833 
L 62.189313 62.219346 
L 70.001313 60.032753 
L 77.813313 61.370208 
L 85.625313 64.701521 
L 92.177366 68.776833 
L 93.437313 69.225414 
L 101.249313 72.256394 
L 108.835712 77.760167 
L 109.061313 77.934751 
L 116.873313 83.440646 
L 120.755406 86.7435 
L 124.685313 93.428592 
L 126.272452 95.726833 
L 126.05507 104.710167 
L 124.685313 105.98389 
L 116.873313 111.994888 
L 112.996962 113.6935 
L 109.061313 115.53093 
L 101.249313 119.387701 
L 93.437313 122.479598 
L 92.981022 122.676833 
L 85.625313 127.289678 
L 77.813313 130.228736 
L 70.001313 130.963584 
z
" clip-path="url(#pb20dc82a4b)" style="fill: #458afc"/>
   </g>
   <g id="PathCollection_5">
    <path d="M 70.001313 130.963584 
L 77.813313 130.228736 
L 85.625313 127.289678 
L 92.981022 122.676833 
L 93.437313 122.479598 
L 101.249313 119.387701 
L 109.061313 115.53093 
L 112.996962 113.6935 
L 116.873313 111.994888 
L 124.685313 105.98389 
L 126.05507 104.710167 
L 126.272452 95.726833 
L 124.685313 93.428592 
L 120.755406 86.7435 
L 116.873313 83.440646 
L 109.061313 77.934751 
L 108.835712 77.760167 
L 101.249313 72.256394 
L 93.437313 69.225414 
L 92.177366 68.776833 
L 85.625313 64.701521 
L 77.813313 61.370208 
L 70.001313 60.032753 
L 62.189313 62.219346 
L 57.323665 68.776833 
L 56.139772 77.760167 
L 57.728051 86.7435 
L 60.490913 95.726833 
L 59.479369 104.710167 
L 59.067145 113.6935 
L 62.189313 122.464104 
L 62.276529 122.676833 
z
M 64.412124 122.676833 
L 62.189313 117.255212 
L 60.921411 113.6935 
L 61.298544 104.710167 
L 62.189313 97.916019 
L 62.344433 95.726833 
L 62.189313 95.099076 
L 59.16716 86.7435 
L 57.324018 77.760167 
L 59.007802 68.776833 
L 62.189313 64.489077 
L 70.001313 61.286582 
L 77.813313 62.664539 
L 85.625313 66.571772 
L 89.170484 68.776833 
L 93.437313 70.29596 
L 101.249313 73.837151 
L 106.656797 77.760167 
L 109.061313 79.620938 
L 116.873313 86.089734 
L 117.641733 86.7435 
L 123.369924 95.726833 
L 122.879741 104.710167 
L 116.873313 109.707005 
L 109.061313 113.295014 
L 108.320873 113.6935 
L 101.249313 117.688633 
L 93.437313 121.142672 
L 89.888137 122.676833 
L 85.625313 125.350097 
L 77.813313 128.533492 
L 70.001313 128.672628 
z
" clip-path="url(#pb20dc82a4b)" style="fill: #35abf8"/>
   </g>
   <g id="PathCollection_6">
    <path d="M 70.001313 128.672628 
L 77.813313 128.533492 
L 85.625313 125.350097 
L 89.888137 122.676833 
L 93.437313 121.142672 
L 101.249313 117.688633 
L 108.320873 113.6935 
L 109.061313 113.295014 
L 116.873313 109.707005 
L 122.879741 104.710167 
L 123.369924 95.726833 
L 117.641733 86.7435 
L 116.873313 86.089734 
L 109.061313 79.620938 
L 106.656797 77.760167 
L 101.249313 73.837151 
L 93.437313 70.29596 
L 89.170484 68.776833 
L 85.625313 66.571772 
L 77.813313 62.664539 
L 70.001313 61.286582 
L 62.189313 64.489077 
L 59.007802 68.776833 
L 57.324018 77.760167 
L 59.16716 86.7435 
L 62.189313 95.099076 
L 62.344433 95.726833 
L 62.189313 97.916019 
L 61.298544 104.710167 
L 60.921411 113.6935 
L 62.189313 117.255212 
L 64.412124 122.676833 
z
M 66.547719 122.676833 
L 62.5578 113.6935 
L 62.719427 104.710167 
L 63.327611 95.726833 
L 62.189313 91.120261 
L 60.606269 86.7435 
L 58.508265 77.760167 
L 60.69194 68.776833 
L 62.189313 66.758807 
L 70.001313 62.540412 
L 77.813313 63.95887 
L 85.625313 68.442022 
L 86.163603 68.776833 
L 93.437313 71.366505 
L 101.249313 75.417907 
L 104.477882 77.760167 
L 109.061313 81.307125 
L 115.393887 86.7435 
L 116.873313 89.397905 
L 121.046295 95.726833 
L 120.129601 104.710167 
L 116.873313 107.419122 
L 109.061313 111.676493 
L 105.313449 113.6935 
L 101.249313 115.989565 
L 93.437313 119.805746 
L 86.795253 122.676833 
L 85.625313 123.410515 
L 77.813313 126.838249 
L 70.001313 126.381671 
z
" clip-path="url(#pb20dc82a4b)" style="fill: #1fc9dd"/>
   </g>
   <g id="PathCollection_7">
    <path d="M 70.001313 126.381671 
L 77.813313 126.838249 
L 85.625313 123.410515 
L 86.795253 122.676833 
L 93.437313 119.805746 
L 101.249313 115.989565 
L 105.313449 113.6935 
L 109.061313 111.676493 
L 116.873313 107.419122 
L 120.129601 104.710167 
L 121.046295 95.726833 
L 116.873313 89.397905 
L 115.393887 86.7435 
L 109.061313 81.307125 
L 104.477882 77.760167 
L 101.249313 75.417907 
L 93.437313 71.366505 
L 86.163603 68.776833 
L 85.625313 68.442022 
L 77.813313 63.95887 
L 70.001313 62.540412 
L 62.189313 66.758807 
L 60.69194 68.776833 
L 58.508265 77.760167 
L 60.606269 86.7435 
L 62.189313 91.120261 
L 63.327611 95.726833 
L 62.719427 104.710167 
L 62.5578 113.6935 
L 66.547719 122.676833 
z
M 68.683314 122.676833 
L 63.723069 113.6935 
L 63.758166 104.710167 
L 64.310789 95.726833 
L 62.189313 87.141446 
L 62.045378 86.7435 
L 59.692511 77.760167 
L 62.189313 69.225734 
L 62.401397 68.776833 
L 70.001313 63.794241 
L 77.813313 65.253201 
L 83.815296 68.776833 
L 85.625313 69.519804 
L 93.437313 72.43705 
L 101.249313 76.998664 
L 102.298968 77.760167 
L 109.061313 82.993312 
L 113.429728 86.7435 
L 116.873313 92.922024 
L 118.722665 95.726833 
L 117.379461 104.710167 
L 116.873313 105.131239 
L 109.061313 110.057973 
L 102.306025 113.6935 
L 101.249313 114.290498 
L 93.437313 118.468821 
L 85.625313 121.940043 
L 83.286285 122.676833 
L 77.813313 125.143005 
L 70.001313 124.090715 
z
" clip-path="url(#pb20dc82a4b)" style="fill: #19e2bb"/>
   </g>
   <g id="PathCollection_8">
    <path d="M 70.001313 124.090715 
L 77.813313 125.143005 
L 83.286285 122.676833 
L 85.625313 121.940043 
L 93.437313 118.468821 
L 101.249313 114.290498 
L 102.306025 113.6935 
L 109.061313 110.057973 
L 116.873313 105.131239 
L 117.379461 104.710167 
L 118.722665 95.726833 
L 116.873313 92.922024 
L 113.429728 86.7435 
L 109.061313 82.993312 
L 102.298968 77.760167 
L 101.249313 76.998664 
L 93.437313 72.43705 
L 85.625313 69.519804 
L 83.815296 68.776833 
L 77.813313 65.253201 
L 70.001313 63.794241 
L 62.401397 68.776833 
L 62.189313 69.225734 
L 59.692511 77.760167 
L 62.045378 86.7435 
L 62.189313 87.141446 
L 64.310789 95.726833 
L 63.758166 104.710167 
L 63.723069 113.6935 
L 68.683314 122.676833 
z
M 73.571942 122.676833 
L 70.001313 121.955925 
L 64.888339 113.6935 
L 64.796905 104.710167 
L 65.293967 95.726833 
L 62.904755 86.7435 
L 62.189313 82.71784 
L 60.876757 77.760167 
L 62.189313 73.273661 
L 64.313855 68.776833 
L 70.001313 65.048071 
L 77.813313 66.547532 
L 81.610596 68.776833 
L 85.625313 70.424783 
L 93.437313 73.507595 
L 100.347719 77.760167 
L 101.249313 78.356509 
L 109.061313 84.679498 
L 111.46557 86.7435 
L 116.484643 95.726833 
L 114.830344 104.710167 
L 109.061313 108.439453 
L 101.249313 112.874199 
L 99.675918 113.6935 
L 93.437313 117.131895 
L 85.625313 120.754982 
L 79.524169 122.676833 
L 77.813313 123.447761 
z
" clip-path="url(#pb20dc82a4b)" style="fill: #32f298"/>
   </g>
   <g id="PathCollection_9">
    <path d="M 77.813313 123.447761 
L 79.524169 122.676833 
L 85.625313 120.754982 
L 93.437313 117.131895 
L 99.675918 113.6935 
L 101.249313 112.874199 
L 109.061313 108.439453 
L 114.830344 104.710167 
L 116.484643 95.726833 
L 111.46557 86.7435 
L 109.061313 84.679498 
L 101.249313 78.356509 
L 100.347719 77.760167 
L 93.437313 73.507595 
L 85.625313 70.424783 
L 81.610596 68.776833 
L 77.813313 66.547532 
L 70.001313 65.048071 
L 64.313855 68.776833 
L 62.189313 73.273661 
L 60.876757 77.760167 
L 62.189313 82.71784 
L 62.904755 86.7435 
L 65.293967 95.726833 
L 64.796905 104.710167 
L 64.888339 113.6935 
L 70.001313 121.955925 
L 73.571942 122.676833 
z
M 66.053609 113.6935 
L 65.835644 104.710167 
L 66.277145 95.726833 
L 63.699707 86.7435 
L 62.189313 78.244804 
L 62.061004 77.760167 
L 62.189313 77.321588 
L 66.226313 68.776833 
L 70.001313 66.3019 
L 77.813313 67.841863 
L 79.405895 68.776833 
L 85.625313 71.329762 
L 93.437313 74.57814 
L 98.608089 77.760167 
L 101.249313 79.507155 
L 109.061313 86.365685 
L 109.501411 86.7435 
L 114.580433 95.726833 
L 112.326568 104.710167 
L 109.061313 106.820932 
L 101.249313 111.611077 
L 97.250207 113.6935 
L 93.437313 115.794969 
L 85.625313 119.569921 
L 77.813313 121.991293 
L 70.001313 120.072881 
z
" clip-path="url(#pb20dc82a4b)" style="fill: #5dfc6f"/>
   </g>
   <g id="PathCollection_10">
    <path d="M 70.001313 120.072881 
L 77.813313 121.991293 
L 85.625313 119.569921 
L 93.437313 115.794969 
L 97.250207 113.6935 
L 101.249313 111.611077 
L 109.061313 106.820932 
L 112.326568 104.710167 
L 114.580433 95.726833 
L 109.501411 86.7435 
L 109.061313 86.365685 
L 101.249313 79.507155 
L 98.608089 77.760167 
L 93.437313 74.57814 
L 85.625313 71.329762 
L 79.405895 68.776833 
L 77.813313 67.841863 
L 70.001313 66.3019 
L 66.226313 68.776833 
L 62.189313 77.321588 
L 62.061004 77.760167 
L 62.189313 78.244804 
L 63.699707 86.7435 
L 66.277145 95.726833 
L 65.835644 104.710167 
L 66.053609 113.6935 
z
M 67.218878 113.6935 
L 66.874382 104.710167 
L 67.260322 95.726833 
L 64.494658 86.7435 
L 63.003233 77.760167 
L 68.138771 68.776833 
L 70.001313 67.555729 
L 76.080297 68.776833 
L 77.813313 69.027372 
L 85.625313 72.234741 
L 93.437313 75.648686 
L 96.868459 77.760167 
L 101.249313 80.657801 
L 108.061851 86.7435 
L 109.061313 89.349959 
L 112.676222 95.726833 
L 109.822793 104.710167 
L 109.061313 105.202412 
L 101.249313 110.347955 
L 94.824496 113.6935 
L 93.437313 114.458043 
L 85.625313 118.384859 
L 77.813313 120.733976 
L 70.001313 118.189837 
z
" clip-path="url(#pb20dc82a4b)" style="fill: #8fff49"/>
   </g>
   <g id="PathCollection_11">
    <path d="M 70.001313 118.189837 
L 77.813313 120.733976 
L 85.625313 118.384859 
L 93.437313 114.458043 
L 94.824496 113.6935 
L 101.249313 110.347955 
L 109.061313 105.202412 
L 109.822793 104.710167 
L 112.676222 95.726833 
L 109.061313 89.349959 
L 108.061851 86.7435 
L 101.249313 80.657801 
L 96.868459 77.760167 
L 93.437313 75.648686 
L 85.625313 72.234741 
L 77.813313 69.027372 
L 76.080297 68.776833 
L 70.001313 67.555729 
L 68.138771 68.776833 
L 63.003233 77.760167 
L 64.494658 86.7435 
L 67.260322 95.726833 
L 66.874382 104.710167 
L 67.218878 113.6935 
z
M 68.384148 113.6935 
L 67.913121 104.710167 
L 68.2435 95.726833 
L 65.289609 86.7435 
L 63.916054 77.760167 
L 70.001313 68.811868 
L 77.813313 69.929753 
L 85.625313 73.13972 
L 93.437313 76.719231 
L 95.128828 77.760167 
L 101.249313 81.808447 
L 106.773779 86.7435 
L 109.061313 92.709078 
L 110.772012 95.726833 
L 109.061313 100.789058 
L 107.754317 104.710167 
L 101.249313 109.084833 
L 93.437313 113.140245 
L 92.449803 113.6935 
L 85.625313 117.199798 
L 77.813313 119.47666 
L 70.001313 116.306794 
z
" clip-path="url(#pb20dc82a4b)" style="fill: #b4f836"/>
   </g>
   <g id="PathCollection_12">
    <path d="M 70.001313 116.306794 
L 77.813313 119.47666 
L 85.625313 117.199798 
L 92.449803 113.6935 
L 93.437313 113.140245 
L 101.249313 109.084833 
L 107.754317 104.710167 
L 109.061313 100.789058 
L 110.772012 95.726833 
L 109.061313 92.709078 
L 106.773779 86.7435 
L 101.249313 81.808447 
L 95.128828 77.760167 
L 93.437313 76.719231 
L 85.625313 73.13972 
L 77.813313 69.929753 
L 70.001313 68.811868 
L 63.916054 77.760167 
L 65.289609 86.7435 
L 68.2435 95.726833 
L 67.913121 104.710167 
L 68.384148 113.6935 
z
M 69.549417 113.6935 
L 68.95186 104.710167 
L 69.226678 95.726833 
L 66.08456 86.7435 
L 64.828875 77.760167 
L 70.001313 70.15416 
L 77.813313 70.832133 
L 85.625313 74.044699 
L 93.385037 77.760167 
L 93.437313 77.786694 
L 101.249313 82.959094 
L 105.485706 86.7435 
L 108.921279 95.726833 
L 105.87609 104.710167 
L 101.249313 107.821711 
L 93.437313 111.847994 
L 90.143257 113.6935 
L 85.625313 116.014737 
L 77.813313 118.219343 
L 70.001313 114.42375 
z
" clip-path="url(#pb20dc82a4b)" style="fill: #d4e735"/>
   </g>
   <g id="PathCollection_13">
    <path d="M 70.001313 114.42375 
L 77.813313 118.219343 
L 85.625313 116.014737 
L 90.143257 113.6935 
L 93.437313 111.847994 
L 101.249313 107.821711 
L 105.87609 104.710167 
L 108.921279 95.726833 
L 105.485706 86.7435 
L 101.249313 82.959094 
L 93.437313 77.786694 
L 93.385037 77.760167 
L 85.625313 74.044699 
L 77.813313 70.832133 
L 70.001313 70.15416 
L 64.828875 77.760167 
L 66.08456 86.7435 
L 69.226678 95.726833 
L 68.95186 104.710167 
L 69.549417 113.6935 
z
M 71.490346 113.6935 
L 70.001313 104.859007 
L 69.990599 104.710167 
L 70.001313 104.293603 
L 70.240634 95.726833 
L 70.001313 95.26648 
L 66.879511 86.7435 
L 65.741695 77.760167 
L 70.001313 71.496452 
L 77.813313 71.734514 
L 85.625313 74.949678 
L 91.494996 77.760167 
L 93.437313 78.745807 
L 101.249313 84.10974 
L 104.197633 86.7435 
L 107.543306 95.726833 
L 103.997864 104.710167 
L 101.249313 106.558589 
L 93.437313 110.555744 
L 87.836711 113.6935 
L 85.625313 114.829676 
L 77.813313 116.962027 
z
" clip-path="url(#pb20dc82a4b)" style="fill: #eecf3a"/>
   </g>
   <g id="PathCollection_14">
    <path d="M 77.813313 116.962027 
L 85.625313 114.829676 
L 87.836711 113.6935 
L 93.437313 110.555744 
L 101.249313 106.558589 
L 103.997864 104.710167 
L 107.543306 95.726833 
L 104.197633 86.7435 
L 101.249313 84.10974 
L 93.437313 78.745807 
L 91.494996 77.760167 
L 85.625313 74.949678 
L 77.813313 71.734514 
L 70.001313 71.496452 
L 65.741695 77.760167 
L 66.879511 86.7435 
L 70.001313 95.26648 
L 70.240634 95.726833 
L 70.001313 104.293603 
L 69.990599 104.710167 
L 70.001313 104.859007 
L 71.490346 113.6935 
z
M 73.922625 113.6935 
L 71.596828 104.710167 
L 71.368916 95.726833 
L 70.001313 93.096147 
L 67.674462 86.7435 
L 66.654516 77.760167 
L 70.001313 72.838744 
L 77.813313 72.636894 
L 85.625313 75.854657 
L 89.604954 77.760167 
L 93.437313 79.704921 
L 101.249313 85.260386 
L 102.909561 86.7435 
L 106.165333 95.726833 
L 102.119637 104.710167 
L 101.249313 105.295467 
L 93.437313 109.263493 
L 85.625313 113.617672 
L 85.428918 113.6935 
L 77.813313 115.70471 
z
" clip-path="url(#pb20dc82a4b)" style="fill: #fbb637"/>
   </g>
   <g id="PathCollection_15">
    <path d="M 77.813313 115.70471 
L 85.428918 113.6935 
L 85.625313 113.617672 
L 93.437313 109.263493 
L 101.249313 105.295467 
L 102.119637 104.710167 
L 106.165333 95.726833 
L 102.909561 86.7435 
L 101.249313 85.260386 
L 93.437313 79.704921 
L 89.604954 77.760167 
L 85.625313 75.854657 
L 77.813313 72.636894 
L 70.001313 72.838744 
L 66.654516 77.760167 
L 67.674462 86.7435 
L 70.001313 93.096147 
L 71.368916 95.726833 
L 71.596828 104.710167 
L 73.922625 113.6935 
z
M 76.354904 113.6935 
L 73.208971 104.710167 
L 72.497197 95.726833 
L 70.001313 90.925813 
L 68.469413 86.7435 
L 67.567337 77.760167 
L 70.001313 74.181036 
L 77.813313 73.539275 
L 85.625313 76.759636 
L 87.714912 77.760167 
L 93.437313 80.664034 
L 101.249313 86.411032 
L 101.621488 86.7435 
L 104.78736 95.726833 
L 101.249313 103.157214 
L 99.879427 104.710167 
L 93.437313 107.971243 
L 85.625313 111.779484 
L 80.667991 113.6935 
L 77.813313 114.447394 
z
" clip-path="url(#pb20dc82a4b)" style="fill: #fe932a"/>
   </g>
   <g id="PathCollection_16">
    <path d="M 77.813313 114.447394 
L 80.667991 113.6935 
L 85.625313 111.779484 
L 93.437313 107.971243 
L 99.879427 104.710167 
L 101.249313 103.157214 
L 104.78736 95.726833 
L 101.621488 86.7435 
L 101.249313 86.411032 
L 93.437313 80.664034 
L 87.714912 77.760167 
L 85.625313 76.759636 
L 77.813313 73.539275 
L 70.001313 74.181036 
L 67.567337 77.760167 
L 68.469413 86.7435 
L 70.001313 90.925813 
L 72.497197 95.726833 
L 73.208971 104.710167 
L 76.354904 113.6935 
z
M 74.821114 104.710167 
L 73.625479 95.726833 
L 70.001313 88.755479 
L 69.264364 86.7435 
L 68.480158 77.760167 
L 70.001313 75.523328 
L 77.813313 74.441655 
L 85.625313 77.664615 
L 85.824871 77.760167 
L 93.437313 81.623147 
L 100.331117 86.7435 
L 101.249313 89.546797 
L 103.409387 95.726833 
L 101.249313 100.263284 
L 97.326642 104.710167 
L 93.437313 106.678993 
L 85.625313 109.941296 
L 77.813313 112.099445 
z
" clip-path="url(#pb20dc82a4b)" style="fill: #f66c19"/>
   </g>
   <g id="PathCollection_17">
    <path d="M 77.813313 112.099445 
L 85.625313 109.941296 
L 93.437313 106.678993 
L 97.326642 104.710167 
L 101.249313 100.263284 
L 103.409387 95.726833 
L 101.249313 89.546797 
L 100.331117 86.7435 
L 93.437313 81.623147 
L 85.824871 77.760167 
L 85.625313 77.664615 
L 77.813313 74.441655 
L 70.001313 75.523328 
L 68.480158 77.760167 
L 69.264364 86.7435 
L 70.001313 88.755479 
L 73.625479 95.726833 
L 74.821114 104.710167 
z
M 76.433257 104.710167 
L 74.75376 95.726833 
L 70.084728 86.7435 
L 70.001313 85.857026 
L 69.392979 77.760167 
L 70.001313 76.86562 
L 77.813313 75.344036 
L 83.669174 77.760167 
L 85.625313 78.757489 
L 93.437313 82.582261 
L 99.039811 86.7435 
L 101.249313 93.489217 
L 102.031415 95.726833 
L 101.249313 97.369354 
L 94.773858 104.710167 
L 93.437313 105.386742 
L 85.625313 108.103108 
L 77.813313 108.118234 
z
" clip-path="url(#pb20dc82a4b)" style="fill: #e7490c"/>
   </g>
   <g id="PathCollection_18">
    <path d="M 77.813313 108.118234 
L 85.625313 108.103108 
L 93.437313 105.386742 
L 94.773858 104.710167 
L 101.249313 97.369354 
L 102.031415 95.726833 
L 101.249313 93.489217 
L 99.039811 86.7435 
L 93.437313 82.582261 
L 85.625313 78.757489 
L 83.669174 77.760167 
L 77.813313 75.344036 
L 70.001313 76.86562 
L 69.392979 77.760167 
L 70.001313 85.857026 
L 70.084728 86.7435 
L 74.75376 95.726833 
L 76.433257 104.710167 
z
M 78.949569 104.710167 
L 77.813313 104.013237 
L 75.882042 95.726833 
L 71.227974 86.7435 
L 71.297053 77.760167 
L 77.813313 76.246417 
L 81.482117 77.760167 
L 85.625313 79.872542 
L 93.437313 83.541374 
L 97.748506 86.7435 
L 100.428946 95.726833 
L 93.437313 103.681774 
L 90.622461 104.710167 
L 85.625313 106.26492 
z
" clip-path="url(#pb20dc82a4b)" style="fill: #d02f05"/>
   </g>
   <g id="PathCollection_19">
    <path d="M 85.625313 106.26492 
L 90.622461 104.710167 
L 93.437313 103.681774 
L 100.428946 95.726833 
L 97.748506 86.7435 
L 93.437313 83.541374 
L 85.625313 79.872542 
L 81.482117 77.760167 
L 77.813313 76.246417 
L 71.297053 77.760167 
L 71.227974 86.7435 
L 75.882042 95.726833 
L 77.813313 104.013237 
L 78.949569 104.710167 
z
M 77.010323 95.726833 
L 72.37122 86.7435 
L 75.181542 77.760167 
L 77.813313 77.148797 
L 79.29506 77.760167 
L 85.625313 80.987596 
L 93.437313 84.500487 
L 96.4572 86.7435 
L 98.53182 95.726833 
L 93.437313 101.523261 
L 85.625313 104.29298 
L 77.813313 99.172178 
z
" clip-path="url(#pb20dc82a4b)" style="fill: #b41b01"/>
   </g>
   <g id="PathCollection_20">
    <path d="M 77.813313 99.172178 
L 85.625313 104.29298 
L 93.437313 101.523261 
L 98.53182 95.726833 
L 96.4572 86.7435 
L 93.437313 84.500487 
L 85.625313 80.987596 
L 79.29506 77.760167 
L 77.813313 77.148797 
L 75.181542 77.760167 
L 72.37122 86.7435 
L 77.010323 95.726833 
z
M 78.730969 95.726833 
L 77.813313 95.087102 
L 73.514466 86.7435 
L 77.813313 78.46976 
L 85.625313 82.10265 
L 93.437313 85.459601 
L 95.165895 86.7435 
L 96.634694 95.726833 
L 93.437313 99.364749 
L 85.625313 101.587358 
z
" clip-path="url(#pb20dc82a4b)" style="fill: #8e0a01"/>
   </g>
   <g id="PathCollection_21">
    <path d="M 85.625313 101.587358 
L 93.437313 99.364749 
L 96.634694 95.726833 
L 95.165895 86.7435 
L 93.437313 85.459601 
L 85.625313 82.10265 
L 77.813313 78.46976 
L 73.514466 86.7435 
L 77.813313 95.087102 
L 78.730969 95.726833 
z
" clip-path="url(#pb20dc82a4b)" style="fill: #7a0403"/>
   </g>
   <g id="matplotlib.axis_1">
    <g id="xtick_1">
     <g id="line2d_1">
      <defs>
       <path id="m1ceff454d5" d="M 0 0 
L 0 -5 
" style="stroke: #000000"/>
      </defs>
      <g>
       <use xlink:href="#m1ceff454d5" x="38.195312" y="173.3685" style="stroke: #000000"/>
      </g>
     </g>
     <g id="text_1">
      <!-- 0.3 -->
      <g transform="translate(30.550313 184.742094) scale(0.11 -0.11)">
       <defs>
        <path id="ArialMT-30" d="M 266 2259 
Q 266 3072 433 3567 
Q 600 4063 929 4331 
Q 1259 4600 1759 4600 
Q 2128 4600 2406 4451 
Q 2684 4303 2865 4023 
Q 3047 3744 3150 3342 
Q 3253 2941 3253 2259 
Q 3253 1453 3087 958 
Q 2922 463 2592 192 
Q 2263 -78 1759 -78 
Q 1097 -78 719 397 
Q 266 969 266 2259 
z
M 844 2259 
Q 844 1131 1108 757 
Q 1372 384 1759 384 
Q 2147 384 2411 759 
Q 2675 1134 2675 2259 
Q 2675 3391 2411 3762 
Q 2147 4134 1753 4134 
Q 1366 4134 1134 3806 
Q 844 3388 844 2259 
z
" transform="scale(0.015625)"/>
        <path id="ArialMT-2e" d="M 581 0 
L 581 641 
L 1222 641 
L 1222 0 
L 581 0 
z
" transform="scale(0.015625)"/>
        <path id="ArialMT-33" d="M 269 1209 
L 831 1284 
Q 928 806 1161 595 
Q 1394 384 1728 384 
Q 2125 384 2398 659 
Q 2672 934 2672 1341 
Q 2672 1728 2419 1979 
Q 2166 2231 1775 2231 
Q 1616 2231 1378 2169 
L 1441 2663 
Q 1497 2656 1531 2656 
Q 1891 2656 2178 2843 
Q 2466 3031 2466 3422 
Q 2466 3731 2256 3934 
Q 2047 4138 1716 4138 
Q 1388 4138 1169 3931 
Q 950 3725 888 3313 
L 325 3413 
Q 428 3978 793 4289 
Q 1159 4600 1703 4600 
Q 2078 4600 2393 4439 
Q 2709 4278 2876 4000 
Q 3044 3722 3044 3409 
Q 3044 3113 2884 2869 
Q 2725 2625 2413 2481 
Q 2819 2388 3044 2092 
Q 3269 1797 3269 1353 
Q 3269 753 2831 336 
Q 2394 -81 1725 -81 
Q 1122 -81 723 278 
Q 325 638 269 1209 
z
" transform="scale(0.015625)"/>
       </defs>
       <use xlink:href="#ArialMT-30"/>
       <use xlink:href="#ArialMT-2e" x="55.615234"/>
       <use xlink:href="#ArialMT-33" x="83.398438"/>
      </g>
     </g>
    </g>
    <g id="xtick_2">
     <g id="line2d_2">
      <g>
       <use xlink:href="#m1ceff454d5" x="71.675313" y="173.3685" style="stroke: #000000"/>
      </g>
     </g>
     <g id="text_2">
      <!-- 0.6 -->
      <g transform="translate(64.030313 184.742094) scale(0.11 -0.11)">
       <defs>
        <path id="ArialMT-36" d="M 3184 3459 
L 2625 3416 
Q 2550 3747 2413 3897 
Q 2184 4138 1850 4138 
Q 1581 4138 1378 3988 
Q 1113 3794 959 3422 
Q 806 3050 800 2363 
Q 1003 2672 1297 2822 
Q 1591 2972 1913 2972 
Q 2475 2972 2870 2558 
Q 3266 2144 3266 1488 
Q 3266 1056 3080 686 
Q 2894 316 2569 119 
Q 2244 -78 1831 -78 
Q 1128 -78 684 439 
Q 241 956 241 2144 
Q 241 3472 731 4075 
Q 1159 4600 1884 4600 
Q 2425 4600 2770 4297 
Q 3116 3994 3184 3459 
z
M 888 1484 
Q 888 1194 1011 928 
Q 1134 663 1356 523 
Q 1578 384 1822 384 
Q 2178 384 2434 671 
Q 2691 959 2691 1453 
Q 2691 1928 2437 2201 
Q 2184 2475 1800 2475 
Q 1419 2475 1153 2201 
Q 888 1928 888 1484 
z
" transform="scale(0.015625)"/>
       </defs>
       <use xlink:href="#ArialMT-30"/>
       <use xlink:href="#ArialMT-2e" x="55.615234"/>
       <use xlink:href="#ArialMT-36" x="83.398438"/>
      </g>
     </g>
    </g>
    <g id="xtick_3">
     <g id="line2d_3">
      <g>
       <use xlink:href="#m1ceff454d5" x="105.155313" y="173.3685" style="stroke: #000000"/>
      </g>
     </g>
     <g id="text_3">
      <!-- 0.9 -->
      <g transform="translate(97.510313 184.742094) scale(0.11 -0.11)">
       <defs>
        <path id="ArialMT-39" d="M 350 1059 
L 891 1109 
Q 959 728 1153 556 
Q 1347 384 1650 384 
Q 1909 384 2104 503 
Q 2300 622 2425 820 
Q 2550 1019 2634 1356 
Q 2719 1694 2719 2044 
Q 2719 2081 2716 2156 
Q 2547 1888 2255 1720 
Q 1963 1553 1622 1553 
Q 1053 1553 659 1965 
Q 266 2378 266 3053 
Q 266 3750 677 4175 
Q 1088 4600 1706 4600 
Q 2153 4600 2523 4359 
Q 2894 4119 3086 3673 
Q 3278 3228 3278 2384 
Q 3278 1506 3087 986 
Q 2897 466 2520 194 
Q 2144 -78 1638 -78 
Q 1100 -78 759 220 
Q 419 519 350 1059 
z
M 2653 3081 
Q 2653 3566 2395 3850 
Q 2138 4134 1775 4134 
Q 1400 4134 1122 3828 
Q 844 3522 844 3034 
Q 844 2597 1108 2323 
Q 1372 2050 1759 2050 
Q 2150 2050 2401 2323 
Q 2653 2597 2653 3081 
z
" transform="scale(0.015625)"/>
       </defs>
       <use xlink:href="#ArialMT-30"/>
       <use xlink:href="#ArialMT-2e" x="55.615234"/>
       <use xlink:href="#ArialMT-39" x="83.398438"/>
      </g>
     </g>
    </g>
    <g id="xtick_4">
     <g id="line2d_4">
      <g>
       <use xlink:href="#m1ceff454d5" x="138.635312" y="173.3685" style="stroke: #000000"/>
      </g>
     </g>
     <g id="text_4">
      <!-- 1.2 -->
      <g transform="translate(130.990312 184.742094) scale(0.11 -0.11)">
       <defs>
        <path id="ArialMT-31" d="M 2384 0 
L 1822 0 
L 1822 3584 
Q 1619 3391 1289 3197 
Q 959 3003 697 2906 
L 697 3450 
Q 1169 3672 1522 3987 
Q 1875 4303 2022 4600 
L 2384 4600 
L 2384 0 
z
" transform="scale(0.015625)"/>
        <path id="ArialMT-32" d="M 3222 541 
L 3222 0 
L 194 0 
Q 188 203 259 391 
Q 375 700 629 1000 
Q 884 1300 1366 1694 
Q 2113 2306 2375 2664 
Q 2638 3022 2638 3341 
Q 2638 3675 2398 3904 
Q 2159 4134 1775 4134 
Q 1369 4134 1125 3890 
Q 881 3647 878 3216 
L 300 3275 
Q 359 3922 746 4261 
Q 1134 4600 1788 4600 
Q 2447 4600 2831 4234 
Q 3216 3869 3216 3328 
Q 3216 3053 3103 2787 
Q 2991 2522 2730 2228 
Q 2469 1934 1863 1422 
Q 1356 997 1212 845 
Q 1069 694 975 541 
L 3222 541 
z
" transform="scale(0.015625)"/>
       </defs>
       <use xlink:href="#ArialMT-31"/>
       <use xlink:href="#ArialMT-2e" x="55.615234"/>
       <use xlink:href="#ArialMT-32" x="83.398438"/>
      </g>
     </g>
    </g>
    <g id="xtick_5">
     <g id="line2d_5">
      <g>
       <use xlink:href="#m1ceff454d5" x="172.115313" y="173.3685" style="stroke: #000000"/>
      </g>
     </g>
     <g id="text_5">
      <!-- 1.5 -->
      <g transform="translate(164.470313 184.742094) scale(0.11 -0.11)">
       <defs>
        <path id="ArialMT-35" d="M 266 1200 
L 856 1250 
Q 922 819 1161 601 
Q 1400 384 1738 384 
Q 2144 384 2425 690 
Q 2706 997 2706 1503 
Q 2706 1984 2436 2262 
Q 2166 2541 1728 2541 
Q 1456 2541 1237 2417 
Q 1019 2294 894 2097 
L 366 2166 
L 809 4519 
L 3088 4519 
L 3088 3981 
L 1259 3981 
L 1013 2750 
Q 1425 3038 1878 3038 
Q 2478 3038 2890 2622 
Q 3303 2206 3303 1553 
Q 3303 931 2941 478 
Q 2500 -78 1738 -78 
Q 1113 -78 717 272 
Q 322 622 266 1200 
z
" transform="scale(0.015625)"/>
       </defs>
       <use xlink:href="#ArialMT-31"/>
       <use xlink:href="#ArialMT-2e" x="55.615234"/>
       <use xlink:href="#ArialMT-35" x="83.398438"/>
      </g>
     </g>
    </g>
    <g id="text_6">
     <!-- Burst power (a.u.) -->
     <g transform="translate(57.475 199.663969) scale(0.12 -0.12)">
      <defs>
       <path id="ArialMT-42" d="M 469 0 
L 469 4581 
L 2188 4581 
Q 2713 4581 3030 4442 
Q 3347 4303 3526 4014 
Q 3706 3725 3706 3409 
Q 3706 3116 3547 2856 
Q 3388 2597 3066 2438 
Q 3481 2316 3704 2022 
Q 3928 1728 3928 1328 
Q 3928 1006 3792 729 
Q 3656 453 3456 303 
Q 3256 153 2954 76 
Q 2653 0 2216 0 
L 469 0 
z
M 1075 2656 
L 2066 2656 
Q 2469 2656 2644 2709 
Q 2875 2778 2992 2937 
Q 3109 3097 3109 3338 
Q 3109 3566 3000 3739 
Q 2891 3913 2687 3977 
Q 2484 4041 1991 4041 
L 1075 4041 
L 1075 2656 
z
M 1075 541 
L 2216 541 
Q 2509 541 2628 563 
Q 2838 600 2978 687 
Q 3119 775 3209 942 
Q 3300 1109 3300 1328 
Q 3300 1584 3169 1773 
Q 3038 1963 2805 2039 
Q 2572 2116 2134 2116 
L 1075 2116 
L 1075 541 
z
" transform="scale(0.015625)"/>
       <path id="ArialMT-75" d="M 2597 0 
L 2597 488 
Q 2209 -75 1544 -75 
Q 1250 -75 995 37 
Q 741 150 617 320 
Q 494 491 444 738 
Q 409 903 409 1263 
L 409 3319 
L 972 3319 
L 972 1478 
Q 972 1038 1006 884 
Q 1059 663 1231 536 
Q 1403 409 1656 409 
Q 1909 409 2131 539 
Q 2353 669 2445 892 
Q 2538 1116 2538 1541 
L 2538 3319 
L 3100 3319 
L 3100 0 
L 2597 0 
z
" transform="scale(0.015625)"/>
       <path id="ArialMT-72" d="M 416 0 
L 416 3319 
L 922 3319 
L 922 2816 
Q 1116 3169 1280 3281 
Q 1444 3394 1641 3394 
Q 1925 3394 2219 3213 
L 2025 2691 
Q 1819 2813 1613 2813 
Q 1428 2813 1281 2702 
Q 1134 2591 1072 2394 
Q 978 2094 978 1738 
L 978 0 
L 416 0 
z
" transform="scale(0.015625)"/>
       <path id="ArialMT-73" d="M 197 991 
L 753 1078 
Q 800 744 1014 566 
Q 1228 388 1613 388 
Q 2000 388 2187 545 
Q 2375 703 2375 916 
Q 2375 1106 2209 1216 
Q 2094 1291 1634 1406 
Q 1016 1563 777 1677 
Q 538 1791 414 1992 
Q 291 2194 291 2438 
Q 291 2659 392 2848 
Q 494 3038 669 3163 
Q 800 3259 1026 3326 
Q 1253 3394 1513 3394 
Q 1903 3394 2198 3281 
Q 2494 3169 2634 2976 
Q 2775 2784 2828 2463 
L 2278 2388 
Q 2241 2644 2061 2787 
Q 1881 2931 1553 2931 
Q 1166 2931 1000 2803 
Q 834 2675 834 2503 
Q 834 2394 903 2306 
Q 972 2216 1119 2156 
Q 1203 2125 1616 2013 
Q 2213 1853 2448 1751 
Q 2684 1650 2818 1456 
Q 2953 1263 2953 975 
Q 2953 694 2789 445 
Q 2625 197 2315 61 
Q 2006 -75 1616 -75 
Q 969 -75 630 194 
Q 291 463 197 991 
z
" transform="scale(0.015625)"/>
       <path id="ArialMT-74" d="M 1650 503 
L 1731 6 
Q 1494 -44 1306 -44 
Q 1000 -44 831 53 
Q 663 150 594 308 
Q 525 466 525 972 
L 525 2881 
L 113 2881 
L 113 3319 
L 525 3319 
L 525 4141 
L 1084 4478 
L 1084 3319 
L 1650 3319 
L 1650 2881 
L 1084 2881 
L 1084 941 
Q 1084 700 1114 631 
Q 1144 563 1211 522 
Q 1278 481 1403 481 
Q 1497 481 1650 503 
z
" transform="scale(0.015625)"/>
       <path id="ArialMT-20" transform="scale(0.015625)"/>
       <path id="ArialMT-70" d="M 422 -1272 
L 422 3319 
L 934 3319 
L 934 2888 
Q 1116 3141 1344 3267 
Q 1572 3394 1897 3394 
Q 2322 3394 2647 3175 
Q 2972 2956 3137 2557 
Q 3303 2159 3303 1684 
Q 3303 1175 3120 767 
Q 2938 359 2589 142 
Q 2241 -75 1856 -75 
Q 1575 -75 1351 44 
Q 1128 163 984 344 
L 984 -1272 
L 422 -1272 
z
M 931 1641 
Q 931 1000 1190 694 
Q 1450 388 1819 388 
Q 2194 388 2461 705 
Q 2728 1022 2728 1688 
Q 2728 2322 2467 2637 
Q 2206 2953 1844 2953 
Q 1484 2953 1207 2617 
Q 931 2281 931 1641 
z
" transform="scale(0.015625)"/>
       <path id="ArialMT-6f" d="M 213 1659 
Q 213 2581 725 3025 
Q 1153 3394 1769 3394 
Q 2453 3394 2887 2945 
Q 3322 2497 3322 1706 
Q 3322 1066 3130 698 
Q 2938 331 2570 128 
Q 2203 -75 1769 -75 
Q 1072 -75 642 372 
Q 213 819 213 1659 
z
M 791 1659 
Q 791 1022 1069 705 
Q 1347 388 1769 388 
Q 2188 388 2466 706 
Q 2744 1025 2744 1678 
Q 2744 2294 2464 2611 
Q 2184 2928 1769 2928 
Q 1347 2928 1069 2612 
Q 791 2297 791 1659 
z
" transform="scale(0.015625)"/>
       <path id="ArialMT-77" d="M 1034 0 
L 19 3319 
L 600 3319 
L 1128 1403 
L 1325 691 
Q 1338 744 1497 1375 
L 2025 3319 
L 2603 3319 
L 3100 1394 
L 3266 759 
L 3456 1400 
L 4025 3319 
L 4572 3319 
L 3534 0 
L 2950 0 
L 2422 1988 
L 2294 2553 
L 1622 0 
L 1034 0 
z
" transform="scale(0.015625)"/>
       <path id="ArialMT-65" d="M 2694 1069 
L 3275 997 
Q 3138 488 2766 206 
Q 2394 -75 1816 -75 
Q 1088 -75 661 373 
Q 234 822 234 1631 
Q 234 2469 665 2931 
Q 1097 3394 1784 3394 
Q 2450 3394 2872 2941 
Q 3294 2488 3294 1666 
Q 3294 1616 3291 1516 
L 816 1516 
Q 847 969 1125 678 
Q 1403 388 1819 388 
Q 2128 388 2347 550 
Q 2566 713 2694 1069 
z
M 847 1978 
L 2700 1978 
Q 2663 2397 2488 2606 
Q 2219 2931 1791 2931 
Q 1403 2931 1139 2672 
Q 875 2413 847 1978 
z
" transform="scale(0.015625)"/>
       <path id="ArialMT-28" d="M 1497 -1347 
Q 1031 -759 709 28 
Q 388 816 388 1659 
Q 388 2403 628 3084 
Q 909 3875 1497 4659 
L 1900 4659 
Q 1522 4009 1400 3731 
Q 1209 3300 1100 2831 
Q 966 2247 966 1656 
Q 966 153 1900 -1347 
L 1497 -1347 
z
" transform="scale(0.015625)"/>
       <path id="ArialMT-61" d="M 2588 409 
Q 2275 144 1986 34 
Q 1697 -75 1366 -75 
Q 819 -75 525 192 
Q 231 459 231 875 
Q 231 1119 342 1320 
Q 453 1522 633 1644 
Q 813 1766 1038 1828 
Q 1203 1872 1538 1913 
Q 2219 1994 2541 2106 
Q 2544 2222 2544 2253 
Q 2544 2597 2384 2738 
Q 2169 2928 1744 2928 
Q 1347 2928 1158 2789 
Q 969 2650 878 2297 
L 328 2372 
Q 403 2725 575 2942 
Q 747 3159 1072 3276 
Q 1397 3394 1825 3394 
Q 2250 3394 2515 3294 
Q 2781 3194 2906 3042 
Q 3031 2891 3081 2659 
Q 3109 2516 3109 2141 
L 3109 1391 
Q 3109 606 3145 398 
Q 3181 191 3288 0 
L 2700 0 
Q 2613 175 2588 409 
z
M 2541 1666 
Q 2234 1541 1622 1453 
Q 1275 1403 1131 1340 
Q 988 1278 909 1158 
Q 831 1038 831 891 
Q 831 666 1001 516 
Q 1172 366 1500 366 
Q 1825 366 2078 508 
Q 2331 650 2450 897 
Q 2541 1088 2541 1459 
L 2541 1666 
z
" transform="scale(0.015625)"/>
       <path id="ArialMT-29" d="M 791 -1347 
L 388 -1347 
Q 1322 153 1322 1656 
Q 1322 2244 1188 2822 
Q 1081 3291 891 3722 
Q 769 4003 388 4659 
L 791 4659 
Q 1378 3875 1659 3084 
Q 1900 2403 1900 1659 
Q 1900 816 1576 28 
Q 1253 -759 791 -1347 
z
" transform="scale(0.015625)"/>
      </defs>
      <use xlink:href="#ArialMT-42"/>
      <use xlink:href="#ArialMT-75" x="66.699219"/>
      <use xlink:href="#ArialMT-72" x="122.314453"/>
      <use xlink:href="#ArialMT-73" x="155.615234"/>
      <use xlink:href="#ArialMT-74" x="205.615234"/>
      <use xlink:href="#ArialMT-20" x="233.398438"/>
      <use xlink:href="#ArialMT-70" x="261.181641"/>
      <use xlink:href="#ArialMT-6f" x="316.796875"/>
      <use xlink:href="#ArialMT-77" x="372.412109"/>
      <use xlink:href="#ArialMT-65" x="444.628906"/>
      <use xlink:href="#ArialMT-72" x="500.244141"/>
      <use xlink:href="#ArialMT-20" x="533.544922"/>
      <use xlink:href="#ArialMT-28" x="561.328125"/>
      <use xlink:href="#ArialMT-61" x="594.628906"/>
      <use xlink:href="#ArialMT-2e" x="650.244141"/>
      <use xlink:href="#ArialMT-75" x="678.027344"/>
      <use xlink:href="#ArialMT-2e" x="733.642578"/>
      <use xlink:href="#ArialMT-29" x="761.425781"/>
     </g>
    </g>
   </g>
   <g id="matplotlib.axis_2">
    <g id="ytick_1">
     <g id="line2d_6">
      <defs>
       <path id="m2ec5a35ed6" d="M 0 0 
L 5 0 
" style="stroke: #000000"/>
      </defs>
      <g>
       <use xlink:href="#m2ec5a35ed6" x="38.195312" y="168.235167" style="stroke: #000000"/>
      </g>
     </g>
     <g id="text_7">
      <!-- 40 -->
      <g transform="translate(22.46125 172.171964) scale(0.11 -0.11)">
       <defs>
        <path id="ArialMT-34" d="M 2069 0 
L 2069 1097 
L 81 1097 
L 81 1613 
L 2172 4581 
L 2631 4581 
L 2631 1613 
L 3250 1613 
L 3250 1097 
L 2631 1097 
L 2631 0 
L 2069 0 
z
M 2069 1613 
L 2069 3678 
L 634 1613 
L 2069 1613 
z
" transform="scale(0.015625)"/>
       </defs>
       <use xlink:href="#ArialMT-34"/>
       <use xlink:href="#ArialMT-30" x="55.615234"/>
      </g>
     </g>
    </g>
    <g id="ytick_2">
     <g id="line2d_7">
      <g>
       <use xlink:href="#m2ec5a35ed6" x="38.195312" y="142.5685" style="stroke: #000000"/>
      </g>
     </g>
     <g id="text_8">
      <!-- 50 -->
      <g transform="translate(22.46125 146.505297) scale(0.11 -0.11)">
       <use xlink:href="#ArialMT-35"/>
       <use xlink:href="#ArialMT-30" x="55.615234"/>
      </g>
     </g>
    </g>
    <g id="ytick_3">
     <g id="line2d_8">
      <g>
       <use xlink:href="#m2ec5a35ed6" x="38.195312" y="116.901833" style="stroke: #000000"/>
      </g>
     </g>
     <g id="text_9">
      <!-- 60 -->
      <g transform="translate(22.46125 120.83863) scale(0.11 -0.11)">
       <use xlink:href="#ArialMT-36"/>
       <use xlink:href="#ArialMT-30" x="55.615234"/>
      </g>
     </g>
    </g>
    <g id="ytick_4">
     <g id="line2d_9">
      <g>
       <use xlink:href="#m2ec5a35ed6" x="38.195312" y="91.235167" style="stroke: #000000"/>
      </g>
     </g>
     <g id="text_10">
      <!-- 70 -->
      <g transform="translate(22.46125 95.171964) scale(0.11 -0.11)">
       <defs>
        <path id="ArialMT-37" d="M 303 3981 
L 303 4522 
L 3269 4522 
L 3269 4084 
Q 2831 3619 2401 2847 
Q 1972 2075 1738 1259 
Q 1569 684 1522 0 
L 944 0 
Q 953 541 1156 1306 
Q 1359 2072 1739 2783 
Q 2119 3494 2547 3981 
L 303 3981 
z
" transform="scale(0.015625)"/>
       </defs>
       <use xlink:href="#ArialMT-37"/>
       <use xlink:href="#ArialMT-30" x="55.615234"/>
      </g>
     </g>
    </g>
    <g id="ytick_5">
     <g id="line2d_10">
      <g>
       <use xlink:href="#m2ec5a35ed6" x="38.195312" y="65.5685" style="stroke: #000000"/>
      </g>
     </g>
     <g id="text_11">
      <!-- 80 -->
      <g transform="translate(22.46125 69.505297) scale(0.11 -0.11)">
       <defs>
        <path id="ArialMT-38" d="M 1131 2484 
Q 781 2613 612 2850 
Q 444 3088 444 3419 
Q 444 3919 803 4259 
Q 1163 4600 1759 4600 
Q 2359 4600 2725 4251 
Q 3091 3903 3091 3403 
Q 3091 3084 2923 2848 
Q 2756 2613 2416 2484 
Q 2838 2347 3058 2040 
Q 3278 1734 3278 1309 
Q 3278 722 2862 322 
Q 2447 -78 1769 -78 
Q 1091 -78 675 323 
Q 259 725 259 1325 
Q 259 1772 486 2073 
Q 713 2375 1131 2484 
z
M 1019 3438 
Q 1019 3113 1228 2906 
Q 1438 2700 1772 2700 
Q 2097 2700 2305 2904 
Q 2513 3109 2513 3406 
Q 2513 3716 2298 3927 
Q 2084 4138 1766 4138 
Q 1444 4138 1231 3931 
Q 1019 3725 1019 3438 
z
M 838 1322 
Q 838 1081 952 856 
Q 1066 631 1291 507 
Q 1516 384 1775 384 
Q 2178 384 2440 643 
Q 2703 903 2703 1303 
Q 2703 1709 2433 1975 
Q 2163 2241 1756 2241 
Q 1359 2241 1098 1978 
Q 838 1716 838 1322 
z
" transform="scale(0.015625)"/>
       </defs>
       <use xlink:href="#ArialMT-38"/>
       <use xlink:href="#ArialMT-30" x="55.615234"/>
      </g>
     </g>
    </g>
    <g id="ytick_6">
     <g id="line2d_11">
      <g>
       <use xlink:href="#m2ec5a35ed6" x="38.195312" y="39.901833" style="stroke: #000000"/>
      </g>
     </g>
     <g id="text_12">
      <!-- 90 -->
      <g transform="translate(22.46125 43.83863) scale(0.11 -0.11)">
       <use xlink:href="#ArialMT-39"/>
       <use xlink:href="#ArialMT-30" x="55.615234"/>
      </g>
     </g>
    </g>
    <g id="text_13">
     <!-- Frequency (Hz) -->
     <g transform="translate(15.935625 145.409438) rotate(-90) scale(0.12 -0.12)">
      <defs>
       <path id="ArialMT-46" d="M 525 0 
L 525 4581 
L 3616 4581 
L 3616 4041 
L 1131 4041 
L 1131 2622 
L 3281 2622 
L 3281 2081 
L 1131 2081 
L 1131 0 
L 525 0 
z
" transform="scale(0.015625)"/>
       <path id="ArialMT-71" d="M 2538 -1272 
L 2538 353 
Q 2406 169 2170 47 
Q 1934 -75 1669 -75 
Q 1078 -75 651 397 
Q 225 869 225 1691 
Q 225 2191 398 2587 
Q 572 2984 901 3189 
Q 1231 3394 1625 3394 
Q 2241 3394 2594 2875 
L 2594 3319 
L 3100 3319 
L 3100 -1272 
L 2538 -1272 
z
M 803 1669 
Q 803 1028 1072 708 
Q 1341 388 1716 388 
Q 2075 388 2334 692 
Q 2594 997 2594 1619 
Q 2594 2281 2320 2615 
Q 2047 2950 1678 2950 
Q 1313 2950 1058 2639 
Q 803 2328 803 1669 
z
" transform="scale(0.015625)"/>
       <path id="ArialMT-6e" d="M 422 0 
L 422 3319 
L 928 3319 
L 928 2847 
Q 1294 3394 1984 3394 
Q 2284 3394 2536 3286 
Q 2788 3178 2913 3003 
Q 3038 2828 3088 2588 
Q 3119 2431 3119 2041 
L 3119 0 
L 2556 0 
L 2556 2019 
Q 2556 2363 2490 2533 
Q 2425 2703 2258 2804 
Q 2091 2906 1866 2906 
Q 1506 2906 1245 2678 
Q 984 2450 984 1813 
L 984 0 
L 422 0 
z
" transform="scale(0.015625)"/>
       <path id="ArialMT-63" d="M 2588 1216 
L 3141 1144 
Q 3050 572 2676 248 
Q 2303 -75 1759 -75 
Q 1078 -75 664 370 
Q 250 816 250 1647 
Q 250 2184 428 2587 
Q 606 2991 970 3192 
Q 1334 3394 1763 3394 
Q 2303 3394 2647 3120 
Q 2991 2847 3088 2344 
L 2541 2259 
Q 2463 2594 2264 2762 
Q 2066 2931 1784 2931 
Q 1359 2931 1093 2626 
Q 828 2322 828 1663 
Q 828 994 1084 691 
Q 1341 388 1753 388 
Q 2084 388 2306 591 
Q 2528 794 2588 1216 
z
" transform="scale(0.015625)"/>
       <path id="ArialMT-79" d="M 397 -1278 
L 334 -750 
Q 519 -800 656 -800 
Q 844 -800 956 -737 
Q 1069 -675 1141 -563 
Q 1194 -478 1313 -144 
Q 1328 -97 1363 -6 
L 103 3319 
L 709 3319 
L 1400 1397 
Q 1534 1031 1641 628 
Q 1738 1016 1872 1384 
L 2581 3319 
L 3144 3319 
L 1881 -56 
Q 1678 -603 1566 -809 
Q 1416 -1088 1222 -1217 
Q 1028 -1347 759 -1347 
Q 597 -1347 397 -1278 
z
" transform="scale(0.015625)"/>
       <path id="ArialMT-48" d="M 513 0 
L 513 4581 
L 1119 4581 
L 1119 2700 
L 3500 2700 
L 3500 4581 
L 4106 4581 
L 4106 0 
L 3500 0 
L 3500 2159 
L 1119 2159 
L 1119 0 
L 513 0 
z
" transform="scale(0.015625)"/>
       <path id="ArialMT-7a" d="M 125 0 
L 125 456 
L 2238 2881 
Q 1878 2863 1603 2863 
L 250 2863 
L 250 3319 
L 2963 3319 
L 2963 2947 
L 1166 841 
L 819 456 
Q 1197 484 1528 484 
L 3063 484 
L 3063 0 
L 125 0 
z
" transform="scale(0.015625)"/>
      </defs>
      <use xlink:href="#ArialMT-46"/>
      <use xlink:href="#ArialMT-72" x="61.083984"/>
      <use xlink:href="#ArialMT-65" x="94.384766"/>
      <use xlink:href="#ArialMT-71" x="150"/>
      <use xlink:href="#ArialMT-75" x="205.615234"/>
      <use xlink:href="#ArialMT-65" x="261.230469"/>
      <use xlink:href="#ArialMT-6e" x="316.845703"/>
      <use xlink:href="#ArialMT-63" x="372.460938"/>
      <use xlink:href="#ArialMT-79" x="422.460938"/>
      <use xlink:href="#ArialMT-20" x="472.460938"/>
      <use xlink:href="#ArialMT-28" x="500.244141"/>
      <use xlink:href="#ArialMT-48" x="533.544922"/>
      <use xlink:href="#ArialMT-7a" x="605.761719"/>
      <use xlink:href="#ArialMT-29" x="655.761719"/>
     </g>
    </g>
   </g>
   <g id="patch_3">
    <path d="M 38.195312 173.3685 
L 38.195312 34.7685 
" style="fill: none; stroke: #000000; stroke-width: 0.8; stroke-linejoin: miter; stroke-linecap: square"/>
   </g>
   <g id="patch_4">
    <path d="M 38.195312 173.3685 
L 172.115313 173.3685 
" style="fill: none; stroke: #000000; stroke-width: 0.8; stroke-linejoin: miter; stroke-linecap: square"/>
   </g>
   <g id="text_14">
    <!-- Burst feature density -->
    <g transform="translate(50.130625 15.935625) scale(0.12 -0.12)">
     <defs>
      <path id="ArialMT-66" d="M 556 0 
L 556 2881 
L 59 2881 
L 59 3319 
L 556 3319 
L 556 3672 
Q 556 4006 616 4169 
Q 697 4388 901 4523 
Q 1106 4659 1475 4659 
Q 1713 4659 2000 4603 
L 1916 4113 
Q 1741 4144 1584 4144 
Q 1328 4144 1222 4034 
Q 1116 3925 1116 3625 
L 1116 3319 
L 1763 3319 
L 1763 2881 
L 1116 2881 
L 1116 0 
L 556 0 
z
" transform="scale(0.015625)"/>
      <path id="ArialMT-64" d="M 2575 0 
L 2575 419 
Q 2259 -75 1647 -75 
Q 1250 -75 917 144 
Q 584 363 401 755 
Q 219 1147 219 1656 
Q 219 2153 384 2558 
Q 550 2963 881 3178 
Q 1213 3394 1622 3394 
Q 1922 3394 2156 3267 
Q 2391 3141 2538 2938 
L 2538 4581 
L 3097 4581 
L 3097 0 
L 2575 0 
z
M 797 1656 
Q 797 1019 1065 703 
Q 1334 388 1700 388 
Q 2069 388 2326 689 
Q 2584 991 2584 1609 
Q 2584 2291 2321 2609 
Q 2059 2928 1675 2928 
Q 1300 2928 1048 2622 
Q 797 2316 797 1656 
z
" transform="scale(0.015625)"/>
      <path id="ArialMT-69" d="M 425 3934 
L 425 4581 
L 988 4581 
L 988 3934 
L 425 3934 
z
M 425 0 
L 425 3319 
L 988 3319 
L 988 0 
L 425 0 
z
" transform="scale(0.015625)"/>
     </defs>
     <use xlink:href="#ArialMT-42"/>
     <use xlink:href="#ArialMT-75" x="66.699219"/>
     <use xlink:href="#ArialMT-72" x="122.314453"/>
     <use xlink:href="#ArialMT-73" x="155.615234"/>
     <use xlink:href="#ArialMT-74" x="205.615234"/>
     <use xlink:href="#ArialMT-20" x="233.398438"/>
     <use xlink:href="#ArialMT-66" x="261.181641"/>
     <use xlink:href="#ArialMT-65" x="288.964844"/>
     <use xlink:href="#ArialMT-61" x="344.580078"/>
     <use xlink:href="#ArialMT-74" x="400.195312"/>
     <use xlink:href="#ArialMT-75" x="427.978516"/>
     <use xlink:href="#ArialMT-72" x="483.59375"/>
     <use xlink:href="#ArialMT-65" x="516.894531"/>
     <use xlink:href="#ArialMT-20" x="572.509766"/>
     <use xlink:href="#ArialMT-64" x="600.292969"/>
     <use xlink:href="#ArialMT-65" x="655.908203"/>
     <use xlink:href="#ArialMT-6e" x="711.523438"/>
     <use xlink:href="#ArialMT-73" x="767.138672"/>
     <use xlink:href="#ArialMT-69" x="817.138672"/>
     <use xlink:href="#ArialMT-74" x="839.355469"/>
     <use xlink:href="#ArialMT-79" x="867.138672"/>
    </g>
    <!-- in Fast population -->
    <g transform="translate(57.794688 28.7685) scale(0.12 -0.12)">
     <defs>
      <path id="ArialMT-6c" d="M 409 0 
L 409 4581 
L 972 4581 
L 972 0 
L 409 0 
z
" transform="scale(0.015625)"/>
     </defs>
     <use xlink:href="#ArialMT-69"/>
     <use xlink:href="#ArialMT-6e" x="22.216797"/>
     <use xlink:href="#ArialMT-20" x="77.832031"/>
     <use xlink:href="#ArialMT-46" x="105.615234"/>
     <use xlink:href="#ArialMT-61" x="166.699219"/>
     <use xlink:href="#ArialMT-73" x="222.314453"/>
     <use xlink:href="#ArialMT-74" x="272.314453"/>
     <use xlink:href="#ArialMT-20" x="300.097656"/>
     <use xlink:href="#ArialMT-70" x="327.880859"/>
     <use xlink:href="#ArialMT-6f" x="383.496094"/>
     <use xlink:href="#ArialMT-70" x="439.111328"/>
     <use xlink:href="#ArialMT-75" x="494.726562"/>
     <use xlink:href="#ArialMT-6c" x="550.341797"/>
     <use xlink:href="#ArialMT-61" x="572.558594"/>
     <use xlink:href="#ArialMT-74" x="628.173828"/>
     <use xlink:href="#ArialMT-69" x="655.957031"/>
     <use xlink:href="#ArialMT-6f" x="678.173828"/>
     <use xlink:href="#ArialMT-6e" x="733.789062"/>
    </g>
   </g>
  </g>
  <g id="axes_2">
   <g id="patch_5">
    <path d="M 180.485313 173.3685 
L 187.415313 173.3685 
L 187.415313 34.7685 
L 180.485313 34.7685 
z
" style="fill: #ffffff"/>
   </g>
   <g id="QuadMesh_1">
    <path d="M 180.485313 173.3685 
L 187.415313 173.3685 
L 187.415313 166.4385 
L 180.485313 166.4385 
L 180.485313 173.3685 
" clip-path="url(#pbbebf7f5f3)" style="fill: #372466"/>
    <path d="M 180.485313 166.4385 
L 187.415313 166.4385 
L 187.415313 159.5085 
L 180.485313 159.5085 
L 180.485313 166.4385 
" clip-path="url(#pbbebf7f5f3)" style="fill: #4249b1"/>
    <path d="M 180.485313 159.5085 
L 187.415313 159.5085 
L 187.415313 152.5785 
L 180.485313 152.5785 
L 180.485313 159.5085 
" clip-path="url(#pbbebf7f5f3)" style="fill: #466be3"/>
    <path d="M 180.485313 152.5785 
L 187.415313 152.5785 
L 187.415313 145.6485 
L 180.485313 145.6485 
L 180.485313 152.5785 
" clip-path="url(#pbbebf7f5f3)" style="fill: #458afc"/>
    <path d="M 180.485313 145.6485 
L 187.415313 145.6485 
L 187.415313 138.7185 
L 180.485313 138.7185 
L 180.485313 145.6485 
" clip-path="url(#pbbebf7f5f3)" style="fill: #35abf8"/>
    <path d="M 180.485313 138.7185 
L 187.415313 138.7185 
L 187.415313 131.7885 
L 180.485313 131.7885 
L 180.485313 138.7185 
" clip-path="url(#pbbebf7f5f3)" style="fill: #1fc9dd"/>
    <path d="M 180.485313 131.7885 
L 187.415313 131.7885 
L 187.415313 124.8585 
L 180.485313 124.8585 
L 180.485313 131.7885 
" clip-path="url(#pbbebf7f5f3)" style="fill: #19e2bb"/>
    <path d="M 180.485313 124.8585 
L 187.415313 124.8585 
L 187.415313 117.9285 
L 180.485313 117.9285 
L 180.485313 124.8585 
" clip-path="url(#pbbebf7f5f3)" style="fill: #32f298"/>
    <path d="M 180.485313 117.9285 
L 187.415313 117.9285 
L 187.415313 110.9985 
L 180.485313 110.9985 
L 180.485313 117.9285 
" clip-path="url(#pbbebf7f5f3)" style="fill: #5dfc6f"/>
    <path d="M 180.485313 110.9985 
L 187.415313 110.9985 
L 187.415313 104.0685 
L 180.485313 104.0685 
L 180.485313 110.9985 
" clip-path="url(#pbbebf7f5f3)" style="fill: #8fff49"/>
    <path d="M 180.485313 104.0685 
L 187.415313 104.0685 
L 187.415313 97.1385 
L 180.485313 97.1385 
L 180.485313 104.0685 
" clip-path="url(#pbbebf7f5f3)" style="fill: #b4f836"/>
    <path d="M 180.485313 97.1385 
L 187.415313 97.1385 
L 187.415313 90.2085 
L 180.485313 90.2085 
L 180.485313 97.1385 
" clip-path="url(#pbbebf7f5f3)" style="fill: #d4e735"/>
    <path d="M 180.485313 90.2085 
L 187.415313 90.2085 
L 187.415313 83.2785 
L 180.485313 83.2785 
L 180.485313 90.2085 
" clip-path="url(#pbbebf7f5f3)" style="fill: #eecf3a"/>
    <path d="M 180.485313 83.2785 
L 187.415313 83.2785 
L 187.415313 76.3485 
L 180.485313 76.3485 
L 180.485313 83.2785 
" clip-path="url(#pbbebf7f5f3)" style="fill: #fbb637"/>
    <path d="M 180.485313 76.3485 
L 187.415313 76.3485 
L 187.415313 69.4185 
L 180.485313 69.4185 
L 180.485313 76.3485 
" clip-path="url(#pbbebf7f5f3)" style="fill: #fe932a"/>
    <path d="M 180.485313 69.4185 
L 187.415313 69.4185 
L 187.415313 62.4885 
L 180.485313 62.4885 
L 180.485313 69.4185 
" clip-path="url(#pbbebf7f5f3)" style="fill: #f66c19"/>
    <path d="M 180.485313 62.4885 
L 187.415313 62.4885 
L 187.415313 55.5585 
L 180.485313 55.5585 
L 180.485313 62.4885 
" clip-path="url(#pbbebf7f5f3)" style="fill: #e7490c"/>
    <path d="M 180.485313 55.5585 
L 187.415313 55.5585 
L 187.415313 48.6285 
L 180.485313 48.6285 
L 180.485313 55.5585 
" clip-path="url(#pbbebf7f5f3)" style="fill: #d02f05"/>
    <path d="M 180.485313 48.6285 
L 187.415313 48.6285 
L 187.415313 41.6985 
L 180.485313 41.6985 
L 180.485313 48.6285 
" clip-path="url(#pbbebf7f5f3)" style="fill: #b41b01"/>
    <path d="M 180.485313 41.6985 
L 187.415313 41.6985 
L 187.415313 34.7685 
L 180.485313 34.7685 
L 180.485313 41.6985 
" clip-path="url(#pbbebf7f5f3)" style="fill: #8e0a01"/>
    <path d="M 180.485313 34.7685 
L 187.415313 34.7685 
L 187.415313 27.8385 
L 180.485313 27.8385 
L 180.485313 34.7685 
" clip-path="url(#pbbebf7f5f3)" style="fill: #7a0403"/>
   </g>
   <g id="matplotlib.axis_3"/>
   <g id="matplotlib.axis_4">
    <g id="ytick_7">
     <g id="line2d_12">
      <defs>
       <path id="m9a641f5602" d="M 0 0 
L -5 0 
" style="stroke: #000000"/>
      </defs>
      <g>
       <use xlink:href="#m9a641f5602" x="187.415313" y="173.3685" style="stroke: #000000"/>
      </g>
     </g>
     <g id="text_15">
      <!-- 0.00 -->
      <g transform="translate(190.915313 177.305297) scale(0.11 -0.11)">
       <use xlink:href="#ArialMT-30"/>
       <use xlink:href="#ArialMT-2e" x="55.615234"/>
       <use xlink:href="#ArialMT-30" x="83.398438"/>
       <use xlink:href="#ArialMT-30" x="139.013672"/>
      </g>
     </g>
    </g>
    <g id="ytick_8">
     <g id="line2d_13">
      <g>
       <use xlink:href="#m9a641f5602" x="187.415313" y="127.1685" style="stroke: #000000"/>
      </g>
     </g>
     <g id="text_16">
      <!-- 0.01 -->
      <g transform="translate(190.915313 131.105297) scale(0.11 -0.11)">
       <use xlink:href="#ArialMT-30"/>
       <use xlink:href="#ArialMT-2e" x="55.615234"/>
       <use xlink:href="#ArialMT-30" x="83.398438"/>
       <use xlink:href="#ArialMT-31" x="139.013672"/>
      </g>
     </g>
    </g>
    <g id="ytick_9">
     <g id="line2d_14">
      <g>
       <use xlink:href="#m9a641f5602" x="187.415313" y="80.9685" style="stroke: #000000"/>
      </g>
     </g>
     <g id="text_17">
      <!-- 0.02 -->
      <g transform="translate(190.915313 84.905297) scale(0.11 -0.11)">
       <use xlink:href="#ArialMT-30"/>
       <use xlink:href="#ArialMT-2e" x="55.615234"/>
       <use xlink:href="#ArialMT-30" x="83.398438"/>
       <use xlink:href="#ArialMT-32" x="139.013672"/>
      </g>
     </g>
    </g>
    <g id="ytick_10">
     <g id="line2d_15">
      <g>
       <use xlink:href="#m9a641f5602" x="187.415313" y="34.7685" style="stroke: #000000"/>
      </g>
     </g>
     <g id="text_18">
      <!-- 0.03 -->
      <g transform="translate(190.915313 38.705297) scale(0.11 -0.11)">
       <use xlink:href="#ArialMT-30"/>
       <use xlink:href="#ArialMT-2e" x="55.615234"/>
       <use xlink:href="#ArialMT-30" x="83.398438"/>
       <use xlink:href="#ArialMT-33" x="139.013672"/>
      </g>
     </g>
    </g>
   </g>
   <g id="LineCollection_1"/>
   <g id="patch_6">
    <path d="M 180.485313 173.3685 
L 183.950313 173.3685 
L 187.415313 173.3685 
L 187.415313 34.7685 
L 183.950313 34.7685 
L 180.485313 34.7685 
L 180.485313 173.3685 
z
" style="fill: none; stroke: #000000; stroke-width: 0.8; stroke-linejoin: miter; stroke-linecap: square"/>
   </g>
  </g>
 </g>
 <defs>
  <clipPath id="pb20dc82a4b">
   <rect x="38.195312" y="34.7685" width="133.92" height="138.6"/>
  </clipPath>
  <clipPath id="pbbebf7f5f3">
   <rect x="180.485313" y="34.7685" width="6.93" height="138.6"/>
  </clipPath>
 </defs>
</svg>
