<?xml version="1.0" encoding="utf-8" standalone="no"?>
<!DOCTYPE svg PUBLIC "-//W3C//DTD SVG 1.1//EN"
  "http://www.w3.org/Graphics/SVG/1.1/DTD/svg11.dtd">
<svg xmlns:xlink="http://www.w3.org/1999/xlink" width="219.522344pt" height="209.565094pt" viewBox="0 0 219.522344 209.565094" xmlns="http://www.w3.org/2000/svg" version="1.1">
 <metadata>
  <rdf:RDF xmlns:dc="http://purl.org/dc/elements/1.1/" xmlns:cc="http://creativecommons.org/ns#" xmlns:rdf="http://www.w3.org/1999/02/22-rdf-syntax-ns#">
   <cc:Work>
    <dc:type rdf:resource="http://purl.org/dc/dcmitype/StillImage"/>
    <dc:date>2025-04-28T20:18:30.557625</dc:date>
    <dc:format>image/svg+xml</dc:format>
    <dc:creator>
     <cc:Agent>
      <dc:title>Matplotlib v3.7.2, https://matplotlib.org/</dc:title>
     </cc:Agent>
    </dc:creator>
   </cc:Work>
  </rdf:RDF>
 </metadata>
 <defs>
  <style type="text/css">*{stroke-linejoin: round; stroke-linecap: butt}</style>
 </defs>
 <g id="figure_1">
  <g id="patch_1">
   <path d="M 0 209.565094 
L 219.522344 209.565094 
L 219.522344 0 
L 0 0 
z
" style="fill: #ffffff"/>
  </g>
  <g id="axes_1">
   <g id="patch_2">
    <path d="M 38.195312 173.544 
L 172.115313 173.544 
L 172.115313 34.944 
L 38.195312 34.944 
z
" style="fill: #ffffff"/>
   </g>
   <g id="PathCollection_1">
    <path d="M 45.243734 202.9965 
L 52.292155 202.9965 
L 59.340576 202.9965 
L 66.388997 202.9965 
L 73.437418 202.9965 
L 80.485839 202.9965 
L 87.53426 202.9965 
L 94.582681 202.9965 
L 101.631102 202.9965 
L 108.679523 202.9965 
L 115.727944 202.9965 
L 122.776365 202.9965 
L 129.824786 202.9965 
L 136.873207 202.9965 
L 143.921628 202.9965 
L 150.970049 202.9965 
L 158.01847 202.9965 
L 165.066891 202.9965 
L 172.115313 202.9965 
L 172.115313 192.6015 
L 172.115313 182.2065 
L 172.115313 171.8115 
L 172.115313 161.4165 
L 172.115313 151.0215 
L 172.115313 140.6265 
L 172.115313 130.2315 
L 172.115313 119.8365 
L 172.115313 109.4415 
L 172.115313 99.0465 
L 172.115313 88.6515 
L 172.115313 78.2565 
L 172.115313 67.8615 
L 172.115313 57.4665 
L 172.115313 47.0715 
L 172.115313 36.6765 
L 172.115313 26.2815 
L 172.115313 15.8865 
L 172.115313 5.4915 
L 165.066891 5.4915 
L 158.01847 5.4915 
L 150.970049 5.4915 
L 143.921628 5.4915 
L 136.873207 5.4915 
L 129.824786 5.4915 
L 122.776365 5.4915 
L 115.727944 5.4915 
L 108.679523 5.4915 
L 101.631102 5.4915 
L 94.582681 5.4915 
L 87.53426 5.4915 
L 80.485839 5.4915 
L 73.437418 5.4915 
L 66.388997 5.4915 
L 59.340576 5.4915 
L 52.292155 5.4915 
L 45.243734 5.4915 
L 38.195312 5.4915 
L 38.195312 15.8865 
L 38.195312 26.2815 
L 38.195312 36.6765 
L 38.195312 47.0715 
L 38.195312 57.4665 
L 38.195312 67.8615 
L 38.195312 78.2565 
L 38.195312 88.6515 
L 38.195312 99.0465 
L 38.195312 109.4415 
L 38.195312 119.8365 
L 38.195312 130.2315 
L 38.195312 140.6265 
L 38.195312 151.0215 
L 38.195312 161.4165 
L 38.195312 171.8115 
L 38.195312 182.2065 
L 38.195312 192.6015 
L 38.195312 202.9965 
z
M 85.255732 140.6265 
L 80.485839 139.755274 
L 73.437418 137.826549 
L 66.388997 132.562254 
L 64.406552 130.2315 
L 59.340576 125.089677 
L 55.973627 119.8365 
L 52.941964 109.4415 
L 52.429505 99.0465 
L 53.008674 88.6515 
L 54.8014 78.2565 
L 59.340576 69.739611 
L 61.447277 67.8615 
L 66.388997 63.741572 
L 73.437418 63.488887 
L 80.104213 67.8615 
L 80.485839 67.986531 
L 87.53426 71.419022 
L 94.582681 77.073844 
L 95.837506 78.2565 
L 101.631102 80.232478 
L 108.679523 83.744854 
L 114.516744 88.6515 
L 115.727944 89.136452 
L 122.776365 93.942321 
L 127.129861 99.0465 
L 129.824786 101.917867 
L 136.873207 109.429792 
L 136.882452 109.4415 
L 141.583083 119.8365 
L 140.635562 130.2315 
L 136.873207 137.256967 
L 132.712461 140.6265 
L 129.824786 142.438782 
L 122.776365 145.751553 
L 115.727944 147.023485 
L 108.679523 147.329774 
L 101.631102 147.01032 
L 94.582681 145.27685 
L 87.53426 141.967976 
z
" clip-path="url(#p105c66805d)" style="fill: #372466"/>
   </g>
   <g id="PathCollection_2">
    <path d="M 87.53426 141.967976 
L 94.582681 145.27685 
L 101.631102 147.01032 
L 108.679523 147.329774 
L 115.727944 147.023485 
L 122.776365 145.751553 
L 129.824786 142.438782 
L 132.712461 140.6265 
L 136.873207 137.256967 
L 140.635562 130.2315 
L 141.583083 119.8365 
L 136.882452 109.4415 
L 136.873207 109.429792 
L 129.824786 101.917867 
L 127.129861 99.0465 
L 122.776365 93.942321 
L 115.727944 89.136452 
L 114.516744 88.6515 
L 108.679523 83.744854 
L 101.631102 80.232478 
L 95.837506 78.2565 
L 94.582681 77.073844 
L 87.53426 71.419022 
L 80.485839 67.986531 
L 80.104213 67.8615 
L 73.437418 63.488887 
L 66.388997 63.741572 
L 61.447277 67.8615 
L 59.340576 69.739611 
L 54.8014 78.2565 
L 53.008674 88.6515 
L 52.429505 99.0465 
L 52.941964 109.4415 
L 55.973627 119.8365 
L 59.340576 125.089677 
L 64.406552 130.2315 
L 66.388997 132.562254 
L 73.437418 137.826549 
L 80.485839 139.755274 
L 85.255732 140.6265 
z
M 106.646153 140.6265 
L 101.631102 140.5348 
L 94.582681 139.709214 
L 87.53426 138.320877 
L 80.485839 136.453321 
L 73.437418 132.935479 
L 70.481465 130.2315 
L 66.388997 127.884789 
L 60.247237 119.8365 
L 59.340576 117.802454 
L 55.409743 109.4415 
L 54.461516 99.0465 
L 55.821709 88.6515 
L 59.340576 78.999834 
L 59.703989 78.2565 
L 66.388997 70.2635 
L 73.437418 69.652636 
L 80.485839 72.229326 
L 87.53426 77.428067 
L 88.481774 78.2565 
L 94.582681 80.231034 
L 101.631102 84.043061 
L 107.375597 88.6515 
L 108.679523 89.172575 
L 115.727944 92.35796 
L 121.811901 99.0465 
L 122.776365 100.352742 
L 129.824786 108.8321 
L 130.396151 109.4415 
L 135.919077 119.8365 
L 133.885781 130.2315 
L 129.824786 135.076141 
L 122.776365 139.226106 
L 115.727944 140.514239 
L 110.871278 140.6265 
L 108.679523 140.737928 
z
" clip-path="url(#p105c66805d)" style="fill: #4249b1"/>
   </g>
   <g id="PathCollection_3">
    <path d="M 108.679523 140.737928 
L 110.871278 140.6265 
L 115.727944 140.514239 
L 122.776365 139.226106 
L 129.824786 135.076141 
L 133.885781 130.2315 
L 135.919077 119.8365 
L 130.396151 109.4415 
L 129.824786 108.8321 
L 122.776365 100.352742 
L 121.811901 99.0465 
L 115.727944 92.35796 
L 108.679523 89.172575 
L 107.375597 88.6515 
L 101.631102 84.043061 
L 94.582681 80.231034 
L 88.481774 78.2565 
L 87.53426 77.428067 
L 80.485839 72.229326 
L 73.437418 69.652636 
L 66.388997 70.2635 
L 59.703989 78.2565 
L 59.340576 78.999834 
L 55.821709 88.6515 
L 54.461516 99.0465 
L 55.409743 109.4415 
L 59.340576 117.802454 
L 60.247237 119.8365 
L 66.388997 127.884789 
L 70.481465 130.2315 
L 73.437418 132.935479 
L 80.485839 136.453321 
L 87.53426 138.320877 
L 94.582681 139.709214 
L 101.631102 140.5348 
L 106.646153 140.6265 
z
M 75.804598 130.2315 
L 73.437418 129.473276 
L 66.388997 124.818788 
L 62.586944 119.8365 
L 59.340576 112.553443 
L 57.877521 109.4415 
L 56.493526 99.0465 
L 58.634744 88.6515 
L 59.340576 86.715521 
L 63.476161 78.2565 
L 66.388997 74.773738 
L 73.437418 73.344247 
L 80.485839 76.472121 
L 82.796844 78.2565 
L 87.53426 79.600536 
L 94.582681 82.45539 
L 101.631102 87.853644 
L 102.625643 88.6515 
L 108.679523 91.070752 
L 115.727944 95.579468 
L 118.881588 99.0465 
L 122.776365 104.321475 
L 126.905926 109.4415 
L 129.824786 116.320988 
L 131.761917 119.8365 
L 129.824786 126.514163 
L 128.582301 130.2315 
L 122.776365 135.160074 
L 115.727944 137.517156 
L 108.679523 138.184896 
L 101.631102 138.335297 
L 94.582681 137.443778 
L 87.53426 135.682746 
L 80.485839 133.151369 
z
" clip-path="url(#p105c66805d)" style="fill: #466be3"/>
   </g>
   <g id="PathCollection_4">
    <path d="M 80.485839 133.151369 
L 87.53426 135.682746 
L 94.582681 137.443778 
L 101.631102 138.335297 
L 108.679523 138.184896 
L 115.727944 137.517156 
L 122.776365 135.160074 
L 128.582301 130.2315 
L 129.824786 126.514163 
L 131.761917 119.8365 
L 129.824786 116.320988 
L 126.905926 109.4415 
L 122.776365 104.321475 
L 118.881588 99.0465 
L 115.727944 95.579468 
L 108.679523 91.070752 
L 102.625643 88.6515 
L 101.631102 87.853644 
L 94.582681 82.45539 
L 87.53426 79.600536 
L 82.796844 78.2565 
L 80.485839 76.472121 
L 73.437418 73.344247 
L 66.388997 74.773738 
L 63.476161 78.2565 
L 59.340576 86.715521 
L 58.634744 88.6515 
L 56.493526 99.0465 
L 57.877521 109.4415 
L 59.340576 112.553443 
L 62.586944 119.8365 
L 66.388997 124.818788 
L 73.437418 129.473276 
L 75.804598 130.2315 
z
M 81.175834 130.2315 
L 80.485839 130.083114 
L 73.437418 127.777633 
L 66.388997 121.752787 
L 64.926652 119.8365 
L 59.815925 109.4415 
L 59.340576 104.205174 
L 58.525537 99.0465 
L 59.340576 95.421492 
L 60.620703 88.6515 
L 66.388997 78.913714 
L 69.264207 78.2565 
L 73.437418 77.035858 
L 75.998254 78.2565 
L 80.485839 79.093754 
L 87.53426 81.159496 
L 94.582681 84.679746 
L 99.467979 88.6515 
L 101.631102 89.769735 
L 108.679523 92.968929 
L 115.727944 98.800977 
L 115.951274 99.0465 
L 122.776365 108.290208 
L 123.704941 109.4415 
L 128.174454 119.8365 
L 123.792453 130.2315 
L 122.776365 131.094042 
L 115.727944 134.520074 
L 108.679523 135.70131 
L 101.631102 136.135794 
L 94.582681 135.178342 
L 87.53426 133.044614 
z
" clip-path="url(#p105c66805d)" style="fill: #458afc"/>
   </g>
   <g id="PathCollection_5">
    <path d="M 87.53426 133.044614 
L 94.582681 135.178342 
L 101.631102 136.135794 
L 108.679523 135.70131 
L 115.727944 134.520074 
L 122.776365 131.094042 
L 123.792453 130.2315 
L 128.174454 119.8365 
L 123.704941 109.4415 
L 122.776365 108.290208 
L 115.951274 99.0465 
L 115.727944 98.800977 
L 108.679523 92.968929 
L 101.631102 89.769735 
L 99.467979 88.6515 
L 94.582681 84.679746 
L 87.53426 81.159496 
L 80.485839 79.093754 
L 75.998254 78.2565 
L 73.437418 77.035858 
L 69.264207 78.2565 
L 66.388997 78.913714 
L 60.620703 88.6515 
L 59.340576 95.421492 
L 58.525537 99.0465 
L 59.340576 104.205174 
L 59.815925 109.4415 
L 64.926652 119.8365 
L 66.388997 121.752787 
L 73.437418 127.777633 
L 80.485839 130.083114 
L 81.175834 130.2315 
z
M 87.138749 130.2315 
L 80.485839 128.80077 
L 73.437418 126.081989 
L 67.040282 119.8365 
L 66.388997 119.057651 
L 60.983467 109.4415 
L 59.979439 99.0465 
L 62.329623 88.6515 
L 66.388997 81.79864 
L 73.437418 79.430869 
L 80.485839 80.538708 
L 87.53426 82.718457 
L 94.582681 86.904102 
L 96.731998 88.6515 
L 101.631102 91.18411 
L 108.679523 94.867107 
L 113.644735 99.0465 
L 115.727944 101.186294 
L 121.605578 109.4415 
L 122.776365 114.50755 
L 125.084092 119.8365 
L 122.776365 124.894744 
L 118.220004 130.2315 
L 115.727944 131.522992 
L 108.679523 133.217723 
L 101.631102 133.936292 
L 94.582681 132.912907 
L 87.53426 130.406483 
z
" clip-path="url(#p105c66805d)" style="fill: #35abf8"/>
   </g>
   <g id="PathCollection_6">
    <path d="M 87.53426 130.406483 
L 94.582681 132.912907 
L 101.631102 133.936292 
L 108.679523 133.217723 
L 115.727944 131.522992 
L 118.220004 130.2315 
L 122.776365 124.894744 
L 125.084092 119.8365 
L 122.776365 114.50755 
L 121.605578 109.4415 
L 115.727944 101.186294 
L 113.644735 99.0465 
L 108.679523 94.867107 
L 101.631102 91.18411 
L 96.731998 88.6515 
L 94.582681 86.904102 
L 87.53426 82.718457 
L 80.485839 80.538708 
L 73.437418 79.430869 
L 66.388997 81.79864 
L 62.329623 88.6515 
L 59.979439 99.0465 
L 60.983467 109.4415 
L 66.388997 119.057651 
L 67.040282 119.8365 
L 73.437418 126.081989 
L 80.485839 128.80077 
L 87.138749 130.2315 
z
M 93.424337 130.2315 
L 87.53426 129.115182 
L 80.485839 127.518426 
L 73.437418 124.386346 
L 68.777097 119.8365 
L 66.388997 116.980657 
L 62.151009 109.4415 
L 61.046165 99.0465 
L 64.038543 88.6515 
L 66.388997 84.683565 
L 73.437418 81.185369 
L 80.485839 81.983661 
L 87.53426 84.277417 
L 94.082263 88.6515 
L 94.582681 88.896681 
L 101.631102 92.598486 
L 108.679523 96.765284 
L 111.389659 99.0465 
L 115.727944 103.502624 
L 119.956371 109.4415 
L 122.226105 119.8365 
L 115.727944 128.569705 
L 110.528577 130.2315 
L 108.679523 130.734137 
L 101.631102 131.736789 
L 94.582681 130.647471 
z
" clip-path="url(#p105c66805d)" style="fill: #1fc9dd"/>
   </g>
   <g id="PathCollection_7">
    <path d="M 94.582681 130.647471 
L 101.631102 131.736789 
L 108.679523 130.734137 
L 110.528577 130.2315 
L 115.727944 128.569705 
L 122.226105 119.8365 
L 119.956371 109.4415 
L 115.727944 103.502624 
L 111.389659 99.0465 
L 108.679523 96.765284 
L 101.631102 92.598486 
L 94.582681 88.896681 
L 94.082263 88.6515 
L 87.53426 84.277417 
L 80.485839 81.983661 
L 73.437418 81.185369 
L 66.388997 84.683565 
L 64.038543 88.6515 
L 61.046165 99.0465 
L 62.151009 109.4415 
L 66.388997 116.980657 
L 68.777097 119.8365 
L 73.437418 124.386346 
L 80.485839 127.518426 
L 87.53426 129.115182 
L 93.424337 130.2315 
z
M 70.513913 119.8365 
L 66.388997 114.903662 
L 63.31855 109.4415 
L 62.112892 99.0465 
L 65.747464 88.6515 
L 66.388997 87.568491 
L 73.437418 82.939869 
L 80.485839 83.428615 
L 87.53426 85.836378 
L 91.748498 88.6515 
L 94.582681 90.040113 
L 101.631102 94.012861 
L 108.679523 98.663461 
L 109.134582 99.0465 
L 115.727944 105.818954 
L 118.307165 109.4415 
L 120.053314 119.8365 
L 115.727944 125.649582 
L 108.679523 128.853861 
L 101.631102 129.804265 
L 94.582681 129.224675 
L 87.53426 127.91956 
L 80.485839 126.236082 
L 73.437418 122.690702 
z
" clip-path="url(#p105c66805d)" style="fill: #19e2bb"/>
   </g>
   <g id="PathCollection_8">
    <path d="M 73.437418 122.690702 
L 80.485839 126.236082 
L 87.53426 127.91956 
L 94.582681 129.224675 
L 101.631102 129.804265 
L 108.679523 128.853861 
L 115.727944 125.649582 
L 120.053314 119.8365 
L 118.307165 109.4415 
L 115.727944 105.818954 
L 109.134582 99.0465 
L 108.679523 98.663461 
L 101.631102 94.012861 
L 94.582681 90.040113 
L 91.748498 88.6515 
L 87.53426 85.836378 
L 80.485839 83.428615 
L 73.437418 82.939869 
L 66.388997 87.568491 
L 65.747464 88.6515 
L 62.112892 99.0465 
L 63.31855 109.4415 
L 66.388997 114.903662 
L 70.513913 119.8365 
z
M 72.250728 119.8365 
L 66.388997 112.826667 
L 64.486092 109.4415 
L 63.179618 99.0465 
L 66.388997 90.438534 
L 67.917609 88.6515 
L 73.437418 84.69437 
L 80.485839 84.873568 
L 87.53426 87.395339 
L 89.414734 88.6515 
L 94.582681 91.183545 
L 101.631102 95.427236 
L 107.003652 99.0465 
L 108.679523 100.367243 
L 115.727944 108.135284 
L 116.657958 109.4415 
L 117.880523 119.8365 
L 115.727944 122.729459 
L 108.679523 127.126667 
L 101.631102 128.450642 
L 94.582681 127.9914 
L 87.53426 126.723939 
L 80.485839 124.953738 
L 73.437418 120.995059 
z
" clip-path="url(#p105c66805d)" style="fill: #32f298"/>
   </g>
   <g id="PathCollection_9">
    <path d="M 73.437418 120.995059 
L 80.485839 124.953738 
L 87.53426 126.723939 
L 94.582681 127.9914 
L 101.631102 128.450642 
L 108.679523 127.126667 
L 115.727944 122.729459 
L 117.880523 119.8365 
L 116.657958 109.4415 
L 115.727944 108.135284 
L 108.679523 100.367243 
L 107.003652 99.0465 
L 101.631102 95.427236 
L 94.582681 91.183545 
L 89.414734 88.6515 
L 87.53426 87.395339 
L 80.485839 84.873568 
L 73.437418 84.69437 
L 67.917609 88.6515 
L 66.388997 90.438534 
L 63.179618 99.0465 
L 64.486092 109.4415 
L 66.388997 112.826667 
L 72.250728 119.8365 
z
M 74.112457 119.8365 
L 73.437418 119.420849 
L 66.388997 110.749672 
L 65.653633 109.4415 
L 64.246345 99.0465 
L 66.388997 93.299632 
L 70.364964 88.6515 
L 73.437418 86.44887 
L 80.485839 86.318522 
L 86.777391 88.6515 
L 87.53426 88.843462 
L 94.582681 92.326977 
L 101.631102 96.841612 
L 104.904108 99.0465 
L 108.679523 102.02188 
L 115.103236 109.4415 
L 115.707645 119.8365 
L 108.679523 125.399472 
L 101.631102 127.097019 
L 94.582681 126.758126 
L 87.53426 125.528317 
L 80.485839 123.671394 
z
" clip-path="url(#p105c66805d)" style="fill: #5dfc6f"/>
   </g>
   <g id="PathCollection_10">
    <path d="M 80.485839 123.671394 
L 87.53426 125.528317 
L 94.582681 126.758126 
L 101.631102 127.097019 
L 108.679523 125.399472 
L 115.707645 119.8365 
L 115.103236 109.4415 
L 108.679523 102.02188 
L 104.904108 99.0465 
L 101.631102 96.841612 
L 94.582681 92.326977 
L 87.53426 88.843462 
L 86.777391 88.6515 
L 80.485839 86.318522 
L 73.437418 86.44887 
L 70.364964 88.6515 
L 66.388997 93.299632 
L 64.246345 99.0465 
L 65.653633 109.4415 
L 66.388997 110.749672 
L 73.437418 119.420849 
L 74.112457 119.8365 
z
M 76.243642 119.8365 
L 73.437418 118.108585 
L 66.763063 109.4415 
L 66.388997 106.650764 
L 65.313071 99.0465 
L 66.388997 96.16073 
L 72.81232 88.6515 
L 73.437418 88.20337 
L 80.485839 87.763476 
L 82.880654 88.6515 
L 87.53426 89.831779 
L 94.582681 93.470409 
L 101.631102 98.255987 
L 102.804564 99.0465 
L 108.679523 103.676516 
L 113.670695 109.4415 
L 113.52555 119.8365 
L 108.679523 123.672277 
L 101.631102 125.743396 
L 94.582681 125.524852 
L 87.53426 124.332695 
L 80.485839 122.38905 
z
" clip-path="url(#p105c66805d)" style="fill: #8fff49"/>
   </g>
   <g id="PathCollection_11">
    <path d="M 80.485839 122.38905 
L 87.53426 124.332695 
L 94.582681 125.524852 
L 101.631102 125.743396 
L 108.679523 123.672277 
L 113.52555 119.8365 
L 113.670695 109.4415 
L 108.679523 103.676516 
L 102.804564 99.0465 
L 101.631102 98.255987 
L 94.582681 93.470409 
L 87.53426 89.831779 
L 82.880654 88.6515 
L 80.485839 87.763476 
L 73.437418 88.20337 
L 72.81232 88.6515 
L 66.388997 96.16073 
L 65.313071 99.0465 
L 66.388997 106.650764 
L 66.763063 109.4415 
L 73.437418 118.108585 
L 76.243642 119.8365 
z
M 78.374826 119.8365 
L 73.437418 116.796322 
L 67.773611 109.4415 
L 66.388997 99.111514 
L 66.379798 99.0465 
L 66.388997 99.021828 
L 73.437418 89.729867 
L 80.485839 89.051228 
L 87.53426 90.820097 
L 94.582681 94.613841 
L 100.911053 99.0465 
L 101.631102 99.732901 
L 108.679523 105.331153 
L 112.238154 109.4415 
L 111.343455 119.8365 
L 108.679523 121.945083 
L 101.631102 124.389772 
L 94.582681 124.291577 
L 87.53426 123.137074 
L 80.485839 121.106706 
z
" clip-path="url(#p105c66805d)" style="fill: #b4f836"/>
   </g>
   <g id="PathCollection_12">
    <path d="M 80.485839 121.106706 
L 87.53426 123.137074 
L 94.582681 124.291577 
L 101.631102 124.389772 
L 108.679523 121.945083 
L 111.343455 119.8365 
L 112.238154 109.4415 
L 108.679523 105.331153 
L 101.631102 99.732901 
L 100.911053 99.0465 
L 94.582681 94.613841 
L 87.53426 90.820097 
L 80.485839 89.051228 
L 73.437418 89.729867 
L 66.388997 99.021828 
L 66.379798 99.0465 
L 66.388997 99.111514 
L 67.773611 109.4415 
L 73.437418 116.796322 
L 78.374826 119.8365 
z
M 80.52353 119.8365 
L 80.485839 119.825853 
L 73.437418 115.484058 
L 68.78416 109.4415 
L 67.476694 99.0465 
L 73.437418 91.178152 
L 80.485839 90.088325 
L 87.53426 91.808414 
L 94.582681 95.757273 
L 99.27861 99.0465 
L 101.631102 101.28906 
L 108.679523 106.98579 
L 110.805612 109.4415 
L 109.161359 119.8365 
L 108.679523 120.217888 
L 101.631102 123.036149 
L 94.582681 123.058303 
L 87.53426 121.941452 
z
" clip-path="url(#p105c66805d)" style="fill: #d4e735"/>
   </g>
   <g id="PathCollection_13">
    <path d="M 87.53426 121.941452 
L 94.582681 123.058303 
L 101.631102 123.036149 
L 108.679523 120.217888 
L 109.161359 119.8365 
L 110.805612 109.4415 
L 108.679523 106.98579 
L 101.631102 101.28906 
L 99.27861 99.0465 
L 94.582681 95.757273 
L 87.53426 91.808414 
L 80.485839 90.088325 
L 73.437418 91.178152 
L 67.476694 99.0465 
L 68.78416 109.4415 
L 73.437418 115.484058 
L 80.485839 119.825853 
L 80.52353 119.8365 
z
M 84.505655 119.8365 
L 80.485839 118.700958 
L 73.437418 114.171795 
L 69.794709 109.4415 
L 68.573852 99.0465 
L 73.437418 92.626437 
L 80.485839 91.125421 
L 87.53426 92.796731 
L 94.582681 96.900705 
L 97.646167 99.0465 
L 101.631102 102.845219 
L 108.679523 108.640427 
L 109.373071 109.4415 
L 108.679523 113.425129 
L 106.116689 119.8365 
L 101.631102 121.682526 
L 94.582681 121.825029 
L 87.53426 120.74583 
z
" clip-path="url(#p105c66805d)" style="fill: #eecf3a"/>
   </g>
   <g id="PathCollection_14">
    <path d="M 87.53426 120.74583 
L 94.582681 121.825029 
L 101.631102 121.682526 
L 106.116689 119.8365 
L 108.679523 113.425129 
L 109.373071 109.4415 
L 108.679523 108.640427 
L 101.631102 102.845219 
L 97.646167 99.0465 
L 94.582681 96.900705 
L 87.53426 92.796731 
L 80.485839 91.125421 
L 73.437418 92.626437 
L 68.573852 99.0465 
L 69.794709 109.4415 
L 73.437418 114.171795 
L 80.485839 118.700958 
L 84.505655 119.8365 
z
M 89.515534 119.8365 
L 87.53426 119.530487 
L 80.485839 117.576063 
L 73.437418 112.859531 
L 70.805258 109.4415 
L 69.671011 99.0465 
L 73.437418 94.074721 
L 80.485839 92.162517 
L 87.53426 93.785048 
L 94.582681 98.044137 
L 96.013724 99.0465 
L 101.631102 104.401378 
L 107.71113 109.4415 
L 102.827573 119.8365 
L 101.631102 120.328903 
L 94.582681 120.591754 
z
" clip-path="url(#p105c66805d)" style="fill: #fbb637"/>
   </g>
   <g id="PathCollection_15">
    <path d="M 94.582681 120.591754 
L 101.631102 120.328903 
L 102.827573 119.8365 
L 107.71113 109.4415 
L 101.631102 104.401378 
L 96.013724 99.0465 
L 94.582681 98.044137 
L 87.53426 93.785048 
L 80.485839 92.162517 
L 73.437418 94.074721 
L 69.671011 99.0465 
L 70.805258 109.4415 
L 73.437418 112.859531 
L 80.485839 117.576063 
L 87.53426 119.530487 
L 89.515534 119.8365 
z
M 71.815807 109.4415 
L 70.768169 99.0465 
L 73.437418 95.523006 
L 80.485839 93.199613 
L 87.53426 94.773365 
L 94.387138 99.0465 
L 94.582681 99.301297 
L 101.631102 105.957537 
L 105.833896 109.4415 
L 101.631102 117.536146 
L 94.582681 119.075928 
L 87.53426 118.252504 
L 80.485839 116.451168 
L 73.437418 111.547267 
z
" clip-path="url(#p105c66805d)" style="fill: #fe932a"/>
   </g>
   <g id="PathCollection_16">
    <path d="M 73.437418 111.547267 
L 80.485839 116.451168 
L 87.53426 118.252504 
L 94.582681 119.075928 
L 101.631102 117.536146 
L 105.833896 109.4415 
L 101.631102 105.957537 
L 94.582681 99.301297 
L 94.387138 99.0465 
L 87.53426 94.773365 
L 80.485839 93.199613 
L 73.437418 95.523006 
L 70.768169 99.0465 
L 71.815807 109.4415 
z
M 72.826356 109.4415 
L 71.865328 99.0465 
L 73.437418 96.971291 
L 80.485839 94.236709 
L 87.53426 95.761682 
L 92.802162 99.0465 
L 94.582681 101.366555 
L 101.631102 107.513696 
L 103.956662 109.4415 
L 101.631102 113.920564 
L 94.582681 117.113682 
L 87.53426 116.974521 
L 80.485839 115.326274 
L 73.437418 110.235004 
z
" clip-path="url(#p105c66805d)" style="fill: #f66c19"/>
   </g>
   <g id="PathCollection_17">
    <path d="M 73.437418 110.235004 
L 80.485839 115.326274 
L 87.53426 116.974521 
L 94.582681 117.113682 
L 101.631102 113.920564 
L 103.956662 109.4415 
L 101.631102 107.513696 
L 94.582681 101.366555 
L 92.802162 99.0465 
L 87.53426 95.761682 
L 80.485839 94.236709 
L 73.437418 96.971291 
L 71.865328 99.0465 
L 72.826356 109.4415 
z
M 74.03965 109.4415 
L 73.437418 104.479699 
L 72.962486 99.0465 
L 73.437418 98.419575 
L 80.485839 95.273806 
L 87.53426 96.749999 
L 91.217186 99.0465 
L 94.582681 103.431813 
L 101.631102 109.069854 
L 102.079427 109.4415 
L 101.631102 110.304982 
L 94.582681 115.151435 
L 87.53426 115.696538 
L 80.485839 114.201379 
z
" clip-path="url(#p105c66805d)" style="fill: #e7490c"/>
   </g>
   <g id="PathCollection_18">
    <path d="M 80.485839 114.201379 
L 87.53426 115.696538 
L 94.582681 115.151435 
L 101.631102 110.304982 
L 102.079427 109.4415 
L 101.631102 109.069854 
L 94.582681 103.431813 
L 91.217186 99.0465 
L 87.53426 96.749999 
L 80.485839 95.273806 
L 73.437418 98.419575 
L 72.962486 99.0465 
L 73.437418 104.479699 
L 74.03965 109.4415 
z
M 75.563068 109.4415 
L 74.684688 99.0465 
L 80.485839 96.310902 
L 87.53426 97.738316 
L 89.63221 99.0465 
L 94.582681 105.497071 
L 99.622509 109.4415 
L 94.582681 113.189188 
L 87.53426 114.418555 
L 80.485839 113.076484 
z
" clip-path="url(#p105c66805d)" style="fill: #d02f05"/>
   </g>
   <g id="PathCollection_19">
    <path d="M 80.485839 113.076484 
L 87.53426 114.418555 
L 94.582681 113.189188 
L 99.622509 109.4415 
L 94.582681 105.497071 
L 89.63221 99.0465 
L 87.53426 97.738316 
L 80.485839 96.310902 
L 74.684688 99.0465 
L 75.563068 109.4415 
z
M 77.086485 109.4415 
L 76.88397 99.0465 
L 80.485839 97.347998 
L 87.53426 98.726633 
L 88.047234 99.0465 
L 94.582681 107.562329 
L 96.983713 109.4415 
L 94.582681 111.226941 
L 87.53426 113.140572 
L 80.485839 111.95159 
z
" clip-path="url(#p105c66805d)" style="fill: #b41b01"/>
   </g>
   <g id="PathCollection_20">
    <path d="M 80.485839 111.95159 
L 87.53426 113.140572 
L 94.582681 111.226941 
L 96.983713 109.4415 
L 94.582681 107.562329 
L 88.047234 99.0465 
L 87.53426 98.726633 
L 80.485839 97.347998 
L 76.88397 99.0465 
L 77.086485 109.4415 
z
M 78.609903 109.4415 
L 79.083251 99.0465 
L 80.485839 98.385094 
L 83.906518 99.0465 
L 87.53426 101.781309 
L 94.262667 109.4415 
L 87.53426 111.862589 
L 80.485839 110.826695 
z
" clip-path="url(#p105c66805d)" style="fill: #8e0a01"/>
   </g>
   <g id="PathCollection_21">
    <path d="M 80.485839 110.826695 
L 87.53426 111.862589 
L 94.262667 109.4415 
L 87.53426 101.781309 
L 83.906518 99.0465 
L 80.485839 98.385094 
L 79.083251 99.0465 
L 78.609903 109.4415 
z
" clip-path="url(#p105c66805d)" style="fill: #7a0403"/>
   </g>
   <g id="matplotlib.axis_1">
    <g id="xtick_1">
     <g id="line2d_1">
      <defs>
       <path id="m905d75d504" d="M 0 0 
L 0 -5 
" style="stroke: #000000"/>
      </defs>
      <g>
       <use xlink:href="#m905d75d504" x="49.254042" y="173.544" style="stroke: #000000"/>
      </g>
     </g>
     <g id="text_1">
      <!-- 0.5 -->
      <g transform="translate(41.609042 184.917594) scale(0.11 -0.11)">
       <defs>
        <path id="ArialMT-30" d="M 266 2259 
Q 266 3072 433 3567 
Q 600 4063 929 4331 
Q 1259 4600 1759 4600 
Q 2128 4600 2406 4451 
Q 2684 4303 2865 4023 
Q 3047 3744 3150 3342 
Q 3253 2941 3253 2259 
Q 3253 1453 3087 958 
Q 2922 463 2592 192 
Q 2263 -78 1759 -78 
Q 1097 -78 719 397 
Q 266 969 266 2259 
z
M 844 2259 
Q 844 1131 1108 757 
Q 1372 384 1759 384 
Q 2147 384 2411 759 
Q 2675 1134 2675 2259 
Q 2675 3391 2411 3762 
Q 2147 4134 1753 4134 
Q 1366 4134 1134 3806 
Q 844 3388 844 2259 
z
" transform="scale(0.015625)"/>
        <path id="ArialMT-2e" d="M 581 0 
L 581 641 
L 1222 641 
L 1222 0 
L 581 0 
z
" transform="scale(0.015625)"/>
        <path id="ArialMT-35" d="M 266 1200 
L 856 1250 
Q 922 819 1161 601 
Q 1400 384 1738 384 
Q 2144 384 2425 690 
Q 2706 997 2706 1503 
Q 2706 1984 2436 2262 
Q 2166 2541 1728 2541 
Q 1456 2541 1237 2417 
Q 1019 2294 894 2097 
L 366 2166 
L 809 4519 
L 3088 4519 
L 3088 3981 
L 1259 3981 
L 1013 2750 
Q 1425 3038 1878 3038 
Q 2478 3038 2890 2622 
Q 3303 2206 3303 1553 
Q 3303 931 2941 478 
Q 2500 -78 1738 -78 
Q 1113 -78 717 272 
Q 322 622 266 1200 
z
" transform="scale(0.015625)"/>
       </defs>
       <use xlink:href="#ArialMT-30"/>
       <use xlink:href="#ArialMT-2e" x="55.615234"/>
       <use xlink:href="#ArialMT-35" x="83.398438"/>
      </g>
     </g>
    </g>
    <g id="xtick_2">
     <g id="line2d_2">
      <g>
       <use xlink:href="#m905d75d504" x="73.558942" y="173.544" style="stroke: #000000"/>
      </g>
     </g>
     <g id="text_2">
      <!-- 1.0 -->
      <g transform="translate(65.913942 184.917594) scale(0.11 -0.11)">
       <defs>
        <path id="ArialMT-31" d="M 2384 0 
L 1822 0 
L 1822 3584 
Q 1619 3391 1289 3197 
Q 959 3003 697 2906 
L 697 3450 
Q 1169 3672 1522 3987 
Q 1875 4303 2022 4600 
L 2384 4600 
L 2384 0 
z
" transform="scale(0.015625)"/>
       </defs>
       <use xlink:href="#ArialMT-31"/>
       <use xlink:href="#ArialMT-2e" x="55.615234"/>
       <use xlink:href="#ArialMT-30" x="83.398438"/>
      </g>
     </g>
    </g>
    <g id="xtick_3">
     <g id="line2d_3">
      <g>
       <use xlink:href="#m905d75d504" x="97.863842" y="173.544" style="stroke: #000000"/>
      </g>
     </g>
     <g id="text_3">
      <!-- 1.5 -->
      <g transform="translate(90.218842 184.917594) scale(0.11 -0.11)">
       <use xlink:href="#ArialMT-31"/>
       <use xlink:href="#ArialMT-2e" x="55.615234"/>
       <use xlink:href="#ArialMT-35" x="83.398438"/>
      </g>
     </g>
    </g>
    <g id="xtick_4">
     <g id="line2d_4">
      <g>
       <use xlink:href="#m905d75d504" x="122.168743" y="173.544" style="stroke: #000000"/>
      </g>
     </g>
     <g id="text_4">
      <!-- 2.0 -->
      <g transform="translate(114.523743 184.917594) scale(0.11 -0.11)">
       <defs>
        <path id="ArialMT-32" d="M 3222 541 
L 3222 0 
L 194 0 
Q 188 203 259 391 
Q 375 700 629 1000 
Q 884 1300 1366 1694 
Q 2113 2306 2375 2664 
Q 2638 3022 2638 3341 
Q 2638 3675 2398 3904 
Q 2159 4134 1775 4134 
Q 1369 4134 1125 3890 
Q 881 3647 878 3216 
L 300 3275 
Q 359 3922 746 4261 
Q 1134 4600 1788 4600 
Q 2447 4600 2831 4234 
Q 3216 3869 3216 3328 
Q 3216 3053 3103 2787 
Q 2991 2522 2730 2228 
Q 2469 1934 1863 1422 
Q 1356 997 1212 845 
Q 1069 694 975 541 
L 3222 541 
z
" transform="scale(0.015625)"/>
       </defs>
       <use xlink:href="#ArialMT-32"/>
       <use xlink:href="#ArialMT-2e" x="55.615234"/>
       <use xlink:href="#ArialMT-30" x="83.398438"/>
      </g>
     </g>
    </g>
    <g id="xtick_5">
     <g id="line2d_5">
      <g>
       <use xlink:href="#m905d75d504" x="146.473643" y="173.544" style="stroke: #000000"/>
      </g>
     </g>
     <g id="text_5">
      <!-- 2.5 -->
      <g transform="translate(138.828643 184.917594) scale(0.11 -0.11)">
       <use xlink:href="#ArialMT-32"/>
       <use xlink:href="#ArialMT-2e" x="55.615234"/>
       <use xlink:href="#ArialMT-35" x="83.398438"/>
      </g>
     </g>
    </g>
    <g id="xtick_6">
     <g id="line2d_6">
      <g>
       <use xlink:href="#m905d75d504" x="170.778543" y="173.544" style="stroke: #000000"/>
      </g>
     </g>
     <g id="text_6">
      <!-- 3.0 -->
      <g transform="translate(163.133543 184.917594) scale(0.11 -0.11)">
       <defs>
        <path id="ArialMT-33" d="M 269 1209 
L 831 1284 
Q 928 806 1161 595 
Q 1394 384 1728 384 
Q 2125 384 2398 659 
Q 2672 934 2672 1341 
Q 2672 1728 2419 1979 
Q 2166 2231 1775 2231 
Q 1616 2231 1378 2169 
L 1441 2663 
Q 1497 2656 1531 2656 
Q 1891 2656 2178 2843 
Q 2466 3031 2466 3422 
Q 2466 3731 2256 3934 
Q 2047 4138 1716 4138 
Q 1388 4138 1169 3931 
Q 950 3725 888 3313 
L 325 3413 
Q 428 3978 793 4289 
Q 1159 4600 1703 4600 
Q 2078 4600 2393 4439 
Q 2709 4278 2876 4000 
Q 3044 3722 3044 3409 
Q 3044 3113 2884 2869 
Q 2725 2625 2413 2481 
Q 2819 2388 3044 2092 
Q 3269 1797 3269 1353 
Q 3269 753 2831 336 
Q 2394 -81 1725 -81 
Q 1122 -81 723 278 
Q 325 638 269 1209 
z
" transform="scale(0.015625)"/>
       </defs>
       <use xlink:href="#ArialMT-33"/>
       <use xlink:href="#ArialMT-2e" x="55.615234"/>
       <use xlink:href="#ArialMT-30" x="83.398438"/>
      </g>
     </g>
    </g>
    <g id="text_7">
     <!-- Burst power (a.u.) -->
     <g transform="translate(57.475 199.839469) scale(0.12 -0.12)">
      <defs>
       <path id="ArialMT-42" d="M 469 0 
L 469 4581 
L 2188 4581 
Q 2713 4581 3030 4442 
Q 3347 4303 3526 4014 
Q 3706 3725 3706 3409 
Q 3706 3116 3547 2856 
Q 3388 2597 3066 2438 
Q 3481 2316 3704 2022 
Q 3928 1728 3928 1328 
Q 3928 1006 3792 729 
Q 3656 453 3456 303 
Q 3256 153 2954 76 
Q 2653 0 2216 0 
L 469 0 
z
M 1075 2656 
L 2066 2656 
Q 2469 2656 2644 2709 
Q 2875 2778 2992 2937 
Q 3109 3097 3109 3338 
Q 3109 3566 3000 3739 
Q 2891 3913 2687 3977 
Q 2484 4041 1991 4041 
L 1075 4041 
L 1075 2656 
z
M 1075 541 
L 2216 541 
Q 2509 541 2628 563 
Q 2838 600 2978 687 
Q 3119 775 3209 942 
Q 3300 1109 3300 1328 
Q 3300 1584 3169 1773 
Q 3038 1963 2805 2039 
Q 2572 2116 2134 2116 
L 1075 2116 
L 1075 541 
z
" transform="scale(0.015625)"/>
       <path id="ArialMT-75" d="M 2597 0 
L 2597 488 
Q 2209 -75 1544 -75 
Q 1250 -75 995 37 
Q 741 150 617 320 
Q 494 491 444 738 
Q 409 903 409 1263 
L 409 3319 
L 972 3319 
L 972 1478 
Q 972 1038 1006 884 
Q 1059 663 1231 536 
Q 1403 409 1656 409 
Q 1909 409 2131 539 
Q 2353 669 2445 892 
Q 2538 1116 2538 1541 
L 2538 3319 
L 3100 3319 
L 3100 0 
L 2597 0 
z
" transform="scale(0.015625)"/>
       <path id="ArialMT-72" d="M 416 0 
L 416 3319 
L 922 3319 
L 922 2816 
Q 1116 3169 1280 3281 
Q 1444 3394 1641 3394 
Q 1925 3394 2219 3213 
L 2025 2691 
Q 1819 2813 1613 2813 
Q 1428 2813 1281 2702 
Q 1134 2591 1072 2394 
Q 978 2094 978 1738 
L 978 0 
L 416 0 
z
" transform="scale(0.015625)"/>
       <path id="ArialMT-73" d="M 197 991 
L 753 1078 
Q 800 744 1014 566 
Q 1228 388 1613 388 
Q 2000 388 2187 545 
Q 2375 703 2375 916 
Q 2375 1106 2209 1216 
Q 2094 1291 1634 1406 
Q 1016 1563 777 1677 
Q 538 1791 414 1992 
Q 291 2194 291 2438 
Q 291 2659 392 2848 
Q 494 3038 669 3163 
Q 800 3259 1026 3326 
Q 1253 3394 1513 3394 
Q 1903 3394 2198 3281 
Q 2494 3169 2634 2976 
Q 2775 2784 2828 2463 
L 2278 2388 
Q 2241 2644 2061 2787 
Q 1881 2931 1553 2931 
Q 1166 2931 1000 2803 
Q 834 2675 834 2503 
Q 834 2394 903 2306 
Q 972 2216 1119 2156 
Q 1203 2125 1616 2013 
Q 2213 1853 2448 1751 
Q 2684 1650 2818 1456 
Q 2953 1263 2953 975 
Q 2953 694 2789 445 
Q 2625 197 2315 61 
Q 2006 -75 1616 -75 
Q 969 -75 630 194 
Q 291 463 197 991 
z
" transform="scale(0.015625)"/>
       <path id="ArialMT-74" d="M 1650 503 
L 1731 6 
Q 1494 -44 1306 -44 
Q 1000 -44 831 53 
Q 663 150 594 308 
Q 525 466 525 972 
L 525 2881 
L 113 2881 
L 113 3319 
L 525 3319 
L 525 4141 
L 1084 4478 
L 1084 3319 
L 1650 3319 
L 1650 2881 
L 1084 2881 
L 1084 941 
Q 1084 700 1114 631 
Q 1144 563 1211 522 
Q 1278 481 1403 481 
Q 1497 481 1650 503 
z
" transform="scale(0.015625)"/>
       <path id="ArialMT-20" transform="scale(0.015625)"/>
       <path id="ArialMT-70" d="M 422 -1272 
L 422 3319 
L 934 3319 
L 934 2888 
Q 1116 3141 1344 3267 
Q 1572 3394 1897 3394 
Q 2322 3394 2647 3175 
Q 2972 2956 3137 2557 
Q 3303 2159 3303 1684 
Q 3303 1175 3120 767 
Q 2938 359 2589 142 
Q 2241 -75 1856 -75 
Q 1575 -75 1351 44 
Q 1128 163 984 344 
L 984 -1272 
L 422 -1272 
z
M 931 1641 
Q 931 1000 1190 694 
Q 1450 388 1819 388 
Q 2194 388 2461 705 
Q 2728 1022 2728 1688 
Q 2728 2322 2467 2637 
Q 2206 2953 1844 2953 
Q 1484 2953 1207 2617 
Q 931 2281 931 1641 
z
" transform="scale(0.015625)"/>
       <path id="ArialMT-6f" d="M 213 1659 
Q 213 2581 725 3025 
Q 1153 3394 1769 3394 
Q 2453 3394 2887 2945 
Q 3322 2497 3322 1706 
Q 3322 1066 3130 698 
Q 2938 331 2570 128 
Q 2203 -75 1769 -75 
Q 1072 -75 642 372 
Q 213 819 213 1659 
z
M 791 1659 
Q 791 1022 1069 705 
Q 1347 388 1769 388 
Q 2188 388 2466 706 
Q 2744 1025 2744 1678 
Q 2744 2294 2464 2611 
Q 2184 2928 1769 2928 
Q 1347 2928 1069 2612 
Q 791 2297 791 1659 
z
" transform="scale(0.015625)"/>
       <path id="ArialMT-77" d="M 1034 0 
L 19 3319 
L 600 3319 
L 1128 1403 
L 1325 691 
Q 1338 744 1497 1375 
L 2025 3319 
L 2603 3319 
L 3100 1394 
L 3266 759 
L 3456 1400 
L 4025 3319 
L 4572 3319 
L 3534 0 
L 2950 0 
L 2422 1988 
L 2294 2553 
L 1622 0 
L 1034 0 
z
" transform="scale(0.015625)"/>
       <path id="ArialMT-65" d="M 2694 1069 
L 3275 997 
Q 3138 488 2766 206 
Q 2394 -75 1816 -75 
Q 1088 -75 661 373 
Q 234 822 234 1631 
Q 234 2469 665 2931 
Q 1097 3394 1784 3394 
Q 2450 3394 2872 2941 
Q 3294 2488 3294 1666 
Q 3294 1616 3291 1516 
L 816 1516 
Q 847 969 1125 678 
Q 1403 388 1819 388 
Q 2128 388 2347 550 
Q 2566 713 2694 1069 
z
M 847 1978 
L 2700 1978 
Q 2663 2397 2488 2606 
Q 2219 2931 1791 2931 
Q 1403 2931 1139 2672 
Q 875 2413 847 1978 
z
" transform="scale(0.015625)"/>
       <path id="ArialMT-28" d="M 1497 -1347 
Q 1031 -759 709 28 
Q 388 816 388 1659 
Q 388 2403 628 3084 
Q 909 3875 1497 4659 
L 1900 4659 
Q 1522 4009 1400 3731 
Q 1209 3300 1100 2831 
Q 966 2247 966 1656 
Q 966 153 1900 -1347 
L 1497 -1347 
z
" transform="scale(0.015625)"/>
       <path id="ArialMT-61" d="M 2588 409 
Q 2275 144 1986 34 
Q 1697 -75 1366 -75 
Q 819 -75 525 192 
Q 231 459 231 875 
Q 231 1119 342 1320 
Q 453 1522 633 1644 
Q 813 1766 1038 1828 
Q 1203 1872 1538 1913 
Q 2219 1994 2541 2106 
Q 2544 2222 2544 2253 
Q 2544 2597 2384 2738 
Q 2169 2928 1744 2928 
Q 1347 2928 1158 2789 
Q 969 2650 878 2297 
L 328 2372 
Q 403 2725 575 2942 
Q 747 3159 1072 3276 
Q 1397 3394 1825 3394 
Q 2250 3394 2515 3294 
Q 2781 3194 2906 3042 
Q 3031 2891 3081 2659 
Q 3109 2516 3109 2141 
L 3109 1391 
Q 3109 606 3145 398 
Q 3181 191 3288 0 
L 2700 0 
Q 2613 175 2588 409 
z
M 2541 1666 
Q 2234 1541 1622 1453 
Q 1275 1403 1131 1340 
Q 988 1278 909 1158 
Q 831 1038 831 891 
Q 831 666 1001 516 
Q 1172 366 1500 366 
Q 1825 366 2078 508 
Q 2331 650 2450 897 
Q 2541 1088 2541 1459 
L 2541 1666 
z
" transform="scale(0.015625)"/>
       <path id="ArialMT-29" d="M 791 -1347 
L 388 -1347 
Q 1322 153 1322 1656 
Q 1322 2244 1188 2822 
Q 1081 3291 891 3722 
Q 769 4003 388 4659 
L 791 4659 
Q 1378 3875 1659 3084 
Q 1900 2403 1900 1659 
Q 1900 816 1576 28 
Q 1253 -759 791 -1347 
z
" transform="scale(0.015625)"/>
      </defs>
      <use xlink:href="#ArialMT-42"/>
      <use xlink:href="#ArialMT-75" x="66.699219"/>
      <use xlink:href="#ArialMT-72" x="122.314453"/>
      <use xlink:href="#ArialMT-73" x="155.615234"/>
      <use xlink:href="#ArialMT-74" x="205.615234"/>
      <use xlink:href="#ArialMT-20" x="233.398438"/>
      <use xlink:href="#ArialMT-70" x="261.181641"/>
      <use xlink:href="#ArialMT-6f" x="316.796875"/>
      <use xlink:href="#ArialMT-77" x="372.412109"/>
      <use xlink:href="#ArialMT-65" x="444.628906"/>
      <use xlink:href="#ArialMT-72" x="500.244141"/>
      <use xlink:href="#ArialMT-20" x="533.544922"/>
      <use xlink:href="#ArialMT-28" x="561.328125"/>
      <use xlink:href="#ArialMT-61" x="594.628906"/>
      <use xlink:href="#ArialMT-2e" x="650.244141"/>
      <use xlink:href="#ArialMT-75" x="678.027344"/>
      <use xlink:href="#ArialMT-2e" x="733.642578"/>
      <use xlink:href="#ArialMT-29" x="761.425781"/>
     </g>
    </g>
   </g>
   <g id="matplotlib.axis_2">
    <g id="ytick_1">
     <g id="line2d_7">
      <defs>
       <path id="m6073f087e9" d="M 0 0 
L 5 0 
" style="stroke: #000000"/>
      </defs>
      <g>
       <use xlink:href="#m6073f087e9" x="38.195312" y="173.544" style="stroke: #000000"/>
      </g>
     </g>
     <g id="text_8">
      <!-- 25 -->
      <g transform="translate(22.46125 177.480797) scale(0.11 -0.11)">
       <use xlink:href="#ArialMT-32"/>
       <use xlink:href="#ArialMT-35" x="55.615234"/>
      </g>
     </g>
    </g>
    <g id="ytick_2">
     <g id="line2d_8">
      <g>
       <use xlink:href="#m6073f087e9" x="38.195312" y="138.894" style="stroke: #000000"/>
      </g>
     </g>
     <g id="text_9">
      <!-- 30 -->
      <g transform="translate(22.46125 142.830797) scale(0.11 -0.11)">
       <use xlink:href="#ArialMT-33"/>
       <use xlink:href="#ArialMT-30" x="55.615234"/>
      </g>
     </g>
    </g>
    <g id="ytick_3">
     <g id="line2d_9">
      <g>
       <use xlink:href="#m6073f087e9" x="38.195312" y="104.244" style="stroke: #000000"/>
      </g>
     </g>
     <g id="text_10">
      <!-- 35 -->
      <g transform="translate(22.46125 108.180797) scale(0.11 -0.11)">
       <use xlink:href="#ArialMT-33"/>
       <use xlink:href="#ArialMT-35" x="55.615234"/>
      </g>
     </g>
    </g>
    <g id="ytick_4">
     <g id="line2d_10">
      <g>
       <use xlink:href="#m6073f087e9" x="38.195312" y="69.594" style="stroke: #000000"/>
      </g>
     </g>
     <g id="text_11">
      <!-- 40 -->
      <g transform="translate(22.46125 73.530797) scale(0.11 -0.11)">
       <defs>
        <path id="ArialMT-34" d="M 2069 0 
L 2069 1097 
L 81 1097 
L 81 1613 
L 2172 4581 
L 2631 4581 
L 2631 1613 
L 3250 1613 
L 3250 1097 
L 2631 1097 
L 2631 0 
L 2069 0 
z
M 2069 1613 
L 2069 3678 
L 634 1613 
L 2069 1613 
z
" transform="scale(0.015625)"/>
       </defs>
       <use xlink:href="#ArialMT-34"/>
       <use xlink:href="#ArialMT-30" x="55.615234"/>
      </g>
     </g>
    </g>
    <g id="ytick_5">
     <g id="line2d_11">
      <g>
       <use xlink:href="#m6073f087e9" x="38.195312" y="34.944" style="stroke: #000000"/>
      </g>
     </g>
     <g id="text_12">
      <!-- 45 -->
      <g transform="translate(22.46125 38.880797) scale(0.11 -0.11)">
       <use xlink:href="#ArialMT-34"/>
       <use xlink:href="#ArialMT-35" x="55.615234"/>
      </g>
     </g>
    </g>
    <g id="text_13">
     <!-- Frequency (Hz) -->
     <g transform="translate(15.935625 145.584938) rotate(-90) scale(0.12 -0.12)">
      <defs>
       <path id="ArialMT-46" d="M 525 0 
L 525 4581 
L 3616 4581 
L 3616 4041 
L 1131 4041 
L 1131 2622 
L 3281 2622 
L 3281 2081 
L 1131 2081 
L 1131 0 
L 525 0 
z
" transform="scale(0.015625)"/>
       <path id="ArialMT-71" d="M 2538 -1272 
L 2538 353 
Q 2406 169 2170 47 
Q 1934 -75 1669 -75 
Q 1078 -75 651 397 
Q 225 869 225 1691 
Q 225 2191 398 2587 
Q 572 2984 901 3189 
Q 1231 3394 1625 3394 
Q 2241 3394 2594 2875 
L 2594 3319 
L 3100 3319 
L 3100 -1272 
L 2538 -1272 
z
M 803 1669 
Q 803 1028 1072 708 
Q 1341 388 1716 388 
Q 2075 388 2334 692 
Q 2594 997 2594 1619 
Q 2594 2281 2320 2615 
Q 2047 2950 1678 2950 
Q 1313 2950 1058 2639 
Q 803 2328 803 1669 
z
" transform="scale(0.015625)"/>
       <path id="ArialMT-6e" d="M 422 0 
L 422 3319 
L 928 3319 
L 928 2847 
Q 1294 3394 1984 3394 
Q 2284 3394 2536 3286 
Q 2788 3178 2913 3003 
Q 3038 2828 3088 2588 
Q 3119 2431 3119 2041 
L 3119 0 
L 2556 0 
L 2556 2019 
Q 2556 2363 2490 2533 
Q 2425 2703 2258 2804 
Q 2091 2906 1866 2906 
Q 1506 2906 1245 2678 
Q 984 2450 984 1813 
L 984 0 
L 422 0 
z
" transform="scale(0.015625)"/>
       <path id="ArialMT-63" d="M 2588 1216 
L 3141 1144 
Q 3050 572 2676 248 
Q 2303 -75 1759 -75 
Q 1078 -75 664 370 
Q 250 816 250 1647 
Q 250 2184 428 2587 
Q 606 2991 970 3192 
Q 1334 3394 1763 3394 
Q 2303 3394 2647 3120 
Q 2991 2847 3088 2344 
L 2541 2259 
Q 2463 2594 2264 2762 
Q 2066 2931 1784 2931 
Q 1359 2931 1093 2626 
Q 828 2322 828 1663 
Q 828 994 1084 691 
Q 1341 388 1753 388 
Q 2084 388 2306 591 
Q 2528 794 2588 1216 
z
" transform="scale(0.015625)"/>
       <path id="ArialMT-79" d="M 397 -1278 
L 334 -750 
Q 519 -800 656 -800 
Q 844 -800 956 -737 
Q 1069 -675 1141 -563 
Q 1194 -478 1313 -144 
Q 1328 -97 1363 -6 
L 103 3319 
L 709 3319 
L 1400 1397 
Q 1534 1031 1641 628 
Q 1738 1016 1872 1384 
L 2581 3319 
L 3144 3319 
L 1881 -56 
Q 1678 -603 1566 -809 
Q 1416 -1088 1222 -1217 
Q 1028 -1347 759 -1347 
Q 597 -1347 397 -1278 
z
" transform="scale(0.015625)"/>
       <path id="ArialMT-48" d="M 513 0 
L 513 4581 
L 1119 4581 
L 1119 2700 
L 3500 2700 
L 3500 4581 
L 4106 4581 
L 4106 0 
L 3500 0 
L 3500 2159 
L 1119 2159 
L 1119 0 
L 513 0 
z
" transform="scale(0.015625)"/>
       <path id="ArialMT-7a" d="M 125 0 
L 125 456 
L 2238 2881 
Q 1878 2863 1603 2863 
L 250 2863 
L 250 3319 
L 2963 3319 
L 2963 2947 
L 1166 841 
L 819 456 
Q 1197 484 1528 484 
L 3063 484 
L 3063 0 
L 125 0 
z
" transform="scale(0.015625)"/>
      </defs>
      <use xlink:href="#ArialMT-46"/>
      <use xlink:href="#ArialMT-72" x="61.083984"/>
      <use xlink:href="#ArialMT-65" x="94.384766"/>
      <use xlink:href="#ArialMT-71" x="150"/>
      <use xlink:href="#ArialMT-75" x="205.615234"/>
      <use xlink:href="#ArialMT-65" x="261.230469"/>
      <use xlink:href="#ArialMT-6e" x="316.845703"/>
      <use xlink:href="#ArialMT-63" x="372.460938"/>
      <use xlink:href="#ArialMT-79" x="422.460938"/>
      <use xlink:href="#ArialMT-20" x="472.460938"/>
      <use xlink:href="#ArialMT-28" x="500.244141"/>
      <use xlink:href="#ArialMT-48" x="533.544922"/>
      <use xlink:href="#ArialMT-7a" x="605.761719"/>
      <use xlink:href="#ArialMT-29" x="655.761719"/>
     </g>
    </g>
   </g>
   <g id="patch_3">
    <path d="M 38.195312 173.544 
L 38.195312 34.944 
" style="fill: none; stroke: #000000; stroke-width: 0.8; stroke-linejoin: miter; stroke-linecap: square"/>
   </g>
   <g id="patch_4">
    <path d="M 38.195312 173.544 
L 172.115313 173.544 
" style="fill: none; stroke: #000000; stroke-width: 0.8; stroke-linejoin: miter; stroke-linecap: square"/>
   </g>
   <g id="text_14">
    <!-- Burst feature density -->
    <g transform="translate(50.130625 15.935625) scale(0.12 -0.12)">
     <defs>
      <path id="ArialMT-66" d="M 556 0 
L 556 2881 
L 59 2881 
L 59 3319 
L 556 3319 
L 556 3672 
Q 556 4006 616 4169 
Q 697 4388 901 4523 
Q 1106 4659 1475 4659 
Q 1713 4659 2000 4603 
L 1916 4113 
Q 1741 4144 1584 4144 
Q 1328 4144 1222 4034 
Q 1116 3925 1116 3625 
L 1116 3319 
L 1763 3319 
L 1763 2881 
L 1116 2881 
L 1116 0 
L 556 0 
z
" transform="scale(0.015625)"/>
      <path id="ArialMT-64" d="M 2575 0 
L 2575 419 
Q 2259 -75 1647 -75 
Q 1250 -75 917 144 
Q 584 363 401 755 
Q 219 1147 219 1656 
Q 219 2153 384 2558 
Q 550 2963 881 3178 
Q 1213 3394 1622 3394 
Q 1922 3394 2156 3267 
Q 2391 3141 2538 2938 
L 2538 4581 
L 3097 4581 
L 3097 0 
L 2575 0 
z
M 797 1656 
Q 797 1019 1065 703 
Q 1334 388 1700 388 
Q 2069 388 2326 689 
Q 2584 991 2584 1609 
Q 2584 2291 2321 2609 
Q 2059 2928 1675 2928 
Q 1300 2928 1048 2622 
Q 797 2316 797 1656 
z
" transform="scale(0.015625)"/>
      <path id="ArialMT-69" d="M 425 3934 
L 425 4581 
L 988 4581 
L 988 3934 
L 425 3934 
z
M 425 0 
L 425 3319 
L 988 3319 
L 988 0 
L 425 0 
z
" transform="scale(0.015625)"/>
     </defs>
     <use xlink:href="#ArialMT-42"/>
     <use xlink:href="#ArialMT-75" x="66.699219"/>
     <use xlink:href="#ArialMT-72" x="122.314453"/>
     <use xlink:href="#ArialMT-73" x="155.615234"/>
     <use xlink:href="#ArialMT-74" x="205.615234"/>
     <use xlink:href="#ArialMT-20" x="233.398438"/>
     <use xlink:href="#ArialMT-66" x="261.181641"/>
     <use xlink:href="#ArialMT-65" x="288.964844"/>
     <use xlink:href="#ArialMT-61" x="344.580078"/>
     <use xlink:href="#ArialMT-74" x="400.195312"/>
     <use xlink:href="#ArialMT-75" x="427.978516"/>
     <use xlink:href="#ArialMT-72" x="483.59375"/>
     <use xlink:href="#ArialMT-65" x="516.894531"/>
     <use xlink:href="#ArialMT-20" x="572.509766"/>
     <use xlink:href="#ArialMT-64" x="600.292969"/>
     <use xlink:href="#ArialMT-65" x="655.908203"/>
     <use xlink:href="#ArialMT-6e" x="711.523438"/>
     <use xlink:href="#ArialMT-73" x="767.138672"/>
     <use xlink:href="#ArialMT-69" x="817.138672"/>
     <use xlink:href="#ArialMT-74" x="839.355469"/>
     <use xlink:href="#ArialMT-79" x="867.138672"/>
    </g>
    <!-- in Slow population -->
    <g transform="translate(56.457813 28.944) scale(0.12 -0.12)">
     <defs>
      <path id="ArialMT-53" d="M 288 1472 
L 859 1522 
Q 900 1178 1048 958 
Q 1197 738 1509 602 
Q 1822 466 2213 466 
Q 2559 466 2825 569 
Q 3091 672 3220 851 
Q 3350 1031 3350 1244 
Q 3350 1459 3225 1620 
Q 3100 1781 2813 1891 
Q 2628 1963 1997 2114 
Q 1366 2266 1113 2400 
Q 784 2572 623 2826 
Q 463 3081 463 3397 
Q 463 3744 659 4045 
Q 856 4347 1234 4503 
Q 1613 4659 2075 4659 
Q 2584 4659 2973 4495 
Q 3363 4331 3572 4012 
Q 3781 3694 3797 3291 
L 3216 3247 
Q 3169 3681 2898 3903 
Q 2628 4125 2100 4125 
Q 1550 4125 1298 3923 
Q 1047 3722 1047 3438 
Q 1047 3191 1225 3031 
Q 1400 2872 2139 2705 
Q 2878 2538 3153 2413 
Q 3553 2228 3743 1945 
Q 3934 1663 3934 1294 
Q 3934 928 3725 604 
Q 3516 281 3123 101 
Q 2731 -78 2241 -78 
Q 1619 -78 1198 103 
Q 778 284 539 648 
Q 300 1013 288 1472 
z
" transform="scale(0.015625)"/>
      <path id="ArialMT-6c" d="M 409 0 
L 409 4581 
L 972 4581 
L 972 0 
L 409 0 
z
" transform="scale(0.015625)"/>
     </defs>
     <use xlink:href="#ArialMT-69"/>
     <use xlink:href="#ArialMT-6e" x="22.216797"/>
     <use xlink:href="#ArialMT-20" x="77.832031"/>
     <use xlink:href="#ArialMT-53" x="105.615234"/>
     <use xlink:href="#ArialMT-6c" x="172.314453"/>
     <use xlink:href="#ArialMT-6f" x="194.53125"/>
     <use xlink:href="#ArialMT-77" x="250.146484"/>
     <use xlink:href="#ArialMT-20" x="322.363281"/>
     <use xlink:href="#ArialMT-70" x="350.146484"/>
     <use xlink:href="#ArialMT-6f" x="405.761719"/>
     <use xlink:href="#ArialMT-70" x="461.376953"/>
     <use xlink:href="#ArialMT-75" x="516.992188"/>
     <use xlink:href="#ArialMT-6c" x="572.607422"/>
     <use xlink:href="#ArialMT-61" x="594.824219"/>
     <use xlink:href="#ArialMT-74" x="650.439453"/>
     <use xlink:href="#ArialMT-69" x="678.222656"/>
     <use xlink:href="#ArialMT-6f" x="700.439453"/>
     <use xlink:href="#ArialMT-6e" x="756.054688"/>
    </g>
   </g>
  </g>
  <g id="axes_2">
   <g id="patch_5">
    <path d="M 180.485313 173.544 
L 187.415313 173.544 
L 187.415313 34.944 
L 180.485313 34.944 
z
" style="fill: #ffffff"/>
   </g>
   <g id="QuadMesh_1">
    <path d="M 180.485313 173.544 
L 187.415313 173.544 
L 187.415313 166.614 
L 180.485313 166.614 
L 180.485313 173.544 
" clip-path="url(#pcdaf71add6)" style="fill: #372466"/>
    <path d="M 180.485313 166.614 
L 187.415313 166.614 
L 187.415313 159.684 
L 180.485313 159.684 
L 180.485313 166.614 
" clip-path="url(#pcdaf71add6)" style="fill: #4249b1"/>
    <path d="M 180.485313 159.684 
L 187.415313 159.684 
L 187.415313 152.754 
L 180.485313 152.754 
L 180.485313 159.684 
" clip-path="url(#pcdaf71add6)" style="fill: #466be3"/>
    <path d="M 180.485313 152.754 
L 187.415313 152.754 
L 187.415313 145.824 
L 180.485313 145.824 
L 180.485313 152.754 
" clip-path="url(#pcdaf71add6)" style="fill: #458afc"/>
    <path d="M 180.485313 145.824 
L 187.415313 145.824 
L 187.415313 138.894 
L 180.485313 138.894 
L 180.485313 145.824 
" clip-path="url(#pcdaf71add6)" style="fill: #35abf8"/>
    <path d="M 180.485313 138.894 
L 187.415313 138.894 
L 187.415313 131.964 
L 180.485313 131.964 
L 180.485313 138.894 
" clip-path="url(#pcdaf71add6)" style="fill: #1fc9dd"/>
    <path d="M 180.485313 131.964 
L 187.415313 131.964 
L 187.415313 125.034 
L 180.485313 125.034 
L 180.485313 131.964 
" clip-path="url(#pcdaf71add6)" style="fill: #19e2bb"/>
    <path d="M 180.485313 125.034 
L 187.415313 125.034 
L 187.415313 118.104 
L 180.485313 118.104 
L 180.485313 125.034 
" clip-path="url(#pcdaf71add6)" style="fill: #32f298"/>
    <path d="M 180.485313 118.104 
L 187.415313 118.104 
L 187.415313 111.174 
L 180.485313 111.174 
L 180.485313 118.104 
" clip-path="url(#pcdaf71add6)" style="fill: #5dfc6f"/>
    <path d="M 180.485313 111.174 
L 187.415313 111.174 
L 187.415313 104.244 
L 180.485313 104.244 
L 180.485313 111.174 
" clip-path="url(#pcdaf71add6)" style="fill: #8fff49"/>
    <path d="M 180.485313 104.244 
L 187.415313 104.244 
L 187.415313 97.314 
L 180.485313 97.314 
L 180.485313 104.244 
" clip-path="url(#pcdaf71add6)" style="fill: #b4f836"/>
    <path d="M 180.485313 97.314 
L 187.415313 97.314 
L 187.415313 90.384 
L 180.485313 90.384 
L 180.485313 97.314 
" clip-path="url(#pcdaf71add6)" style="fill: #d4e735"/>
    <path d="M 180.485313 90.384 
L 187.415313 90.384 
L 187.415313 83.454 
L 180.485313 83.454 
L 180.485313 90.384 
" clip-path="url(#pcdaf71add6)" style="fill: #eecf3a"/>
    <path d="M 180.485313 83.454 
L 187.415313 83.454 
L 187.415313 76.524 
L 180.485313 76.524 
L 180.485313 83.454 
" clip-path="url(#pcdaf71add6)" style="fill: #fbb637"/>
    <path d="M 180.485313 76.524 
L 187.415313 76.524 
L 187.415313 69.594 
L 180.485313 69.594 
L 180.485313 76.524 
" clip-path="url(#pcdaf71add6)" style="fill: #fe932a"/>
    <path d="M 180.485313 69.594 
L 187.415313 69.594 
L 187.415313 62.664 
L 180.485313 62.664 
L 180.485313 69.594 
" clip-path="url(#pcdaf71add6)" style="fill: #f66c19"/>
    <path d="M 180.485313 62.664 
L 187.415313 62.664 
L 187.415313 55.734 
L 180.485313 55.734 
L 180.485313 62.664 
" clip-path="url(#pcdaf71add6)" style="fill: #e7490c"/>
    <path d="M 180.485313 55.734 
L 187.415313 55.734 
L 187.415313 48.804 
L 180.485313 48.804 
L 180.485313 55.734 
" clip-path="url(#pcdaf71add6)" style="fill: #d02f05"/>
    <path d="M 180.485313 48.804 
L 187.415313 48.804 
L 187.415313 41.874 
L 180.485313 41.874 
L 180.485313 48.804 
" clip-path="url(#pcdaf71add6)" style="fill: #b41b01"/>
    <path d="M 180.485313 41.874 
L 187.415313 41.874 
L 187.415313 34.944 
L 180.485313 34.944 
L 180.485313 41.874 
" clip-path="url(#pcdaf71add6)" style="fill: #8e0a01"/>
    <path d="M 180.485313 34.944 
L 187.415313 34.944 
L 187.415313 28.014 
L 180.485313 28.014 
L 180.485313 34.944 
" clip-path="url(#pcdaf71add6)" style="fill: #7a0403"/>
   </g>
   <g id="matplotlib.axis_3"/>
   <g id="matplotlib.axis_4">
    <g id="ytick_6">
     <g id="line2d_12">
      <defs>
       <path id="m42b4bec43f" d="M 0 0 
L -5 0 
" style="stroke: #000000"/>
      </defs>
      <g>
       <use xlink:href="#m42b4bec43f" x="187.415313" y="173.544" style="stroke: #000000"/>
      </g>
     </g>
     <g id="text_15">
      <!-- 0.00 -->
      <g transform="translate(190.915313 177.480797) scale(0.11 -0.11)">
       <use xlink:href="#ArialMT-30"/>
       <use xlink:href="#ArialMT-2e" x="55.615234"/>
       <use xlink:href="#ArialMT-30" x="83.398438"/>
       <use xlink:href="#ArialMT-30" x="139.013672"/>
      </g>
     </g>
    </g>
    <g id="ytick_7">
     <g id="line2d_13">
      <g>
       <use xlink:href="#m42b4bec43f" x="187.415313" y="138.894" style="stroke: #000000"/>
      </g>
     </g>
     <g id="text_16">
      <!-- 0.01 -->
      <g transform="translate(190.915313 142.830797) scale(0.11 -0.11)">
       <use xlink:href="#ArialMT-30"/>
       <use xlink:href="#ArialMT-2e" x="55.615234"/>
       <use xlink:href="#ArialMT-30" x="83.398438"/>
       <use xlink:href="#ArialMT-31" x="139.013672"/>
      </g>
     </g>
    </g>
    <g id="ytick_8">
     <g id="line2d_14">
      <g>
       <use xlink:href="#m42b4bec43f" x="187.415313" y="104.244" style="stroke: #000000"/>
      </g>
     </g>
     <g id="text_17">
      <!-- 0.02 -->
      <g transform="translate(190.915313 108.180797) scale(0.11 -0.11)">
       <use xlink:href="#ArialMT-30"/>
       <use xlink:href="#ArialMT-2e" x="55.615234"/>
       <use xlink:href="#ArialMT-30" x="83.398438"/>
       <use xlink:href="#ArialMT-32" x="139.013672"/>
      </g>
     </g>
    </g>
    <g id="ytick_9">
     <g id="line2d_15">
      <g>
       <use xlink:href="#m42b4bec43f" x="187.415313" y="69.594" style="stroke: #000000"/>
      </g>
     </g>
     <g id="text_18">
      <!-- 0.03 -->
      <g transform="translate(190.915313 73.530797) scale(0.11 -0.11)">
       <use xlink:href="#ArialMT-30"/>
       <use xlink:href="#ArialMT-2e" x="55.615234"/>
       <use xlink:href="#ArialMT-30" x="83.398438"/>
       <use xlink:href="#ArialMT-33" x="139.013672"/>
      </g>
     </g>
    </g>
    <g id="ytick_10">
     <g id="line2d_16">
      <g>
       <use xlink:href="#m42b4bec43f" x="187.415313" y="34.944" style="stroke: #000000"/>
      </g>
     </g>
     <g id="text_19">
      <!-- 0.04 -->
      <g transform="translate(190.915313 38.880797) scale(0.11 -0.11)">
       <use xlink:href="#ArialMT-30"/>
       <use xlink:href="#ArialMT-2e" x="55.615234"/>
       <use xlink:href="#ArialMT-30" x="83.398438"/>
       <use xlink:href="#ArialMT-34" x="139.013672"/>
      </g>
     </g>
    </g>
   </g>
   <g id="LineCollection_1"/>
   <g id="patch_6">
    <path d="M 180.485313 173.544 
L 183.950313 173.544 
L 187.415313 173.544 
L 187.415313 34.944 
L 183.950313 34.944 
L 180.485313 34.944 
L 180.485313 173.544 
z
" style="fill: none; stroke: #000000; stroke-width: 0.8; stroke-linejoin: miter; stroke-linecap: square"/>
   </g>
  </g>
 </g>
 <defs>
  <clipPath id="p105c66805d">
   <rect x="38.195312" y="34.944" width="133.92" height="138.6"/>
  </clipPath>
  <clipPath id="pcdaf71add6">
   <rect x="180.485313" y="34.944" width="6.93" height="138.6"/>
  </clipPath>
 </defs>
</svg>
