<?xml version="1.0" encoding="utf-8" standalone="no"?>
<!DOCTYPE svg PUBLIC "-//W3C//DTD SVG 1.1//EN"
  "http://www.w3.org/Graphics/SVG/1.1/DTD/svg11.dtd">
<svg xmlns:xlink="http://www.w3.org/1999/xlink" width="170.151944pt" height="146.949891pt" viewBox="0 0 170.151944 146.949891" xmlns="http://www.w3.org/2000/svg" version="1.1">
 <metadata>
  <rdf:RDF xmlns:dc="http://purl.org/dc/elements/1.1/" xmlns:cc="http://creativecommons.org/ns#" xmlns:rdf="http://www.w3.org/1999/02/22-rdf-syntax-ns#">
   <cc:Work>
    <dc:type rdf:resource="http://purl.org/dc/dcmitype/StillImage"/>
    <dc:date>2025-04-28T20:21:05.337194</dc:date>
    <dc:format>image/svg+xml</dc:format>
    <dc:creator>
     <cc:Agent>
      <dc:title>Matplotlib v3.7.2, https://matplotlib.org/</dc:title>
     </cc:Agent>
    </dc:creator>
   </cc:Work>
  </rdf:RDF>
 </metadata>
 <defs>
  <style type="text/css">*{stroke-linejoin: round; stroke-linecap: butt}</style>
 </defs>
 <g id="figure_1">
  <g id="patch_1">
   <path d="M 0 146.949891 
L 170.151944 146.949891 
L 170.151944 0 
L 0 0 
z
" style="fill: #ffffff"/>
  </g>
  <g id="axes_1">
   <g id="patch_2">
    <path d="M 38.195312 110.928797 
L 127.475313 110.928797 
L 127.475313 11.136797 
L 38.195312 11.136797 
z
" style="fill: #ffffff"/>
   </g>
   <g id="PathCollection_1">
    <path d="M 10.295312 114.047297 
L 16.495312 114.047297 
L 22.695312 114.047297 
L 28.895312 114.047297 
L 35.095312 114.047297 
L 41.295312 114.047297 
L 47.495312 114.047297 
L 53.695312 114.047297 
L 59.895313 114.047297 
L 66.095313 114.047297 
L 72.295313 114.047297 
L 78.495313 114.047297 
L 84.695312 114.047297 
L 90.895313 114.047297 
L 97.095313 114.047297 
L 103.295313 114.047297 
L 109.495313 114.047297 
L 115.695313 114.047297 
L 121.895313 114.047297 
L 128.095313 114.047297 
L 134.295313 114.047297 
L 140.495313 114.047297 
L 146.695313 114.047297 
L 152.895313 114.047297 
L 159.095313 114.047297 
L 165.295313 114.047297 
L 171.495313 114.047297 
L 177.695313 114.047297 
L 183.895313 114.047297 
L 183.895313 107.810297 
L 183.895313 101.573297 
L 183.895313 95.336297 
L 183.895313 89.099297 
L 183.895313 82.862297 
L 183.895313 76.625297 
L 183.895313 70.388297 
L 183.895313 64.151297 
L 183.895313 57.914297 
L 183.895313 51.677297 
L 183.895313 45.440297 
L 183.895313 39.203297 
L 183.895313 32.966297 
L 183.895313 26.729297 
L 183.895313 20.492297 
L 183.895313 14.255297 
L 183.895313 8.018297 
L 183.895313 1.781297 
L 177.695313 1.781297 
L 171.495313 1.781297 
L 165.295313 1.781297 
L 159.095313 1.781297 
L 152.895313 1.781297 
L 146.695313 1.781297 
L 140.495313 1.781297 
L 134.295313 1.781297 
L 128.095313 1.781297 
L 121.895313 1.781297 
L 115.695313 1.781297 
L 109.495313 1.781297 
L 103.295313 1.781297 
L 97.095313 1.781297 
L 90.895313 1.781297 
L 84.695312 1.781297 
L 78.495313 1.781297 
L 72.295313 1.781297 
L 66.095313 1.781297 
L 59.895313 1.781297 
L 53.695312 1.781297 
L 47.495312 1.781297 
L 41.295312 1.781297 
L 35.095312 1.781297 
L 28.895312 1.781297 
L 22.695312 1.781297 
L 16.495312 1.781297 
L 10.295312 1.781297 
L 4.095312 1.781297 
L 4.095312 8.018297 
L 4.095312 14.255297 
L 4.095312 20.492297 
L 4.095312 26.729297 
L 4.095312 32.966297 
L 4.095312 39.203297 
L 4.095312 45.440297 
L 4.095312 51.677297 
L 4.095312 57.914297 
L 4.095312 64.151297 
L 4.095312 70.388297 
L 4.095312 76.625297 
L 4.095312 82.862297 
L 4.095312 89.099297 
L 4.095312 95.336297 
L 4.095312 101.573297 
L 4.095312 107.810297 
L 4.095312 114.047297 
z
M 64.271687 95.336297 
L 61.149166 89.099297 
L 63.024524 82.862297 
L 61.776952 76.625297 
L 59.895313 76.132882 
L 53.695313 76.107006 
L 47.495312 74.630751 
L 43.101142 70.388297 
L 41.295312 67.100983 
L 38.79665 64.151297 
L 36.338406 57.914297 
L 35.683696 51.677297 
L 35.474329 45.440297 
L 35.834155 39.203297 
L 37.679734 32.966297 
L 41.295312 28.504632 
L 44.507613 26.729297 
L 47.495312 24.460223 
L 53.695312 25.988629 
L 54.556313 26.729297 
L 59.895313 30.614436 
L 61.904359 32.966297 
L 65.13374 39.203297 
L 66.001746 45.440297 
L 66.095313 46.707471 
L 67.881534 51.677297 
L 70.016411 57.914297 
L 72.295313 61.844072 
L 77.335579 64.151297 
L 78.495313 64.324725 
L 84.695312 64.84685 
L 90.895313 65.5665 
L 97.095313 67.643814 
L 101.125059 70.388297 
L 103.295313 71.198057 
L 109.495313 74.598689 
L 112.245656 76.625297 
L 115.695313 82.029943 
L 116.382609 82.862297 
L 115.695313 83.65795 
L 111.440345 89.099297 
L 109.495313 90.411256 
L 103.295313 93.619631 
L 97.095313 94.884206 
L 93.995243 95.336297 
L 90.895313 96.949421 
L 84.695312 99.330868 
L 78.495313 100.249834 
L 72.295313 100.028195 
L 66.095313 97.009044 
z
" clip-path="url(#p7992e7e067)" style="fill: #372466"/>
   </g>
   <g id="PathCollection_2">
    <path d="M 66.095313 97.009044 
L 72.295313 100.028195 
L 78.495313 100.249834 
L 84.695312 99.330868 
L 90.895313 96.949421 
L 93.995243 95.336297 
L 97.095313 94.884206 
L 103.295313 93.619631 
L 109.495313 90.411256 
L 111.440345 89.099297 
L 115.695313 83.65795 
L 116.382609 82.862297 
L 115.695313 82.029943 
L 112.245656 76.625297 
L 109.495313 74.598689 
L 103.295313 71.198057 
L 101.125059 70.388297 
L 97.095313 67.643814 
L 90.895313 65.5665 
L 84.695312 64.84685 
L 78.495313 64.324725 
L 77.335579 64.151297 
L 72.295313 61.844072 
L 70.016411 57.914297 
L 67.881534 51.677297 
L 66.095313 46.707471 
L 66.001746 45.440297 
L 65.13374 39.203297 
L 61.904359 32.966297 
L 59.895313 30.614436 
L 54.556313 26.729297 
L 53.695312 25.988629 
L 47.495312 24.460223 
L 44.507613 26.729297 
L 41.295312 28.504632 
L 37.679734 32.966297 
L 35.834155 39.203297 
L 35.474329 45.440297 
L 35.683696 51.677297 
L 36.338406 57.914297 
L 38.79665 64.151297 
L 41.295312 67.100983 
L 43.101142 70.388297 
L 47.495312 74.630751 
L 53.695312 76.107006 
L 59.895313 76.132882 
L 61.776952 76.625297 
L 63.024524 82.862297 
L 61.149166 89.099297 
L 64.271687 95.336297 
z
M 68.424706 95.336297 
L 66.095313 92.709372 
L 63.706237 89.099297 
L 66.095313 84.395023 
L 66.655332 82.862297 
L 66.978433 76.625297 
L 66.095313 75.023113 
L 59.895313 74.350306 
L 53.695312 74.947552 
L 47.495312 72.072776 
L 45.750594 70.388297 
L 41.57632 64.151297 
L 41.295312 63.070778 
L 38.07547 57.914297 
L 36.846812 51.677297 
L 36.46469 45.440297 
L 37.196217 39.203297 
L 40.892235 32.966297 
L 41.295312 32.468894 
L 47.495312 27.606876 
L 53.695313 28.330614 
L 58.742688 32.966297 
L 59.895313 34.422088 
L 63.347864 39.203297 
L 65.004205 45.440297 
L 65.659522 51.677297 
L 66.095313 56.181059 
L 66.862554 57.914297 
L 70.132883 64.151297 
L 72.295313 65.770664 
L 78.495312 66.101409 
L 84.695312 66.388327 
L 90.895313 67.607901 
L 95.923063 70.388297 
L 97.095313 70.751196 
L 103.295313 73.401279 
L 107.658042 76.625297 
L 109.495313 79.54373 
L 112.166249 82.862297 
L 109.495313 85.837448 
L 106.460818 89.099297 
L 103.295313 91.11033 
L 97.095313 93.458496 
L 90.895313 94.576465 
L 87.027589 95.336297 
L 84.695312 96.501461 
L 78.495313 98.283188 
L 72.295313 97.825092 
z
" clip-path="url(#p7992e7e067)" style="fill: #4249b1"/>
   </g>
   <g id="PathCollection_3">
    <path d="M 72.295313 97.825092 
L 78.495313 98.283188 
L 84.695312 96.501461 
L 87.027589 95.336297 
L 90.895313 94.576465 
L 97.095313 93.458496 
L 103.295313 91.11033 
L 106.460818 89.099297 
L 109.495313 85.837448 
L 112.166249 82.862297 
L 109.495313 79.54373 
L 107.658042 76.625297 
L 103.295313 73.401279 
L 97.095313 70.751196 
L 95.923063 70.388297 
L 90.895313 67.607901 
L 84.695312 66.388327 
L 78.495313 66.101409 
L 72.295312 65.770664 
L 70.132883 64.151297 
L 66.862554 57.914297 
L 66.095313 56.181059 
L 65.659522 51.677297 
L 65.004205 45.440297 
L 63.347864 39.203297 
L 59.895313 34.422088 
L 58.742688 32.966297 
L 53.695312 28.330614 
L 47.495312 27.606876 
L 41.295312 32.468894 
L 40.892235 32.966297 
L 37.196217 39.203297 
L 36.46469 45.440297 
L 36.846812 51.677297 
L 38.07547 57.914297 
L 41.295312 63.070778 
L 41.57632 64.151297 
L 45.750594 70.388297 
L 47.495312 72.072776 
L 53.695312 74.947552 
L 59.895313 74.350306 
L 66.095313 75.023113 
L 66.978433 76.625297 
L 66.655332 82.862297 
L 66.095313 84.395023 
L 63.706237 89.099297 
L 66.095313 92.709372 
L 68.424706 95.336297 
z
M 71.850999 95.336297 
L 66.190718 89.099297 
L 68.495022 82.862297 
L 69.391096 76.625297 
L 66.095313 70.645985 
L 59.895313 72.567729 
L 53.695312 73.788097 
L 48.14203 70.388297 
L 47.495312 70.105187 
L 42.299788 64.151297 
L 41.295312 60.288923 
L 39.812533 57.914297 
L 38.009927 51.677297 
L 37.455051 45.440297 
L 38.558279 39.203297 
L 41.295312 34.857567 
L 42.872481 32.966297 
L 47.495312 29.110926 
L 53.695312 30.129011 
L 56.784575 32.966297 
L 59.895313 36.895229 
L 61.561988 39.203297 
L 64.006663 45.440297 
L 64.970124 51.677297 
L 65.696736 57.914297 
L 66.095313 63.588622 
L 66.377138 64.151297 
L 72.295312 68.58321 
L 78.495313 67.878092 
L 84.695312 67.929803 
L 90.895313 69.649303 
L 92.231625 70.388297 
L 97.095313 71.893973 
L 103.295313 75.604502 
L 104.676649 76.625297 
L 108.962273 82.862297 
L 103.295313 88.732903 
L 102.749633 89.099297 
L 97.095313 92.032786 
L 90.895313 93.463835 
L 84.695312 94.708616 
L 81.33924 95.336297 
L 78.495313 96.316542 
L 72.295313 95.62199 
z
" clip-path="url(#p7992e7e067)" style="fill: #466be3"/>
   </g>
   <g id="PathCollection_4">
    <path d="M 72.295313 95.62199 
L 78.495313 96.316542 
L 81.33924 95.336297 
L 84.695312 94.708616 
L 90.895313 93.463835 
L 97.095313 92.032786 
L 102.749633 89.099297 
L 103.295313 88.732903 
L 108.962273 82.862297 
L 104.676649 76.625297 
L 103.295312 75.604502 
L 97.095313 71.893973 
L 92.231625 70.388297 
L 90.895313 69.649303 
L 84.695312 67.929803 
L 78.495313 67.878092 
L 72.295313 68.58321 
L 66.377138 64.151297 
L 66.095313 63.588622 
L 65.696736 57.914297 
L 64.970124 51.677297 
L 64.006663 45.440297 
L 61.561988 39.203297 
L 59.895313 36.895229 
L 56.784575 32.966297 
L 53.695312 30.129011 
L 47.495312 29.110926 
L 42.872481 32.966297 
L 41.295312 34.857567 
L 38.558279 39.203297 
L 37.455051 45.440297 
L 38.009927 51.677297 
L 39.812533 57.914297 
L 41.295312 60.288923 
L 42.299788 64.151297 
L 47.495312 70.105187 
L 48.14203 70.388297 
L 53.695312 73.788097 
L 59.895313 72.567729 
L 66.095313 70.645985 
L 69.391096 76.625297 
L 68.495022 82.862297 
L 66.190718 89.099297 
L 71.850999 95.336297 
z
M 67.64289 89.099297 
L 70.334712 82.862297 
L 71.80376 76.625297 
L 72.295313 74.363994 
L 75.175565 70.388297 
L 78.495313 69.654776 
L 84.695312 69.47128 
L 87.686938 70.388297 
L 90.895313 70.901524 
L 97.095313 73.036751 
L 102.390354 76.625297 
L 103.295313 77.856696 
L 107.181102 82.862297 
L 103.295313 86.887724 
L 100.001568 89.099297 
L 97.095313 90.607077 
L 90.895313 92.351205 
L 84.695312 93.641484 
L 78.495313 94.769906 
L 72.295313 94.003926 
z
M 50.0359 70.388297 
L 47.495312 69.276117 
L 43.023257 64.151297 
L 41.360581 57.914297 
L 41.295312 57.451078 
L 39.173042 51.677297 
L 38.445412 45.440297 
L 39.920342 39.203297 
L 41.295312 37.020184 
L 44.675931 32.966297 
L 47.495312 30.614975 
L 53.695312 31.927409 
L 54.826463 32.966297 
L 59.842637 39.203297 
L 59.895313 39.33387 
L 63.009121 45.440297 
L 64.280726 51.677297 
L 65.170026 57.914297 
L 65.389193 64.151297 
L 61.081389 70.388297 
L 59.895313 70.785152 
L 53.695312 72.628642 
z
" clip-path="url(#p7992e7e067)" style="fill: #458afc"/>
   </g>
   <g id="PathCollection_5">
    <path d="M 72.295313 94.003926 
L 78.495313 94.769906 
L 84.695312 93.641484 
L 90.895313 92.351205 
L 97.095313 90.607077 
L 100.001568 89.099297 
L 103.295313 86.887724 
L 107.181102 82.862297 
L 103.295313 77.856696 
L 102.390354 76.625297 
L 97.095313 73.036751 
L 90.895313 70.901524 
L 87.686938 70.388297 
L 84.695312 69.47128 
L 78.495313 69.654776 
L 75.175565 70.388297 
L 72.295312 74.363994 
L 71.80376 76.625297 
L 70.334712 82.862297 
L 67.64289 89.099297 
z
M 69.095061 89.099297 
L 72.174402 82.862297 
L 72.295313 82.386748 
L 73.373893 76.625297 
L 78.495313 71.226661 
L 84.695312 70.719157 
L 90.895313 71.705959 
L 97.095313 74.179528 
L 100.704141 76.625297 
L 103.295313 80.151168 
L 105.39993 82.862297 
L 103.295313 85.042545 
L 97.253503 89.099297 
L 97.095313 89.181367 
L 90.895313 91.238575 
L 84.695312 92.574353 
L 78.495313 93.64066 
L 72.295313 92.473033 
z
" clip-path="url(#p7992e7e067)" style="fill: #35abf8"/>
    <path d="M 53.695312 72.628642 
L 59.895313 70.785152 
L 61.081389 70.388297 
L 65.389193 64.151297 
L 65.170026 57.914297 
L 64.280726 51.677297 
L 63.009121 45.440297 
L 59.895313 39.33387 
L 59.842637 39.203297 
L 54.826463 32.966297 
L 53.695312 31.927409 
L 47.495312 30.614975 
L 44.675931 32.966297 
L 41.295312 37.020184 
L 39.920342 39.203297 
L 38.445412 45.440297 
L 39.173042 51.677297 
L 41.295312 57.451078 
L 41.360581 57.914297 
L 43.023257 64.151297 
L 47.495312 69.276117 
L 50.0359 70.388297 
z
M 51.92977 70.388297 
L 47.495312 68.447048 
L 43.746725 64.151297 
L 41.806443 57.914297 
L 41.295312 54.286743 
L 40.336158 51.677297 
L 39.435772 45.440297 
L 41.282404 39.203297 
L 41.295312 39.182801 
L 46.47938 32.966297 
L 47.495312 32.119025 
L 51.038778 32.966297 
L 53.695312 33.331539 
L 59.053453 39.203297 
L 59.895313 41.290128 
L 62.01158 45.440297 
L 63.591328 51.677297 
L 64.643317 57.914297 
L 64.625789 64.151297 
L 59.895313 69.693071 
L 57.076136 70.388297 
L 53.695312 71.469188 
z
" clip-path="url(#p7992e7e067)" style="fill: #35abf8"/>
   </g>
   <g id="PathCollection_6">
    <path d="M 72.295313 92.473033 
L 78.495313 93.64066 
L 84.695312 92.574353 
L 90.895313 91.238575 
L 97.095313 89.181367 
L 97.253503 89.099297 
L 103.295313 85.042545 
L 105.39993 82.862297 
L 103.295313 80.151168 
L 100.704141 76.625297 
L 97.095313 74.179528 
L 90.895313 71.705959 
L 84.695312 70.719157 
L 78.495313 71.226661 
L 73.373893 76.625297 
L 72.295313 82.386748 
L 72.174402 82.862297 
L 69.095061 89.099297 
z
M 70.547232 89.099297 
L 72.295313 85.587721 
L 73.616565 82.862297 
L 74.728449 76.625297 
L 78.495312 72.654538 
L 84.695312 71.535884 
L 90.895313 72.510394 
L 97.095313 75.322305 
L 99.017928 76.625297 
L 103.295313 82.445639 
L 103.618759 82.862297 
L 103.295313 83.197366 
L 97.095313 88.119204 
L 93.962546 89.099297 
L 90.895313 90.125944 
L 84.695312 91.507222 
L 78.495313 92.511413 
L 72.295313 90.94214 
z
" clip-path="url(#p7992e7e067)" style="fill: #1fc9dd"/>
    <path d="M 53.695312 71.469188 
L 57.076136 70.388297 
L 59.895313 69.693071 
L 64.625789 64.151297 
L 64.643317 57.914297 
L 63.591328 51.677297 
L 62.01158 45.440297 
L 59.895313 41.290128 
L 59.053453 39.203297 
L 53.695312 33.331539 
L 51.038778 32.966297 
L 47.495312 32.119025 
L 46.47938 32.966297 
L 41.295312 39.182801 
L 41.282404 39.203297 
L 39.435772 45.440297 
L 40.336158 51.677297 
L 41.295312 54.286743 
L 41.806443 57.914297 
L 43.746725 64.151297 
L 47.495312 68.447048 
L 51.92977 70.388297 
z
M 44.470193 64.151297 
L 42.252305 57.914297 
L 41.373139 51.677297 
L 41.295312 50.63864 
L 40.426133 45.440297 
L 41.295312 42.510233 
L 42.02125 39.203297 
L 47.495312 33.310791 
L 53.695312 34.196373 
L 58.264268 39.203297 
L 59.895313 43.246387 
L 61.014038 45.440297 
L 62.90193 51.677297 
L 64.116607 57.914297 
L 63.862385 64.151297 
L 59.895313 68.798739 
L 53.695312 70.358426 
L 47.495312 67.617978 
z
" clip-path="url(#p7992e7e067)" style="fill: #1fc9dd"/>
   </g>
   <g id="PathCollection_7">
    <path d="M 72.295313 90.94214 
L 78.495313 92.511413 
L 84.695312 91.507222 
L 90.895313 90.125944 
L 93.962546 89.099297 
L 97.095313 88.119204 
L 103.295313 83.197366 
L 103.618759 82.862297 
L 103.295313 82.445639 
L 99.017928 76.625297 
L 97.095313 75.322305 
L 90.895313 72.510394 
L 84.695312 71.535884 
L 78.495313 72.654538 
L 74.728449 76.625297 
L 73.616565 82.862297 
L 72.295313 85.587721 
L 70.547232 89.099297 
z
M 71.999403 89.099297 
L 72.295313 88.504869 
L 75.030764 82.862297 
L 76.083006 76.625297 
L 78.495313 74.082415 
L 84.695312 72.352611 
L 90.895313 73.314829 
L 97.095313 76.465082 
L 97.331715 76.625297 
L 102.25411 82.862297 
L 97.095313 87.079247 
L 90.895313 89.032716 
L 90.536073 89.099297 
L 84.695312 90.440091 
L 78.495313 91.382167 
L 72.295313 89.411247 
z
" clip-path="url(#p7992e7e067)" style="fill: #19e2bb"/>
    <path d="M 47.495312 67.617978 
L 53.695312 70.358426 
L 59.895313 68.798739 
L 63.862385 64.151297 
L 64.116607 57.914297 
L 62.90193 51.677297 
L 61.014038 45.440297 
L 59.895313 43.246387 
L 58.264268 39.203297 
L 53.695312 34.196373 
L 47.495312 33.310791 
L 42.02125 39.203297 
L 41.295312 42.510233 
L 40.426133 45.440297 
L 41.295312 50.63864 
L 41.373139 51.677297 
L 42.252305 57.914297 
L 44.470193 64.151297 
z
M 45.193662 64.151297 
L 42.698166 57.914297 
L 41.816955 51.677297 
L 41.354557 45.440297 
L 42.754133 39.203297 
L 47.495312 34.099696 
L 53.695312 35.061207 
L 57.475083 39.203297 
L 59.895313 45.202645 
L 60.016497 45.440297 
L 62.212531 51.677297 
L 63.589897 57.914297 
L 63.098981 64.151297 
L 59.895313 67.904408 
L 53.695312 69.917587 
L 47.495312 66.788908 
z
" clip-path="url(#p7992e7e067)" style="fill: #19e2bb"/>
   </g>
   <g id="PathCollection_8">
    <path d="M 72.295313 89.411247 
L 78.495313 91.382167 
L 84.695312 90.440091 
L 90.536073 89.099297 
L 90.895313 89.032716 
L 97.095313 87.079247 
L 102.25411 82.862297 
L 97.331715 76.625297 
L 97.095313 76.465082 
L 90.895313 73.314829 
L 84.695312 72.352611 
L 78.495313 74.082415 
L 76.083006 76.625297 
L 75.030764 82.862297 
L 72.295313 88.504869 
L 71.999403 89.099297 
z
M 75.011002 89.099297 
L 76.444963 82.862297 
L 77.437562 76.625297 
L 78.495313 75.510291 
L 84.695312 73.169338 
L 90.895313 74.119264 
L 95.754261 76.625297 
L 97.095313 77.995146 
L 100.98188 82.862297 
L 97.095313 86.03929 
L 90.895313 88.171147 
L 85.887441 89.099297 
L 84.695312 89.37296 
L 78.495313 90.25292 
z
" clip-path="url(#p7992e7e067)" style="fill: #32f298"/>
    <path d="M 47.495312 66.788908 
L 53.695312 69.917587 
L 59.895313 67.904408 
L 63.098981 64.151297 
L 63.589897 57.914297 
L 62.212531 51.677297 
L 60.016497 45.440297 
L 59.895313 45.202645 
L 57.475083 39.203297 
L 53.695312 35.061207 
L 47.495312 34.099696 
L 42.754133 39.203297 
L 41.354557 45.440297 
L 41.816955 51.677297 
L 42.698166 57.914297 
L 45.193662 64.151297 
z
M 45.91713 64.151297 
L 43.144028 57.914297 
L 42.260771 51.677297 
L 41.838734 45.440297 
L 43.487016 39.203297 
L 47.495312 34.888602 
L 53.695312 35.926041 
L 56.685899 39.203297 
L 59.452154 45.440297 
L 59.895313 47.13158 
L 61.523133 51.677297 
L 63.063188 57.914297 
L 62.335577 64.151297 
L 59.895313 67.010077 
L 53.695312 69.476748 
L 47.495312 65.959839 
z
" clip-path="url(#p7992e7e067)" style="fill: #32f298"/>
   </g>
   <g id="PathCollection_9">
    <path d="M 78.495313 90.25292 
L 84.695312 89.37296 
L 85.887441 89.099297 
L 90.895313 88.171147 
L 97.095313 86.03929 
L 100.98188 82.862297 
L 97.095313 77.995146 
L 95.754261 76.625297 
L 90.895313 74.119264 
L 84.695312 73.169338 
L 78.495313 75.510291 
L 77.437562 76.625297 
L 76.444963 82.862297 
L 75.011002 89.099297 
z
M 78.421688 89.099297 
L 77.859161 82.862297 
L 78.495313 78.668249 
L 78.88902 76.625297 
L 84.695312 73.986065 
L 90.895313 74.923699 
L 94.194542 76.625297 
L 97.095313 79.58836 
L 99.709651 82.862297 
L 97.095313 84.999333 
L 90.895313 87.309577 
L 84.695313 88.176934 
L 78.67023 89.099297 
L 78.495313 89.123673 
z
" clip-path="url(#p7992e7e067)" style="fill: #5dfc6f"/>
    <path d="M 47.495312 65.959839 
L 53.695312 69.476748 
L 59.895313 67.010077 
L 62.335577 64.151297 
L 63.063188 57.914297 
L 61.523133 51.677297 
L 59.895313 47.13158 
L 59.452154 45.440297 
L 56.685899 39.203297 
L 53.695312 35.926041 
L 47.495312 34.888602 
L 43.487016 39.203297 
L 41.838734 45.440297 
L 42.260771 51.677297 
L 43.144028 57.914297 
L 45.91713 64.151297 
z
M 46.640599 64.151297 
L 43.58989 57.914297 
L 42.704587 51.677297 
L 42.322911 45.440297 
L 44.219899 39.203297 
L 47.495312 35.677507 
L 53.695312 36.790874 
L 55.896714 39.203297 
L 58.947715 45.440297 
L 59.895313 49.056736 
L 60.833735 51.677297 
L 62.536478 57.914297 
L 61.572173 64.151297 
L 59.895313 66.115746 
L 53.695312 69.035908 
L 47.495312 65.130769 
z
" clip-path="url(#p7992e7e067)" style="fill: #5dfc6f"/>
   </g>
   <g id="PathCollection_10">
    <path d="M 78.495313 89.123673 
L 78.67023 89.099297 
L 84.695313 88.176934 
L 90.895313 87.309577 
L 97.095313 84.999333 
L 99.709651 82.862297 
L 97.095313 79.58836 
L 94.194542 76.625297 
L 90.895313 74.923699 
L 84.695312 73.986065 
L 78.88902 76.625297 
L 78.495313 78.668249 
L 77.859161 82.862297 
L 78.421688 89.099297 
z
M 79.384878 82.862297 
L 80.685814 76.625297 
L 84.695312 74.802792 
L 90.895313 75.728134 
L 92.634822 76.625297 
L 97.095313 81.181573 
L 98.437421 82.862297 
L 97.095313 83.959376 
L 90.895313 86.448008 
L 84.695312 86.936454 
z
" clip-path="url(#p7992e7e067)" style="fill: #8fff49"/>
    <path d="M 47.495312 65.130769 
L 53.695312 69.035908 
L 59.895313 66.115746 
L 61.572173 64.151297 
L 62.536478 57.914297 
L 60.833735 51.677297 
L 59.895313 49.056736 
L 58.947715 45.440297 
L 55.896714 39.203297 
L 53.695312 36.790874 
L 47.495312 35.677507 
L 44.219899 39.203297 
L 42.322911 45.440297 
L 42.704587 51.677297 
L 43.58989 57.914297 
L 46.640599 64.151297 
z
M 47.364067 64.151297 
L 44.035752 57.914297 
L 43.148403 51.677297 
L 42.807087 45.440297 
L 44.952782 39.203297 
L 47.495312 36.466412 
L 53.695312 37.655708 
L 55.107529 39.203297 
L 58.443276 45.440297 
L 59.895313 50.981892 
L 60.144337 51.677297 
L 62.009769 57.914297 
L 60.808769 64.151297 
L 59.895313 65.221415 
L 53.695312 68.595069 
L 47.495312 64.301699 
z
" clip-path="url(#p7992e7e067)" style="fill: #8fff49"/>
   </g>
   <g id="PathCollection_11">
    <path d="M 84.695312 86.936454 
L 90.895313 86.448008 
L 97.095313 83.959376 
L 98.437421 82.862297 
L 97.095313 81.181573 
L 92.634822 76.625297 
L 90.895313 75.728134 
L 84.695312 74.802792 
L 80.685814 76.625297 
L 79.384878 82.862297 
z
M 81.001775 82.862297 
L 82.482608 76.625297 
L 84.695312 75.619519 
L 90.895313 76.532569 
L 91.075102 76.625297 
L 97.095313 82.774787 
L 97.165192 82.862297 
L 97.095313 82.919418 
L 90.895313 85.586439 
L 84.695312 85.695973 
z
" clip-path="url(#p7992e7e067)" style="fill: #b4f836"/>
    <path d="M 47.495312 64.301699 
L 53.695312 68.595069 
L 59.895313 65.221415 
L 60.808769 64.151297 
L 62.009769 57.914297 
L 60.144337 51.677297 
L 59.895313 50.981892 
L 58.443276 45.440297 
L 55.107529 39.203297 
L 53.695312 37.655708 
L 47.495312 36.466412 
L 44.952782 39.203297 
L 42.807087 45.440297 
L 43.148403 51.677297 
L 44.035752 57.914297 
L 47.364067 64.151297 
z
M 48.008024 64.151297 
L 47.495312 63.477553 
L 44.481614 57.914297 
L 43.592219 51.677297 
L 43.291264 45.440297 
L 45.685665 39.203297 
L 47.495312 37.255318 
L 53.695312 38.520542 
L 54.318345 39.203297 
L 57.938837 45.440297 
L 59.621847 51.677297 
L 59.895313 52.767854 
L 61.483059 57.914297 
L 60.045365 64.151297 
L 59.895313 64.327083 
L 53.695312 68.15423 
z
" clip-path="url(#p7992e7e067)" style="fill: #b4f836"/>
   </g>
   <g id="PathCollection_12">
    <path d="M 84.695312 85.695973 
L 90.895313 85.586439 
L 97.095313 82.919418 
L 97.165192 82.862297 
L 97.095313 82.774787 
L 91.075102 76.625297 
L 90.895313 76.532569 
L 84.695312 75.619519 
L 82.482608 76.625297 
L 81.001775 82.862297 
z
M 82.618671 82.862297 
L 84.279403 76.625297 
L 84.695312 76.436247 
L 85.981041 76.625297 
L 90.895313 78.436536 
L 95.20937 82.862297 
L 90.895313 84.724869 
L 84.695312 84.455493 
z
" clip-path="url(#p7992e7e067)" style="fill: #d4e735"/>
    <path d="M 53.695312 68.15423 
L 59.895313 64.327083 
L 60.045365 64.151297 
L 61.483059 57.914297 
L 59.895313 52.767854 
L 59.621847 51.677297 
L 57.938837 45.440297 
L 54.318345 39.203297 
L 53.695312 38.520542 
L 47.495312 37.255318 
L 45.685665 39.203297 
L 43.291264 45.440297 
L 43.592219 51.677297 
L 44.481614 57.914297 
L 47.495312 63.477553 
L 48.008024 64.151297 
z
M 48.634359 64.151297 
L 47.495312 62.654497 
L 44.927475 57.914297 
L 44.036035 51.677297 
L 43.775441 45.440297 
L 46.418548 39.203297 
L 47.495312 38.044223 
L 52.918218 39.203297 
L 53.695312 39.375556 
L 57.434398 45.440297 
L 59.193741 51.677297 
L 59.895313 54.475105 
L 60.956349 57.914297 
L 59.895313 62.372999 
L 59.334583 64.151297 
L 53.695312 67.713391 
z
" clip-path="url(#p7992e7e067)" style="fill: #d4e735"/>
   </g>
   <g id="PathCollection_13">
    <path d="M 84.695312 84.455493 
L 90.895313 84.724869 
L 95.20937 82.862297 
L 90.895313 78.436536 
L 85.981041 76.625297 
L 84.695312 76.436247 
L 84.279403 76.625297 
L 82.618671 82.862297 
z
M 84.235568 82.862297 
L 84.695312 81.177927 
L 90.895313 80.483758 
L 93.213818 82.862297 
L 90.895313 83.8633 
L 84.695312 83.215012 
z
" clip-path="url(#p7992e7e067)" style="fill: #eecf3a"/>
    <path d="M 53.695312 67.713391 
L 59.334583 64.151297 
L 59.895313 62.372999 
L 60.956349 57.914297 
L 59.895313 54.475105 
L 59.193741 51.677297 
L 57.434398 45.440297 
L 53.695312 39.375556 
L 52.918218 39.203297 
L 47.495312 38.044223 
L 46.418548 39.203297 
L 43.775441 45.440297 
L 44.036035 51.677297 
L 44.927475 57.914297 
L 47.495312 62.654497 
L 48.634359 64.151297 
z
M 49.260695 64.151297 
L 47.495312 61.83144 
L 45.373337 57.914297 
L 44.479851 51.677297 
L 44.259618 45.440297 
L 47.151431 39.203297 
L 47.495312 38.833129 
L 49.227201 39.203297 
L 53.695312 40.193749 
L 56.929959 45.440297 
L 58.765636 51.677297 
L 59.895313 56.182355 
L 60.42964 57.914297 
L 59.895313 60.159653 
L 58.636676 64.151297 
L 53.695312 67.272552 
z
" clip-path="url(#p7992e7e067)" style="fill: #eecf3a"/>
   </g>
   <g id="PathCollection_14">
    <path d="M 84.695312 83.215012 
L 90.895313 83.8633 
L 93.213818 82.862297 
L 90.895313 80.483758 
L 84.695312 81.177927 
L 84.235568 82.862297 
z
M 89.75185 82.862297 
L 90.895313 82.530981 
L 91.218266 82.862297 
L 90.895313 83.00173 
z
" clip-path="url(#p7992e7e067)" style="fill: #fbb637"/>
    <path d="M 53.695312 67.272552 
L 58.636676 64.151297 
L 59.895313 60.159653 
L 60.42964 57.914297 
L 59.895313 56.182355 
L 58.765636 51.677297 
L 56.929959 45.440297 
L 53.695312 40.193749 
L 49.227201 39.203297 
L 47.495312 38.833129 
L 47.151431 39.203297 
L 44.259618 45.440297 
L 44.479851 51.677297 
L 45.373337 57.914297 
L 47.495312 61.83144 
L 49.260695 64.151297 
z
M 49.887031 64.151297 
L 47.495312 61.008384 
L 45.819199 57.914297 
L 44.923667 51.677297 
L 44.743795 45.440297 
L 47.495312 39.736073 
L 53.695312 41.011941 
L 56.42552 45.440297 
L 58.33753 51.677297 
L 59.895313 57.889606 
L 59.90293 57.914297 
L 59.895313 57.946307 
L 57.938769 64.151297 
L 53.695312 66.831713 
z
" clip-path="url(#p7992e7e067)" style="fill: #fbb637"/>
   </g>
   <g id="PathCollection_15">
    <path d="M 90.895313 83.00173 
L 91.218266 82.862297 
L 90.895313 82.530981 
L 89.75185 82.862297 
z
" clip-path="url(#p7992e7e067)" style="fill: #fe932a"/>
    <path d="M 53.695312 66.831713 
L 57.938769 64.151297 
L 59.895313 57.946307 
L 59.90293 57.914297 
L 59.895313 57.889606 
L 58.33753 51.677297 
L 56.42552 45.440297 
L 53.695312 41.011941 
L 47.495312 39.736073 
L 44.743795 45.440297 
L 44.923667 51.677297 
L 45.819199 57.914297 
L 47.495312 61.008384 
L 49.887031 64.151297 
z
M 50.513366 64.151297 
L 47.495312 60.185328 
L 46.265061 57.914297 
L 45.367483 51.677297 
L 45.227972 45.440297 
L 47.495312 40.73983 
L 53.695312 41.830134 
L 55.921081 45.440297 
L 57.909424 51.677297 
L 59.493399 57.914297 
L 57.240861 64.151297 
L 53.695312 66.390873 
z
" clip-path="url(#p7992e7e067)" style="fill: #fe932a"/>
   </g>
   <g id="PathCollection_16">
    <path d="M 53.695312 66.390873 
L 57.240861 64.151297 
L 59.493399 57.914297 
L 57.909424 51.677297 
L 55.921081 45.440297 
L 53.695312 41.830134 
L 47.495312 40.73983 
L 45.227972 45.440297 
L 45.367483 51.677297 
L 46.265061 57.914297 
L 47.495312 60.185328 
L 50.513366 64.151297 
z
M 51.139702 64.151297 
L 47.495312 59.362272 
L 46.710922 57.914297 
L 45.8113 51.677297 
L 45.712148 45.440297 
L 47.495312 41.743586 
L 53.695312 42.648326 
L 55.416642 45.440297 
L 57.481318 51.677297 
L 59.085588 57.914297 
L 56.542954 64.151297 
L 53.695312 65.950034 
z
" clip-path="url(#p7992e7e067)" style="fill: #f66c19"/>
   </g>
   <g id="PathCollection_17">
    <path d="M 53.695312 65.950034 
L 56.542954 64.151297 
L 59.085588 57.914297 
L 57.481318 51.677297 
L 55.416642 45.440297 
L 53.695312 42.648326 
L 47.495312 41.743586 
L 45.712148 45.440297 
L 45.8113 51.677297 
L 46.710922 57.914297 
L 47.495312 59.362272 
L 51.139702 64.151297 
z
M 51.766038 64.151297 
L 47.495312 58.539216 
L 47.156784 57.914297 
L 46.255116 51.677297 
L 46.196325 45.440297 
L 47.495312 42.747342 
L 53.695312 43.466519 
L 54.912203 45.440297 
L 57.053212 51.677297 
L 58.677776 57.914297 
L 55.845047 64.151297 
L 53.695312 65.509195 
z
" clip-path="url(#p7992e7e067)" style="fill: #e7490c"/>
   </g>
   <g id="PathCollection_18">
    <path d="M 53.695312 65.509195 
L 55.845047 64.151297 
L 58.677776 57.914297 
L 57.053212 51.677297 
L 54.912203 45.440297 
L 53.695312 43.466519 
L 47.495312 42.747342 
L 46.196325 45.440297 
L 46.255116 51.677297 
L 47.156784 57.914297 
L 47.495312 58.539216 
L 51.766038 64.151297 
z
M 52.392373 64.151297 
L 47.625571 57.914297 
L 47.495312 57.176529 
L 46.698932 51.677297 
L 46.680502 45.440297 
L 47.495312 43.751098 
L 53.695312 44.284711 
L 54.407764 45.440297 
L 56.625107 51.677297 
L 58.269965 57.914297 
L 55.147139 64.151297 
L 53.695312 65.068356 
z
" clip-path="url(#p7992e7e067)" style="fill: #d02f05"/>
   </g>
   <g id="PathCollection_19">
    <path d="M 53.695312 65.068356 
L 55.147139 64.151297 
L 58.269965 57.914297 
L 56.625107 51.677297 
L 54.407764 45.440297 
L 53.695313 44.284711 
L 47.495312 43.751098 
L 46.680502 45.440297 
L 46.698932 51.677297 
L 47.495312 57.176529 
L 47.625571 57.914297 
L 52.392373 64.151297 
z
M 53.018709 64.151297 
L 48.166664 57.914297 
L 47.495312 54.111855 
L 47.142748 51.677297 
L 47.164679 45.440297 
L 47.495312 44.754854 
L 53.695312 45.102904 
L 53.903325 45.440297 
L 56.197001 51.677297 
L 57.862153 57.914297 
L 54.449232 64.151297 
L 53.695312 64.627517 
z
" clip-path="url(#p7992e7e067)" style="fill: #b41b01"/>
   </g>
   <g id="PathCollection_20">
    <path d="M 53.695312 64.627517 
L 54.449232 64.151297 
L 57.862153 57.914297 
L 56.197001 51.677297 
L 53.903325 45.440297 
L 53.695312 45.102904 
L 47.495312 44.754854 
L 47.164679 45.440297 
L 47.142748 51.677297 
L 47.495312 54.111855 
L 48.166664 57.914297 
L 53.018709 64.151297 
z
M 53.645044 64.151297 
L 48.707756 57.914297 
L 47.747779 51.677297 
L 53.695312 46.11511 
L 55.768895 51.677297 
L 57.454342 57.914297 
L 53.751325 64.151297 
L 53.695312 64.186678 
z
" clip-path="url(#p7992e7e067)" style="fill: #8e0a01"/>
   </g>
   <g id="PathCollection_21">
    <path d="M 53.695312 64.186678 
L 53.751325 64.151297 
L 57.454342 57.914297 
L 55.768895 51.677297 
L 53.695312 46.11511 
L 47.747779 51.677297 
L 48.707756 57.914297 
L 53.645044 64.151297 
z
" clip-path="url(#p7992e7e067)" style="fill: #7a0403"/>
   </g>
   <g id="matplotlib.axis_1">
    <g id="xtick_1">
     <g id="line2d_1">
      <defs>
       <path id="m161c7a3d5d" d="M 0 0 
L 0 -5 
" style="stroke: #000000"/>
      </defs>
      <g>
       <use xlink:href="#m161c7a3d5d" x="38.195312" y="110.928797" style="stroke: #000000"/>
      </g>
     </g>
     <g id="text_1">
      <!-- 0.0 -->
      <g transform="translate(30.550313 122.302391) scale(0.11 -0.11)">
       <defs>
        <path id="ArialMT-30" d="M 266 2259 
Q 266 3072 433 3567 
Q 600 4063 929 4331 
Q 1259 4600 1759 4600 
Q 2128 4600 2406 4451 
Q 2684 4303 2865 4023 
Q 3047 3744 3150 3342 
Q 3253 2941 3253 2259 
Q 3253 1453 3087 958 
Q 2922 463 2592 192 
Q 2263 -78 1759 -78 
Q 1097 -78 719 397 
Q 266 969 266 2259 
z
M 844 2259 
Q 844 1131 1108 757 
Q 1372 384 1759 384 
Q 2147 384 2411 759 
Q 2675 1134 2675 2259 
Q 2675 3391 2411 3762 
Q 2147 4134 1753 4134 
Q 1366 4134 1134 3806 
Q 844 3388 844 2259 
z
" transform="scale(0.015625)"/>
        <path id="ArialMT-2e" d="M 581 0 
L 581 641 
L 1222 641 
L 1222 0 
L 581 0 
z
" transform="scale(0.015625)"/>
       </defs>
       <use xlink:href="#ArialMT-30"/>
       <use xlink:href="#ArialMT-2e" x="55.615234"/>
       <use xlink:href="#ArialMT-30" x="83.398438"/>
      </g>
     </g>
    </g>
    <g id="xtick_2">
     <g id="line2d_2">
      <g>
       <use xlink:href="#m161c7a3d5d" x="82.835313" y="110.928797" style="stroke: #000000"/>
      </g>
     </g>
     <g id="text_2">
      <!-- 0.6 -->
      <g transform="translate(75.190313 122.302391) scale(0.11 -0.11)">
       <defs>
        <path id="ArialMT-36" d="M 3184 3459 
L 2625 3416 
Q 2550 3747 2413 3897 
Q 2184 4138 1850 4138 
Q 1581 4138 1378 3988 
Q 1113 3794 959 3422 
Q 806 3050 800 2363 
Q 1003 2672 1297 2822 
Q 1591 2972 1913 2972 
Q 2475 2972 2870 2558 
Q 3266 2144 3266 1488 
Q 3266 1056 3080 686 
Q 2894 316 2569 119 
Q 2244 -78 1831 -78 
Q 1128 -78 684 439 
Q 241 956 241 2144 
Q 241 3472 731 4075 
Q 1159 4600 1884 4600 
Q 2425 4600 2770 4297 
Q 3116 3994 3184 3459 
z
M 888 1484 
Q 888 1194 1011 928 
Q 1134 663 1356 523 
Q 1578 384 1822 384 
Q 2178 384 2434 671 
Q 2691 959 2691 1453 
Q 2691 1928 2437 2201 
Q 2184 2475 1800 2475 
Q 1419 2475 1153 2201 
Q 888 1928 888 1484 
z
" transform="scale(0.015625)"/>
       </defs>
       <use xlink:href="#ArialMT-30"/>
       <use xlink:href="#ArialMT-2e" x="55.615234"/>
       <use xlink:href="#ArialMT-36" x="83.398438"/>
      </g>
     </g>
    </g>
    <g id="xtick_3">
     <g id="line2d_3">
      <g>
       <use xlink:href="#m161c7a3d5d" x="127.475313" y="110.928797" style="stroke: #000000"/>
      </g>
     </g>
     <g id="text_3">
      <!-- 1.2 -->
      <g transform="translate(119.830313 122.302391) scale(0.11 -0.11)">
       <defs>
        <path id="ArialMT-31" d="M 2384 0 
L 1822 0 
L 1822 3584 
Q 1619 3391 1289 3197 
Q 959 3003 697 2906 
L 697 3450 
Q 1169 3672 1522 3987 
Q 1875 4303 2022 4600 
L 2384 4600 
L 2384 0 
z
" transform="scale(0.015625)"/>
        <path id="ArialMT-32" d="M 3222 541 
L 3222 0 
L 194 0 
Q 188 203 259 391 
Q 375 700 629 1000 
Q 884 1300 1366 1694 
Q 2113 2306 2375 2664 
Q 2638 3022 2638 3341 
Q 2638 3675 2398 3904 
Q 2159 4134 1775 4134 
Q 1369 4134 1125 3890 
Q 881 3647 878 3216 
L 300 3275 
Q 359 3922 746 4261 
Q 1134 4600 1788 4600 
Q 2447 4600 2831 4234 
Q 3216 3869 3216 3328 
Q 3216 3053 3103 2787 
Q 2991 2522 2730 2228 
Q 2469 1934 1863 1422 
Q 1356 997 1212 845 
Q 1069 694 975 541 
L 3222 541 
z
" transform="scale(0.015625)"/>
       </defs>
       <use xlink:href="#ArialMT-31"/>
       <use xlink:href="#ArialMT-2e" x="55.615234"/>
       <use xlink:href="#ArialMT-32" x="83.398438"/>
      </g>
     </g>
    </g>
    <g id="text_4">
     <!-- Burst power (a.u.) -->
     <g transform="translate(35.155 137.224266) scale(0.12 -0.12)">
      <defs>
       <path id="ArialMT-42" d="M 469 0 
L 469 4581 
L 2188 4581 
Q 2713 4581 3030 4442 
Q 3347 4303 3526 4014 
Q 3706 3725 3706 3409 
Q 3706 3116 3547 2856 
Q 3388 2597 3066 2438 
Q 3481 2316 3704 2022 
Q 3928 1728 3928 1328 
Q 3928 1006 3792 729 
Q 3656 453 3456 303 
Q 3256 153 2954 76 
Q 2653 0 2216 0 
L 469 0 
z
M 1075 2656 
L 2066 2656 
Q 2469 2656 2644 2709 
Q 2875 2778 2992 2937 
Q 3109 3097 3109 3338 
Q 3109 3566 3000 3739 
Q 2891 3913 2687 3977 
Q 2484 4041 1991 4041 
L 1075 4041 
L 1075 2656 
z
M 1075 541 
L 2216 541 
Q 2509 541 2628 563 
Q 2838 600 2978 687 
Q 3119 775 3209 942 
Q 3300 1109 3300 1328 
Q 3300 1584 3169 1773 
Q 3038 1963 2805 2039 
Q 2572 2116 2134 2116 
L 1075 2116 
L 1075 541 
z
" transform="scale(0.015625)"/>
       <path id="ArialMT-75" d="M 2597 0 
L 2597 488 
Q 2209 -75 1544 -75 
Q 1250 -75 995 37 
Q 741 150 617 320 
Q 494 491 444 738 
Q 409 903 409 1263 
L 409 3319 
L 972 3319 
L 972 1478 
Q 972 1038 1006 884 
Q 1059 663 1231 536 
Q 1403 409 1656 409 
Q 1909 409 2131 539 
Q 2353 669 2445 892 
Q 2538 1116 2538 1541 
L 2538 3319 
L 3100 3319 
L 3100 0 
L 2597 0 
z
" transform="scale(0.015625)"/>
       <path id="ArialMT-72" d="M 416 0 
L 416 3319 
L 922 3319 
L 922 2816 
Q 1116 3169 1280 3281 
Q 1444 3394 1641 3394 
Q 1925 3394 2219 3213 
L 2025 2691 
Q 1819 2813 1613 2813 
Q 1428 2813 1281 2702 
Q 1134 2591 1072 2394 
Q 978 2094 978 1738 
L 978 0 
L 416 0 
z
" transform="scale(0.015625)"/>
       <path id="ArialMT-73" d="M 197 991 
L 753 1078 
Q 800 744 1014 566 
Q 1228 388 1613 388 
Q 2000 388 2187 545 
Q 2375 703 2375 916 
Q 2375 1106 2209 1216 
Q 2094 1291 1634 1406 
Q 1016 1563 777 1677 
Q 538 1791 414 1992 
Q 291 2194 291 2438 
Q 291 2659 392 2848 
Q 494 3038 669 3163 
Q 800 3259 1026 3326 
Q 1253 3394 1513 3394 
Q 1903 3394 2198 3281 
Q 2494 3169 2634 2976 
Q 2775 2784 2828 2463 
L 2278 2388 
Q 2241 2644 2061 2787 
Q 1881 2931 1553 2931 
Q 1166 2931 1000 2803 
Q 834 2675 834 2503 
Q 834 2394 903 2306 
Q 972 2216 1119 2156 
Q 1203 2125 1616 2013 
Q 2213 1853 2448 1751 
Q 2684 1650 2818 1456 
Q 2953 1263 2953 975 
Q 2953 694 2789 445 
Q 2625 197 2315 61 
Q 2006 -75 1616 -75 
Q 969 -75 630 194 
Q 291 463 197 991 
z
" transform="scale(0.015625)"/>
       <path id="ArialMT-74" d="M 1650 503 
L 1731 6 
Q 1494 -44 1306 -44 
Q 1000 -44 831 53 
Q 663 150 594 308 
Q 525 466 525 972 
L 525 2881 
L 113 2881 
L 113 3319 
L 525 3319 
L 525 4141 
L 1084 4478 
L 1084 3319 
L 1650 3319 
L 1650 2881 
L 1084 2881 
L 1084 941 
Q 1084 700 1114 631 
Q 1144 563 1211 522 
Q 1278 481 1403 481 
Q 1497 481 1650 503 
z
" transform="scale(0.015625)"/>
       <path id="ArialMT-20" transform="scale(0.015625)"/>
       <path id="ArialMT-70" d="M 422 -1272 
L 422 3319 
L 934 3319 
L 934 2888 
Q 1116 3141 1344 3267 
Q 1572 3394 1897 3394 
Q 2322 3394 2647 3175 
Q 2972 2956 3137 2557 
Q 3303 2159 3303 1684 
Q 3303 1175 3120 767 
Q 2938 359 2589 142 
Q 2241 -75 1856 -75 
Q 1575 -75 1351 44 
Q 1128 163 984 344 
L 984 -1272 
L 422 -1272 
z
M 931 1641 
Q 931 1000 1190 694 
Q 1450 388 1819 388 
Q 2194 388 2461 705 
Q 2728 1022 2728 1688 
Q 2728 2322 2467 2637 
Q 2206 2953 1844 2953 
Q 1484 2953 1207 2617 
Q 931 2281 931 1641 
z
" transform="scale(0.015625)"/>
       <path id="ArialMT-6f" d="M 213 1659 
Q 213 2581 725 3025 
Q 1153 3394 1769 3394 
Q 2453 3394 2887 2945 
Q 3322 2497 3322 1706 
Q 3322 1066 3130 698 
Q 2938 331 2570 128 
Q 2203 -75 1769 -75 
Q 1072 -75 642 372 
Q 213 819 213 1659 
z
M 791 1659 
Q 791 1022 1069 705 
Q 1347 388 1769 388 
Q 2188 388 2466 706 
Q 2744 1025 2744 1678 
Q 2744 2294 2464 2611 
Q 2184 2928 1769 2928 
Q 1347 2928 1069 2612 
Q 791 2297 791 1659 
z
" transform="scale(0.015625)"/>
       <path id="ArialMT-77" d="M 1034 0 
L 19 3319 
L 600 3319 
L 1128 1403 
L 1325 691 
Q 1338 744 1497 1375 
L 2025 3319 
L 2603 3319 
L 3100 1394 
L 3266 759 
L 3456 1400 
L 4025 3319 
L 4572 3319 
L 3534 0 
L 2950 0 
L 2422 1988 
L 2294 2553 
L 1622 0 
L 1034 0 
z
" transform="scale(0.015625)"/>
       <path id="ArialMT-65" d="M 2694 1069 
L 3275 997 
Q 3138 488 2766 206 
Q 2394 -75 1816 -75 
Q 1088 -75 661 373 
Q 234 822 234 1631 
Q 234 2469 665 2931 
Q 1097 3394 1784 3394 
Q 2450 3394 2872 2941 
Q 3294 2488 3294 1666 
Q 3294 1616 3291 1516 
L 816 1516 
Q 847 969 1125 678 
Q 1403 388 1819 388 
Q 2128 388 2347 550 
Q 2566 713 2694 1069 
z
M 847 1978 
L 2700 1978 
Q 2663 2397 2488 2606 
Q 2219 2931 1791 2931 
Q 1403 2931 1139 2672 
Q 875 2413 847 1978 
z
" transform="scale(0.015625)"/>
       <path id="ArialMT-28" d="M 1497 -1347 
Q 1031 -759 709 28 
Q 388 816 388 1659 
Q 388 2403 628 3084 
Q 909 3875 1497 4659 
L 1900 4659 
Q 1522 4009 1400 3731 
Q 1209 3300 1100 2831 
Q 966 2247 966 1656 
Q 966 153 1900 -1347 
L 1497 -1347 
z
" transform="scale(0.015625)"/>
       <path id="ArialMT-61" d="M 2588 409 
Q 2275 144 1986 34 
Q 1697 -75 1366 -75 
Q 819 -75 525 192 
Q 231 459 231 875 
Q 231 1119 342 1320 
Q 453 1522 633 1644 
Q 813 1766 1038 1828 
Q 1203 1872 1538 1913 
Q 2219 1994 2541 2106 
Q 2544 2222 2544 2253 
Q 2544 2597 2384 2738 
Q 2169 2928 1744 2928 
Q 1347 2928 1158 2789 
Q 969 2650 878 2297 
L 328 2372 
Q 403 2725 575 2942 
Q 747 3159 1072 3276 
Q 1397 3394 1825 3394 
Q 2250 3394 2515 3294 
Q 2781 3194 2906 3042 
Q 3031 2891 3081 2659 
Q 3109 2516 3109 2141 
L 3109 1391 
Q 3109 606 3145 398 
Q 3181 191 3288 0 
L 2700 0 
Q 2613 175 2588 409 
z
M 2541 1666 
Q 2234 1541 1622 1453 
Q 1275 1403 1131 1340 
Q 988 1278 909 1158 
Q 831 1038 831 891 
Q 831 666 1001 516 
Q 1172 366 1500 366 
Q 1825 366 2078 508 
Q 2331 650 2450 897 
Q 2541 1088 2541 1459 
L 2541 1666 
z
" transform="scale(0.015625)"/>
       <path id="ArialMT-29" d="M 791 -1347 
L 388 -1347 
Q 1322 153 1322 1656 
Q 1322 2244 1188 2822 
Q 1081 3291 891 3722 
Q 769 4003 388 4659 
L 791 4659 
Q 1378 3875 1659 3084 
Q 1900 2403 1900 1659 
Q 1900 816 1576 28 
Q 1253 -759 791 -1347 
z
" transform="scale(0.015625)"/>
      </defs>
      <use xlink:href="#ArialMT-42"/>
      <use xlink:href="#ArialMT-75" x="66.699219"/>
      <use xlink:href="#ArialMT-72" x="122.314453"/>
      <use xlink:href="#ArialMT-73" x="155.615234"/>
      <use xlink:href="#ArialMT-74" x="205.615234"/>
      <use xlink:href="#ArialMT-20" x="233.398438"/>
      <use xlink:href="#ArialMT-70" x="261.181641"/>
      <use xlink:href="#ArialMT-6f" x="316.796875"/>
      <use xlink:href="#ArialMT-77" x="372.412109"/>
      <use xlink:href="#ArialMT-65" x="444.628906"/>
      <use xlink:href="#ArialMT-72" x="500.244141"/>
      <use xlink:href="#ArialMT-20" x="533.544922"/>
      <use xlink:href="#ArialMT-28" x="561.328125"/>
      <use xlink:href="#ArialMT-61" x="594.628906"/>
      <use xlink:href="#ArialMT-2e" x="650.244141"/>
      <use xlink:href="#ArialMT-75" x="678.027344"/>
      <use xlink:href="#ArialMT-2e" x="733.642578"/>
      <use xlink:href="#ArialMT-29" x="761.425781"/>
     </g>
    </g>
   </g>
   <g id="matplotlib.axis_2">
    <g id="ytick_1">
     <g id="line2d_4">
      <defs>
       <path id="m23f37ac958" d="M 0 0 
L 5 0 
" style="stroke: #000000"/>
      </defs>
      <g>
       <use xlink:href="#m23f37ac958" x="38.195312" y="110.928797" style="stroke: #000000"/>
      </g>
     </g>
     <g id="text_5">
      <!-- 10 -->
      <g transform="translate(22.46125 114.865594) scale(0.11 -0.11)">
       <use xlink:href="#ArialMT-31"/>
       <use xlink:href="#ArialMT-30" x="55.615234"/>
      </g>
     </g>
    </g>
    <g id="ytick_2">
     <g id="line2d_5">
      <g>
       <use xlink:href="#m23f37ac958" x="38.195312" y="85.980797" style="stroke: #000000"/>
      </g>
     </g>
     <g id="text_6">
      <!-- 30 -->
      <g transform="translate(22.46125 89.917594) scale(0.11 -0.11)">
       <defs>
        <path id="ArialMT-33" d="M 269 1209 
L 831 1284 
Q 928 806 1161 595 
Q 1394 384 1728 384 
Q 2125 384 2398 659 
Q 2672 934 2672 1341 
Q 2672 1728 2419 1979 
Q 2166 2231 1775 2231 
Q 1616 2231 1378 2169 
L 1441 2663 
Q 1497 2656 1531 2656 
Q 1891 2656 2178 2843 
Q 2466 3031 2466 3422 
Q 2466 3731 2256 3934 
Q 2047 4138 1716 4138 
Q 1388 4138 1169 3931 
Q 950 3725 888 3313 
L 325 3413 
Q 428 3978 793 4289 
Q 1159 4600 1703 4600 
Q 2078 4600 2393 4439 
Q 2709 4278 2876 4000 
Q 3044 3722 3044 3409 
Q 3044 3113 2884 2869 
Q 2725 2625 2413 2481 
Q 2819 2388 3044 2092 
Q 3269 1797 3269 1353 
Q 3269 753 2831 336 
Q 2394 -81 1725 -81 
Q 1122 -81 723 278 
Q 325 638 269 1209 
z
" transform="scale(0.015625)"/>
       </defs>
       <use xlink:href="#ArialMT-33"/>
       <use xlink:href="#ArialMT-30" x="55.615234"/>
      </g>
     </g>
    </g>
    <g id="ytick_3">
     <g id="line2d_6">
      <g>
       <use xlink:href="#m23f37ac958" x="38.195312" y="61.032797" style="stroke: #000000"/>
      </g>
     </g>
     <g id="text_7">
      <!-- 50 -->
      <g transform="translate(22.46125 64.969594) scale(0.11 -0.11)">
       <defs>
        <path id="ArialMT-35" d="M 266 1200 
L 856 1250 
Q 922 819 1161 601 
Q 1400 384 1738 384 
Q 2144 384 2425 690 
Q 2706 997 2706 1503 
Q 2706 1984 2436 2262 
Q 2166 2541 1728 2541 
Q 1456 2541 1237 2417 
Q 1019 2294 894 2097 
L 366 2166 
L 809 4519 
L 3088 4519 
L 3088 3981 
L 1259 3981 
L 1013 2750 
Q 1425 3038 1878 3038 
Q 2478 3038 2890 2622 
Q 3303 2206 3303 1553 
Q 3303 931 2941 478 
Q 2500 -78 1738 -78 
Q 1113 -78 717 272 
Q 322 622 266 1200 
z
" transform="scale(0.015625)"/>
       </defs>
       <use xlink:href="#ArialMT-35"/>
       <use xlink:href="#ArialMT-30" x="55.615234"/>
      </g>
     </g>
    </g>
    <g id="ytick_4">
     <g id="line2d_7">
      <g>
       <use xlink:href="#m23f37ac958" x="38.195312" y="36.084797" style="stroke: #000000"/>
      </g>
     </g>
     <g id="text_8">
      <!-- 70 -->
      <g transform="translate(22.46125 40.021594) scale(0.11 -0.11)">
       <defs>
        <path id="ArialMT-37" d="M 303 3981 
L 303 4522 
L 3269 4522 
L 3269 4084 
Q 2831 3619 2401 2847 
Q 1972 2075 1738 1259 
Q 1569 684 1522 0 
L 944 0 
Q 953 541 1156 1306 
Q 1359 2072 1739 2783 
Q 2119 3494 2547 3981 
L 303 3981 
z
" transform="scale(0.015625)"/>
       </defs>
       <use xlink:href="#ArialMT-37"/>
       <use xlink:href="#ArialMT-30" x="55.615234"/>
      </g>
     </g>
    </g>
    <g id="ytick_5">
     <g id="line2d_8">
      <g>
       <use xlink:href="#m23f37ac958" x="38.195312" y="11.136797" style="stroke: #000000"/>
      </g>
     </g>
     <g id="text_9">
      <!-- 90 -->
      <g transform="translate(22.46125 15.073594) scale(0.11 -0.11)">
       <defs>
        <path id="ArialMT-39" d="M 350 1059 
L 891 1109 
Q 959 728 1153 556 
Q 1347 384 1650 384 
Q 1909 384 2104 503 
Q 2300 622 2425 820 
Q 2550 1019 2634 1356 
Q 2719 1694 2719 2044 
Q 2719 2081 2716 2156 
Q 2547 1888 2255 1720 
Q 1963 1553 1622 1553 
Q 1053 1553 659 1965 
Q 266 2378 266 3053 
Q 266 3750 677 4175 
Q 1088 4600 1706 4600 
Q 2153 4600 2523 4359 
Q 2894 4119 3086 3673 
Q 3278 3228 3278 2384 
Q 3278 1506 3087 986 
Q 2897 466 2520 194 
Q 2144 -78 1638 -78 
Q 1100 -78 759 220 
Q 419 519 350 1059 
z
M 2653 3081 
Q 2653 3566 2395 3850 
Q 2138 4134 1775 4134 
Q 1400 4134 1122 3828 
Q 844 3522 844 3034 
Q 844 2597 1108 2323 
Q 1372 2050 1759 2050 
Q 2150 2050 2401 2323 
Q 2653 2597 2653 3081 
z
" transform="scale(0.015625)"/>
       </defs>
       <use xlink:href="#ArialMT-39"/>
       <use xlink:href="#ArialMT-30" x="55.615234"/>
      </g>
     </g>
    </g>
    <g id="text_10">
     <!-- Frequency (Hz) -->
     <g transform="translate(15.935625 102.373734) rotate(-90) scale(0.12 -0.12)">
      <defs>
       <path id="ArialMT-46" d="M 525 0 
L 525 4581 
L 3616 4581 
L 3616 4041 
L 1131 4041 
L 1131 2622 
L 3281 2622 
L 3281 2081 
L 1131 2081 
L 1131 0 
L 525 0 
z
" transform="scale(0.015625)"/>
       <path id="ArialMT-71" d="M 2538 -1272 
L 2538 353 
Q 2406 169 2170 47 
Q 1934 -75 1669 -75 
Q 1078 -75 651 397 
Q 225 869 225 1691 
Q 225 2191 398 2587 
Q 572 2984 901 3189 
Q 1231 3394 1625 3394 
Q 2241 3394 2594 2875 
L 2594 3319 
L 3100 3319 
L 3100 -1272 
L 2538 -1272 
z
M 803 1669 
Q 803 1028 1072 708 
Q 1341 388 1716 388 
Q 2075 388 2334 692 
Q 2594 997 2594 1619 
Q 2594 2281 2320 2615 
Q 2047 2950 1678 2950 
Q 1313 2950 1058 2639 
Q 803 2328 803 1669 
z
" transform="scale(0.015625)"/>
       <path id="ArialMT-6e" d="M 422 0 
L 422 3319 
L 928 3319 
L 928 2847 
Q 1294 3394 1984 3394 
Q 2284 3394 2536 3286 
Q 2788 3178 2913 3003 
Q 3038 2828 3088 2588 
Q 3119 2431 3119 2041 
L 3119 0 
L 2556 0 
L 2556 2019 
Q 2556 2363 2490 2533 
Q 2425 2703 2258 2804 
Q 2091 2906 1866 2906 
Q 1506 2906 1245 2678 
Q 984 2450 984 1813 
L 984 0 
L 422 0 
z
" transform="scale(0.015625)"/>
       <path id="ArialMT-63" d="M 2588 1216 
L 3141 1144 
Q 3050 572 2676 248 
Q 2303 -75 1759 -75 
Q 1078 -75 664 370 
Q 250 816 250 1647 
Q 250 2184 428 2587 
Q 606 2991 970 3192 
Q 1334 3394 1763 3394 
Q 2303 3394 2647 3120 
Q 2991 2847 3088 2344 
L 2541 2259 
Q 2463 2594 2264 2762 
Q 2066 2931 1784 2931 
Q 1359 2931 1093 2626 
Q 828 2322 828 1663 
Q 828 994 1084 691 
Q 1341 388 1753 388 
Q 2084 388 2306 591 
Q 2528 794 2588 1216 
z
" transform="scale(0.015625)"/>
       <path id="ArialMT-79" d="M 397 -1278 
L 334 -750 
Q 519 -800 656 -800 
Q 844 -800 956 -737 
Q 1069 -675 1141 -563 
Q 1194 -478 1313 -144 
Q 1328 -97 1363 -6 
L 103 3319 
L 709 3319 
L 1400 1397 
Q 1534 1031 1641 628 
Q 1738 1016 1872 1384 
L 2581 3319 
L 3144 3319 
L 1881 -56 
Q 1678 -603 1566 -809 
Q 1416 -1088 1222 -1217 
Q 1028 -1347 759 -1347 
Q 597 -1347 397 -1278 
z
" transform="scale(0.015625)"/>
       <path id="ArialMT-48" d="M 513 0 
L 513 4581 
L 1119 4581 
L 1119 2700 
L 3500 2700 
L 3500 4581 
L 4106 4581 
L 4106 0 
L 3500 0 
L 3500 2159 
L 1119 2159 
L 1119 0 
L 513 0 
z
" transform="scale(0.015625)"/>
       <path id="ArialMT-7a" d="M 125 0 
L 125 456 
L 2238 2881 
Q 1878 2863 1603 2863 
L 250 2863 
L 250 3319 
L 2963 3319 
L 2963 2947 
L 1166 841 
L 819 456 
Q 1197 484 1528 484 
L 3063 484 
L 3063 0 
L 125 0 
z
" transform="scale(0.015625)"/>
      </defs>
      <use xlink:href="#ArialMT-46"/>
      <use xlink:href="#ArialMT-72" x="61.083984"/>
      <use xlink:href="#ArialMT-65" x="94.384766"/>
      <use xlink:href="#ArialMT-71" x="150"/>
      <use xlink:href="#ArialMT-75" x="205.615234"/>
      <use xlink:href="#ArialMT-65" x="261.230469"/>
      <use xlink:href="#ArialMT-6e" x="316.845703"/>
      <use xlink:href="#ArialMT-63" x="372.460938"/>
      <use xlink:href="#ArialMT-79" x="422.460938"/>
      <use xlink:href="#ArialMT-20" x="472.460938"/>
      <use xlink:href="#ArialMT-28" x="500.244141"/>
      <use xlink:href="#ArialMT-48" x="533.544922"/>
      <use xlink:href="#ArialMT-7a" x="605.761719"/>
      <use xlink:href="#ArialMT-29" x="655.761719"/>
     </g>
    </g>
   </g>
   <g id="patch_3">
    <path d="M 38.195312 110.928797 
L 38.195312 11.136797 
" style="fill: none; stroke: #000000; stroke-width: 0.8; stroke-linejoin: miter; stroke-linecap: square"/>
   </g>
   <g id="patch_4">
    <path d="M 38.195312 110.928797 
L 127.475313 110.928797 
" style="fill: none; stroke: #000000; stroke-width: 0.8; stroke-linejoin: miter; stroke-linecap: square"/>
   </g>
  </g>
  <g id="axes_2">
   <g id="patch_5">
    <path d="M 133.055313 110.928797 
L 138.044913 110.928797 
L 138.044913 11.136797 
L 133.055313 11.136797 
z
" style="fill: #ffffff"/>
   </g>
   <g id="QuadMesh_1">
    <path d="M 133.055313 110.928797 
L 138.044913 110.928797 
L 138.044913 105.939197 
L 133.055313 105.939197 
L 133.055313 110.928797 
" clip-path="url(#p986b4076d1)" style="fill: #372466"/>
    <path d="M 133.055313 105.939197 
L 138.044913 105.939197 
L 138.044913 100.949597 
L 133.055313 100.949597 
L 133.055313 105.939197 
" clip-path="url(#p986b4076d1)" style="fill: #4249b1"/>
    <path d="M 133.055313 100.949597 
L 138.044913 100.949597 
L 138.044913 95.959997 
L 133.055313 95.959997 
L 133.055313 100.949597 
" clip-path="url(#p986b4076d1)" style="fill: #466be3"/>
    <path d="M 133.055313 95.959997 
L 138.044913 95.959997 
L 138.044913 90.970397 
L 133.055313 90.970397 
L 133.055313 95.959997 
" clip-path="url(#p986b4076d1)" style="fill: #458afc"/>
    <path d="M 133.055313 90.970397 
L 138.044913 90.970397 
L 138.044913 85.980797 
L 133.055313 85.980797 
L 133.055313 90.970397 
" clip-path="url(#p986b4076d1)" style="fill: #35abf8"/>
    <path d="M 133.055313 85.980797 
L 138.044913 85.980797 
L 138.044913 80.991197 
L 133.055313 80.991197 
L 133.055313 85.980797 
" clip-path="url(#p986b4076d1)" style="fill: #1fc9dd"/>
    <path d="M 133.055313 80.991197 
L 138.044913 80.991197 
L 138.044913 76.001597 
L 133.055313 76.001597 
L 133.055313 80.991197 
" clip-path="url(#p986b4076d1)" style="fill: #19e2bb"/>
    <path d="M 133.055313 76.001597 
L 138.044913 76.001597 
L 138.044913 71.011997 
L 133.055313 71.011997 
L 133.055313 76.001597 
" clip-path="url(#p986b4076d1)" style="fill: #32f298"/>
    <path d="M 133.055313 71.011997 
L 138.044913 71.011997 
L 138.044913 66.022397 
L 133.055313 66.022397 
L 133.055313 71.011997 
" clip-path="url(#p986b4076d1)" style="fill: #5dfc6f"/>
    <path d="M 133.055313 66.022397 
L 138.044913 66.022397 
L 138.044913 61.032797 
L 133.055313 61.032797 
L 133.055313 66.022397 
" clip-path="url(#p986b4076d1)" style="fill: #8fff49"/>
    <path d="M 133.055313 61.032797 
L 138.044913 61.032797 
L 138.044913 56.043197 
L 133.055313 56.043197 
L 133.055313 61.032797 
" clip-path="url(#p986b4076d1)" style="fill: #b4f836"/>
    <path d="M 133.055313 56.043197 
L 138.044913 56.043197 
L 138.044913 51.053597 
L 133.055313 51.053597 
L 133.055313 56.043197 
" clip-path="url(#p986b4076d1)" style="fill: #d4e735"/>
    <path d="M 133.055313 51.053597 
L 138.044913 51.053597 
L 138.044913 46.063997 
L 133.055313 46.063997 
L 133.055313 51.053597 
" clip-path="url(#p986b4076d1)" style="fill: #eecf3a"/>
    <path d="M 133.055313 46.063997 
L 138.044913 46.063997 
L 138.044913 41.074397 
L 133.055313 41.074397 
L 133.055313 46.063997 
" clip-path="url(#p986b4076d1)" style="fill: #fbb637"/>
    <path d="M 133.055313 41.074397 
L 138.044913 41.074397 
L 138.044913 36.084797 
L 133.055313 36.084797 
L 133.055313 41.074397 
" clip-path="url(#p986b4076d1)" style="fill: #fe932a"/>
    <path d="M 133.055313 36.084797 
L 138.044913 36.084797 
L 138.044913 31.095197 
L 133.055313 31.095197 
L 133.055313 36.084797 
" clip-path="url(#p986b4076d1)" style="fill: #f66c19"/>
    <path d="M 133.055313 31.095197 
L 138.044913 31.095197 
L 138.044913 26.105597 
L 133.055313 26.105597 
L 133.055313 31.095197 
" clip-path="url(#p986b4076d1)" style="fill: #e7490c"/>
    <path d="M 133.055313 26.105597 
L 138.044913 26.105597 
L 138.044913 21.115997 
L 133.055313 21.115997 
L 133.055313 26.105597 
" clip-path="url(#p986b4076d1)" style="fill: #d02f05"/>
    <path d="M 133.055313 21.115997 
L 138.044913 21.115997 
L 138.044913 16.126397 
L 133.055313 16.126397 
L 133.055313 21.115997 
" clip-path="url(#p986b4076d1)" style="fill: #b41b01"/>
    <path d="M 133.055313 16.126397 
L 138.044913 16.126397 
L 138.044913 11.136797 
L 133.055313 11.136797 
L 133.055313 16.126397 
" clip-path="url(#p986b4076d1)" style="fill: #8e0a01"/>
    <path d="M 133.055313 11.136797 
L 138.044913 11.136797 
L 138.044913 6.147197 
L 133.055313 6.147197 
L 133.055313 11.136797 
" clip-path="url(#p986b4076d1)" style="fill: #7a0403"/>
   </g>
   <g id="matplotlib.axis_3"/>
   <g id="matplotlib.axis_4">
    <g id="ytick_6">
     <g id="line2d_9">
      <defs>
       <path id="m00f0788036" d="M 0 0 
L -5 0 
" style="stroke: #000000"/>
      </defs>
      <g>
       <use xlink:href="#m00f0788036" x="138.044913" y="110.928797" style="stroke: #000000"/>
      </g>
     </g>
     <g id="text_11">
      <!-- 0.00 -->
      <g transform="translate(141.544913 114.865594) scale(0.11 -0.11)">
       <use xlink:href="#ArialMT-30"/>
       <use xlink:href="#ArialMT-2e" x="55.615234"/>
       <use xlink:href="#ArialMT-30" x="83.398438"/>
       <use xlink:href="#ArialMT-30" x="139.013672"/>
      </g>
     </g>
    </g>
    <g id="ytick_7">
     <g id="line2d_10">
      <g>
       <use xlink:href="#m00f0788036" x="138.044913" y="61.032797" style="stroke: #000000"/>
      </g>
     </g>
     <g id="text_12">
      <!-- 0.02 -->
      <g transform="translate(141.544913 64.969594) scale(0.11 -0.11)">
       <use xlink:href="#ArialMT-30"/>
       <use xlink:href="#ArialMT-2e" x="55.615234"/>
       <use xlink:href="#ArialMT-30" x="83.398438"/>
       <use xlink:href="#ArialMT-32" x="139.013672"/>
      </g>
     </g>
    </g>
    <g id="ytick_8">
     <g id="line2d_11">
      <g>
       <use xlink:href="#m00f0788036" x="138.044913" y="11.136797" style="stroke: #000000"/>
      </g>
     </g>
     <g id="text_13">
      <!-- 0.04 -->
      <g transform="translate(141.544913 15.073594) scale(0.11 -0.11)">
       <defs>
        <path id="ArialMT-34" d="M 2069 0 
L 2069 1097 
L 81 1097 
L 81 1613 
L 2172 4581 
L 2631 4581 
L 2631 1613 
L 3250 1613 
L 3250 1097 
L 2631 1097 
L 2631 0 
L 2069 0 
z
M 2069 1613 
L 2069 3678 
L 634 1613 
L 2069 1613 
z
" transform="scale(0.015625)"/>
       </defs>
       <use xlink:href="#ArialMT-30"/>
       <use xlink:href="#ArialMT-2e" x="55.615234"/>
       <use xlink:href="#ArialMT-30" x="83.398438"/>
       <use xlink:href="#ArialMT-34" x="139.013672"/>
      </g>
     </g>
    </g>
   </g>
   <g id="LineCollection_1"/>
   <g id="patch_6">
    <path d="M 133.055313 110.928797 
L 135.550113 110.928797 
L 138.044913 110.928797 
L 138.044913 11.136797 
L 135.550113 11.136797 
L 133.055313 11.136797 
L 133.055313 110.928797 
z
" style="fill: none; stroke: #000000; stroke-width: 0.8; stroke-linejoin: miter; stroke-linecap: square"/>
   </g>
  </g>
 </g>
 <defs>
  <clipPath id="p7992e7e067">
   <rect x="38.195312" y="11.136797" width="89.28" height="99.792"/>
  </clipPath>
  <clipPath id="p986b4076d1">
   <rect x="133.055313" y="11.136797" width="4.9896" height="99.792"/>
  </clipPath>
 </defs>
</svg>
