<?xml version="1.0" encoding="utf-8" standalone="no"?>
<!DOCTYPE svg PUBLIC "-//W3C//DTD SVG 1.1//EN"
  "http://www.w3.org/Graphics/SVG/1.1/DTD/svg11.dtd">
<svg xmlns:xlink="http://www.w3.org/1999/xlink" width="170.151944pt" height="146.949891pt" viewBox="0 0 170.151944 146.949891" xmlns="http://www.w3.org/2000/svg" version="1.1">
 <metadata>
  <rdf:RDF xmlns:dc="http://purl.org/dc/elements/1.1/" xmlns:cc="http://creativecommons.org/ns#" xmlns:rdf="http://www.w3.org/1999/02/22-rdf-syntax-ns#">
   <cc:Work>
    <dc:type rdf:resource="http://purl.org/dc/dcmitype/StillImage"/>
    <dc:date>2025-04-28T20:21:02.437171</dc:date>
    <dc:format>image/svg+xml</dc:format>
    <dc:creator>
     <cc:Agent>
      <dc:title>Matplotlib v3.7.2, https://matplotlib.org/</dc:title>
     </cc:Agent>
    </dc:creator>
   </cc:Work>
  </rdf:RDF>
 </metadata>
 <defs>
  <style type="text/css">*{stroke-linejoin: round; stroke-linecap: butt}</style>
 </defs>
 <g id="figure_1">
  <g id="patch_1">
   <path d="M 0 146.949891 
L 170.151944 146.949891 
L 170.151944 0 
L 0 0 
z
" style="fill: #ffffff"/>
  </g>
  <g id="axes_1">
   <g id="patch_2">
    <path d="M 38.195312 110.928797 
L 127.475313 110.928797 
L 127.475313 11.136797 
L 38.195312 11.136797 
z
" style="fill: #ffffff"/>
   </g>
   <g id="PathCollection_1">
    <path d="M 14.281027 114.047297 
L 19.595312 114.047297 
L 24.909598 114.047297 
L 30.223884 114.047297 
L 35.53817 114.047297 
L 40.852455 114.047297 
L 46.166741 114.047297 
L 51.481027 114.047297 
L 56.795313 114.047297 
L 62.109598 114.047297 
L 67.423884 114.047297 
L 72.73817 114.047297 
L 78.052455 114.047297 
L 83.366741 114.047297 
L 88.681027 114.047297 
L 93.995313 114.047297 
L 99.309598 114.047297 
L 104.623884 114.047297 
L 109.93817 114.047297 
L 115.252455 114.047297 
L 120.566741 114.047297 
L 125.881027 114.047297 
L 131.195312 114.047297 
L 136.509598 114.047297 
L 141.823884 114.047297 
L 147.13817 114.047297 
L 152.452455 114.047297 
L 157.766741 114.047297 
L 163.081027 114.047297 
L 163.081027 107.810297 
L 163.081027 101.573297 
L 163.081027 95.336297 
L 163.081027 89.099297 
L 163.081027 82.862297 
L 163.081027 76.625297 
L 163.081027 70.388297 
L 163.081027 64.151297 
L 163.081027 57.914297 
L 163.081027 51.677297 
L 163.081027 45.440297 
L 163.081027 39.203297 
L 163.081027 32.966297 
L 163.081027 26.729297 
L 163.081027 20.492297 
L 163.081027 14.255297 
L 163.081027 8.018297 
L 163.081027 1.781297 
L 157.766741 1.781297 
L 152.452455 1.781297 
L 147.13817 1.781297 
L 141.823884 1.781297 
L 136.509598 1.781297 
L 131.195312 1.781297 
L 125.881027 1.781297 
L 120.566741 1.781297 
L 115.252455 1.781297 
L 109.93817 1.781297 
L 104.623884 1.781297 
L 99.309598 1.781297 
L 93.995313 1.781297 
L 88.681027 1.781297 
L 83.366741 1.781297 
L 78.052455 1.781297 
L 72.73817 1.781297 
L 67.423884 1.781297 
L 62.109598 1.781297 
L 56.795313 1.781297 
L 51.481027 1.781297 
L 46.166741 1.781297 
L 40.852455 1.781297 
L 35.53817 1.781297 
L 30.223884 1.781297 
L 24.909598 1.781297 
L 19.595312 1.781297 
L 14.281027 1.781297 
L 8.966741 1.781297 
L 8.966741 8.018297 
L 8.966741 14.255297 
L 8.966741 20.492297 
L 8.966741 26.729297 
L 8.966741 32.966297 
L 8.966741 39.203297 
L 8.966741 45.440297 
L 8.966741 51.677297 
L 8.966741 57.914297 
L 8.966741 64.151297 
L 8.966741 70.388297 
L 8.966741 76.625297 
L 8.966741 82.862297 
L 8.966741 89.099297 
L 8.966741 95.336297 
L 8.966741 101.573297 
L 8.966741 107.810297 
L 8.966741 114.047297 
z
M 51.891813 101.573297 
L 51.481027 100.818646 
L 48.503169 95.336297 
L 49.819001 89.099297 
L 51.481027 84.854358 
L 51.694994 82.862297 
L 51.481027 79.202174 
L 50.810297 76.625297 
L 51.481027 72.841469 
L 51.616656 70.388297 
L 51.981797 64.151297 
L 51.481027 63.766439 
L 46.924644 57.914297 
L 46.166741 55.377205 
L 44.213749 51.677297 
L 44.770221 45.440297 
L 44.711959 39.203297 
L 43.454353 32.966297 
L 45.950508 26.729297 
L 46.166741 26.426318 
L 51.481027 20.580286 
L 52.110077 20.492297 
L 56.795313 18.487221 
L 59.676248 20.492297 
L 62.109598 21.074147 
L 67.284453 26.729297 
L 67.423884 26.951108 
L 72.005239 32.966297 
L 72.73817 35.962105 
L 74.654988 39.203297 
L 75.025603 45.440297 
L 72.73817 49.197409 
L 71.9594 51.677297 
L 67.423884 57.707578 
L 67.27939 57.914297 
L 67.423884 61.212485 
L 67.806545 64.151297 
L 72.73817 67.475233 
L 75.693757 70.388297 
L 78.052455 71.543477 
L 83.262137 76.625297 
L 83.366741 76.855454 
L 87.129643 82.862297 
L 85.924505 89.099297 
L 83.366741 92.385859 
L 80.957619 95.336297 
L 78.052455 98.138246 
L 72.73817 100.872817 
L 70.767021 101.573297 
L 67.423884 104.48606 
L 62.109598 106.352132 
L 56.795313 105.923215 
z
" clip-path="url(#pdaf47d805a)" style="fill: #372466"/>
   </g>
   <g id="PathCollection_2">
    <path d="M 56.795313 105.923215 
L 62.109598 106.352132 
L 67.423884 104.48606 
L 70.767021 101.573297 
L 72.73817 100.872817 
L 78.052455 98.138246 
L 80.957619 95.336297 
L 83.366741 92.385859 
L 85.924505 89.099297 
L 87.129643 82.862297 
L 83.366741 76.855454 
L 83.262137 76.625297 
L 78.052455 71.543477 
L 75.693757 70.388297 
L 72.73817 67.475233 
L 67.806545 64.151297 
L 67.423884 61.212485 
L 67.27939 57.914297 
L 67.423884 57.707578 
L 71.9594 51.677297 
L 72.73817 49.197409 
L 75.025603 45.440297 
L 74.654988 39.203297 
L 72.73817 35.962105 
L 72.005239 32.966297 
L 67.423884 26.951108 
L 67.284453 26.729297 
L 62.109598 21.074147 
L 59.676248 20.492297 
L 56.795313 18.487221 
L 52.110077 20.492297 
L 51.481027 20.580286 
L 46.166741 26.426318 
L 45.950508 26.729297 
L 43.454353 32.966297 
L 44.711959 39.203297 
L 44.770221 45.440297 
L 44.213749 51.677297 
L 46.166741 55.377205 
L 46.924644 57.914297 
L 51.481027 63.766439 
L 51.981797 64.151297 
L 51.616656 70.388297 
L 51.481027 72.841469 
L 50.810297 76.625297 
L 51.481027 79.202174 
L 51.694994 82.862297 
L 51.481027 84.854358 
L 49.819001 89.099297 
L 48.503169 95.336297 
L 51.481027 100.818646 
L 51.891813 101.573297 
z
M 54.736597 101.573297 
L 51.481027 95.592522 
L 51.341852 95.336297 
L 51.481027 94.860466 
L 52.074726 89.099297 
L 52.816934 82.862297 
L 52.277903 76.625297 
L 53.174711 70.388297 
L 55.545281 64.151297 
L 51.481027 61.027787 
L 49.056914 57.914297 
L 46.590812 51.677297 
L 46.640366 45.440297 
L 46.612264 39.203297 
L 46.227484 32.966297 
L 47.492584 26.729297 
L 51.481027 22.160878 
L 56.795313 21.021096 
L 62.109598 22.735583 
L 65.764124 26.729297 
L 67.423884 29.369693 
L 70.163169 32.966297 
L 72.159753 39.203297 
L 72.252779 45.440297 
L 69.754293 51.677297 
L 67.423884 54.775737 
L 65.230072 57.914297 
L 63.979379 64.151297 
L 67.423884 65.595064 
L 72.284492 70.388297 
L 72.73817 70.646856 
L 78.052455 73.583393 
L 81.170895 76.625297 
L 83.366741 81.456725 
L 84.247242 82.862297 
L 83.366741 85.718732 
L 82.933961 89.099297 
L 78.052455 94.897227 
L 77.479461 95.336297 
L 72.73817 99.315537 
L 67.423884 101.358321 
L 66.61961 101.573297 
L 62.109598 104.300768 
L 56.795313 103.399594 
z
" clip-path="url(#pdaf47d805a)" style="fill: #4249b1"/>
   </g>
   <g id="PathCollection_3">
    <path d="M 56.795313 103.399594 
L 62.109598 104.300768 
L 66.61961 101.573297 
L 67.423884 101.358321 
L 72.73817 99.315537 
L 77.479461 95.336297 
L 78.052455 94.897227 
L 82.933961 89.099297 
L 83.366741 85.718732 
L 84.247242 82.862297 
L 83.366741 81.456725 
L 81.170895 76.625297 
L 78.052455 73.583393 
L 72.73817 70.646856 
L 72.284492 70.388297 
L 67.423884 65.595064 
L 63.979379 64.151297 
L 65.230072 57.914297 
L 67.423884 54.775737 
L 69.754293 51.677297 
L 72.252779 45.440297 
L 72.159753 39.203297 
L 70.163169 32.966297 
L 67.423884 29.369693 
L 65.764124 26.729297 
L 62.109598 22.735583 
L 56.795313 21.021096 
L 51.481027 22.160878 
L 47.492584 26.729297 
L 46.227484 32.966297 
L 46.612264 39.203297 
L 46.640366 45.440297 
L 46.590812 51.677297 
L 49.056914 57.914297 
L 51.481027 61.027787 
L 55.545281 64.151297 
L 53.174711 70.388297 
L 52.277903 76.625297 
L 52.816934 82.862297 
L 52.074726 89.099297 
L 51.481027 94.860466 
L 51.341852 95.336297 
L 51.481027 95.592522 
L 54.736597 101.573297 
z
M 59.218845 101.573297 
L 56.795313 101.189531 
L 52.459407 95.336297 
L 53.074881 89.099297 
L 53.938875 82.862297 
L 53.198369 76.625297 
L 54.732766 70.388297 
L 56.795313 66.20356 
L 62.109598 64.732525 
L 67.423884 67.135617 
L 70.722284 70.388297 
L 72.73817 71.537185 
L 78.052455 75.623309 
L 79.079654 76.625297 
L 82.742007 82.862297 
L 81.73687 89.099297 
L 78.052455 93.475401 
L 75.623952 95.336297 
L 72.73817 97.758258 
L 67.423884 100.451658 
L 63.227576 101.573297 
L 62.109598 102.249404 
z
M 51.189183 57.914297 
L 47.471274 51.677297 
L 47.346792 45.440297 
L 47.296149 39.203297 
L 46.879537 32.966297 
L 48.872514 26.729297 
L 51.481027 23.741469 
L 56.795313 21.92445 
L 62.109598 24.397018 
L 64.243795 26.729297 
L 67.423884 31.788278 
L 68.3211 32.966297 
L 71.14414 39.203297 
L 71.208795 45.440297 
L 67.549187 51.677297 
L 67.423884 51.843896 
L 63.180755 57.914297 
L 62.109598 61.129418 
L 56.795313 62.931307 
L 51.481027 58.289136 
z
" clip-path="url(#pdaf47d805a)" style="fill: #466be3"/>
   </g>
   <g id="PathCollection_4">
    <path d="M 62.109598 102.249404 
L 63.227576 101.573297 
L 67.423884 100.451658 
L 72.73817 97.758258 
L 75.623952 95.336297 
L 78.052455 93.475401 
L 81.73687 89.099297 
L 82.742007 82.862297 
L 79.079654 76.625297 
L 78.052455 75.623309 
L 72.73817 71.537185 
L 70.722284 70.388297 
L 67.423884 67.135617 
L 62.109598 64.732525 
L 56.795313 66.20356 
L 54.732766 70.388297 
L 53.198369 76.625297 
L 53.938875 82.862297 
L 53.074881 89.099297 
L 52.459407 95.336297 
L 56.795313 101.189531 
L 59.218845 101.573297 
z
M 53.488227 95.336297 
L 54.075035 89.099297 
L 55.060816 82.862297 
L 54.118835 76.625297 
L 56.29082 70.388297 
L 56.795313 69.364724 
L 62.109598 65.915631 
L 67.423884 68.676171 
L 69.160076 70.388297 
L 72.73817 72.427514 
L 77.53482 76.625297 
L 78.052455 77.297317 
L 81.842494 82.862297 
L 80.539779 89.099297 
L 78.052455 92.053576 
L 73.768443 95.336297 
L 72.73817 96.200978 
L 67.423884 99.544995 
L 62.109598 101.019934 
L 56.795313 99.80068 
z
" clip-path="url(#pdaf47d805a)" style="fill: #458afc"/>
    <path d="M 51.481027 58.289136 
L 56.795313 62.931307 
L 62.109598 61.129418 
L 63.180755 57.914297 
L 67.423884 51.843896 
L 67.549187 51.677297 
L 71.208795 45.440297 
L 71.14414 39.203297 
L 68.3211 32.966297 
L 67.423884 31.788278 
L 64.243795 26.729297 
L 62.109598 24.397018 
L 56.795313 21.92445 
L 51.481027 23.741469 
L 48.872514 26.729297 
L 46.879537 32.966297 
L 47.296149 39.203297 
L 47.346792 45.440297 
L 47.471274 51.677297 
L 51.189183 57.914297 
z
M 53.291958 57.914297 
L 51.481027 56.695595 
L 48.351736 51.677297 
L 48.053218 45.440297 
L 47.980034 39.203297 
L 47.53159 32.966297 
L 50.252444 26.729297 
L 51.481027 25.32206 
L 56.795313 22.827803 
L 62.109598 26.058453 
L 62.723467 26.729297 
L 67.109569 32.966297 
L 67.423884 33.973587 
L 70.128527 39.203297 
L 70.164812 45.440297 
L 67.423884 50.028879 
L 66.642428 51.677297 
L 62.109598 57.413811 
L 60.928199 57.914297 
L 56.795313 61.05212 
z
" clip-path="url(#pdaf47d805a)" style="fill: #458afc"/>
   </g>
   <g id="PathCollection_5">
    <path d="M 56.795313 99.80068 
L 62.109598 101.019934 
L 67.423884 99.544995 
L 72.73817 96.200978 
L 73.768443 95.336297 
L 78.052455 92.053576 
L 80.539779 89.099297 
L 81.842494 82.862297 
L 78.052455 77.297317 
L 77.53482 76.625297 
L 72.73817 72.427514 
L 69.160076 70.388297 
L 67.423884 68.676171 
L 62.109598 65.915631 
L 56.795313 69.364724 
L 56.29082 70.388297 
L 54.118835 76.625297 
L 55.060816 82.862297 
L 54.075035 89.099297 
L 53.488227 95.336297 
z
M 54.517048 95.336297 
L 55.075189 89.099297 
L 56.182757 82.862297 
L 55.039301 76.625297 
L 56.795313 72.020485 
L 57.834915 70.388297 
L 62.109598 67.098737 
L 67.423884 70.216724 
L 67.597869 70.388297 
L 72.73817 73.317843 
L 76.517474 76.625297 
L 78.052455 78.618087 
L 80.942982 82.862297 
L 79.342688 89.099297 
L 78.052455 90.63175 
L 72.73817 95.047431 
L 72.159827 95.336297 
L 67.423884 98.638331 
L 62.109598 100.194525 
L 56.795313 98.411829 
z
" clip-path="url(#pdaf47d805a)" style="fill: #35abf8"/>
    <path d="M 56.795313 61.05212 
L 60.928199 57.914297 
L 62.109598 57.413811 
L 66.642428 51.677297 
L 67.423884 50.028879 
L 70.164812 45.440297 
L 70.128527 39.203297 
L 67.423884 33.973587 
L 67.109569 32.966297 
L 62.723467 26.729297 
L 62.109598 26.058453 
L 56.795313 22.827803 
L 51.481027 25.32206 
L 50.252444 26.729297 
L 47.53159 32.966297 
L 47.980034 39.203297 
L 48.053218 45.440297 
L 48.351736 51.677297 
L 51.481027 56.695595 
L 53.291958 57.914297 
z
M 55.390056 57.914297 
L 51.481027 55.28364 
L 49.232198 51.677297 
L 48.759644 45.440297 
L 48.663919 39.203297 
L 48.183643 32.966297 
L 51.481027 26.861696 
L 51.651026 26.729297 
L 56.795313 23.731156 
L 61.300297 26.729297 
L 62.109598 27.208772 
L 66.496788 32.966297 
L 67.423884 35.93738 
L 69.112915 39.203297 
L 69.120828 45.440297 
L 67.423884 48.281148 
L 65.813891 51.677297 
L 62.109598 56.365258 
L 58.453085 57.914297 
L 56.795313 59.172932 
z
" clip-path="url(#pdaf47d805a)" style="fill: #35abf8"/>
   </g>
   <g id="PathCollection_6">
    <path d="M 56.795313 98.411829 
L 62.109598 100.194525 
L 67.423884 98.638331 
L 72.159827 95.336297 
L 72.73817 95.047431 
L 78.052455 90.63175 
L 79.342688 89.099297 
L 80.942982 82.862297 
L 78.052455 78.618087 
L 76.517474 76.625297 
L 72.73817 73.317843 
L 67.597869 70.388297 
L 67.423884 70.216724 
L 62.109598 67.098737 
L 57.834915 70.388297 
L 56.795313 72.020485 
L 55.039301 76.625297 
L 56.182757 82.862297 
L 55.075189 89.099297 
L 54.517048 95.336297 
z
M 55.545868 95.336297 
L 56.075344 89.099297 
L 56.795313 85.274581 
L 57.024947 82.862297 
L 56.795313 80.782838 
L 55.959767 76.625297 
L 56.795313 74.434235 
L 59.372326 70.388297 
L 62.109598 68.281843 
L 65.65457 70.388297 
L 67.423884 70.950615 
L 72.73817 74.208173 
L 75.500128 76.625297 
L 78.052455 79.938857 
L 80.043469 82.862297 
L 78.145597 89.099297 
L 78.052455 89.209924 
L 72.73817 94.397927 
L 70.859445 95.336297 
L 67.423884 97.731668 
L 62.109598 99.369116 
L 56.795313 97.022978 
z
" clip-path="url(#pdaf47d805a)" style="fill: #1fc9dd"/>
    <path d="M 56.795313 59.172932 
L 58.453085 57.914297 
L 62.109598 56.365258 
L 65.813891 51.677297 
L 67.423884 48.281148 
L 69.120828 45.440297 
L 69.112915 39.203297 
L 67.423884 35.93738 
L 66.496788 32.966297 
L 62.109598 27.208772 
L 61.300297 26.729297 
L 56.795313 23.731156 
L 51.651026 26.729297 
L 51.481027 26.861696 
L 48.183643 32.966297 
L 48.663919 39.203297 
L 48.759644 45.440297 
L 49.232198 51.677297 
L 51.481027 55.28364 
L 55.390056 57.914297 
z
M 50.112659 51.677297 
L 49.46607 45.440297 
L 49.347804 39.203297 
L 48.835695 32.966297 
L 51.481027 28.068872 
L 53.201023 26.729297 
L 56.795313 24.63451 
L 59.942925 26.729297 
L 62.109598 28.012955 
L 65.884006 32.966297 
L 67.423884 37.901173 
L 68.097302 39.203297 
L 68.076844 45.440297 
L 67.423884 46.533417 
L 64.985354 51.677297 
L 62.109598 55.316704 
L 56.795313 57.669618 
L 51.481027 53.871684 
z
" clip-path="url(#pdaf47d805a)" style="fill: #1fc9dd"/>
   </g>
   <g id="PathCollection_7">
    <path d="M 56.795313 97.022978 
L 62.109598 99.369116 
L 67.423884 97.731668 
L 70.859445 95.336297 
L 72.73817 94.397927 
L 78.052455 89.209924 
L 78.145597 89.099297 
L 80.043469 82.862297 
L 78.052455 79.938857 
L 75.500128 76.625297 
L 72.73817 74.208173 
L 67.423884 70.950615 
L 65.65457 70.388297 
L 62.109598 68.281843 
L 59.372326 70.388297 
L 56.795313 74.434235 
L 55.959767 76.625297 
L 56.795313 80.782838 
L 57.024947 82.862297 
L 56.795313 85.274581 
L 56.075344 89.099297 
L 55.545868 95.336297 
z
M 56.574689 95.336297 
L 56.795313 92.632046 
L 56.964883 89.099297 
L 57.530726 82.862297 
L 56.851043 76.625297 
L 60.909736 70.388297 
L 62.109598 69.46495 
L 63.663509 70.388297 
L 67.423884 71.583408 
L 72.73817 75.098502 
L 74.482782 76.625297 
L 78.052455 81.259626 
L 79.143957 82.862297 
L 78.052455 86.406077 
L 77.445932 89.099297 
L 72.73817 93.748423 
L 69.559063 95.336297 
L 67.423884 96.825005 
L 62.109598 98.543707 
L 56.795313 95.634127 
z
" clip-path="url(#pdaf47d805a)" style="fill: #19e2bb"/>
    <path d="M 51.481027 53.871684 
L 56.795313 57.669618 
L 62.109598 55.316704 
L 64.985354 51.677297 
L 67.423884 46.533417 
L 68.076844 45.440297 
L 68.097302 39.203297 
L 67.423884 37.901173 
L 65.884006 32.966297 
L 62.109598 28.012955 
L 59.942925 26.729297 
L 56.795313 24.63451 
L 53.201023 26.729297 
L 51.481027 28.068872 
L 48.835695 32.966297 
L 49.347804 39.203297 
L 49.46607 45.440297 
L 50.112659 51.677297 
z
M 50.993121 51.677297 
L 50.172495 45.440297 
L 50.031689 39.203297 
L 49.487748 32.966297 
L 51.481027 29.276048 
L 54.75102 26.729297 
L 56.795313 25.537863 
L 58.585552 26.729297 
L 62.109598 28.817139 
L 65.271225 32.966297 
L 67.255408 39.203297 
L 67.227824 45.440297 
L 64.156817 51.677297 
L 62.109598 54.268151 
L 56.795313 56.92867 
L 51.481027 52.459728 
z
" clip-path="url(#pdaf47d805a)" style="fill: #19e2bb"/>
   </g>
   <g id="PathCollection_8">
    <path d="M 56.795313 95.634127 
L 62.109598 98.543707 
L 67.423884 96.825005 
L 69.559063 95.336297 
L 72.73817 93.748423 
L 77.445932 89.099297 
L 78.052455 86.406077 
L 79.143957 82.862297 
L 78.052455 81.259626 
L 74.482782 76.625297 
L 72.73817 75.098502 
L 67.423884 71.583408 
L 63.663509 70.388297 
L 62.109598 69.46495 
L 60.909736 70.388297 
L 56.851043 76.625297 
L 57.530726 82.862297 
L 56.964883 89.099297 
L 56.795313 92.632046 
L 56.574689 95.336297 
z
M 57.932391 95.336297 
L 57.570185 89.099297 
L 58.036505 82.862297 
L 57.455109 76.625297 
L 62.109598 70.561092 
L 67.423884 72.216202 
L 72.73817 75.988831 
L 73.465435 76.625297 
L 78.052455 82.580396 
L 78.244444 82.862297 
L 78.052455 83.485628 
L 76.788237 89.099297 
L 72.73817 93.098919 
L 68.258682 95.336297 
L 67.423884 95.918342 
L 62.109598 97.718299 
z
" clip-path="url(#pdaf47d805a)" style="fill: #32f298"/>
    <path d="M 51.481027 52.459728 
L 56.795313 56.92867 
L 62.109598 54.268151 
L 64.156817 51.677297 
L 67.227824 45.440297 
L 67.255408 39.203297 
L 65.271225 32.966297 
L 62.109598 28.817139 
L 58.585552 26.729297 
L 56.795313 25.537863 
L 54.75102 26.729297 
L 51.481027 29.276048 
L 49.487748 32.966297 
L 50.031689 39.203297 
L 50.172495 45.440297 
L 50.993121 51.677297 
z
M 51.843694 51.677297 
L 51.481027 49.535233 
L 50.878921 45.440297 
L 50.715574 39.203297 
L 50.139801 32.966297 
L 51.481027 30.483223 
L 56.301017 26.729297 
L 56.795313 26.441217 
L 57.22818 26.729297 
L 62.109598 29.621322 
L 64.658443 32.966297 
L 66.755383 39.203297 
L 66.704368 45.440297 
L 63.32828 51.677297 
L 62.109598 53.219598 
L 56.795313 56.187723 
z
" clip-path="url(#pdaf47d805a)" style="fill: #32f298"/>
   </g>
   <g id="PathCollection_9">
    <path d="M 62.109598 97.718299 
L 67.423884 95.918342 
L 68.258682 95.336297 
L 72.73817 93.098919 
L 76.788237 89.099297 
L 78.052455 83.485628 
L 78.244444 82.862297 
L 78.052455 82.580396 
L 73.465435 76.625297 
L 72.73817 75.988831 
L 67.423884 72.216202 
L 62.109598 70.561092 
L 57.455109 76.625297 
L 58.036505 82.862297 
L 57.570185 89.099297 
L 57.932391 95.336297 
z
M 59.379873 95.336297 
L 58.175486 89.099297 
L 58.542283 82.862297 
L 58.059175 76.625297 
L 62.109598 71.348113 
L 67.423884 72.848995 
L 72.495833 76.625297 
L 72.73817 76.816815 
L 77.625362 82.862297 
L 76.130541 89.099297 
L 72.73817 92.449415 
L 67.423884 95.130189 
L 66.57593 95.336297 
L 62.109598 96.89289 
z
" clip-path="url(#pdaf47d805a)" style="fill: #5dfc6f"/>
    <path d="M 56.795313 56.187723 
L 62.109598 53.219598 
L 63.32828 51.677297 
L 66.704368 45.440297 
L 66.755383 39.203297 
L 64.658443 32.966297 
L 62.109598 29.621322 
L 57.22818 26.729297 
L 56.795313 26.441217 
L 56.301017 26.729297 
L 51.481027 30.483223 
L 50.139801 32.966297 
L 50.715574 39.203297 
L 50.878921 45.440297 
L 51.481027 49.535233 
L 51.843694 51.677297 
z
M 52.657119 51.677297 
L 51.550319 45.440297 
L 51.481027 41.990002 
L 51.399459 39.203297 
L 50.791854 32.966297 
L 51.481027 31.690399 
L 56.795313 27.124725 
L 62.109598 30.425505 
L 64.045662 32.966297 
L 66.255358 39.203297 
L 66.180912 45.440297 
L 62.499743 51.677297 
L 62.109598 52.171044 
L 56.795313 55.446775 
z
" clip-path="url(#pdaf47d805a)" style="fill: #5dfc6f"/>
   </g>
   <g id="PathCollection_10">
    <path d="M 62.109598 96.89289 
L 66.57593 95.336297 
L 67.423884 95.130189 
L 72.73817 92.449415 
L 76.130541 89.099297 
L 77.625362 82.862297 
L 72.73817 76.816815 
L 72.495833 76.625297 
L 67.423884 72.848995 
L 62.109598 71.348113 
L 58.059175 76.625297 
L 58.542283 82.862297 
L 58.175486 89.099297 
L 59.379873 95.336297 
z
M 60.827354 95.336297 
L 58.780788 89.099297 
L 59.048062 82.862297 
L 58.663241 76.625297 
L 62.109598 72.135134 
L 67.423884 73.481788 
L 71.645929 76.625297 
L 72.73817 77.488491 
L 77.082377 82.862297 
L 75.472845 89.099297 
L 72.73817 91.79991 
L 67.423884 94.554529 
L 64.207585 95.336297 
L 62.109598 96.067481 
z
" clip-path="url(#pdaf47d805a)" style="fill: #8fff49"/>
    <path d="M 56.795313 55.446775 
L 62.109598 52.171044 
L 62.499743 51.677297 
L 66.180912 45.440297 
L 66.255358 39.203297 
L 64.045662 32.966297 
L 62.109598 30.425505 
L 56.795313 27.124725 
L 51.481027 31.690399 
L 50.791854 32.966297 
L 51.399459 39.203297 
L 51.481027 41.990002 
L 51.550319 45.440297 
L 52.657119 51.677297 
z
M 53.470543 51.677297 
L 52.019542 45.440297 
L 51.878719 39.203297 
L 51.481027 33.344964 
L 51.443907 32.966297 
L 51.481027 32.897575 
L 56.795313 27.705298 
L 62.109598 31.229689 
L 63.43288 32.966297 
L 65.755333 39.203297 
L 65.657455 45.440297 
L 62.109598 51.225654 
L 61.500505 51.677297 
L 56.795313 54.705827 
z
" clip-path="url(#pdaf47d805a)" style="fill: #8fff49"/>
   </g>
   <g id="PathCollection_11">
    <path d="M 62.109598 96.067481 
L 64.207585 95.336297 
L 67.423884 94.554529 
L 72.73817 91.79991 
L 75.472845 89.099297 
L 77.082377 82.862297 
L 72.73817 77.488491 
L 71.645929 76.625297 
L 67.423884 73.481788 
L 62.109598 72.135134 
L 58.663241 76.625297 
L 59.048062 82.862297 
L 58.780788 89.099297 
L 60.827354 95.336297 
z
M 59.38609 89.099297 
L 59.553841 82.862297 
L 59.267307 76.625297 
L 62.109598 72.922155 
L 67.423884 74.114581 
L 70.796025 76.625297 
L 72.73817 78.160168 
L 76.539391 82.862297 
L 74.815149 89.099297 
L 72.73817 91.150406 
L 67.423884 93.978869 
L 62.109598 95.181973 
z
" clip-path="url(#pdaf47d805a)" style="fill: #b4f836"/>
    <path d="M 56.795313 54.705827 
L 61.500505 51.677297 
L 62.109598 51.225654 
L 65.657455 45.440297 
L 65.755333 39.203297 
L 63.43288 32.966297 
L 62.109598 31.229689 
L 56.795313 27.705298 
L 51.481027 32.897575 
L 51.443907 32.966297 
L 51.481027 33.344964 
L 51.878719 39.203297 
L 52.019542 45.440297 
L 53.470543 51.677297 
z
M 54.283968 51.677297 
L 52.488765 45.440297 
L 52.330267 39.203297 
L 52.037592 32.966297 
L 56.795313 28.285872 
L 62.109598 32.033872 
L 62.820099 32.966297 
L 65.255308 39.203297 
L 65.133999 45.440297 
L 62.109598 50.372074 
L 60.349352 51.677297 
L 56.795313 53.964879 
z
" clip-path="url(#pdaf47d805a)" style="fill: #b4f836"/>
   </g>
   <g id="PathCollection_12">
    <path d="M 62.109598 95.181973 
L 67.423884 93.978869 
L 72.73817 91.150406 
L 74.815149 89.099297 
L 76.539391 82.862297 
L 72.73817 78.160168 
L 70.796025 76.625297 
L 67.423884 74.114581 
L 62.109598 72.922155 
L 59.267307 76.625297 
L 59.553841 82.862297 
L 59.38609 89.099297 
z
M 59.991392 89.099297 
L 60.05962 82.862297 
L 59.871373 76.625297 
L 62.109598 73.709176 
L 67.423884 74.747374 
L 69.946121 76.625297 
L 72.73817 78.831844 
L 75.996405 82.862297 
L 74.157453 89.099297 
L 72.73817 90.500902 
L 67.423884 93.403208 
L 62.109598 93.830094 
z
" clip-path="url(#pdaf47d805a)" style="fill: #d4e735"/>
    <path d="M 56.795313 53.964879 
L 60.349352 51.677297 
L 62.109598 50.372074 
L 65.133999 45.440297 
L 65.255308 39.203297 
L 62.820099 32.966297 
L 62.109598 32.033872 
L 56.795313 28.285872 
L 52.037592 32.966297 
L 52.330267 39.203297 
L 52.488765 45.440297 
L 54.283968 51.677297 
z
M 55.097392 51.677297 
L 52.957988 45.440297 
L 52.781816 39.203297 
L 52.627753 32.966297 
L 56.795313 28.866445 
L 62.109598 32.838055 
L 62.207317 32.966297 
L 64.755283 39.203297 
L 64.610543 45.440297 
L 62.109598 49.518494 
L 59.198198 51.677297 
L 56.795313 53.223931 
z
" clip-path="url(#pdaf47d805a)" style="fill: #d4e735"/>
   </g>
   <g id="PathCollection_13">
    <path d="M 62.109598 93.830094 
L 67.423884 93.403208 
L 72.73817 90.500902 
L 74.157453 89.099297 
L 75.996405 82.862297 
L 72.73817 78.831844 
L 69.946121 76.625297 
L 67.423884 74.747374 
L 62.109598 73.709176 
L 59.871373 76.625297 
L 60.05962 82.862297 
L 59.991392 89.099297 
z
M 60.596693 89.099297 
L 60.565399 82.862297 
L 60.475439 76.625297 
L 62.109598 74.496197 
L 67.423884 75.380167 
L 69.096216 76.625297 
L 72.73817 79.50352 
L 75.453419 82.862297 
L 73.499757 89.099297 
L 72.73817 89.851398 
L 67.423884 92.827548 
L 62.109598 92.478215 
z
" clip-path="url(#pdaf47d805a)" style="fill: #eecf3a"/>
    <path d="M 56.795313 53.223931 
L 59.198198 51.677297 
L 62.109598 49.518494 
L 64.610543 45.440297 
L 64.755283 39.203297 
L 62.207317 32.966297 
L 62.109598 32.838055 
L 56.795313 28.866445 
L 52.627753 32.966297 
L 52.781816 39.203297 
L 52.957988 45.440297 
L 55.097392 51.677297 
z
M 55.910817 51.677297 
L 53.427212 45.440297 
L 53.233365 39.203297 
L 53.217914 32.966297 
L 56.795313 29.447019 
L 61.462444 32.966297 
L 62.109598 33.987881 
L 64.255258 39.203297 
L 64.087087 45.440297 
L 62.109598 48.664913 
L 58.047045 51.677297 
L 56.795313 52.482983 
z
" clip-path="url(#pdaf47d805a)" style="fill: #eecf3a"/>
   </g>
   <g id="PathCollection_14">
    <path d="M 62.109598 92.478215 
L 67.423884 92.827548 
L 72.73817 89.851398 
L 73.499757 89.099297 
L 75.453419 82.862297 
L 72.73817 79.50352 
L 69.096216 76.625297 
L 67.423884 75.380167 
L 62.109598 74.496197 
L 60.475439 76.625297 
L 60.565399 82.862297 
L 60.596693 89.099297 
z
M 61.201995 89.099297 
L 61.071178 82.862297 
L 61.079505 76.625297 
L 62.109598 75.283218 
L 67.423884 76.012961 
L 68.246312 76.625297 
L 72.73817 80.175197 
L 74.910433 82.862297 
L 72.842061 89.099297 
L 72.73817 89.201894 
L 67.423884 92.251887 
L 62.109598 91.126336 
z
" clip-path="url(#pdaf47d805a)" style="fill: #fbb637"/>
    <path d="M 56.795313 52.482983 
L 58.047045 51.677297 
L 62.109598 48.664913 
L 64.087087 45.440297 
L 64.255258 39.203297 
L 62.109598 33.987881 
L 61.462444 32.966297 
L 56.795313 29.447019 
L 53.217914 32.966297 
L 53.233365 39.203297 
L 53.427212 45.440297 
L 55.910817 51.677297 
z
M 56.724241 51.677297 
L 53.896435 45.440297 
L 53.684914 39.203297 
L 53.808076 32.966297 
L 56.795313 30.027592 
L 60.69251 32.966297 
L 62.109598 35.203282 
L 63.755233 39.203297 
L 63.563631 45.440297 
L 62.109598 47.811333 
L 56.895892 51.677297 
L 56.795313 51.742036 
z
" clip-path="url(#pdaf47d805a)" style="fill: #fbb637"/>
   </g>
   <g id="PathCollection_15">
    <path d="M 62.109598 91.126336 
L 67.423884 92.251887 
L 72.73817 89.201894 
L 72.842061 89.099297 
L 74.910433 82.862297 
L 72.73817 80.175197 
L 68.246312 76.625297 
L 67.423884 76.012961 
L 62.109598 75.283218 
L 61.079505 76.625297 
L 61.071178 82.862297 
L 61.201995 89.099297 
z
M 61.807297 89.099297 
L 61.576957 82.862297 
L 61.683572 76.625297 
L 62.109598 76.070239 
L 67.190965 76.625297 
L 67.423884 76.651296 
L 72.73817 80.846873 
L 74.367447 82.862297 
L 72.73817 87.732578 
L 71.896801 89.099297 
L 67.423884 91.676227 
L 62.109598 89.774456 
z
" clip-path="url(#pdaf47d805a)" style="fill: #fe932a"/>
    <path d="M 56.795313 51.742036 
L 56.895892 51.677297 
L 62.109598 47.811333 
L 63.563631 45.440297 
L 63.755233 39.203297 
L 62.109598 35.203282 
L 60.69251 32.966297 
L 56.795313 30.027592 
L 53.808076 32.966297 
L 53.684914 39.203297 
L 53.896435 45.440297 
L 56.724241 51.677297 
z
M 54.365658 45.440297 
L 54.136463 39.203297 
L 54.398237 32.966297 
L 56.795313 30.608166 
L 59.922576 32.966297 
L 62.109598 36.418684 
L 63.255208 39.203297 
L 63.040175 45.440297 
L 62.109598 46.957753 
L 56.795313 50.742742 
z
" clip-path="url(#pdaf47d805a)" style="fill: #fe932a"/>
   </g>
   <g id="PathCollection_16">
    <path d="M 62.109598 89.774456 
L 67.423884 91.676227 
L 71.896801 89.099297 
L 72.73817 87.732578 
L 74.367447 82.862297 
L 72.73817 80.846873 
L 67.423884 76.651296 
L 67.190965 76.625297 
L 62.109598 76.070239 
L 61.683572 76.625297 
L 61.576957 82.862297 
L 61.807297 89.099297 
z
M 62.778488 89.099297 
L 62.109598 83.460566 
L 62.082736 82.862297 
L 62.109598 81.909994 
L 67.423884 77.455532 
L 72.73817 81.51855 
L 73.824461 82.862297 
L 72.73817 86.109469 
L 70.897596 89.099297 
L 67.423884 91.100566 
z
" clip-path="url(#pdaf47d805a)" style="fill: #f66c19"/>
    <path d="M 56.795313 50.742742 
L 62.109598 46.957753 
L 63.040175 45.440297 
L 63.255208 39.203297 
L 62.109598 36.418684 
L 59.922576 32.966297 
L 56.795313 30.608166 
L 54.398237 32.966297 
L 54.136463 39.203297 
L 54.365658 45.440297 
z
M 54.834882 45.440297 
L 54.588011 39.203297 
L 54.988399 32.966297 
L 56.795313 31.188739 
L 59.152641 32.966297 
L 62.109598 37.634085 
L 62.755183 39.203297 
L 62.516718 45.440297 
L 62.109598 46.104172 
L 56.795313 49.718715 
z
" clip-path="url(#pdaf47d805a)" style="fill: #f66c19"/>
   </g>
   <g id="PathCollection_17">
    <path d="M 67.423884 91.100566 
L 70.897596 89.099297 
L 72.73817 86.109469 
L 73.824461 82.862297 
L 72.73817 81.51855 
L 67.423884 77.455532 
L 62.109598 81.909994 
L 62.082736 82.862297 
L 62.109598 83.460566 
L 62.778488 89.099297 
z
M 64.114725 89.099297 
L 62.864055 82.862297 
L 67.423884 78.259768 
L 72.73817 82.190226 
L 73.281475 82.862297 
L 72.73817 84.48636 
L 69.898391 89.099297 
L 67.423884 90.524906 
z
" clip-path="url(#pdaf47d805a)" style="fill: #e7490c"/>
    <path d="M 56.795313 49.718715 
L 62.109598 46.104172 
L 62.516718 45.440297 
L 62.755183 39.203297 
L 62.109598 37.634085 
L 59.152641 32.966297 
L 56.795313 31.188739 
L 54.988399 32.966297 
L 54.588011 39.203297 
L 54.834882 45.440297 
z
M 55.304105 45.440297 
L 55.03956 39.203297 
L 55.57856 32.966297 
L 56.795313 31.769313 
L 58.382707 32.966297 
L 62.109598 38.849487 
L 62.255158 39.203297 
L 62.109598 42.740104 
L 61.762251 45.440297 
L 56.795313 48.694689 
z
" clip-path="url(#pdaf47d805a)" style="fill: #e7490c"/>
   </g>
   <g id="PathCollection_18">
    <path d="M 67.423884 90.524906 
L 69.898391 89.099297 
L 72.73817 84.48636 
L 73.281475 82.862297 
L 72.73817 82.190226 
L 67.423884 78.259768 
L 62.864055 82.862297 
L 64.114725 89.099297 
z
M 65.450962 89.099297 
L 63.66083 82.862297 
L 67.423884 79.064004 
L 72.73817 82.861902 
L 72.738489 82.862297 
L 72.73817 82.86325 
L 68.899186 89.099297 
L 67.423884 89.949245 
z
" clip-path="url(#pdaf47d805a)" style="fill: #d02f05"/>
    <path d="M 56.795313 48.694689 
L 61.762251 45.440297 
L 62.109598 42.740104 
L 62.255158 39.203297 
L 62.109598 38.849487 
L 58.382707 32.966297 
L 56.795313 31.769313 
L 55.57856 32.966297 
L 55.03956 39.203297 
L 55.304105 45.440297 
z
M 55.773328 45.440297 
L 55.491109 39.203297 
L 56.168722 32.966297 
L 56.795313 32.349886 
L 57.612773 32.966297 
L 61.062315 39.203297 
L 60.199354 45.440297 
L 56.795313 47.670662 
z
" clip-path="url(#pdaf47d805a)" style="fill: #d02f05"/>
   </g>
   <g id="PathCollection_19">
    <path d="M 67.423884 89.949245 
L 68.899186 89.099297 
L 72.73817 82.86325 
L 72.738489 82.862297 
L 72.73817 82.861902 
L 67.423884 79.064004 
L 63.66083 82.862297 
L 65.450962 89.099297 
z
M 66.7872 89.099297 
L 64.457604 82.862297 
L 67.423884 79.86824 
L 71.613464 82.862297 
L 67.899981 89.099297 
L 67.423884 89.373585 
z
" clip-path="url(#pdaf47d805a)" style="fill: #b41b01"/>
    <path d="M 56.795313 47.670662 
L 60.199354 45.440297 
L 61.062315 39.203297 
L 57.612773 32.966297 
L 56.795313 32.349886 
L 56.168722 32.966297 
L 55.491109 39.203297 
L 55.773328 45.440297 
z
M 56.242551 45.440297 
L 55.942658 39.203297 
L 56.758883 32.966297 
L 56.795313 32.930459 
L 56.842839 32.966297 
L 59.584969 39.203297 
L 58.636458 45.440297 
L 56.795313 46.646635 
z
" clip-path="url(#pdaf47d805a)" style="fill: #b41b01"/>
   </g>
   <g id="PathCollection_20">
    <path d="M 67.423884 89.373585 
L 67.899981 89.099297 
L 71.613464 82.862297 
L 67.423884 79.86824 
L 64.457604 82.862297 
L 66.7872 89.099297 
z
M 65.254379 82.862297 
L 67.423884 80.672476 
L 70.488098 82.862297 
L 67.423884 88.093494 
z
" clip-path="url(#pdaf47d805a)" style="fill: #8e0a01"/>
    <path d="M 56.795313 46.646635 
L 58.636458 45.440297 
L 59.584969 39.203297 
L 56.842839 32.966297 
L 56.795313 32.930459 
L 56.758883 32.966297 
L 55.942658 39.203297 
L 56.242551 45.440297 
z
M 56.711775 45.440297 
L 56.394207 39.203297 
L 56.795313 36.170133 
L 58.107623 39.203297 
L 57.073561 45.440297 
L 56.795313 45.622609 
z
" clip-path="url(#pdaf47d805a)" style="fill: #8e0a01"/>
   </g>
   <g id="PathCollection_21">
    <path d="M 67.423884 88.093494 
L 70.488098 82.862297 
L 67.423884 80.672476 
L 65.254379 82.862297 
z
" clip-path="url(#pdaf47d805a)" style="fill: #7a0403"/>
    <path d="M 56.795313 45.622609 
L 57.073561 45.440297 
L 58.107623 39.203297 
L 56.795313 36.170133 
L 56.394207 39.203297 
L 56.711775 45.440297 
z
" clip-path="url(#pdaf47d805a)" style="fill: #7a0403"/>
   </g>
   <g id="matplotlib.axis_1">
    <g id="xtick_1">
     <g id="line2d_1">
      <defs>
       <path id="m17fd5f1b7d" d="M 0 0 
L 0 -5 
" style="stroke: #000000"/>
      </defs>
      <g>
       <use xlink:href="#m17fd5f1b7d" x="38.195312" y="110.928797" style="stroke: #000000"/>
      </g>
     </g>
     <g id="text_1">
      <!-- 0.0 -->
      <g transform="translate(30.550313 122.302391) scale(0.11 -0.11)">
       <defs>
        <path id="ArialMT-30" d="M 266 2259 
Q 266 3072 433 3567 
Q 600 4063 929 4331 
Q 1259 4600 1759 4600 
Q 2128 4600 2406 4451 
Q 2684 4303 2865 4023 
Q 3047 3744 3150 3342 
Q 3253 2941 3253 2259 
Q 3253 1453 3087 958 
Q 2922 463 2592 192 
Q 2263 -78 1759 -78 
Q 1097 -78 719 397 
Q 266 969 266 2259 
z
M 844 2259 
Q 844 1131 1108 757 
Q 1372 384 1759 384 
Q 2147 384 2411 759 
Q 2675 1134 2675 2259 
Q 2675 3391 2411 3762 
Q 2147 4134 1753 4134 
Q 1366 4134 1134 3806 
Q 844 3388 844 2259 
z
" transform="scale(0.015625)"/>
        <path id="ArialMT-2e" d="M 581 0 
L 581 641 
L 1222 641 
L 1222 0 
L 581 0 
z
" transform="scale(0.015625)"/>
       </defs>
       <use xlink:href="#ArialMT-30"/>
       <use xlink:href="#ArialMT-2e" x="55.615234"/>
       <use xlink:href="#ArialMT-30" x="83.398438"/>
      </g>
     </g>
    </g>
    <g id="xtick_2">
     <g id="line2d_2">
      <g>
       <use xlink:href="#m17fd5f1b7d" x="82.835313" y="110.928797" style="stroke: #000000"/>
      </g>
     </g>
     <g id="text_2">
      <!-- 0.7 -->
      <g transform="translate(75.190313 122.302391) scale(0.11 -0.11)">
       <defs>
        <path id="ArialMT-37" d="M 303 3981 
L 303 4522 
L 3269 4522 
L 3269 4084 
Q 2831 3619 2401 2847 
Q 1972 2075 1738 1259 
Q 1569 684 1522 0 
L 944 0 
Q 953 541 1156 1306 
Q 1359 2072 1739 2783 
Q 2119 3494 2547 3981 
L 303 3981 
z
" transform="scale(0.015625)"/>
       </defs>
       <use xlink:href="#ArialMT-30"/>
       <use xlink:href="#ArialMT-2e" x="55.615234"/>
       <use xlink:href="#ArialMT-37" x="83.398438"/>
      </g>
     </g>
    </g>
    <g id="xtick_3">
     <g id="line2d_3">
      <g>
       <use xlink:href="#m17fd5f1b7d" x="127.475313" y="110.928797" style="stroke: #000000"/>
      </g>
     </g>
     <g id="text_3">
      <!-- 1.4 -->
      <g transform="translate(119.830313 122.302391) scale(0.11 -0.11)">
       <defs>
        <path id="ArialMT-31" d="M 2384 0 
L 1822 0 
L 1822 3584 
Q 1619 3391 1289 3197 
Q 959 3003 697 2906 
L 697 3450 
Q 1169 3672 1522 3987 
Q 1875 4303 2022 4600 
L 2384 4600 
L 2384 0 
z
" transform="scale(0.015625)"/>
        <path id="ArialMT-34" d="M 2069 0 
L 2069 1097 
L 81 1097 
L 81 1613 
L 2172 4581 
L 2631 4581 
L 2631 1613 
L 3250 1613 
L 3250 1097 
L 2631 1097 
L 2631 0 
L 2069 0 
z
M 2069 1613 
L 2069 3678 
L 634 1613 
L 2069 1613 
z
" transform="scale(0.015625)"/>
       </defs>
       <use xlink:href="#ArialMT-31"/>
       <use xlink:href="#ArialMT-2e" x="55.615234"/>
       <use xlink:href="#ArialMT-34" x="83.398438"/>
      </g>
     </g>
    </g>
    <g id="text_4">
     <!-- Burst power (a.u.) -->
     <g transform="translate(35.155 137.224266) scale(0.12 -0.12)">
      <defs>
       <path id="ArialMT-42" d="M 469 0 
L 469 4581 
L 2188 4581 
Q 2713 4581 3030 4442 
Q 3347 4303 3526 4014 
Q 3706 3725 3706 3409 
Q 3706 3116 3547 2856 
Q 3388 2597 3066 2438 
Q 3481 2316 3704 2022 
Q 3928 1728 3928 1328 
Q 3928 1006 3792 729 
Q 3656 453 3456 303 
Q 3256 153 2954 76 
Q 2653 0 2216 0 
L 469 0 
z
M 1075 2656 
L 2066 2656 
Q 2469 2656 2644 2709 
Q 2875 2778 2992 2937 
Q 3109 3097 3109 3338 
Q 3109 3566 3000 3739 
Q 2891 3913 2687 3977 
Q 2484 4041 1991 4041 
L 1075 4041 
L 1075 2656 
z
M 1075 541 
L 2216 541 
Q 2509 541 2628 563 
Q 2838 600 2978 687 
Q 3119 775 3209 942 
Q 3300 1109 3300 1328 
Q 3300 1584 3169 1773 
Q 3038 1963 2805 2039 
Q 2572 2116 2134 2116 
L 1075 2116 
L 1075 541 
z
" transform="scale(0.015625)"/>
       <path id="ArialMT-75" d="M 2597 0 
L 2597 488 
Q 2209 -75 1544 -75 
Q 1250 -75 995 37 
Q 741 150 617 320 
Q 494 491 444 738 
Q 409 903 409 1263 
L 409 3319 
L 972 3319 
L 972 1478 
Q 972 1038 1006 884 
Q 1059 663 1231 536 
Q 1403 409 1656 409 
Q 1909 409 2131 539 
Q 2353 669 2445 892 
Q 2538 1116 2538 1541 
L 2538 3319 
L 3100 3319 
L 3100 0 
L 2597 0 
z
" transform="scale(0.015625)"/>
       <path id="ArialMT-72" d="M 416 0 
L 416 3319 
L 922 3319 
L 922 2816 
Q 1116 3169 1280 3281 
Q 1444 3394 1641 3394 
Q 1925 3394 2219 3213 
L 2025 2691 
Q 1819 2813 1613 2813 
Q 1428 2813 1281 2702 
Q 1134 2591 1072 2394 
Q 978 2094 978 1738 
L 978 0 
L 416 0 
z
" transform="scale(0.015625)"/>
       <path id="ArialMT-73" d="M 197 991 
L 753 1078 
Q 800 744 1014 566 
Q 1228 388 1613 388 
Q 2000 388 2187 545 
Q 2375 703 2375 916 
Q 2375 1106 2209 1216 
Q 2094 1291 1634 1406 
Q 1016 1563 777 1677 
Q 538 1791 414 1992 
Q 291 2194 291 2438 
Q 291 2659 392 2848 
Q 494 3038 669 3163 
Q 800 3259 1026 3326 
Q 1253 3394 1513 3394 
Q 1903 3394 2198 3281 
Q 2494 3169 2634 2976 
Q 2775 2784 2828 2463 
L 2278 2388 
Q 2241 2644 2061 2787 
Q 1881 2931 1553 2931 
Q 1166 2931 1000 2803 
Q 834 2675 834 2503 
Q 834 2394 903 2306 
Q 972 2216 1119 2156 
Q 1203 2125 1616 2013 
Q 2213 1853 2448 1751 
Q 2684 1650 2818 1456 
Q 2953 1263 2953 975 
Q 2953 694 2789 445 
Q 2625 197 2315 61 
Q 2006 -75 1616 -75 
Q 969 -75 630 194 
Q 291 463 197 991 
z
" transform="scale(0.015625)"/>
       <path id="ArialMT-74" d="M 1650 503 
L 1731 6 
Q 1494 -44 1306 -44 
Q 1000 -44 831 53 
Q 663 150 594 308 
Q 525 466 525 972 
L 525 2881 
L 113 2881 
L 113 3319 
L 525 3319 
L 525 4141 
L 1084 4478 
L 1084 3319 
L 1650 3319 
L 1650 2881 
L 1084 2881 
L 1084 941 
Q 1084 700 1114 631 
Q 1144 563 1211 522 
Q 1278 481 1403 481 
Q 1497 481 1650 503 
z
" transform="scale(0.015625)"/>
       <path id="ArialMT-20" transform="scale(0.015625)"/>
       <path id="ArialMT-70" d="M 422 -1272 
L 422 3319 
L 934 3319 
L 934 2888 
Q 1116 3141 1344 3267 
Q 1572 3394 1897 3394 
Q 2322 3394 2647 3175 
Q 2972 2956 3137 2557 
Q 3303 2159 3303 1684 
Q 3303 1175 3120 767 
Q 2938 359 2589 142 
Q 2241 -75 1856 -75 
Q 1575 -75 1351 44 
Q 1128 163 984 344 
L 984 -1272 
L 422 -1272 
z
M 931 1641 
Q 931 1000 1190 694 
Q 1450 388 1819 388 
Q 2194 388 2461 705 
Q 2728 1022 2728 1688 
Q 2728 2322 2467 2637 
Q 2206 2953 1844 2953 
Q 1484 2953 1207 2617 
Q 931 2281 931 1641 
z
" transform="scale(0.015625)"/>
       <path id="ArialMT-6f" d="M 213 1659 
Q 213 2581 725 3025 
Q 1153 3394 1769 3394 
Q 2453 3394 2887 2945 
Q 3322 2497 3322 1706 
Q 3322 1066 3130 698 
Q 2938 331 2570 128 
Q 2203 -75 1769 -75 
Q 1072 -75 642 372 
Q 213 819 213 1659 
z
M 791 1659 
Q 791 1022 1069 705 
Q 1347 388 1769 388 
Q 2188 388 2466 706 
Q 2744 1025 2744 1678 
Q 2744 2294 2464 2611 
Q 2184 2928 1769 2928 
Q 1347 2928 1069 2612 
Q 791 2297 791 1659 
z
" transform="scale(0.015625)"/>
       <path id="ArialMT-77" d="M 1034 0 
L 19 3319 
L 600 3319 
L 1128 1403 
L 1325 691 
Q 1338 744 1497 1375 
L 2025 3319 
L 2603 3319 
L 3100 1394 
L 3266 759 
L 3456 1400 
L 4025 3319 
L 4572 3319 
L 3534 0 
L 2950 0 
L 2422 1988 
L 2294 2553 
L 1622 0 
L 1034 0 
z
" transform="scale(0.015625)"/>
       <path id="ArialMT-65" d="M 2694 1069 
L 3275 997 
Q 3138 488 2766 206 
Q 2394 -75 1816 -75 
Q 1088 -75 661 373 
Q 234 822 234 1631 
Q 234 2469 665 2931 
Q 1097 3394 1784 3394 
Q 2450 3394 2872 2941 
Q 3294 2488 3294 1666 
Q 3294 1616 3291 1516 
L 816 1516 
Q 847 969 1125 678 
Q 1403 388 1819 388 
Q 2128 388 2347 550 
Q 2566 713 2694 1069 
z
M 847 1978 
L 2700 1978 
Q 2663 2397 2488 2606 
Q 2219 2931 1791 2931 
Q 1403 2931 1139 2672 
Q 875 2413 847 1978 
z
" transform="scale(0.015625)"/>
       <path id="ArialMT-28" d="M 1497 -1347 
Q 1031 -759 709 28 
Q 388 816 388 1659 
Q 388 2403 628 3084 
Q 909 3875 1497 4659 
L 1900 4659 
Q 1522 4009 1400 3731 
Q 1209 3300 1100 2831 
Q 966 2247 966 1656 
Q 966 153 1900 -1347 
L 1497 -1347 
z
" transform="scale(0.015625)"/>
       <path id="ArialMT-61" d="M 2588 409 
Q 2275 144 1986 34 
Q 1697 -75 1366 -75 
Q 819 -75 525 192 
Q 231 459 231 875 
Q 231 1119 342 1320 
Q 453 1522 633 1644 
Q 813 1766 1038 1828 
Q 1203 1872 1538 1913 
Q 2219 1994 2541 2106 
Q 2544 2222 2544 2253 
Q 2544 2597 2384 2738 
Q 2169 2928 1744 2928 
Q 1347 2928 1158 2789 
Q 969 2650 878 2297 
L 328 2372 
Q 403 2725 575 2942 
Q 747 3159 1072 3276 
Q 1397 3394 1825 3394 
Q 2250 3394 2515 3294 
Q 2781 3194 2906 3042 
Q 3031 2891 3081 2659 
Q 3109 2516 3109 2141 
L 3109 1391 
Q 3109 606 3145 398 
Q 3181 191 3288 0 
L 2700 0 
Q 2613 175 2588 409 
z
M 2541 1666 
Q 2234 1541 1622 1453 
Q 1275 1403 1131 1340 
Q 988 1278 909 1158 
Q 831 1038 831 891 
Q 831 666 1001 516 
Q 1172 366 1500 366 
Q 1825 366 2078 508 
Q 2331 650 2450 897 
Q 2541 1088 2541 1459 
L 2541 1666 
z
" transform="scale(0.015625)"/>
       <path id="ArialMT-29" d="M 791 -1347 
L 388 -1347 
Q 1322 153 1322 1656 
Q 1322 2244 1188 2822 
Q 1081 3291 891 3722 
Q 769 4003 388 4659 
L 791 4659 
Q 1378 3875 1659 3084 
Q 1900 2403 1900 1659 
Q 1900 816 1576 28 
Q 1253 -759 791 -1347 
z
" transform="scale(0.015625)"/>
      </defs>
      <use xlink:href="#ArialMT-42"/>
      <use xlink:href="#ArialMT-75" x="66.699219"/>
      <use xlink:href="#ArialMT-72" x="122.314453"/>
      <use xlink:href="#ArialMT-73" x="155.615234"/>
      <use xlink:href="#ArialMT-74" x="205.615234"/>
      <use xlink:href="#ArialMT-20" x="233.398438"/>
      <use xlink:href="#ArialMT-70" x="261.181641"/>
      <use xlink:href="#ArialMT-6f" x="316.796875"/>
      <use xlink:href="#ArialMT-77" x="372.412109"/>
      <use xlink:href="#ArialMT-65" x="444.628906"/>
      <use xlink:href="#ArialMT-72" x="500.244141"/>
      <use xlink:href="#ArialMT-20" x="533.544922"/>
      <use xlink:href="#ArialMT-28" x="561.328125"/>
      <use xlink:href="#ArialMT-61" x="594.628906"/>
      <use xlink:href="#ArialMT-2e" x="650.244141"/>
      <use xlink:href="#ArialMT-75" x="678.027344"/>
      <use xlink:href="#ArialMT-2e" x="733.642578"/>
      <use xlink:href="#ArialMT-29" x="761.425781"/>
     </g>
    </g>
   </g>
   <g id="matplotlib.axis_2">
    <g id="ytick_1">
     <g id="line2d_4">
      <defs>
       <path id="m13a9d94157" d="M 0 0 
L 5 0 
" style="stroke: #000000"/>
      </defs>
      <g>
       <use xlink:href="#m13a9d94157" x="38.195312" y="110.928797" style="stroke: #000000"/>
      </g>
     </g>
     <g id="text_5">
      <!-- 10 -->
      <g transform="translate(22.46125 114.865594) scale(0.11 -0.11)">
       <use xlink:href="#ArialMT-31"/>
       <use xlink:href="#ArialMT-30" x="55.615234"/>
      </g>
     </g>
    </g>
    <g id="ytick_2">
     <g id="line2d_5">
      <g>
       <use xlink:href="#m13a9d94157" x="38.195312" y="85.980797" style="stroke: #000000"/>
      </g>
     </g>
     <g id="text_6">
      <!-- 30 -->
      <g transform="translate(22.46125 89.917594) scale(0.11 -0.11)">
       <defs>
        <path id="ArialMT-33" d="M 269 1209 
L 831 1284 
Q 928 806 1161 595 
Q 1394 384 1728 384 
Q 2125 384 2398 659 
Q 2672 934 2672 1341 
Q 2672 1728 2419 1979 
Q 2166 2231 1775 2231 
Q 1616 2231 1378 2169 
L 1441 2663 
Q 1497 2656 1531 2656 
Q 1891 2656 2178 2843 
Q 2466 3031 2466 3422 
Q 2466 3731 2256 3934 
Q 2047 4138 1716 4138 
Q 1388 4138 1169 3931 
Q 950 3725 888 3313 
L 325 3413 
Q 428 3978 793 4289 
Q 1159 4600 1703 4600 
Q 2078 4600 2393 4439 
Q 2709 4278 2876 4000 
Q 3044 3722 3044 3409 
Q 3044 3113 2884 2869 
Q 2725 2625 2413 2481 
Q 2819 2388 3044 2092 
Q 3269 1797 3269 1353 
Q 3269 753 2831 336 
Q 2394 -81 1725 -81 
Q 1122 -81 723 278 
Q 325 638 269 1209 
z
" transform="scale(0.015625)"/>
       </defs>
       <use xlink:href="#ArialMT-33"/>
       <use xlink:href="#ArialMT-30" x="55.615234"/>
      </g>
     </g>
    </g>
    <g id="ytick_3">
     <g id="line2d_6">
      <g>
       <use xlink:href="#m13a9d94157" x="38.195312" y="61.032797" style="stroke: #000000"/>
      </g>
     </g>
     <g id="text_7">
      <!-- 50 -->
      <g transform="translate(22.46125 64.969594) scale(0.11 -0.11)">
       <defs>
        <path id="ArialMT-35" d="M 266 1200 
L 856 1250 
Q 922 819 1161 601 
Q 1400 384 1738 384 
Q 2144 384 2425 690 
Q 2706 997 2706 1503 
Q 2706 1984 2436 2262 
Q 2166 2541 1728 2541 
Q 1456 2541 1237 2417 
Q 1019 2294 894 2097 
L 366 2166 
L 809 4519 
L 3088 4519 
L 3088 3981 
L 1259 3981 
L 1013 2750 
Q 1425 3038 1878 3038 
Q 2478 3038 2890 2622 
Q 3303 2206 3303 1553 
Q 3303 931 2941 478 
Q 2500 -78 1738 -78 
Q 1113 -78 717 272 
Q 322 622 266 1200 
z
" transform="scale(0.015625)"/>
       </defs>
       <use xlink:href="#ArialMT-35"/>
       <use xlink:href="#ArialMT-30" x="55.615234"/>
      </g>
     </g>
    </g>
    <g id="ytick_4">
     <g id="line2d_7">
      <g>
       <use xlink:href="#m13a9d94157" x="38.195312" y="36.084797" style="stroke: #000000"/>
      </g>
     </g>
     <g id="text_8">
      <!-- 70 -->
      <g transform="translate(22.46125 40.021594) scale(0.11 -0.11)">
       <use xlink:href="#ArialMT-37"/>
       <use xlink:href="#ArialMT-30" x="55.615234"/>
      </g>
     </g>
    </g>
    <g id="ytick_5">
     <g id="line2d_8">
      <g>
       <use xlink:href="#m13a9d94157" x="38.195312" y="11.136797" style="stroke: #000000"/>
      </g>
     </g>
     <g id="text_9">
      <!-- 90 -->
      <g transform="translate(22.46125 15.073594) scale(0.11 -0.11)">
       <defs>
        <path id="ArialMT-39" d="M 350 1059 
L 891 1109 
Q 959 728 1153 556 
Q 1347 384 1650 384 
Q 1909 384 2104 503 
Q 2300 622 2425 820 
Q 2550 1019 2634 1356 
Q 2719 1694 2719 2044 
Q 2719 2081 2716 2156 
Q 2547 1888 2255 1720 
Q 1963 1553 1622 1553 
Q 1053 1553 659 1965 
Q 266 2378 266 3053 
Q 266 3750 677 4175 
Q 1088 4600 1706 4600 
Q 2153 4600 2523 4359 
Q 2894 4119 3086 3673 
Q 3278 3228 3278 2384 
Q 3278 1506 3087 986 
Q 2897 466 2520 194 
Q 2144 -78 1638 -78 
Q 1100 -78 759 220 
Q 419 519 350 1059 
z
M 2653 3081 
Q 2653 3566 2395 3850 
Q 2138 4134 1775 4134 
Q 1400 4134 1122 3828 
Q 844 3522 844 3034 
Q 844 2597 1108 2323 
Q 1372 2050 1759 2050 
Q 2150 2050 2401 2323 
Q 2653 2597 2653 3081 
z
" transform="scale(0.015625)"/>
       </defs>
       <use xlink:href="#ArialMT-39"/>
       <use xlink:href="#ArialMT-30" x="55.615234"/>
      </g>
     </g>
    </g>
    <g id="text_10">
     <!-- Frequency (Hz) -->
     <g transform="translate(15.935625 102.373734) rotate(-90) scale(0.12 -0.12)">
      <defs>
       <path id="ArialMT-46" d="M 525 0 
L 525 4581 
L 3616 4581 
L 3616 4041 
L 1131 4041 
L 1131 2622 
L 3281 2622 
L 3281 2081 
L 1131 2081 
L 1131 0 
L 525 0 
z
" transform="scale(0.015625)"/>
       <path id="ArialMT-71" d="M 2538 -1272 
L 2538 353 
Q 2406 169 2170 47 
Q 1934 -75 1669 -75 
Q 1078 -75 651 397 
Q 225 869 225 1691 
Q 225 2191 398 2587 
Q 572 2984 901 3189 
Q 1231 3394 1625 3394 
Q 2241 3394 2594 2875 
L 2594 3319 
L 3100 3319 
L 3100 -1272 
L 2538 -1272 
z
M 803 1669 
Q 803 1028 1072 708 
Q 1341 388 1716 388 
Q 2075 388 2334 692 
Q 2594 997 2594 1619 
Q 2594 2281 2320 2615 
Q 2047 2950 1678 2950 
Q 1313 2950 1058 2639 
Q 803 2328 803 1669 
z
" transform="scale(0.015625)"/>
       <path id="ArialMT-6e" d="M 422 0 
L 422 3319 
L 928 3319 
L 928 2847 
Q 1294 3394 1984 3394 
Q 2284 3394 2536 3286 
Q 2788 3178 2913 3003 
Q 3038 2828 3088 2588 
Q 3119 2431 3119 2041 
L 3119 0 
L 2556 0 
L 2556 2019 
Q 2556 2363 2490 2533 
Q 2425 2703 2258 2804 
Q 2091 2906 1866 2906 
Q 1506 2906 1245 2678 
Q 984 2450 984 1813 
L 984 0 
L 422 0 
z
" transform="scale(0.015625)"/>
       <path id="ArialMT-63" d="M 2588 1216 
L 3141 1144 
Q 3050 572 2676 248 
Q 2303 -75 1759 -75 
Q 1078 -75 664 370 
Q 250 816 250 1647 
Q 250 2184 428 2587 
Q 606 2991 970 3192 
Q 1334 3394 1763 3394 
Q 2303 3394 2647 3120 
Q 2991 2847 3088 2344 
L 2541 2259 
Q 2463 2594 2264 2762 
Q 2066 2931 1784 2931 
Q 1359 2931 1093 2626 
Q 828 2322 828 1663 
Q 828 994 1084 691 
Q 1341 388 1753 388 
Q 2084 388 2306 591 
Q 2528 794 2588 1216 
z
" transform="scale(0.015625)"/>
       <path id="ArialMT-79" d="M 397 -1278 
L 334 -750 
Q 519 -800 656 -800 
Q 844 -800 956 -737 
Q 1069 -675 1141 -563 
Q 1194 -478 1313 -144 
Q 1328 -97 1363 -6 
L 103 3319 
L 709 3319 
L 1400 1397 
Q 1534 1031 1641 628 
Q 1738 1016 1872 1384 
L 2581 3319 
L 3144 3319 
L 1881 -56 
Q 1678 -603 1566 -809 
Q 1416 -1088 1222 -1217 
Q 1028 -1347 759 -1347 
Q 597 -1347 397 -1278 
z
" transform="scale(0.015625)"/>
       <path id="ArialMT-48" d="M 513 0 
L 513 4581 
L 1119 4581 
L 1119 2700 
L 3500 2700 
L 3500 4581 
L 4106 4581 
L 4106 0 
L 3500 0 
L 3500 2159 
L 1119 2159 
L 1119 0 
L 513 0 
z
" transform="scale(0.015625)"/>
       <path id="ArialMT-7a" d="M 125 0 
L 125 456 
L 2238 2881 
Q 1878 2863 1603 2863 
L 250 2863 
L 250 3319 
L 2963 3319 
L 2963 2947 
L 1166 841 
L 819 456 
Q 1197 484 1528 484 
L 3063 484 
L 3063 0 
L 125 0 
z
" transform="scale(0.015625)"/>
      </defs>
      <use xlink:href="#ArialMT-46"/>
      <use xlink:href="#ArialMT-72" x="61.083984"/>
      <use xlink:href="#ArialMT-65" x="94.384766"/>
      <use xlink:href="#ArialMT-71" x="150"/>
      <use xlink:href="#ArialMT-75" x="205.615234"/>
      <use xlink:href="#ArialMT-65" x="261.230469"/>
      <use xlink:href="#ArialMT-6e" x="316.845703"/>
      <use xlink:href="#ArialMT-63" x="372.460938"/>
      <use xlink:href="#ArialMT-79" x="422.460938"/>
      <use xlink:href="#ArialMT-20" x="472.460938"/>
      <use xlink:href="#ArialMT-28" x="500.244141"/>
      <use xlink:href="#ArialMT-48" x="533.544922"/>
      <use xlink:href="#ArialMT-7a" x="605.761719"/>
      <use xlink:href="#ArialMT-29" x="655.761719"/>
     </g>
    </g>
   </g>
   <g id="patch_3">
    <path d="M 38.195312 110.928797 
L 38.195312 11.136797 
" style="fill: none; stroke: #000000; stroke-width: 0.8; stroke-linejoin: miter; stroke-linecap: square"/>
   </g>
   <g id="patch_4">
    <path d="M 38.195312 110.928797 
L 127.475313 110.928797 
" style="fill: none; stroke: #000000; stroke-width: 0.8; stroke-linejoin: miter; stroke-linecap: square"/>
   </g>
  </g>
  <g id="axes_2">
   <g id="patch_5">
    <path d="M 133.055313 110.928797 
L 138.044913 110.928797 
L 138.044913 11.136797 
L 133.055313 11.136797 
z
" style="fill: #ffffff"/>
   </g>
   <g id="QuadMesh_1">
    <path d="M 133.055313 110.928797 
L 138.044913 110.928797 
L 138.044913 105.939197 
L 133.055313 105.939197 
L 133.055313 110.928797 
" clip-path="url(#p765165b37c)" style="fill: #372466"/>
    <path d="M 133.055313 105.939197 
L 138.044913 105.939197 
L 138.044913 100.949597 
L 133.055313 100.949597 
L 133.055313 105.939197 
" clip-path="url(#p765165b37c)" style="fill: #4249b1"/>
    <path d="M 133.055313 100.949597 
L 138.044913 100.949597 
L 138.044913 95.959997 
L 133.055313 95.959997 
L 133.055313 100.949597 
" clip-path="url(#p765165b37c)" style="fill: #466be3"/>
    <path d="M 133.055313 95.959997 
L 138.044913 95.959997 
L 138.044913 90.970397 
L 133.055313 90.970397 
L 133.055313 95.959997 
" clip-path="url(#p765165b37c)" style="fill: #458afc"/>
    <path d="M 133.055313 90.970397 
L 138.044913 90.970397 
L 138.044913 85.980797 
L 133.055313 85.980797 
L 133.055313 90.970397 
" clip-path="url(#p765165b37c)" style="fill: #35abf8"/>
    <path d="M 133.055313 85.980797 
L 138.044913 85.980797 
L 138.044913 80.991197 
L 133.055313 80.991197 
L 133.055313 85.980797 
" clip-path="url(#p765165b37c)" style="fill: #1fc9dd"/>
    <path d="M 133.055313 80.991197 
L 138.044913 80.991197 
L 138.044913 76.001597 
L 133.055313 76.001597 
L 133.055313 80.991197 
" clip-path="url(#p765165b37c)" style="fill: #19e2bb"/>
    <path d="M 133.055313 76.001597 
L 138.044913 76.001597 
L 138.044913 71.011997 
L 133.055313 71.011997 
L 133.055313 76.001597 
" clip-path="url(#p765165b37c)" style="fill: #32f298"/>
    <path d="M 133.055313 71.011997 
L 138.044913 71.011997 
L 138.044913 66.022397 
L 133.055313 66.022397 
L 133.055313 71.011997 
" clip-path="url(#p765165b37c)" style="fill: #5dfc6f"/>
    <path d="M 133.055313 66.022397 
L 138.044913 66.022397 
L 138.044913 61.032797 
L 133.055313 61.032797 
L 133.055313 66.022397 
" clip-path="url(#p765165b37c)" style="fill: #8fff49"/>
    <path d="M 133.055313 61.032797 
L 138.044913 61.032797 
L 138.044913 56.043197 
L 133.055313 56.043197 
L 133.055313 61.032797 
" clip-path="url(#p765165b37c)" style="fill: #b4f836"/>
    <path d="M 133.055313 56.043197 
L 138.044913 56.043197 
L 138.044913 51.053597 
L 133.055313 51.053597 
L 133.055313 56.043197 
" clip-path="url(#p765165b37c)" style="fill: #d4e735"/>
    <path d="M 133.055313 51.053597 
L 138.044913 51.053597 
L 138.044913 46.063997 
L 133.055313 46.063997 
L 133.055313 51.053597 
" clip-path="url(#p765165b37c)" style="fill: #eecf3a"/>
    <path d="M 133.055313 46.063997 
L 138.044913 46.063997 
L 138.044913 41.074397 
L 133.055313 41.074397 
L 133.055313 46.063997 
" clip-path="url(#p765165b37c)" style="fill: #fbb637"/>
    <path d="M 133.055313 41.074397 
L 138.044913 41.074397 
L 138.044913 36.084797 
L 133.055313 36.084797 
L 133.055313 41.074397 
" clip-path="url(#p765165b37c)" style="fill: #fe932a"/>
    <path d="M 133.055313 36.084797 
L 138.044913 36.084797 
L 138.044913 31.095197 
L 133.055313 31.095197 
L 133.055313 36.084797 
" clip-path="url(#p765165b37c)" style="fill: #f66c19"/>
    <path d="M 133.055313 31.095197 
L 138.044913 31.095197 
L 138.044913 26.105597 
L 133.055313 26.105597 
L 133.055313 31.095197 
" clip-path="url(#p765165b37c)" style="fill: #e7490c"/>
    <path d="M 133.055313 26.105597 
L 138.044913 26.105597 
L 138.044913 21.115997 
L 133.055313 21.115997 
L 133.055313 26.105597 
" clip-path="url(#p765165b37c)" style="fill: #d02f05"/>
    <path d="M 133.055313 21.115997 
L 138.044913 21.115997 
L 138.044913 16.126397 
L 133.055313 16.126397 
L 133.055313 21.115997 
" clip-path="url(#p765165b37c)" style="fill: #b41b01"/>
    <path d="M 133.055313 16.126397 
L 138.044913 16.126397 
L 138.044913 11.136797 
L 133.055313 11.136797 
L 133.055313 16.126397 
" clip-path="url(#p765165b37c)" style="fill: #8e0a01"/>
    <path d="M 133.055313 11.136797 
L 138.044913 11.136797 
L 138.044913 6.147197 
L 133.055313 6.147197 
L 133.055313 11.136797 
" clip-path="url(#p765165b37c)" style="fill: #7a0403"/>
   </g>
   <g id="matplotlib.axis_3"/>
   <g id="matplotlib.axis_4">
    <g id="ytick_6">
     <g id="line2d_9">
      <defs>
       <path id="md928087706" d="M 0 0 
L -5 0 
" style="stroke: #000000"/>
      </defs>
      <g>
       <use xlink:href="#md928087706" x="138.044913" y="110.928797" style="stroke: #000000"/>
      </g>
     </g>
     <g id="text_11">
      <!-- 0.00 -->
      <g transform="translate(141.544913 114.865594) scale(0.11 -0.11)">
       <use xlink:href="#ArialMT-30"/>
       <use xlink:href="#ArialMT-2e" x="55.615234"/>
       <use xlink:href="#ArialMT-30" x="83.398438"/>
       <use xlink:href="#ArialMT-30" x="139.013672"/>
      </g>
     </g>
    </g>
    <g id="ytick_7">
     <g id="line2d_10">
      <g>
       <use xlink:href="#md928087706" x="138.044913" y="61.032797" style="stroke: #000000"/>
      </g>
     </g>
     <g id="text_12">
      <!-- 0.02 -->
      <g transform="translate(141.544913 64.969594) scale(0.11 -0.11)">
       <defs>
        <path id="ArialMT-32" d="M 3222 541 
L 3222 0 
L 194 0 
Q 188 203 259 391 
Q 375 700 629 1000 
Q 884 1300 1366 1694 
Q 2113 2306 2375 2664 
Q 2638 3022 2638 3341 
Q 2638 3675 2398 3904 
Q 2159 4134 1775 4134 
Q 1369 4134 1125 3890 
Q 881 3647 878 3216 
L 300 3275 
Q 359 3922 746 4261 
Q 1134 4600 1788 4600 
Q 2447 4600 2831 4234 
Q 3216 3869 3216 3328 
Q 3216 3053 3103 2787 
Q 2991 2522 2730 2228 
Q 2469 1934 1863 1422 
Q 1356 997 1212 845 
Q 1069 694 975 541 
L 3222 541 
z
" transform="scale(0.015625)"/>
       </defs>
       <use xlink:href="#ArialMT-30"/>
       <use xlink:href="#ArialMT-2e" x="55.615234"/>
       <use xlink:href="#ArialMT-30" x="83.398438"/>
       <use xlink:href="#ArialMT-32" x="139.013672"/>
      </g>
     </g>
    </g>
    <g id="ytick_8">
     <g id="line2d_11">
      <g>
       <use xlink:href="#md928087706" x="138.044913" y="11.136797" style="stroke: #000000"/>
      </g>
     </g>
     <g id="text_13">
      <!-- 0.04 -->
      <g transform="translate(141.544913 15.073594) scale(0.11 -0.11)">
       <use xlink:href="#ArialMT-30"/>
       <use xlink:href="#ArialMT-2e" x="55.615234"/>
       <use xlink:href="#ArialMT-30" x="83.398438"/>
       <use xlink:href="#ArialMT-34" x="139.013672"/>
      </g>
     </g>
    </g>
   </g>
   <g id="LineCollection_1"/>
   <g id="patch_6">
    <path d="M 133.055313 110.928797 
L 135.550113 110.928797 
L 138.044913 110.928797 
L 138.044913 11.136797 
L 135.550113 11.136797 
L 133.055313 11.136797 
L 133.055313 110.928797 
z
" style="fill: none; stroke: #000000; stroke-width: 0.8; stroke-linejoin: miter; stroke-linecap: square"/>
   </g>
  </g>
 </g>
 <defs>
  <clipPath id="pdaf47d805a">
   <rect x="38.195312" y="11.136797" width="89.28" height="99.792"/>
  </clipPath>
  <clipPath id="p765165b37c">
   <rect x="133.055313" y="11.136797" width="4.9896" height="99.792"/>
  </clipPath>
 </defs>
</svg>
