<?xml version="1.0" encoding="utf-8" standalone="no"?>
<!DOCTYPE svg PUBLIC "-//W3C//DTD SVG 1.1//EN"
  "http://www.w3.org/Graphics/SVG/1.1/DTD/svg11.dtd">
<svg xmlns:xlink="http://www.w3.org/1999/xlink" width="170.151944pt" height="146.949891pt" viewBox="0 0 170.151944 146.949891" xmlns="http://www.w3.org/2000/svg" version="1.1">
 <metadata>
  <rdf:RDF xmlns:dc="http://purl.org/dc/elements/1.1/" xmlns:cc="http://creativecommons.org/ns#" xmlns:rdf="http://www.w3.org/1999/02/22-rdf-syntax-ns#">
   <cc:Work>
    <dc:type rdf:resource="http://purl.org/dc/dcmitype/StillImage"/>
    <dc:date>2025-04-28T20:20:53.372285</dc:date>
    <dc:format>image/svg+xml</dc:format>
    <dc:creator>
     <cc:Agent>
      <dc:title>Matplotlib v3.7.2, https://matplotlib.org/</dc:title>
     </cc:Agent>
    </dc:creator>
   </cc:Work>
  </rdf:RDF>
 </metadata>
 <defs>
  <style type="text/css">*{stroke-linejoin: round; stroke-linecap: butt}</style>
 </defs>
 <g id="figure_1">
  <g id="patch_1">
   <path d="M 0 146.949891 
L 170.151944 146.949891 
L 170.151944 0 
L 0 0 
z
" style="fill: #ffffff"/>
  </g>
  <g id="axes_1">
   <g id="patch_2">
    <path d="M 38.195312 110.928797 
L 127.475313 110.928797 
L 127.475313 11.136797 
L 38.195312 11.136797 
z
" style="fill: #ffffff"/>
   </g>
   <g id="PathCollection_1">
    <path d="M 19.595312 114.047297 
L 23.728646 114.047297 
L 27.861979 114.047297 
L 31.995312 114.047297 
L 36.128646 114.047297 
L 40.261979 114.047297 
L 44.395312 114.047297 
L 48.528646 114.047297 
L 52.661979 114.047297 
L 56.795313 114.047297 
L 60.928646 114.047297 
L 65.061979 114.047297 
L 69.195312 114.047297 
L 73.328646 114.047297 
L 77.461979 114.047297 
L 81.595313 114.047297 
L 85.728646 114.047297 
L 89.861979 114.047297 
L 93.995313 114.047297 
L 98.128646 114.047297 
L 102.261979 114.047297 
L 106.395313 114.047297 
L 110.528646 114.047297 
L 114.661979 114.047297 
L 118.795313 114.047297 
L 122.928646 114.047297 
L 127.061979 114.047297 
L 131.195312 114.047297 
L 135.328646 114.047297 
L 135.328646 107.810297 
L 135.328646 101.573297 
L 135.328646 95.336297 
L 135.328646 89.099297 
L 135.328646 82.862297 
L 135.328646 76.625297 
L 135.328646 70.388297 
L 135.328646 64.151297 
L 135.328646 57.914297 
L 135.328646 51.677297 
L 135.328646 45.440297 
L 135.328646 39.203297 
L 135.328646 32.966297 
L 135.328646 26.729297 
L 135.328646 20.492297 
L 135.328646 14.255297 
L 135.328646 8.018297 
L 135.328646 1.781297 
L 131.195312 1.781297 
L 127.061979 1.781297 
L 122.928646 1.781297 
L 118.795313 1.781297 
L 114.661979 1.781297 
L 110.528646 1.781297 
L 106.395313 1.781297 
L 102.261979 1.781297 
L 98.128646 1.781297 
L 93.995313 1.781297 
L 89.861979 1.781297 
L 85.728646 1.781297 
L 81.595313 1.781297 
L 77.461979 1.781297 
L 73.328646 1.781297 
L 69.195312 1.781297 
L 65.061979 1.781297 
L 60.928646 1.781297 
L 56.795313 1.781297 
L 52.661979 1.781297 
L 48.528646 1.781297 
L 44.395312 1.781297 
L 40.261979 1.781297 
L 36.128646 1.781297 
L 31.995312 1.781297 
L 27.861979 1.781297 
L 23.728646 1.781297 
L 19.595312 1.781297 
L 15.461979 1.781297 
L 15.461979 8.018297 
L 15.461979 14.255297 
L 15.461979 20.492297 
L 15.461979 26.729297 
L 15.461979 32.966297 
L 15.461979 39.203297 
L 15.461979 45.440297 
L 15.461979 51.677297 
L 15.461979 57.914297 
L 15.461979 64.151297 
L 15.461979 70.388297 
L 15.461979 76.625297 
L 15.461979 82.862297 
L 15.461979 89.099297 
L 15.461979 95.336297 
L 15.461979 101.573297 
L 15.461979 107.810297 
L 15.461979 114.047297 
z
M 46.424424 101.573297 
L 44.395312 98.921512 
L 42.753588 95.336297 
L 40.816497 89.099297 
L 40.422747 82.862297 
L 40.845018 76.625297 
L 43.582124 70.388297 
L 44.395312 69.056866 
L 47.446263 64.151297 
L 48.528646 62.583414 
L 52.661979 58.782111 
L 54.058913 57.914297 
L 56.508384 51.677297 
L 56.397423 45.440297 
L 56.795313 44.462306 
L 57.936403 39.203297 
L 58.861715 32.966297 
L 57.78977 26.729297 
L 58.966562 20.492297 
L 60.928646 17.177355 
L 65.061979 14.29334 
L 69.195312 14.41596 
L 73.328646 16.041934 
L 77.313677 20.492297 
L 77.461979 20.572803 
L 81.595313 22.086767 
L 85.728646 25.118234 
L 87.421243 26.729297 
L 89.861979 29.076422 
L 92.948485 32.966297 
L 93.849003 39.203297 
L 90.612953 45.440297 
L 89.861979 46.21016 
L 85.728646 50.222696 
L 82.930884 51.677297 
L 81.595313 52.814156 
L 77.461979 55.704838 
L 73.328646 57.405977 
L 72.31903 57.914297 
L 69.195312 61.61446 
L 66.282851 64.151297 
L 65.061979 65.937237 
L 63.803392 70.388297 
L 63.966727 76.625297 
L 63.45728 82.862297 
L 60.928646 87.949491 
L 60.599355 89.099297 
L 56.795313 95.005214 
L 56.43599 95.336297 
L 52.661979 101.550783 
L 52.598451 101.573297 
L 48.528646 104.46061 
z
" clip-path="url(#pdf9a975527)" style="fill: #372466"/>
   </g>
   <g id="PathCollection_2">
    <path d="M 48.528646 104.46061 
L 52.598451 101.573297 
L 52.661979 101.550783 
L 56.43599 95.336297 
L 56.795313 95.005214 
L 60.599355 89.099297 
L 60.928646 87.949491 
L 63.45728 82.862297 
L 63.966727 76.625297 
L 63.803392 70.388297 
L 65.061979 65.937237 
L 66.282851 64.151297 
L 69.195312 61.61446 
L 72.31903 57.914297 
L 73.328646 57.405977 
L 77.461979 55.704838 
L 81.595313 52.814156 
L 82.930884 51.677297 
L 85.728646 50.222696 
L 89.861979 46.21016 
L 90.612953 45.440297 
L 93.849003 39.203297 
L 92.948485 32.966297 
L 89.861979 29.076422 
L 87.421243 26.729297 
L 85.728646 25.118234 
L 81.595313 22.086767 
L 77.461979 20.572803 
L 77.313677 20.492297 
L 73.328646 16.041934 
L 69.195312 14.41596 
L 65.061979 14.29334 
L 60.928646 17.177355 
L 58.966562 20.492297 
L 57.78977 26.729297 
L 58.861715 32.966297 
L 57.936403 39.203297 
L 56.795313 44.462306 
L 56.397423 45.440297 
L 56.508384 51.677297 
L 54.058913 57.914297 
L 52.661979 58.782111 
L 48.528646 62.583414 
L 47.446263 64.151297 
L 44.395312 69.056866 
L 43.582124 70.388297 
L 40.845018 76.625297 
L 40.422747 82.862297 
L 40.816497 89.099297 
L 42.753588 95.336297 
L 44.395312 98.921512 
L 46.424424 101.573297 
z
M 45.174729 95.336297 
L 44.395313 94.440111 
L 41.807533 89.099297 
L 41.011031 82.862297 
L 41.810289 76.625297 
L 44.395312 71.788609 
L 44.975233 70.388297 
L 48.528646 64.958574 
L 49.943941 64.151297 
L 52.661979 61.060558 
L 56.795313 58.742507 
L 57.604158 57.914297 
L 58.225659 51.677297 
L 57.800326 45.440297 
L 60.166267 39.203297 
L 60.928646 35.552536 
L 61.170171 32.966297 
L 60.928646 31.610803 
L 59.466308 26.729297 
L 60.928646 22.125743 
L 61.404141 20.492297 
L 65.061979 16.126912 
L 69.195312 16.072367 
L 73.328646 18.967869 
L 74.693679 20.492297 
L 77.461979 21.995085 
L 81.595313 24.565864 
L 83.887699 26.729297 
L 85.728646 28.519196 
L 89.2806 32.966297 
L 89.861979 38.679909 
L 89.96342 39.203297 
L 89.861979 39.37972 
L 86.880333 45.440297 
L 85.728646 46.670738 
L 81.595313 50.152188 
L 78.574023 51.677297 
L 77.461979 52.597441 
L 73.328646 55.544253 
L 69.195312 57.698866 
L 68.708411 57.914297 
L 65.061979 61.691213 
L 62.457841 64.151297 
L 61.72337 70.388297 
L 62.38154 76.625297 
L 61.363719 82.862297 
L 60.928646 83.737593 
L 59.393117 89.099297 
L 56.795313 93.132485 
L 54.403527 95.336297 
L 52.661979 98.204022 
L 48.528646 100.127301 
z
" clip-path="url(#pdf9a975527)" style="fill: #4249b1"/>
   </g>
   <g id="PathCollection_3">
    <path d="M 48.528646 100.127301 
L 52.661979 98.204022 
L 54.403527 95.336297 
L 56.795313 93.132485 
L 59.393117 89.099297 
L 60.928646 83.737593 
L 61.363719 82.862297 
L 62.38154 76.625297 
L 61.72337 70.388297 
L 62.457841 64.151297 
L 65.061979 61.691213 
L 68.708411 57.914297 
L 69.195312 57.698866 
L 73.328646 55.544253 
L 77.461979 52.597441 
L 78.574023 51.677297 
L 81.595313 50.152188 
L 85.728646 46.670738 
L 86.880333 45.440297 
L 89.861979 39.37972 
L 89.96342 39.203297 
L 89.861979 38.679909 
L 89.2806 32.966297 
L 85.728646 28.519196 
L 83.887699 26.729297 
L 81.595313 24.565864 
L 77.461979 21.995085 
L 74.693679 20.492297 
L 73.328646 18.967869 
L 69.195312 16.072367 
L 65.061979 16.126912 
L 61.404141 20.492297 
L 60.928646 22.125743 
L 59.466308 26.729297 
L 60.928646 31.610803 
L 61.170171 32.966297 
L 60.928646 35.552536 
L 60.166267 39.203297 
L 57.800326 45.440297 
L 58.225659 51.677297 
L 57.604158 57.914297 
L 56.795313 58.742507 
L 52.661979 61.060558 
L 49.943941 64.151297 
L 48.528646 64.958574 
L 44.975233 70.388297 
L 44.395312 71.788609 
L 41.810289 76.625297 
L 41.011031 82.862297 
L 41.807533 89.099297 
L 44.395312 94.440111 
L 45.174729 95.336297 
z
M 46.953586 95.336297 
L 44.395312 92.394751 
L 42.798569 89.099297 
L 41.599314 82.862297 
L 42.77556 76.625297 
L 44.395312 73.594671 
L 45.723189 70.388297 
L 48.528646 66.101474 
L 51.947639 64.151297 
L 52.661979 63.339005 
L 56.795313 62.00434 
L 59.037141 64.151297 
L 60.51183 70.388297 
L 60.897784 76.625297 
L 60.576075 82.862297 
L 58.186879 89.099297 
L 56.795313 91.259755 
L 52.661979 95.226713 
L 52.08679 95.336297 
L 48.528646 97.586239 
z
M 60.789727 57.914297 
L 59.75252 51.677297 
L 58.911039 45.440297 
L 60.928646 40.861988 
L 61.697158 39.203297 
L 62.167376 32.966297 
L 61.030877 26.729297 
L 62.940525 20.492297 
L 65.061979 17.960484 
L 69.195312 17.728773 
L 72.406664 20.492297 
L 73.328646 21.004304 
L 77.461979 23.417366 
L 81.381016 26.729297 
L 81.595313 26.894304 
L 85.728646 31.073221 
L 87.240669 32.966297 
L 88.077085 39.203297 
L 85.728646 43.333581 
L 84.46576 45.440297 
L 81.595313 48.25648 
L 77.461979 50.777385 
L 75.828377 51.677297 
L 73.328646 53.682529 
L 69.195312 56.311066 
L 65.571801 57.914297 
L 65.061979 58.442363 
L 60.928646 58.3684 
z
" clip-path="url(#pdf9a975527)" style="fill: #466be3"/>
   </g>
   <g id="PathCollection_4">
    <path d="M 48.528646 97.586239 
L 52.08679 95.336297 
L 52.661979 95.226713 
L 56.795313 91.259755 
L 58.186879 89.099297 
L 60.576075 82.862297 
L 60.897784 76.625297 
L 60.51183 70.388297 
L 59.037141 64.151297 
L 56.795313 62.00434 
L 52.661979 63.339005 
L 51.947639 64.151297 
L 48.528646 66.101474 
L 45.723189 70.388297 
L 44.395312 73.594671 
L 42.77556 76.625297 
L 41.599314 82.862297 
L 42.798569 89.099297 
L 44.395312 92.394751 
L 46.953586 95.336297 
z
M 43.789606 89.099297 
L 42.187597 82.862297 
L 43.740831 76.625297 
L 44.395312 75.400734 
L 46.471145 70.388297 
L 48.528646 67.244374 
L 52.661979 64.560715 
L 56.795313 64.590702 
L 59.83729 70.388297 
L 60.52799 76.625297 
L 60.131013 82.862297 
L 56.980641 89.099297 
L 56.795313 89.387026 
L 52.661979 94.461109 
L 48.528646 95.251507 
L 44.395312 90.349391 
z
" clip-path="url(#pdf9a975527)" style="fill: #458afc"/>
    <path d="M 60.928646 58.3684 
L 65.061979 58.442363 
L 65.571801 57.914297 
L 69.195312 56.311066 
L 73.328646 53.682529 
L 75.828377 51.677297 
L 77.461979 50.777385 
L 81.595313 48.25648 
L 84.46576 45.440297 
L 85.728646 43.333581 
L 88.077085 39.203297 
L 87.240669 32.966297 
L 85.728646 31.073221 
L 81.595313 26.894304 
L 81.381016 26.729297 
L 77.461979 23.417366 
L 73.328646 21.004304 
L 72.406664 20.492297 
L 69.195312 17.728773 
L 65.061979 17.960484 
L 62.940525 20.492297 
L 61.030877 26.729297 
L 62.167376 32.966297 
L 61.697158 39.203297 
L 60.928646 40.861988 
L 58.911039 45.440297 
L 59.75252 51.677297 
L 60.789727 57.914297 
z
M 61.247599 51.677297 
L 60.928646 50.307873 
L 60.021752 45.440297 
L 60.928646 43.382393 
L 62.864923 39.203297 
L 63.164581 32.966297 
L 61.831032 26.729297 
L 64.47691 20.492297 
L 65.061979 19.794056 
L 69.195312 19.38518 
L 70.481837 20.492297 
L 73.328646 22.073225 
L 77.461979 24.839648 
L 79.698018 26.729297 
L 81.595313 28.190204 
L 85.457458 32.966297 
L 85.728646 35.954361 
L 86.244343 39.203297 
L 85.728646 40.110273 
L 82.533524 45.440297 
L 81.595313 46.360772 
L 77.461979 49.498894 
L 73.507544 51.677297 
L 73.328646 51.820805 
L 69.195312 54.923265 
L 65.061979 56.457154 
z
" clip-path="url(#pdf9a975527)" style="fill: #458afc"/>
   </g>
   <g id="PathCollection_5">
    <path d="M 44.395312 90.349391 
L 48.528646 95.251507 
L 52.661979 94.461109 
L 56.795313 89.387026 
L 56.980641 89.099297 
L 60.131013 82.862297 
L 60.52799 76.625297 
L 59.83729 70.388297 
L 56.795313 64.590702 
L 52.661979 64.560715 
L 48.528646 67.244374 
L 46.471145 70.388297 
L 44.395312 75.400734 
L 43.740831 76.625297 
L 42.187597 82.862297 
L 43.789606 89.099297 
z
M 44.603984 89.099297 
L 44.395312 88.327391 
L 42.775881 82.862297 
L 44.395312 77.278394 
L 44.494592 76.625297 
L 47.219102 70.388297 
L 48.528646 68.387274 
L 52.661979 65.196962 
L 56.795313 65.876285 
L 59.162749 70.388297 
L 60.158195 76.625297 
L 59.685952 82.862297 
L 56.795313 88.380248 
L 56.284595 89.099297 
L 52.661979 93.695506 
L 48.528646 94.511415 
z
" clip-path="url(#pdf9a975527)" style="fill: #35abf8"/>
    <path d="M 65.061979 56.457154 
L 69.195312 54.923265 
L 73.328646 51.820805 
L 73.507544 51.677297 
L 77.461979 49.498894 
L 81.595313 46.360772 
L 82.533524 45.440297 
L 85.728646 40.110273 
L 86.244343 39.203297 
L 85.728646 35.954361 
L 85.457458 32.966297 
L 81.595313 28.190204 
L 79.698018 26.729297 
L 77.461979 24.839648 
L 73.328646 22.073225 
L 70.481837 20.492297 
L 69.195312 19.38518 
L 65.061979 19.794056 
L 64.47691 20.492297 
L 61.831032 26.729297 
L 63.164581 32.966297 
L 62.864923 39.203297 
L 60.928646 43.382393 
L 60.021752 45.440297 
L 60.928646 50.307873 
L 61.247599 51.677297 
z
M 62.636101 51.677297 
L 61.074354 45.440297 
L 64.032688 39.203297 
L 64.161785 32.966297 
L 62.631188 26.729297 
L 65.061979 21.5483 
L 69.195312 20.845106 
L 73.328646 23.142146 
L 77.461979 26.26193 
L 78.015019 26.729297 
L 81.595313 29.486104 
L 84.40954 32.966297 
L 84.97403 39.203297 
L 81.595313 44.580547 
L 80.804538 45.440297 
L 77.461979 48.220402 
L 73.328646 50.644098 
L 71.642094 51.677297 
L 69.195312 53.535465 
L 65.061979 54.717201 
z
" clip-path="url(#pdf9a975527)" style="fill: #35abf8"/>
   </g>
   <g id="PathCollection_6">
    <path d="M 48.528646 94.511415 
L 52.661979 93.695506 
L 56.284595 89.099297 
L 56.795313 88.380248 
L 59.685952 82.862297 
L 60.158195 76.625297 
L 59.162749 70.388297 
L 56.795313 65.876285 
L 52.661979 65.196962 
L 48.528646 68.387274 
L 47.219102 70.388297 
L 44.494592 76.625297 
L 44.395312 77.278394 
L 42.775881 82.862297 
L 44.395312 88.327391 
L 44.603984 89.099297 
z
M 45.140672 89.099297 
L 44.395312 86.342112 
L 43.364164 82.862297 
L 44.395312 79.306833 
L 44.802939 76.625297 
L 47.967058 70.388297 
L 48.528646 69.530173 
L 52.661979 65.833209 
L 56.795313 67.161867 
L 58.488209 70.388297 
L 59.7884 76.625297 
L 59.24089 82.862297 
L 56.795313 87.530669 
L 55.681166 89.099297 
L 52.661979 92.929902 
L 48.528646 93.771322 
z
" clip-path="url(#pdf9a975527)" style="fill: #1fc9dd"/>
    <path d="M 65.061979 54.717201 
L 69.195312 53.535465 
L 71.642094 51.677297 
L 73.328646 50.644098 
L 77.461979 48.220402 
L 80.804538 45.440297 
L 81.595313 44.580547 
L 84.97403 39.203297 
L 84.40954 32.966297 
L 81.595313 29.486104 
L 78.015019 26.729297 
L 77.461979 26.26193 
L 73.328646 23.142146 
L 69.195312 20.845106 
L 65.061979 21.5483 
L 62.631188 26.729297 
L 64.161785 32.966297 
L 64.032688 39.203297 
L 61.074354 45.440297 
L 62.636101 51.677297 
z
M 64.024604 51.677297 
L 61.868395 45.440297 
L 65.061979 39.381919 
L 65.194764 39.203297 
L 65.140684 32.966297 
L 65.061979 32.682127 
L 63.431344 26.729297 
L 65.061979 23.253755 
L 69.195312 21.909016 
L 73.328646 24.211066 
L 76.545274 26.729297 
L 77.461979 27.343605 
L 81.595313 30.782005 
L 83.361621 32.966297 
L 83.923939 39.203297 
L 81.595313 42.909321 
L 79.267391 45.440297 
L 77.461979 46.941911 
L 73.328646 49.524605 
L 69.814679 51.677297 
L 69.195312 52.147665 
L 65.061979 52.977247 
z
" clip-path="url(#pdf9a975527)" style="fill: #1fc9dd"/>
   </g>
   <g id="PathCollection_7">
    <path d="M 48.528646 93.771322 
L 52.661979 92.929902 
L 55.681166 89.099297 
L 56.795313 87.530669 
L 59.24089 82.862297 
L 59.7884 76.625297 
L 58.488209 70.388297 
L 56.795313 67.161867 
L 52.661979 65.833209 
L 48.528646 69.530173 
L 47.967058 70.388297 
L 44.802939 76.625297 
L 44.395312 79.306833 
L 43.364164 82.862297 
L 44.395312 86.342112 
L 45.140672 89.099297 
z
M 45.677359 89.099297 
L 44.395312 84.356833 
L 43.952448 82.862297 
L 44.395312 81.335271 
L 45.111287 76.625297 
L 48.528646 70.525437 
L 48.689355 70.388297 
L 52.661979 66.469456 
L 56.795313 68.44745 
L 57.813668 70.388297 
L 59.418605 76.625297 
L 58.795829 82.862297 
L 56.795313 86.681089 
L 55.077736 89.099297 
L 52.661979 92.164299 
L 48.528646 93.031229 
z
" clip-path="url(#pdf9a975527)" style="fill: #19e2bb"/>
    <path d="M 65.061979 52.977247 
L 69.195312 52.147665 
L 69.814679 51.677297 
L 73.328646 49.524605 
L 77.461979 46.941911 
L 79.267391 45.440297 
L 81.595313 42.909321 
L 83.923939 39.203297 
L 83.361621 32.966297 
L 81.595313 30.782005 
L 77.461979 27.343605 
L 76.545274 26.729297 
L 73.328646 24.211066 
L 69.195312 21.909016 
L 65.061979 23.253755 
L 63.431344 26.729297 
L 65.061979 32.682127 
L 65.140684 32.966297 
L 65.194764 39.203297 
L 65.061979 39.381919 
L 61.868395 45.440297 
L 64.024604 51.677297 
z
M 62.662436 45.440297 
L 65.061979 40.888251 
L 66.314547 39.203297 
L 65.949713 32.966297 
L 65.061979 29.761061 
L 64.2315 26.729297 
L 65.061979 24.95921 
L 69.195312 22.972926 
L 73.328646 25.279987 
L 75.179902 26.729297 
L 77.461979 28.258576 
L 81.595313 32.077905 
L 82.313703 32.966297 
L 82.873848 39.203297 
L 81.595313 41.238094 
L 77.730243 45.440297 
L 77.461979 45.66342 
L 73.328646 48.405112 
L 69.195312 50.856429 
L 65.061979 51.195675 
z
" clip-path="url(#pdf9a975527)" style="fill: #19e2bb"/>
   </g>
   <g id="PathCollection_8">
    <path d="M 48.528646 93.031229 
L 52.661979 92.164299 
L 55.077736 89.099297 
L 56.795313 86.681089 
L 58.795829 82.862297 
L 59.418605 76.625297 
L 57.813668 70.388297 
L 56.795313 68.44745 
L 52.661979 66.469456 
L 48.689355 70.388297 
L 48.528646 70.525437 
L 45.111287 76.625297 
L 44.395312 81.335271 
L 43.952448 82.862297 
L 44.395312 84.356833 
L 45.677359 89.099297 
z
M 46.214046 89.099297 
L 44.461248 82.862297 
L 45.419635 76.625297 
L 48.528646 71.075827 
L 49.334334 70.388297 
L 52.661979 67.105703 
L 56.795313 69.733032 
L 57.139127 70.388297 
L 59.048811 76.625297 
L 58.350767 82.862297 
L 56.795313 85.83151 
L 54.474307 89.099297 
L 52.661979 91.398695 
L 48.528646 92.291136 
z
" clip-path="url(#pdf9a975527)" style="fill: #32f298"/>
    <path d="M 65.061979 51.195675 
L 69.195312 50.856429 
L 73.328646 48.405112 
L 77.461979 45.66342 
L 77.730243 45.440297 
L 81.595313 41.238094 
L 82.873848 39.203297 
L 82.313703 32.966297 
L 81.595313 32.077905 
L 77.461979 28.258576 
L 75.179902 26.729297 
L 73.328646 25.279987 
L 69.195312 22.972926 
L 65.061979 24.95921 
L 64.2315 26.729297 
L 65.061979 29.761061 
L 65.949713 32.966297 
L 66.314547 39.203297 
L 65.061979 40.888251 
L 62.662436 45.440297 
z
M 63.456476 45.440297 
L 65.061979 42.394583 
L 67.434331 39.203297 
L 66.758741 32.966297 
L 65.061979 26.839995 
L 65.031656 26.729297 
L 65.061979 26.664666 
L 69.195312 24.036836 
L 73.328646 26.348908 
L 73.814531 26.729297 
L 77.461979 29.173547 
L 81.303864 32.966297 
L 81.595313 36.652871 
L 81.823757 39.203297 
L 81.595313 39.566868 
L 77.461979 44.349503 
L 76.082751 45.440297 
L 73.328646 47.285619 
L 69.195312 49.614702 
L 65.061979 49.291145 
z
" clip-path="url(#pdf9a975527)" style="fill: #32f298"/>
   </g>
   <g id="PathCollection_9">
    <path d="M 48.528646 92.291136 
L 52.661979 91.398695 
L 54.474307 89.099297 
L 56.795312 85.83151 
L 58.350767 82.862297 
L 59.048811 76.625297 
L 57.139127 70.388297 
L 56.795313 69.733032 
L 52.661979 67.105703 
L 49.334334 70.388297 
L 48.528646 71.075827 
L 45.419635 76.625297 
L 44.461248 82.862297 
L 46.214046 89.099297 
z
M 46.750733 89.099297 
L 44.727987 82.862297 
L 45.727983 76.625297 
L 48.528646 71.626217 
L 49.979314 70.388297 
L 52.661979 67.741951 
L 56.359455 70.388297 
L 56.795313 70.935909 
L 58.679016 76.625297 
L 57.905706 82.862297 
L 56.795313 84.981931 
L 53.870878 89.099297 
L 52.661979 90.633092 
L 48.528646 91.551043 
z
" clip-path="url(#pdf9a975527)" style="fill: #5dfc6f"/>
    <path d="M 65.061979 49.291145 
L 69.195312 49.614702 
L 73.328646 47.285619 
L 76.082751 45.440297 
L 77.461979 44.349503 
L 81.595313 39.566868 
L 81.823757 39.203297 
L 81.595313 36.652871 
L 81.303864 32.966297 
L 77.461979 29.173547 
L 73.814531 26.729297 
L 73.328646 26.348908 
L 69.195312 24.036836 
L 65.061979 26.664666 
L 65.031656 26.729297 
L 65.061979 26.839995 
L 66.758741 32.966297 
L 67.434331 39.203297 
L 65.061979 42.394583 
L 63.456476 45.440297 
z
M 64.250517 45.440297 
L 65.061979 43.900915 
L 68.554115 39.203297 
L 67.56777 32.966297 
L 66.657234 26.729297 
L 69.195312 25.100746 
L 72.10446 26.729297 
L 73.328646 27.491354 
L 77.461979 30.088518 
L 80.37704 32.966297 
L 80.715741 39.203297 
L 77.461979 43.028097 
L 74.41193 45.440297 
L 73.328646 46.166125 
L 69.195312 48.372975 
L 65.061979 47.386614 
z
" clip-path="url(#pdf9a975527)" style="fill: #5dfc6f"/>
   </g>
   <g id="PathCollection_10">
    <path d="M 48.528646 91.551043 
L 52.661979 90.633092 
L 53.870878 89.099297 
L 56.795313 84.981931 
L 57.905706 82.862297 
L 58.679016 76.625297 
L 56.795313 70.935909 
L 56.359455 70.388297 
L 52.661979 67.741951 
L 49.979314 70.388297 
L 48.528646 71.626217 
L 45.727983 76.625297 
L 44.727987 82.862297 
L 46.750733 89.099297 
z
M 47.28742 89.099297 
L 44.994725 82.862297 
L 46.036331 76.625297 
L 48.528646 72.176607 
L 50.624293 70.388297 
L 52.661979 68.378198 
L 55.47049 70.388297 
L 56.795313 72.052808 
L 58.309221 76.625297 
L 57.460644 82.862297 
L 56.795313 84.132351 
L 53.267448 89.099297 
L 52.661979 89.867488 
L 48.528646 90.81095 
z
" clip-path="url(#pdf9a975527)" style="fill: #8fff49"/>
    <path d="M 65.061979 47.386614 
L 69.195312 48.372975 
L 73.328646 46.166125 
L 74.41193 45.440297 
L 77.461979 43.028097 
L 80.715741 39.203297 
L 80.37704 32.966297 
L 77.461979 30.088518 
L 73.328646 27.491354 
L 72.10446 26.729297 
L 69.195312 25.100746 
L 66.657234 26.729297 
L 67.56777 32.966297 
L 68.554115 39.203297 
L 65.061979 43.900915 
L 64.250517 45.440297 
z
M 65.044558 45.440297 
L 65.061979 45.407247 
L 69.195312 40.693176 
L 69.856701 39.203297 
L 69.195312 37.35102 
L 68.376799 32.966297 
L 68.315326 26.729297 
L 69.195312 26.164656 
L 70.203954 26.729297 
L 73.328646 28.67442 
L 77.461979 31.003489 
L 79.450215 32.966297 
L 79.591619 39.203297 
L 77.461979 41.70669 
L 73.328646 44.595202 
L 72.48036 45.440297 
L 69.195312 47.131248 
L 65.061979 45.482083 
z
" clip-path="url(#pdf9a975527)" style="fill: #8fff49"/>
   </g>
   <g id="PathCollection_11">
    <path d="M 48.528646 90.81095 
L 52.661979 89.867488 
L 53.267448 89.099297 
L 56.795313 84.132351 
L 57.460644 82.862297 
L 58.309221 76.625297 
L 56.795313 72.052808 
L 55.47049 70.388297 
L 52.661979 68.378198 
L 50.624293 70.388297 
L 48.528646 72.176607 
L 46.036331 76.625297 
L 44.994725 82.862297 
L 47.28742 89.099297 
z
M 47.824107 89.099297 
L 45.261464 82.862297 
L 46.344679 76.625297 
L 48.528646 72.726996 
L 51.269272 70.388297 
L 52.661979 69.014445 
L 54.581526 70.388297 
L 56.795313 73.169706 
L 57.939427 76.625297 
L 57.015583 82.862297 
L 56.795313 83.282772 
L 52.664019 89.099297 
L 52.661979 89.101885 
L 48.528646 90.070857 
z
" clip-path="url(#pdf9a975527)" style="fill: #b4f836"/>
    <path d="M 65.061979 45.482083 
L 69.195312 47.131248 
L 72.48036 45.440297 
L 73.328646 44.595202 
L 77.461979 41.70669 
L 79.591619 39.203297 
L 79.450215 32.966297 
L 77.461979 31.003489 
L 73.328646 28.67442 
L 70.203954 26.729297 
L 69.195312 26.164656 
L 68.315326 26.729297 
L 68.376799 32.966297 
L 69.195312 37.35102 
L 69.856701 39.203297 
L 69.195312 40.693176 
L 65.061979 45.407247 
L 65.044558 45.440297 
z
M 68.079256 45.440297 
L 69.195312 44.179161 
L 70.068029 45.440297 
L 69.195312 45.88952 
z
M 71.404203 39.203297 
L 69.195312 33.017106 
L 69.185828 32.966297 
L 69.195312 32.814281 
L 73.328646 29.857487 
L 77.461979 31.918459 
L 78.523391 32.966297 
L 78.467497 39.203297 
L 77.461979 40.385284 
L 73.328646 42.191943 
z
" clip-path="url(#pdf9a975527)" style="fill: #b4f836"/>
   </g>
   <g id="PathCollection_12">
    <path d="M 48.528646 90.070857 
L 52.661979 89.101885 
L 52.664019 89.099297 
L 56.795313 83.282772 
L 57.015583 82.862297 
L 57.939427 76.625297 
L 56.795313 73.169706 
L 54.581526 70.388297 
L 52.661979 69.014445 
L 51.269272 70.388297 
L 48.528646 72.726996 
L 46.344679 76.625297 
L 45.261464 82.862297 
L 47.824107 89.099297 
z
M 48.360794 89.099297 
L 45.528203 82.862297 
L 46.653027 76.625297 
L 48.528646 73.277386 
L 51.914251 70.388297 
L 52.661979 69.650692 
L 53.692561 70.388297 
L 56.795313 74.286604 
L 57.569632 76.625297 
L 56.795313 81.650223 
L 56.649136 82.862297 
L 52.661979 88.678544 
L 49.515926 89.099297 
L 48.528646 89.330765 
z
" clip-path="url(#pdf9a975527)" style="fill: #d4e735"/>
    <path d="M 69.195312 45.88952 
L 70.068029 45.440297 
L 69.195312 44.179161 
L 68.079256 45.440297 
z
" clip-path="url(#pdf9a975527)" style="fill: #d4e735"/>
    <path d="M 73.328646 42.191943 
L 77.461979 40.385284 
L 78.467497 39.203297 
L 78.523391 32.966297 
L 77.461979 31.918459 
L 73.328646 29.857487 
L 69.195312 32.814281 
L 69.185828 32.966297 
L 69.195312 33.017106 
L 71.404203 39.203297 
z
M 72.951705 39.203297 
L 70.75679 32.966297 
L 73.328646 31.040553 
L 77.461979 32.83343 
L 77.596567 32.966297 
L 77.461979 36.578653 
L 76.212722 39.203297 
L 73.328646 39.788684 
z
" clip-path="url(#pdf9a975527)" style="fill: #d4e735"/>
   </g>
   <g id="PathCollection_13">
    <path d="M 48.528646 89.330765 
L 49.515926 89.099297 
L 52.661979 88.678544 
L 56.649136 82.862297 
L 56.795313 81.650223 
L 57.569632 76.625297 
L 56.795313 74.286604 
L 53.692561 70.388297 
L 52.661979 69.650692 
L 51.914251 70.388297 
L 48.528646 73.277386 
L 46.653027 76.625297 
L 45.528203 82.862297 
L 48.360794 89.099297 
z
M 45.794942 82.862297 
L 46.961375 76.625297 
L 48.528646 73.827776 
L 52.55923 70.388297 
L 52.661979 70.286939 
L 52.803596 70.388297 
L 56.795312 75.403503 
L 57.199837 76.625297 
L 56.795313 79.25045 
L 56.359723 82.862297 
L 52.661979 88.256364 
L 48.528646 88.707344 
z
" clip-path="url(#pdf9a975527)" style="fill: #eecf3a"/>
    <path d="M 73.328646 39.788684 
L 76.212722 39.203297 
L 77.461979 36.578653 
L 77.596567 32.966297 
L 77.461979 32.83343 
L 73.328646 31.040553 
L 70.75679 32.966297 
L 72.951705 39.203297 
z
M 72.33679 32.966297 
L 73.328646 32.223619 
L 75.078833 32.966297 
L 73.328646 35.794924 
z
" clip-path="url(#pdf9a975527)" style="fill: #eecf3a"/>
   </g>
   <g id="PathCollection_14">
    <path d="M 48.528646 88.707344 
L 52.661979 88.256364 
L 56.359723 82.862297 
L 56.795312 79.25045 
L 57.199837 76.625297 
L 56.795313 75.403503 
L 52.803596 70.388297 
L 52.661979 70.286939 
L 52.55923 70.388297 
L 48.528646 73.827776 
L 46.961375 76.625297 
L 45.794942 82.862297 
z
M 46.061681 82.862297 
L 47.269723 76.625297 
L 48.528646 74.378166 
L 52.661979 70.76816 
L 56.795313 76.520401 
L 56.830043 76.625297 
L 56.795313 76.850677 
L 56.07031 82.862297 
L 52.661979 87.834184 
L 48.528646 88.137018 
z
" clip-path="url(#pdf9a975527)" style="fill: #fbb637"/>
    <path d="M 73.328646 35.794924 
L 75.078833 32.966297 
L 73.328646 32.223619 
L 72.33679 32.966297 
z
" clip-path="url(#pdf9a975527)" style="fill: #fbb637"/>
   </g>
   <g id="PathCollection_15">
    <path d="M 48.528646 88.137018 
L 52.661979 87.834184 
L 56.07031 82.862297 
L 56.795313 76.850677 
L 56.830043 76.625297 
L 56.795313 76.520401 
L 52.661979 70.76816 
L 48.528646 74.378166 
L 47.269723 76.625297 
L 46.061681 82.862297 
z
M 46.328419 82.862297 
L 47.578071 76.625297 
L 48.528646 74.928556 
L 52.661979 71.220004 
L 56.504288 76.625297 
L 55.780897 82.862297 
L 52.661979 87.412004 
L 48.528646 87.566693 
z
" clip-path="url(#pdf9a975527)" style="fill: #fe932a"/>
   </g>
   <g id="PathCollection_16">
    <path d="M 48.528646 87.566693 
L 52.661979 87.412004 
L 55.780897 82.862297 
L 56.504288 76.625297 
L 52.661979 71.220004 
L 48.528646 74.928556 
L 47.578071 76.625297 
L 46.328419 82.862297 
z
M 46.595158 82.862297 
L 47.886419 76.625297 
L 48.528646 75.478945 
L 52.661979 71.671849 
L 56.183098 76.625297 
L 55.491484 82.862297 
L 52.661979 86.989824 
L 48.528646 86.996368 
z
" clip-path="url(#pdf9a975527)" style="fill: #f66c19"/>
   </g>
   <g id="PathCollection_17">
    <path d="M 48.528646 86.996368 
L 52.661979 86.989824 
L 55.491484 82.862297 
L 56.183098 76.625297 
L 52.661979 71.671849 
L 48.528646 75.478945 
L 47.886419 76.625297 
L 46.595158 82.862297 
z
M 46.861897 82.862297 
L 48.194767 76.625297 
L 48.528646 76.029335 
L 52.661979 72.123693 
L 55.861908 76.625297 
L 55.20207 82.862297 
L 52.661979 86.567643 
L 48.528646 86.426042 
z
" clip-path="url(#pdf9a975527)" style="fill: #e7490c"/>
   </g>
   <g id="PathCollection_18">
    <path d="M 48.528646 86.426042 
L 52.661979 86.567643 
L 55.20207 82.862297 
L 55.861908 76.625297 
L 52.661979 72.123693 
L 48.528646 76.029335 
L 48.194767 76.625297 
L 46.861897 82.862297 
z
M 47.128636 82.862297 
L 48.503115 76.625297 
L 48.528646 76.579725 
L 52.661979 72.575538 
L 55.540718 76.625297 
L 54.912657 82.862297 
L 52.661979 86.145463 
L 48.528646 85.855717 
z
" clip-path="url(#pdf9a975527)" style="fill: #d02f05"/>
   </g>
   <g id="PathCollection_19">
    <path d="M 48.528646 85.855717 
L 52.661979 86.145463 
L 54.912657 82.862297 
L 55.540718 76.625297 
L 52.661979 72.575538 
L 48.528646 76.579725 
L 48.503115 76.625297 
L 47.128636 82.862297 
z
M 47.395374 82.862297 
L 48.528646 77.732687 
L 48.955574 76.625297 
L 52.661979 73.027382 
L 55.219528 76.625297 
L 54.623244 82.862297 
L 52.661979 85.723283 
L 48.528646 85.285392 
z
" clip-path="url(#pdf9a975527)" style="fill: #b41b01"/>
   </g>
   <g id="PathCollection_20">
    <path d="M 48.528646 85.285392 
L 52.661979 85.723283 
L 54.623244 82.862297 
L 55.219528 76.625297 
L 52.661979 73.027382 
L 48.955574 76.625297 
L 48.528646 77.732687 
L 47.395374 82.862297 
z
M 47.662113 82.862297 
L 48.528646 78.940046 
L 49.421043 76.625297 
L 52.661979 73.479226 
L 54.898338 76.625297 
L 54.333831 82.862297 
L 52.661979 85.301103 
L 48.528646 84.715067 
z
" clip-path="url(#pdf9a975527)" style="fill: #8e0a01"/>
   </g>
   <g id="PathCollection_21">
    <path d="M 48.528646 84.715067 
L 52.661979 85.301103 
L 54.333831 82.862297 
L 54.898338 76.625297 
L 52.661979 73.479226 
L 49.421043 76.625297 
L 48.528646 78.940046 
L 47.662113 82.862297 
z
" clip-path="url(#pdf9a975527)" style="fill: #7a0403"/>
   </g>
   <g id="matplotlib.axis_1">
    <g id="xtick_1">
     <g id="line2d_1">
      <defs>
       <path id="m8db0f50891" d="M 0 0 
L 0 -5 
" style="stroke: #000000"/>
      </defs>
      <g>
       <use xlink:href="#m8db0f50891" x="38.195312" y="110.928797" style="stroke: #000000"/>
      </g>
     </g>
     <g id="text_1">
      <!-- 0.0 -->
      <g transform="translate(30.550313 122.302391) scale(0.11 -0.11)">
       <defs>
        <path id="ArialMT-30" d="M 266 2259 
Q 266 3072 433 3567 
Q 600 4063 929 4331 
Q 1259 4600 1759 4600 
Q 2128 4600 2406 4451 
Q 2684 4303 2865 4023 
Q 3047 3744 3150 3342 
Q 3253 2941 3253 2259 
Q 3253 1453 3087 958 
Q 2922 463 2592 192 
Q 2263 -78 1759 -78 
Q 1097 -78 719 397 
Q 266 969 266 2259 
z
M 844 2259 
Q 844 1131 1108 757 
Q 1372 384 1759 384 
Q 2147 384 2411 759 
Q 2675 1134 2675 2259 
Q 2675 3391 2411 3762 
Q 2147 4134 1753 4134 
Q 1366 4134 1134 3806 
Q 844 3388 844 2259 
z
" transform="scale(0.015625)"/>
        <path id="ArialMT-2e" d="M 581 0 
L 581 641 
L 1222 641 
L 1222 0 
L 581 0 
z
" transform="scale(0.015625)"/>
       </defs>
       <use xlink:href="#ArialMT-30"/>
       <use xlink:href="#ArialMT-2e" x="55.615234"/>
       <use xlink:href="#ArialMT-30" x="83.398438"/>
      </g>
     </g>
    </g>
    <g id="xtick_2">
     <g id="line2d_2">
      <g>
       <use xlink:href="#m8db0f50891" x="82.835313" y="110.928797" style="stroke: #000000"/>
      </g>
     </g>
     <g id="text_2">
      <!-- 0.9 -->
      <g transform="translate(75.190313 122.302391) scale(0.11 -0.11)">
       <defs>
        <path id="ArialMT-39" d="M 350 1059 
L 891 1109 
Q 959 728 1153 556 
Q 1347 384 1650 384 
Q 1909 384 2104 503 
Q 2300 622 2425 820 
Q 2550 1019 2634 1356 
Q 2719 1694 2719 2044 
Q 2719 2081 2716 2156 
Q 2547 1888 2255 1720 
Q 1963 1553 1622 1553 
Q 1053 1553 659 1965 
Q 266 2378 266 3053 
Q 266 3750 677 4175 
Q 1088 4600 1706 4600 
Q 2153 4600 2523 4359 
Q 2894 4119 3086 3673 
Q 3278 3228 3278 2384 
Q 3278 1506 3087 986 
Q 2897 466 2520 194 
Q 2144 -78 1638 -78 
Q 1100 -78 759 220 
Q 419 519 350 1059 
z
M 2653 3081 
Q 2653 3566 2395 3850 
Q 2138 4134 1775 4134 
Q 1400 4134 1122 3828 
Q 844 3522 844 3034 
Q 844 2597 1108 2323 
Q 1372 2050 1759 2050 
Q 2150 2050 2401 2323 
Q 2653 2597 2653 3081 
z
" transform="scale(0.015625)"/>
       </defs>
       <use xlink:href="#ArialMT-30"/>
       <use xlink:href="#ArialMT-2e" x="55.615234"/>
       <use xlink:href="#ArialMT-39" x="83.398438"/>
      </g>
     </g>
    </g>
    <g id="xtick_3">
     <g id="line2d_3">
      <g>
       <use xlink:href="#m8db0f50891" x="127.475313" y="110.928797" style="stroke: #000000"/>
      </g>
     </g>
     <g id="text_3">
      <!-- 1.8 -->
      <g transform="translate(119.830313 122.302391) scale(0.11 -0.11)">
       <defs>
        <path id="ArialMT-31" d="M 2384 0 
L 1822 0 
L 1822 3584 
Q 1619 3391 1289 3197 
Q 959 3003 697 2906 
L 697 3450 
Q 1169 3672 1522 3987 
Q 1875 4303 2022 4600 
L 2384 4600 
L 2384 0 
z
" transform="scale(0.015625)"/>
        <path id="ArialMT-38" d="M 1131 2484 
Q 781 2613 612 2850 
Q 444 3088 444 3419 
Q 444 3919 803 4259 
Q 1163 4600 1759 4600 
Q 2359 4600 2725 4251 
Q 3091 3903 3091 3403 
Q 3091 3084 2923 2848 
Q 2756 2613 2416 2484 
Q 2838 2347 3058 2040 
Q 3278 1734 3278 1309 
Q 3278 722 2862 322 
Q 2447 -78 1769 -78 
Q 1091 -78 675 323 
Q 259 725 259 1325 
Q 259 1772 486 2073 
Q 713 2375 1131 2484 
z
M 1019 3438 
Q 1019 3113 1228 2906 
Q 1438 2700 1772 2700 
Q 2097 2700 2305 2904 
Q 2513 3109 2513 3406 
Q 2513 3716 2298 3927 
Q 2084 4138 1766 4138 
Q 1444 4138 1231 3931 
Q 1019 3725 1019 3438 
z
M 838 1322 
Q 838 1081 952 856 
Q 1066 631 1291 507 
Q 1516 384 1775 384 
Q 2178 384 2440 643 
Q 2703 903 2703 1303 
Q 2703 1709 2433 1975 
Q 2163 2241 1756 2241 
Q 1359 2241 1098 1978 
Q 838 1716 838 1322 
z
" transform="scale(0.015625)"/>
       </defs>
       <use xlink:href="#ArialMT-31"/>
       <use xlink:href="#ArialMT-2e" x="55.615234"/>
       <use xlink:href="#ArialMT-38" x="83.398438"/>
      </g>
     </g>
    </g>
    <g id="text_4">
     <!-- Burst power (a.u.) -->
     <g transform="translate(35.155 137.224266) scale(0.12 -0.12)">
      <defs>
       <path id="ArialMT-42" d="M 469 0 
L 469 4581 
L 2188 4581 
Q 2713 4581 3030 4442 
Q 3347 4303 3526 4014 
Q 3706 3725 3706 3409 
Q 3706 3116 3547 2856 
Q 3388 2597 3066 2438 
Q 3481 2316 3704 2022 
Q 3928 1728 3928 1328 
Q 3928 1006 3792 729 
Q 3656 453 3456 303 
Q 3256 153 2954 76 
Q 2653 0 2216 0 
L 469 0 
z
M 1075 2656 
L 2066 2656 
Q 2469 2656 2644 2709 
Q 2875 2778 2992 2937 
Q 3109 3097 3109 3338 
Q 3109 3566 3000 3739 
Q 2891 3913 2687 3977 
Q 2484 4041 1991 4041 
L 1075 4041 
L 1075 2656 
z
M 1075 541 
L 2216 541 
Q 2509 541 2628 563 
Q 2838 600 2978 687 
Q 3119 775 3209 942 
Q 3300 1109 3300 1328 
Q 3300 1584 3169 1773 
Q 3038 1963 2805 2039 
Q 2572 2116 2134 2116 
L 1075 2116 
L 1075 541 
z
" transform="scale(0.015625)"/>
       <path id="ArialMT-75" d="M 2597 0 
L 2597 488 
Q 2209 -75 1544 -75 
Q 1250 -75 995 37 
Q 741 150 617 320 
Q 494 491 444 738 
Q 409 903 409 1263 
L 409 3319 
L 972 3319 
L 972 1478 
Q 972 1038 1006 884 
Q 1059 663 1231 536 
Q 1403 409 1656 409 
Q 1909 409 2131 539 
Q 2353 669 2445 892 
Q 2538 1116 2538 1541 
L 2538 3319 
L 3100 3319 
L 3100 0 
L 2597 0 
z
" transform="scale(0.015625)"/>
       <path id="ArialMT-72" d="M 416 0 
L 416 3319 
L 922 3319 
L 922 2816 
Q 1116 3169 1280 3281 
Q 1444 3394 1641 3394 
Q 1925 3394 2219 3213 
L 2025 2691 
Q 1819 2813 1613 2813 
Q 1428 2813 1281 2702 
Q 1134 2591 1072 2394 
Q 978 2094 978 1738 
L 978 0 
L 416 0 
z
" transform="scale(0.015625)"/>
       <path id="ArialMT-73" d="M 197 991 
L 753 1078 
Q 800 744 1014 566 
Q 1228 388 1613 388 
Q 2000 388 2187 545 
Q 2375 703 2375 916 
Q 2375 1106 2209 1216 
Q 2094 1291 1634 1406 
Q 1016 1563 777 1677 
Q 538 1791 414 1992 
Q 291 2194 291 2438 
Q 291 2659 392 2848 
Q 494 3038 669 3163 
Q 800 3259 1026 3326 
Q 1253 3394 1513 3394 
Q 1903 3394 2198 3281 
Q 2494 3169 2634 2976 
Q 2775 2784 2828 2463 
L 2278 2388 
Q 2241 2644 2061 2787 
Q 1881 2931 1553 2931 
Q 1166 2931 1000 2803 
Q 834 2675 834 2503 
Q 834 2394 903 2306 
Q 972 2216 1119 2156 
Q 1203 2125 1616 2013 
Q 2213 1853 2448 1751 
Q 2684 1650 2818 1456 
Q 2953 1263 2953 975 
Q 2953 694 2789 445 
Q 2625 197 2315 61 
Q 2006 -75 1616 -75 
Q 969 -75 630 194 
Q 291 463 197 991 
z
" transform="scale(0.015625)"/>
       <path id="ArialMT-74" d="M 1650 503 
L 1731 6 
Q 1494 -44 1306 -44 
Q 1000 -44 831 53 
Q 663 150 594 308 
Q 525 466 525 972 
L 525 2881 
L 113 2881 
L 113 3319 
L 525 3319 
L 525 4141 
L 1084 4478 
L 1084 3319 
L 1650 3319 
L 1650 2881 
L 1084 2881 
L 1084 941 
Q 1084 700 1114 631 
Q 1144 563 1211 522 
Q 1278 481 1403 481 
Q 1497 481 1650 503 
z
" transform="scale(0.015625)"/>
       <path id="ArialMT-20" transform="scale(0.015625)"/>
       <path id="ArialMT-70" d="M 422 -1272 
L 422 3319 
L 934 3319 
L 934 2888 
Q 1116 3141 1344 3267 
Q 1572 3394 1897 3394 
Q 2322 3394 2647 3175 
Q 2972 2956 3137 2557 
Q 3303 2159 3303 1684 
Q 3303 1175 3120 767 
Q 2938 359 2589 142 
Q 2241 -75 1856 -75 
Q 1575 -75 1351 44 
Q 1128 163 984 344 
L 984 -1272 
L 422 -1272 
z
M 931 1641 
Q 931 1000 1190 694 
Q 1450 388 1819 388 
Q 2194 388 2461 705 
Q 2728 1022 2728 1688 
Q 2728 2322 2467 2637 
Q 2206 2953 1844 2953 
Q 1484 2953 1207 2617 
Q 931 2281 931 1641 
z
" transform="scale(0.015625)"/>
       <path id="ArialMT-6f" d="M 213 1659 
Q 213 2581 725 3025 
Q 1153 3394 1769 3394 
Q 2453 3394 2887 2945 
Q 3322 2497 3322 1706 
Q 3322 1066 3130 698 
Q 2938 331 2570 128 
Q 2203 -75 1769 -75 
Q 1072 -75 642 372 
Q 213 819 213 1659 
z
M 791 1659 
Q 791 1022 1069 705 
Q 1347 388 1769 388 
Q 2188 388 2466 706 
Q 2744 1025 2744 1678 
Q 2744 2294 2464 2611 
Q 2184 2928 1769 2928 
Q 1347 2928 1069 2612 
Q 791 2297 791 1659 
z
" transform="scale(0.015625)"/>
       <path id="ArialMT-77" d="M 1034 0 
L 19 3319 
L 600 3319 
L 1128 1403 
L 1325 691 
Q 1338 744 1497 1375 
L 2025 3319 
L 2603 3319 
L 3100 1394 
L 3266 759 
L 3456 1400 
L 4025 3319 
L 4572 3319 
L 3534 0 
L 2950 0 
L 2422 1988 
L 2294 2553 
L 1622 0 
L 1034 0 
z
" transform="scale(0.015625)"/>
       <path id="ArialMT-65" d="M 2694 1069 
L 3275 997 
Q 3138 488 2766 206 
Q 2394 -75 1816 -75 
Q 1088 -75 661 373 
Q 234 822 234 1631 
Q 234 2469 665 2931 
Q 1097 3394 1784 3394 
Q 2450 3394 2872 2941 
Q 3294 2488 3294 1666 
Q 3294 1616 3291 1516 
L 816 1516 
Q 847 969 1125 678 
Q 1403 388 1819 388 
Q 2128 388 2347 550 
Q 2566 713 2694 1069 
z
M 847 1978 
L 2700 1978 
Q 2663 2397 2488 2606 
Q 2219 2931 1791 2931 
Q 1403 2931 1139 2672 
Q 875 2413 847 1978 
z
" transform="scale(0.015625)"/>
       <path id="ArialMT-28" d="M 1497 -1347 
Q 1031 -759 709 28 
Q 388 816 388 1659 
Q 388 2403 628 3084 
Q 909 3875 1497 4659 
L 1900 4659 
Q 1522 4009 1400 3731 
Q 1209 3300 1100 2831 
Q 966 2247 966 1656 
Q 966 153 1900 -1347 
L 1497 -1347 
z
" transform="scale(0.015625)"/>
       <path id="ArialMT-61" d="M 2588 409 
Q 2275 144 1986 34 
Q 1697 -75 1366 -75 
Q 819 -75 525 192 
Q 231 459 231 875 
Q 231 1119 342 1320 
Q 453 1522 633 1644 
Q 813 1766 1038 1828 
Q 1203 1872 1538 1913 
Q 2219 1994 2541 2106 
Q 2544 2222 2544 2253 
Q 2544 2597 2384 2738 
Q 2169 2928 1744 2928 
Q 1347 2928 1158 2789 
Q 969 2650 878 2297 
L 328 2372 
Q 403 2725 575 2942 
Q 747 3159 1072 3276 
Q 1397 3394 1825 3394 
Q 2250 3394 2515 3294 
Q 2781 3194 2906 3042 
Q 3031 2891 3081 2659 
Q 3109 2516 3109 2141 
L 3109 1391 
Q 3109 606 3145 398 
Q 3181 191 3288 0 
L 2700 0 
Q 2613 175 2588 409 
z
M 2541 1666 
Q 2234 1541 1622 1453 
Q 1275 1403 1131 1340 
Q 988 1278 909 1158 
Q 831 1038 831 891 
Q 831 666 1001 516 
Q 1172 366 1500 366 
Q 1825 366 2078 508 
Q 2331 650 2450 897 
Q 2541 1088 2541 1459 
L 2541 1666 
z
" transform="scale(0.015625)"/>
       <path id="ArialMT-29" d="M 791 -1347 
L 388 -1347 
Q 1322 153 1322 1656 
Q 1322 2244 1188 2822 
Q 1081 3291 891 3722 
Q 769 4003 388 4659 
L 791 4659 
Q 1378 3875 1659 3084 
Q 1900 2403 1900 1659 
Q 1900 816 1576 28 
Q 1253 -759 791 -1347 
z
" transform="scale(0.015625)"/>
      </defs>
      <use xlink:href="#ArialMT-42"/>
      <use xlink:href="#ArialMT-75" x="66.699219"/>
      <use xlink:href="#ArialMT-72" x="122.314453"/>
      <use xlink:href="#ArialMT-73" x="155.615234"/>
      <use xlink:href="#ArialMT-74" x="205.615234"/>
      <use xlink:href="#ArialMT-20" x="233.398438"/>
      <use xlink:href="#ArialMT-70" x="261.181641"/>
      <use xlink:href="#ArialMT-6f" x="316.796875"/>
      <use xlink:href="#ArialMT-77" x="372.412109"/>
      <use xlink:href="#ArialMT-65" x="444.628906"/>
      <use xlink:href="#ArialMT-72" x="500.244141"/>
      <use xlink:href="#ArialMT-20" x="533.544922"/>
      <use xlink:href="#ArialMT-28" x="561.328125"/>
      <use xlink:href="#ArialMT-61" x="594.628906"/>
      <use xlink:href="#ArialMT-2e" x="650.244141"/>
      <use xlink:href="#ArialMT-75" x="678.027344"/>
      <use xlink:href="#ArialMT-2e" x="733.642578"/>
      <use xlink:href="#ArialMT-29" x="761.425781"/>
     </g>
    </g>
   </g>
   <g id="matplotlib.axis_2">
    <g id="ytick_1">
     <g id="line2d_4">
      <defs>
       <path id="m977237e46a" d="M 0 0 
L 5 0 
" style="stroke: #000000"/>
      </defs>
      <g>
       <use xlink:href="#m977237e46a" x="38.195312" y="110.928797" style="stroke: #000000"/>
      </g>
     </g>
     <g id="text_5">
      <!-- 10 -->
      <g transform="translate(22.46125 114.865594) scale(0.11 -0.11)">
       <use xlink:href="#ArialMT-31"/>
       <use xlink:href="#ArialMT-30" x="55.615234"/>
      </g>
     </g>
    </g>
    <g id="ytick_2">
     <g id="line2d_5">
      <g>
       <use xlink:href="#m977237e46a" x="38.195312" y="85.980797" style="stroke: #000000"/>
      </g>
     </g>
     <g id="text_6">
      <!-- 30 -->
      <g transform="translate(22.46125 89.917594) scale(0.11 -0.11)">
       <defs>
        <path id="ArialMT-33" d="M 269 1209 
L 831 1284 
Q 928 806 1161 595 
Q 1394 384 1728 384 
Q 2125 384 2398 659 
Q 2672 934 2672 1341 
Q 2672 1728 2419 1979 
Q 2166 2231 1775 2231 
Q 1616 2231 1378 2169 
L 1441 2663 
Q 1497 2656 1531 2656 
Q 1891 2656 2178 2843 
Q 2466 3031 2466 3422 
Q 2466 3731 2256 3934 
Q 2047 4138 1716 4138 
Q 1388 4138 1169 3931 
Q 950 3725 888 3313 
L 325 3413 
Q 428 3978 793 4289 
Q 1159 4600 1703 4600 
Q 2078 4600 2393 4439 
Q 2709 4278 2876 4000 
Q 3044 3722 3044 3409 
Q 3044 3113 2884 2869 
Q 2725 2625 2413 2481 
Q 2819 2388 3044 2092 
Q 3269 1797 3269 1353 
Q 3269 753 2831 336 
Q 2394 -81 1725 -81 
Q 1122 -81 723 278 
Q 325 638 269 1209 
z
" transform="scale(0.015625)"/>
       </defs>
       <use xlink:href="#ArialMT-33"/>
       <use xlink:href="#ArialMT-30" x="55.615234"/>
      </g>
     </g>
    </g>
    <g id="ytick_3">
     <g id="line2d_6">
      <g>
       <use xlink:href="#m977237e46a" x="38.195312" y="61.032797" style="stroke: #000000"/>
      </g>
     </g>
     <g id="text_7">
      <!-- 50 -->
      <g transform="translate(22.46125 64.969594) scale(0.11 -0.11)">
       <defs>
        <path id="ArialMT-35" d="M 266 1200 
L 856 1250 
Q 922 819 1161 601 
Q 1400 384 1738 384 
Q 2144 384 2425 690 
Q 2706 997 2706 1503 
Q 2706 1984 2436 2262 
Q 2166 2541 1728 2541 
Q 1456 2541 1237 2417 
Q 1019 2294 894 2097 
L 366 2166 
L 809 4519 
L 3088 4519 
L 3088 3981 
L 1259 3981 
L 1013 2750 
Q 1425 3038 1878 3038 
Q 2478 3038 2890 2622 
Q 3303 2206 3303 1553 
Q 3303 931 2941 478 
Q 2500 -78 1738 -78 
Q 1113 -78 717 272 
Q 322 622 266 1200 
z
" transform="scale(0.015625)"/>
       </defs>
       <use xlink:href="#ArialMT-35"/>
       <use xlink:href="#ArialMT-30" x="55.615234"/>
      </g>
     </g>
    </g>
    <g id="ytick_4">
     <g id="line2d_7">
      <g>
       <use xlink:href="#m977237e46a" x="38.195312" y="36.084797" style="stroke: #000000"/>
      </g>
     </g>
     <g id="text_8">
      <!-- 70 -->
      <g transform="translate(22.46125 40.021594) scale(0.11 -0.11)">
       <defs>
        <path id="ArialMT-37" d="M 303 3981 
L 303 4522 
L 3269 4522 
L 3269 4084 
Q 2831 3619 2401 2847 
Q 1972 2075 1738 1259 
Q 1569 684 1522 0 
L 944 0 
Q 953 541 1156 1306 
Q 1359 2072 1739 2783 
Q 2119 3494 2547 3981 
L 303 3981 
z
" transform="scale(0.015625)"/>
       </defs>
       <use xlink:href="#ArialMT-37"/>
       <use xlink:href="#ArialMT-30" x="55.615234"/>
      </g>
     </g>
    </g>
    <g id="ytick_5">
     <g id="line2d_8">
      <g>
       <use xlink:href="#m977237e46a" x="38.195312" y="11.136797" style="stroke: #000000"/>
      </g>
     </g>
     <g id="text_9">
      <!-- 90 -->
      <g transform="translate(22.46125 15.073594) scale(0.11 -0.11)">
       <use xlink:href="#ArialMT-39"/>
       <use xlink:href="#ArialMT-30" x="55.615234"/>
      </g>
     </g>
    </g>
    <g id="text_10">
     <!-- Frequency (Hz) -->
     <g transform="translate(15.935625 102.373734) rotate(-90) scale(0.12 -0.12)">
      <defs>
       <path id="ArialMT-46" d="M 525 0 
L 525 4581 
L 3616 4581 
L 3616 4041 
L 1131 4041 
L 1131 2622 
L 3281 2622 
L 3281 2081 
L 1131 2081 
L 1131 0 
L 525 0 
z
" transform="scale(0.015625)"/>
       <path id="ArialMT-71" d="M 2538 -1272 
L 2538 353 
Q 2406 169 2170 47 
Q 1934 -75 1669 -75 
Q 1078 -75 651 397 
Q 225 869 225 1691 
Q 225 2191 398 2587 
Q 572 2984 901 3189 
Q 1231 3394 1625 3394 
Q 2241 3394 2594 2875 
L 2594 3319 
L 3100 3319 
L 3100 -1272 
L 2538 -1272 
z
M 803 1669 
Q 803 1028 1072 708 
Q 1341 388 1716 388 
Q 2075 388 2334 692 
Q 2594 997 2594 1619 
Q 2594 2281 2320 2615 
Q 2047 2950 1678 2950 
Q 1313 2950 1058 2639 
Q 803 2328 803 1669 
z
" transform="scale(0.015625)"/>
       <path id="ArialMT-6e" d="M 422 0 
L 422 3319 
L 928 3319 
L 928 2847 
Q 1294 3394 1984 3394 
Q 2284 3394 2536 3286 
Q 2788 3178 2913 3003 
Q 3038 2828 3088 2588 
Q 3119 2431 3119 2041 
L 3119 0 
L 2556 0 
L 2556 2019 
Q 2556 2363 2490 2533 
Q 2425 2703 2258 2804 
Q 2091 2906 1866 2906 
Q 1506 2906 1245 2678 
Q 984 2450 984 1813 
L 984 0 
L 422 0 
z
" transform="scale(0.015625)"/>
       <path id="ArialMT-63" d="M 2588 1216 
L 3141 1144 
Q 3050 572 2676 248 
Q 2303 -75 1759 -75 
Q 1078 -75 664 370 
Q 250 816 250 1647 
Q 250 2184 428 2587 
Q 606 2991 970 3192 
Q 1334 3394 1763 3394 
Q 2303 3394 2647 3120 
Q 2991 2847 3088 2344 
L 2541 2259 
Q 2463 2594 2264 2762 
Q 2066 2931 1784 2931 
Q 1359 2931 1093 2626 
Q 828 2322 828 1663 
Q 828 994 1084 691 
Q 1341 388 1753 388 
Q 2084 388 2306 591 
Q 2528 794 2588 1216 
z
" transform="scale(0.015625)"/>
       <path id="ArialMT-79" d="M 397 -1278 
L 334 -750 
Q 519 -800 656 -800 
Q 844 -800 956 -737 
Q 1069 -675 1141 -563 
Q 1194 -478 1313 -144 
Q 1328 -97 1363 -6 
L 103 3319 
L 709 3319 
L 1400 1397 
Q 1534 1031 1641 628 
Q 1738 1016 1872 1384 
L 2581 3319 
L 3144 3319 
L 1881 -56 
Q 1678 -603 1566 -809 
Q 1416 -1088 1222 -1217 
Q 1028 -1347 759 -1347 
Q 597 -1347 397 -1278 
z
" transform="scale(0.015625)"/>
       <path id="ArialMT-48" d="M 513 0 
L 513 4581 
L 1119 4581 
L 1119 2700 
L 3500 2700 
L 3500 4581 
L 4106 4581 
L 4106 0 
L 3500 0 
L 3500 2159 
L 1119 2159 
L 1119 0 
L 513 0 
z
" transform="scale(0.015625)"/>
       <path id="ArialMT-7a" d="M 125 0 
L 125 456 
L 2238 2881 
Q 1878 2863 1603 2863 
L 250 2863 
L 250 3319 
L 2963 3319 
L 2963 2947 
L 1166 841 
L 819 456 
Q 1197 484 1528 484 
L 3063 484 
L 3063 0 
L 125 0 
z
" transform="scale(0.015625)"/>
      </defs>
      <use xlink:href="#ArialMT-46"/>
      <use xlink:href="#ArialMT-72" x="61.083984"/>
      <use xlink:href="#ArialMT-65" x="94.384766"/>
      <use xlink:href="#ArialMT-71" x="150"/>
      <use xlink:href="#ArialMT-75" x="205.615234"/>
      <use xlink:href="#ArialMT-65" x="261.230469"/>
      <use xlink:href="#ArialMT-6e" x="316.845703"/>
      <use xlink:href="#ArialMT-63" x="372.460938"/>
      <use xlink:href="#ArialMT-79" x="422.460938"/>
      <use xlink:href="#ArialMT-20" x="472.460938"/>
      <use xlink:href="#ArialMT-28" x="500.244141"/>
      <use xlink:href="#ArialMT-48" x="533.544922"/>
      <use xlink:href="#ArialMT-7a" x="605.761719"/>
      <use xlink:href="#ArialMT-29" x="655.761719"/>
     </g>
    </g>
   </g>
   <g id="patch_3">
    <path d="M 38.195312 110.928797 
L 38.195312 11.136797 
" style="fill: none; stroke: #000000; stroke-width: 0.8; stroke-linejoin: miter; stroke-linecap: square"/>
   </g>
   <g id="patch_4">
    <path d="M 38.195312 110.928797 
L 127.475313 110.928797 
" style="fill: none; stroke: #000000; stroke-width: 0.8; stroke-linejoin: miter; stroke-linecap: square"/>
   </g>
  </g>
  <g id="axes_2">
   <g id="patch_5">
    <path d="M 133.055313 110.928797 
L 138.044913 110.928797 
L 138.044913 11.136797 
L 133.055313 11.136797 
z
" style="fill: #ffffff"/>
   </g>
   <g id="QuadMesh_1">
    <path d="M 133.055313 110.928797 
L 138.044913 110.928797 
L 138.044913 105.939197 
L 133.055313 105.939197 
L 133.055313 110.928797 
" clip-path="url(#p5b8e6f248d)" style="fill: #372466"/>
    <path d="M 133.055313 105.939197 
L 138.044913 105.939197 
L 138.044913 100.949597 
L 133.055313 100.949597 
L 133.055313 105.939197 
" clip-path="url(#p5b8e6f248d)" style="fill: #4249b1"/>
    <path d="M 133.055313 100.949597 
L 138.044913 100.949597 
L 138.044913 95.959997 
L 133.055313 95.959997 
L 133.055313 100.949597 
" clip-path="url(#p5b8e6f248d)" style="fill: #466be3"/>
    <path d="M 133.055313 95.959997 
L 138.044913 95.959997 
L 138.044913 90.970397 
L 133.055313 90.970397 
L 133.055313 95.959997 
" clip-path="url(#p5b8e6f248d)" style="fill: #458afc"/>
    <path d="M 133.055313 90.970397 
L 138.044913 90.970397 
L 138.044913 85.980797 
L 133.055313 85.980797 
L 133.055313 90.970397 
" clip-path="url(#p5b8e6f248d)" style="fill: #35abf8"/>
    <path d="M 133.055313 85.980797 
L 138.044913 85.980797 
L 138.044913 80.991197 
L 133.055313 80.991197 
L 133.055313 85.980797 
" clip-path="url(#p5b8e6f248d)" style="fill: #1fc9dd"/>
    <path d="M 133.055313 80.991197 
L 138.044913 80.991197 
L 138.044913 76.001597 
L 133.055313 76.001597 
L 133.055313 80.991197 
" clip-path="url(#p5b8e6f248d)" style="fill: #19e2bb"/>
    <path d="M 133.055313 76.001597 
L 138.044913 76.001597 
L 138.044913 71.011997 
L 133.055313 71.011997 
L 133.055313 76.001597 
" clip-path="url(#p5b8e6f248d)" style="fill: #32f298"/>
    <path d="M 133.055313 71.011997 
L 138.044913 71.011997 
L 138.044913 66.022397 
L 133.055313 66.022397 
L 133.055313 71.011997 
" clip-path="url(#p5b8e6f248d)" style="fill: #5dfc6f"/>
    <path d="M 133.055313 66.022397 
L 138.044913 66.022397 
L 138.044913 61.032797 
L 133.055313 61.032797 
L 133.055313 66.022397 
" clip-path="url(#p5b8e6f248d)" style="fill: #8fff49"/>
    <path d="M 133.055313 61.032797 
L 138.044913 61.032797 
L 138.044913 56.043197 
L 133.055313 56.043197 
L 133.055313 61.032797 
" clip-path="url(#p5b8e6f248d)" style="fill: #b4f836"/>
    <path d="M 133.055313 56.043197 
L 138.044913 56.043197 
L 138.044913 51.053597 
L 133.055313 51.053597 
L 133.055313 56.043197 
" clip-path="url(#p5b8e6f248d)" style="fill: #d4e735"/>
    <path d="M 133.055313 51.053597 
L 138.044913 51.053597 
L 138.044913 46.063997 
L 133.055313 46.063997 
L 133.055313 51.053597 
" clip-path="url(#p5b8e6f248d)" style="fill: #eecf3a"/>
    <path d="M 133.055313 46.063997 
L 138.044913 46.063997 
L 138.044913 41.074397 
L 133.055313 41.074397 
L 133.055313 46.063997 
" clip-path="url(#p5b8e6f248d)" style="fill: #fbb637"/>
    <path d="M 133.055313 41.074397 
L 138.044913 41.074397 
L 138.044913 36.084797 
L 133.055313 36.084797 
L 133.055313 41.074397 
" clip-path="url(#p5b8e6f248d)" style="fill: #fe932a"/>
    <path d="M 133.055313 36.084797 
L 138.044913 36.084797 
L 138.044913 31.095197 
L 133.055313 31.095197 
L 133.055313 36.084797 
" clip-path="url(#p5b8e6f248d)" style="fill: #f66c19"/>
    <path d="M 133.055313 31.095197 
L 138.044913 31.095197 
L 138.044913 26.105597 
L 133.055313 26.105597 
L 133.055313 31.095197 
" clip-path="url(#p5b8e6f248d)" style="fill: #e7490c"/>
    <path d="M 133.055313 26.105597 
L 138.044913 26.105597 
L 138.044913 21.115997 
L 133.055313 21.115997 
L 133.055313 26.105597 
" clip-path="url(#p5b8e6f248d)" style="fill: #d02f05"/>
    <path d="M 133.055313 21.115997 
L 138.044913 21.115997 
L 138.044913 16.126397 
L 133.055313 16.126397 
L 133.055313 21.115997 
" clip-path="url(#p5b8e6f248d)" style="fill: #b41b01"/>
    <path d="M 133.055313 16.126397 
L 138.044913 16.126397 
L 138.044913 11.136797 
L 133.055313 11.136797 
L 133.055313 16.126397 
" clip-path="url(#p5b8e6f248d)" style="fill: #8e0a01"/>
    <path d="M 133.055313 11.136797 
L 138.044913 11.136797 
L 138.044913 6.147197 
L 133.055313 6.147197 
L 133.055313 11.136797 
" clip-path="url(#p5b8e6f248d)" style="fill: #7a0403"/>
   </g>
   <g id="matplotlib.axis_3"/>
   <g id="matplotlib.axis_4">
    <g id="ytick_6">
     <g id="line2d_9">
      <defs>
       <path id="m48d3592d2c" d="M 0 0 
L -5 0 
" style="stroke: #000000"/>
      </defs>
      <g>
       <use xlink:href="#m48d3592d2c" x="138.044913" y="110.928797" style="stroke: #000000"/>
      </g>
     </g>
     <g id="text_11">
      <!-- 0.00 -->
      <g transform="translate(141.544913 114.865594) scale(0.11 -0.11)">
       <use xlink:href="#ArialMT-30"/>
       <use xlink:href="#ArialMT-2e" x="55.615234"/>
       <use xlink:href="#ArialMT-30" x="83.398438"/>
       <use xlink:href="#ArialMT-30" x="139.013672"/>
      </g>
     </g>
    </g>
    <g id="ytick_7">
     <g id="line2d_10">
      <g>
       <use xlink:href="#m48d3592d2c" x="138.044913" y="61.032797" style="stroke: #000000"/>
      </g>
     </g>
     <g id="text_12">
      <!-- 0.02 -->
      <g transform="translate(141.544913 64.969594) scale(0.11 -0.11)">
       <defs>
        <path id="ArialMT-32" d="M 3222 541 
L 3222 0 
L 194 0 
Q 188 203 259 391 
Q 375 700 629 1000 
Q 884 1300 1366 1694 
Q 2113 2306 2375 2664 
Q 2638 3022 2638 3341 
Q 2638 3675 2398 3904 
Q 2159 4134 1775 4134 
Q 1369 4134 1125 3890 
Q 881 3647 878 3216 
L 300 3275 
Q 359 3922 746 4261 
Q 1134 4600 1788 4600 
Q 2447 4600 2831 4234 
Q 3216 3869 3216 3328 
Q 3216 3053 3103 2787 
Q 2991 2522 2730 2228 
Q 2469 1934 1863 1422 
Q 1356 997 1212 845 
Q 1069 694 975 541 
L 3222 541 
z
" transform="scale(0.015625)"/>
       </defs>
       <use xlink:href="#ArialMT-30"/>
       <use xlink:href="#ArialMT-2e" x="55.615234"/>
       <use xlink:href="#ArialMT-30" x="83.398438"/>
       <use xlink:href="#ArialMT-32" x="139.013672"/>
      </g>
     </g>
    </g>
    <g id="ytick_8">
     <g id="line2d_11">
      <g>
       <use xlink:href="#m48d3592d2c" x="138.044913" y="11.136797" style="stroke: #000000"/>
      </g>
     </g>
     <g id="text_13">
      <!-- 0.04 -->
      <g transform="translate(141.544913 15.073594) scale(0.11 -0.11)">
       <defs>
        <path id="ArialMT-34" d="M 2069 0 
L 2069 1097 
L 81 1097 
L 81 1613 
L 2172 4581 
L 2631 4581 
L 2631 1613 
L 3250 1613 
L 3250 1097 
L 2631 1097 
L 2631 0 
L 2069 0 
z
M 2069 1613 
L 2069 3678 
L 634 1613 
L 2069 1613 
z
" transform="scale(0.015625)"/>
       </defs>
       <use xlink:href="#ArialMT-30"/>
       <use xlink:href="#ArialMT-2e" x="55.615234"/>
       <use xlink:href="#ArialMT-30" x="83.398438"/>
       <use xlink:href="#ArialMT-34" x="139.013672"/>
      </g>
     </g>
    </g>
   </g>
   <g id="LineCollection_1"/>
   <g id="patch_6">
    <path d="M 133.055313 110.928797 
L 135.550113 110.928797 
L 138.044913 110.928797 
L 138.044913 11.136797 
L 135.550113 11.136797 
L 133.055313 11.136797 
L 133.055313 110.928797 
z
" style="fill: none; stroke: #000000; stroke-width: 0.8; stroke-linejoin: miter; stroke-linecap: square"/>
   </g>
  </g>
 </g>
 <defs>
  <clipPath id="pdf9a975527">
   <rect x="38.195312" y="11.136797" width="89.28" height="99.792"/>
  </clipPath>
  <clipPath id="p5b8e6f248d">
   <rect x="133.055313" y="11.136797" width="4.9896" height="99.792"/>
  </clipPath>
 </defs>
</svg>
