<?xml version="1.0" encoding="utf-8" standalone="no"?>
<!DOCTYPE svg PUBLIC "-//W3C//DTD SVG 1.1//EN"
  "http://www.w3.org/Graphics/SVG/1.1/DTD/svg11.dtd">
<svg xmlns:xlink="http://www.w3.org/1999/xlink" width="125.078125pt" height="168.549844pt" viewBox="0 0 125.078125 168.549844" xmlns="http://www.w3.org/2000/svg" version="1.1">
 <metadata>
  <rdf:RDF xmlns:dc="http://purl.org/dc/elements/1.1/" xmlns:cc="http://creativecommons.org/ns#" xmlns:rdf="http://www.w3.org/1999/02/22-rdf-syntax-ns#">
   <cc:Work>
    <dc:type rdf:resource="http://purl.org/dc/dcmitype/StillImage"/>
    <dc:date>2025-04-29T14:28:51.634236</dc:date>
    <dc:format>image/svg+xml</dc:format>
    <dc:creator>
     <cc:Agent>
      <dc:title>Matplotlib v3.7.2, https://matplotlib.org/</dc:title>
     </cc:Agent>
    </dc:creator>
   </cc:Work>
  </rdf:RDF>
 </metadata>
 <defs>
  <style type="text/css">*{stroke-linejoin: round; stroke-linecap: butt}</style>
 </defs>
 <g id="figure_1">
  <g id="patch_1">
   <path d="M -0 168.549844 
L 125.078125 168.549844 
L 125.078125 0 
L -0 0 
z
" style="fill: #ffffff"/>
  </g>
  <g id="axes_1">
   <g id="patch_2">
    <path d="M 38.195312 132.815625 
L 113.525313 132.815625 
L 113.525313 21.935625 
L 38.195312 21.935625 
z
" style="fill: #ffffff"/>
   </g>
   <g id="PolyCollection_1">
    <defs>
     <path id="m97e9b5e5c3" d="M 63.305312 -81.942958 
L 61.08535 -81.942958 
L 60.74681 -82.475318 
L 60.391273 -83.007679 
L 60.024135 -83.540039 
L 59.651411 -84.0724 
L 59.279455 -84.604761 
L 58.914657 -85.137121 
L 58.563119 -85.669482 
L 58.23037 -86.201842 
L 57.92111 -86.734203 
L 57.639019 -87.266564 
L 57.386637 -87.798924 
L 57.16533 -88.331285 
L 56.975321 -88.863645 
L 56.815791 -89.396006 
L 56.68504 -89.928367 
L 56.580669 -90.460727 
L 56.499792 -90.993088 
L 56.43924 -91.525448 
L 56.395758 -92.057809 
L 56.366166 -92.59017 
L 56.347501 -93.12253 
L 56.337115 -93.654891 
L 56.332736 -94.187252 
L 56.332511 -94.719612 
L 56.335008 -95.251973 
L 56.339206 -95.784333 
L 56.344474 -96.316694 
L 56.350543 -96.849055 
L 56.35747 -97.381415 
L 56.365614 -97.913776 
L 56.375615 -98.446136 
L 56.388375 -98.978497 
L 56.405043 -99.510858 
L 56.427007 -100.043218 
L 56.45587 -100.575579 
L 56.493432 -101.107939 
L 56.54164 -101.6403 
L 56.602539 -102.172661 
L 56.67819 -102.705021 
L 56.770576 -103.237382 
L 56.881489 -103.769742 
L 57.012413 -104.302103 
L 57.164402 -104.834464 
L 57.33797 -105.366824 
L 57.533003 -105.899185 
L 57.748702 -106.431545 
L 57.983563 -106.963906 
L 58.235409 -107.496267 
L 58.501454 -108.028627 
L 58.778422 -108.560988 
L 59.062689 -109.093349 
L 59.350453 -109.625709 
L 59.637906 -110.15807 
L 59.921407 -110.69043 
L 60.197633 -111.222791 
L 60.463699 -111.755152 
L 60.717246 -112.287512 
L 60.956485 -112.819873 
L 61.180204 -113.352233 
L 61.38774 -113.884594 
L 61.578925 -114.416955 
L 61.754004 -114.949315 
L 61.913559 -115.481676 
L 62.058409 -116.014036 
L 62.189536 -116.546397 
L 62.308001 -117.078758 
L 62.414892 -117.611118 
L 62.511268 -118.143479 
L 62.598131 -118.675839 
L 62.676405 -119.2082 
L 62.746926 -119.740561 
L 62.810439 -120.272921 
L 62.867606 -120.805282 
L 62.919011 -121.337642 
L 62.965175 -121.870003 
L 63.006558 -122.402364 
L 63.043578 -122.934724 
L 63.076613 -123.467085 
L 63.106011 -123.999446 
L 63.132096 -124.531806 
L 63.155167 -125.064167 
L 63.175506 -125.596527 
L 63.193379 -126.128888 
L 63.209032 -126.661249 
L 63.222697 -127.193609 
L 63.234588 -127.72597 
L 63.244904 -128.25833 
L 63.253829 -128.790691 
L 63.261529 -129.323052 
L 63.268157 -129.855412 
L 63.273848 -130.387773 
L 63.278726 -130.920133 
L 63.2829 -131.452494 
L 63.286466 -131.984855 
L 63.289508 -132.517215 
L 63.2921 -133.049576 
L 63.294305 -133.581936 
L 63.296179 -134.114297 
L 63.297769 -134.646658 
L 63.299114 -135.179018 
L 63.305312 -135.179018 
L 63.305312 -135.179018 
L 63.305312 -134.646658 
L 63.305312 -134.114297 
L 63.305312 -133.581936 
L 63.305312 -133.049576 
L 63.305312 -132.517215 
L 63.305312 -131.984855 
L 63.305312 -131.452494 
L 63.305312 -130.920133 
L 63.305312 -130.387773 
L 63.305312 -129.855412 
L 63.305312 -129.323052 
L 63.305312 -128.790691 
L 63.305312 -128.25833 
L 63.305312 -127.72597 
L 63.305312 -127.193609 
L 63.305312 -126.661249 
L 63.305312 -126.128888 
L 63.305312 -125.596527 
L 63.305312 -125.064167 
L 63.305312 -124.531806 
L 63.305312 -123.999446 
L 63.305312 -123.467085 
L 63.305312 -122.934724 
L 63.305312 -122.402364 
L 63.305312 -121.870003 
L 63.305312 -121.337642 
L 63.305312 -120.805282 
L 63.305312 -120.272921 
L 63.305312 -119.740561 
L 63.305312 -119.2082 
L 63.305312 -118.675839 
L 63.305312 -118.143479 
L 63.305312 -117.611118 
L 63.305312 -117.078758 
L 63.305312 -116.546397 
L 63.305312 -116.014036 
L 63.305312 -115.481676 
L 63.305312 -114.949315 
L 63.305312 -114.416955 
L 63.305312 -113.884594 
L 63.305312 -113.352233 
L 63.305312 -112.819873 
L 63.305312 -112.287512 
L 63.305312 -111.755152 
L 63.305312 -111.222791 
L 63.305312 -110.69043 
L 63.305312 -110.15807 
L 63.305312 -109.625709 
L 63.305312 -109.093349 
L 63.305312 -108.560988 
L 63.305312 -108.028627 
L 63.305312 -107.496267 
L 63.305312 -106.963906 
L 63.305312 -106.431545 
L 63.305312 -105.899185 
L 63.305312 -105.366824 
L 63.305312 -104.834464 
L 63.305312 -104.302103 
L 63.305312 -103.769742 
L 63.305312 -103.237382 
L 63.305312 -102.705021 
L 63.305312 -102.172661 
L 63.305312 -101.6403 
L 63.305312 -101.107939 
L 63.305312 -100.575579 
L 63.305312 -100.043218 
L 63.305312 -99.510858 
L 63.305312 -98.978497 
L 63.305312 -98.446136 
L 63.305312 -97.913776 
L 63.305312 -97.381415 
L 63.305312 -96.849055 
L 63.305312 -96.316694 
L 63.305312 -95.784333 
L 63.305312 -95.251973 
L 63.305312 -94.719612 
L 63.305312 -94.187252 
L 63.305312 -93.654891 
L 63.305312 -93.12253 
L 63.305312 -92.59017 
L 63.305312 -92.057809 
L 63.305312 -91.525448 
L 63.305312 -90.993088 
L 63.305312 -90.460727 
L 63.305312 -89.928367 
L 63.305312 -89.396006 
L 63.305312 -88.863645 
L 63.305312 -88.331285 
L 63.305312 -87.798924 
L 63.305312 -87.266564 
L 63.305312 -86.734203 
L 63.305312 -86.201842 
L 63.305312 -85.669482 
L 63.305312 -85.137121 
L 63.305312 -84.604761 
L 63.305312 -84.0724 
L 63.305312 -83.540039 
L 63.305312 -83.007679 
L 63.305312 -82.475318 
L 63.305312 -81.942958 
z
" style="stroke: #000000; stroke-opacity: 0.8"/>
    </defs>
    <g clip-path="url(#peae515055a)">
     <use xlink:href="#m97e9b5e5c3" x="0" y="168.549844" style="fill: #bdbdbb; fill-opacity: 0.8; stroke: #000000; stroke-opacity: 0.8"/>
    </g>
   </g>
   <g id="PolyCollection_2">
    <defs>
     <path id="ma2eb5c9328" d="M 63.305312 -39.873805 
L 63.447416 -39.873805 
L 63.485279 -40.85315 
L 63.530878 -41.832495 
L 63.585117 -42.811841 
L 63.648834 -43.791186 
L 63.722746 -44.770531 
L 63.807392 -45.749877 
L 63.903082 -46.729222 
L 64.009841 -47.708567 
L 64.127358 -48.687913 
L 64.254954 -49.667258 
L 64.391559 -50.646604 
L 64.535705 -51.625949 
L 64.685546 -52.605294 
L 64.838898 -53.58464 
L 64.993299 -54.563985 
L 65.146092 -55.54333 
L 65.294527 -56.522676 
L 65.435873 -57.502021 
L 65.567541 -58.481366 
L 65.687201 -59.460712 
L 65.792897 -60.440057 
L 65.883148 -61.419402 
L 65.957024 -62.398748 
L 66.014198 -63.378093 
L 66.054969 -64.357439 
L 66.080249 -65.336784 
L 66.091524 -66.316129 
L 66.090777 -67.295475 
L 66.080389 -68.27482 
L 66.063021 -69.254165 
L 66.041479 -70.233511 
L 66.018572 -71.212856 
L 65.996981 -72.192201 
L 65.979127 -73.171547 
L 65.967066 -74.150892 
L 65.962403 -75.130237 
L 65.966234 -76.109583 
L 65.979123 -77.088928 
L 66.001101 -78.068274 
L 66.031703 -79.047619 
L 66.070024 -80.026964 
L 66.114798 -81.00631 
L 66.164487 -81.985655 
L 66.217382 -82.965 
L 66.271696 -83.944346 
L 66.325663 -84.923691 
L 66.37761 -85.903036 
L 66.426025 -86.882382 
L 66.469597 -87.861727 
L 66.50725 -88.841072 
L 66.538138 -89.820418 
L 66.561644 -90.799763 
L 66.577353 -91.779109 
L 66.585018 -92.758454 
L 66.584521 -93.737799 
L 66.575835 -94.717145 
L 66.558984 -95.69649 
L 66.534016 -96.675835 
L 66.500975 -97.655181 
L 66.459889 -98.634526 
L 66.410772 -99.613871 
L 66.353623 -100.593217 
L 66.288448 -101.572562 
L 66.215279 -102.551907 
L 66.134198 -103.531253 
L 66.045367 -104.510598 
L 65.949053 -105.489944 
L 65.845648 -106.469289 
L 65.735682 -107.448634 
L 65.619838 -108.42798 
L 65.49894 -109.407325 
L 65.373948 -110.38667 
L 65.245939 -111.366016 
L 65.116074 -112.345361 
L 64.985573 -113.324706 
L 64.85567 -114.304052 
L 64.727582 -115.283397 
L 64.602465 -116.262742 
L 64.481387 -117.242088 
L 64.365294 -118.221433 
L 64.25499 -119.200779 
L 64.15112 -120.180124 
L 64.054165 -121.159469 
L 63.964439 -122.138815 
L 63.882097 -123.11816 
L 63.807146 -124.097505 
L 63.739462 -125.076851 
L 63.67881 -126.056196 
L 63.624864 -127.035541 
L 63.577226 -128.014887 
L 63.535451 -128.994232 
L 63.499064 -129.973577 
L 63.467576 -130.952923 
L 63.440499 -131.932268 
L 63.417357 -132.911614 
L 63.397695 -133.890959 
L 63.381088 -134.870304 
L 63.36714 -135.84965 
L 63.355493 -136.828995 
L 63.34582 -137.80834 
L 63.305312 -137.80834 
L 63.305312 -137.80834 
L 63.305312 -136.828995 
L 63.305312 -135.84965 
L 63.305312 -134.870304 
L 63.305312 -133.890959 
L 63.305312 -132.911614 
L 63.305312 -131.932268 
L 63.305312 -130.952923 
L 63.305312 -129.973577 
L 63.305312 -128.994232 
L 63.305312 -128.014887 
L 63.305312 -127.035541 
L 63.305312 -126.056196 
L 63.305312 -125.076851 
L 63.305312 -124.097505 
L 63.305312 -123.11816 
L 63.305312 -122.138815 
L 63.305312 -121.159469 
L 63.305312 -120.180124 
L 63.305312 -119.200779 
L 63.305312 -118.221433 
L 63.305312 -117.242088 
L 63.305312 -116.262742 
L 63.305312 -115.283397 
L 63.305312 -114.304052 
L 63.305312 -113.324706 
L 63.305312 -112.345361 
L 63.305312 -111.366016 
L 63.305312 -110.38667 
L 63.305312 -109.407325 
L 63.305312 -108.42798 
L 63.305312 -107.448634 
L 63.305312 -106.469289 
L 63.305312 -105.489944 
L 63.305312 -104.510598 
L 63.305312 -103.531253 
L 63.305312 -102.551907 
L 63.305312 -101.572562 
L 63.305312 -100.593217 
L 63.305312 -99.613871 
L 63.305312 -98.634526 
L 63.305312 -97.655181 
L 63.305312 -96.675835 
L 63.305312 -95.69649 
L 63.305312 -94.717145 
L 63.305312 -93.737799 
L 63.305312 -92.758454 
L 63.305312 -91.779109 
L 63.305312 -90.799763 
L 63.305312 -89.820418 
L 63.305312 -88.841072 
L 63.305312 -87.861727 
L 63.305312 -86.882382 
L 63.305312 -85.903036 
L 63.305312 -84.923691 
L 63.305312 -83.944346 
L 63.305312 -82.965 
L 63.305312 -81.985655 
L 63.305312 -81.00631 
L 63.305312 -80.026964 
L 63.305312 -79.047619 
L 63.305312 -78.068274 
L 63.305312 -77.088928 
L 63.305312 -76.109583 
L 63.305312 -75.130237 
L 63.305312 -74.150892 
L 63.305312 -73.171547 
L 63.305312 -72.192201 
L 63.305312 -71.212856 
L 63.305312 -70.233511 
L 63.305312 -69.254165 
L 63.305312 -68.27482 
L 63.305312 -67.295475 
L 63.305312 -66.316129 
L 63.305312 -65.336784 
L 63.305312 -64.357439 
L 63.305312 -63.378093 
L 63.305312 -62.398748 
L 63.305312 -61.419402 
L 63.305312 -60.440057 
L 63.305312 -59.460712 
L 63.305312 -58.481366 
L 63.305312 -57.502021 
L 63.305312 -56.522676 
L 63.305312 -55.54333 
L 63.305312 -54.563985 
L 63.305312 -53.58464 
L 63.305312 -52.605294 
L 63.305312 -51.625949 
L 63.305312 -50.646604 
L 63.305312 -49.667258 
L 63.305312 -48.687913 
L 63.305312 -47.708567 
L 63.305312 -46.729222 
L 63.305312 -45.749877 
L 63.305312 -44.770531 
L 63.305312 -43.791186 
L 63.305312 -42.811841 
L 63.305312 -41.832495 
L 63.305312 -40.85315 
L 63.305312 -39.873805 
z
" style="stroke: #000000; stroke-opacity: 0.8"/>
    </defs>
    <g clip-path="url(#peae515055a)">
     <use xlink:href="#ma2eb5c9328" x="0" y="168.549844" style="fill: #ff812f; fill-opacity: 0.8; stroke: #000000; stroke-opacity: 0.8"/>
    </g>
   </g>
   <g id="PolyCollection_3">
    <defs>
     <path id="m55f927bafa" d="M 88.415312 -49.18135 
L 88.338402 -49.18135 
L 88.312142 -49.417852 
L 88.277412 -49.654353 
L 88.231839 -49.890855 
L 88.172571 -50.127356 
L 88.096255 -50.363858 
L 87.999042 -50.600359 
L 87.876631 -50.836861 
L 87.724349 -51.073362 
L 87.537298 -51.309863 
L 87.31054 -51.546365 
L 87.039346 -51.782866 
L 86.719487 -52.019368 
L 86.347558 -52.255869 
L 85.921318 -52.492371 
L 85.440012 -52.728872 
L 84.904659 -52.965374 
L 84.318265 -53.201875 
L 83.685933 -53.438377 
L 83.014862 -53.674878 
L 82.314198 -53.91138 
L 81.594752 -54.147881 
L 80.868589 -54.384383 
L 80.148509 -54.620884 
L 79.447459 -54.857386 
L 78.777911 -55.093887 
L 78.151264 -55.330388 
L 77.577305 -55.56689 
L 77.063772 -55.803391 
L 76.616064 -56.039893 
L 76.23709 -56.276394 
L 75.927284 -56.512896 
L 75.684771 -56.749397 
L 75.505644 -56.985899 
L 75.384354 -57.2224 
L 75.314135 -57.458902 
L 75.287467 -57.695403 
L 75.296505 -57.931905 
L 75.333469 -58.168406 
L 75.390964 -58.404908 
L 75.46221 -58.641409 
L 75.541193 -58.877911 
L 75.622724 -59.114412 
L 75.70244 -59.350913 
L 75.776731 -59.587415 
L 75.842651 -59.823916 
L 75.897792 -60.060418 
L 75.940179 -60.296919 
L 75.968177 -60.533421 
L 75.980425 -60.769922 
L 75.975831 -61.006424 
L 75.953592 -61.242925 
L 75.913278 -61.479427 
L 75.854943 -61.715928 
L 75.77927 -61.95243 
L 75.687728 -62.188931 
L 75.58272 -62.425433 
L 75.46771 -62.661934 
L 75.347295 -62.898436 
L 75.227216 -63.134937 
L 75.114286 -63.371438 
L 75.016223 -63.60794 
L 74.941397 -63.844441 
L 74.898491 -64.080943 
L 74.896096 -64.317444 
L 74.942262 -64.553946 
L 75.044054 -64.790447 
L 75.207124 -65.026949 
L 75.435356 -65.26345 
L 75.730605 -65.499952 
L 76.092556 -65.736453 
L 76.518706 -65.972955 
L 77.00449 -66.209456 
L 77.54351 -66.445958 
L 78.127867 -66.682459 
L 78.748554 -66.918961 
L 79.395878 -67.155462 
L 80.059885 -67.391963 
L 80.730746 -67.628465 
L 81.399099 -67.864966 
L 82.05632 -68.101468 
L 82.694722 -68.337969 
L 83.307687 -68.574471 
L 83.889736 -68.810972 
L 84.436542 -69.047474 
L 84.944911 -69.283975 
L 85.412722 -69.520477 
L 85.838855 -69.756978 
L 86.223097 -69.99348 
L 86.566048 -70.229981 
L 86.869004 -70.466483 
L 87.133853 -70.702984 
L 87.362953 -70.939486 
L 87.559018 -71.175987 
L 87.725004 -71.412488 
L 87.863995 -71.64899 
L 87.979109 -71.885491 
L 88.073398 -72.121993 
L 88.149783 -72.358494 
L 88.210987 -72.594996 
L 88.259497 -72.831497 
L 88.415312 -72.831497 
L 88.415312 -72.831497 
L 88.415312 -72.594996 
L 88.415312 -72.358494 
L 88.415312 -72.121993 
L 88.415312 -71.885491 
L 88.415312 -71.64899 
L 88.415312 -71.412488 
L 88.415312 -71.175987 
L 88.415312 -70.939486 
L 88.415312 -70.702984 
L 88.415312 -70.466483 
L 88.415312 -70.229981 
L 88.415312 -69.99348 
L 88.415312 -69.756978 
L 88.415312 -69.520477 
L 88.415312 -69.283975 
L 88.415312 -69.047474 
L 88.415312 -68.810972 
L 88.415312 -68.574471 
L 88.415312 -68.337969 
L 88.415312 -68.101468 
L 88.415312 -67.864966 
L 88.415312 -67.628465 
L 88.415312 -67.391963 
L 88.415312 -67.155462 
L 88.415312 -66.918961 
L 88.415312 -66.682459 
L 88.415312 -66.445958 
L 88.415312 -66.209456 
L 88.415312 -65.972955 
L 88.415312 -65.736453 
L 88.415312 -65.499952 
L 88.415312 -65.26345 
L 88.415312 -65.026949 
L 88.415312 -64.790447 
L 88.415312 -64.553946 
L 88.415312 -64.317444 
L 88.415312 -64.080943 
L 88.415312 -63.844441 
L 88.415312 -63.60794 
L 88.415312 -63.371438 
L 88.415312 -63.134937 
L 88.415312 -62.898436 
L 88.415312 -62.661934 
L 88.415312 -62.425433 
L 88.415312 -62.188931 
L 88.415312 -61.95243 
L 88.415312 -61.715928 
L 88.415312 -61.479427 
L 88.415312 -61.242925 
L 88.415312 -61.006424 
L 88.415312 -60.769922 
L 88.415312 -60.533421 
L 88.415312 -60.296919 
L 88.415312 -60.060418 
L 88.415312 -59.823916 
L 88.415312 -59.587415 
L 88.415312 -59.350913 
L 88.415312 -59.114412 
L 88.415312 -58.877911 
L 88.415312 -58.641409 
L 88.415312 -58.404908 
L 88.415312 -58.168406 
L 88.415312 -57.931905 
L 88.415312 -57.695403 
L 88.415312 -57.458902 
L 88.415312 -57.2224 
L 88.415312 -56.985899 
L 88.415312 -56.749397 
L 88.415312 -56.512896 
L 88.415312 -56.276394 
L 88.415312 -56.039893 
L 88.415312 -55.803391 
L 88.415312 -55.56689 
L 88.415312 -55.330388 
L 88.415312 -55.093887 
L 88.415312 -54.857386 
L 88.415312 -54.620884 
L 88.415312 -54.384383 
L 88.415312 -54.147881 
L 88.415312 -53.91138 
L 88.415312 -53.674878 
L 88.415312 -53.438377 
L 88.415312 -53.201875 
L 88.415312 -52.965374 
L 88.415312 -52.728872 
L 88.415312 -52.492371 
L 88.415312 -52.255869 
L 88.415312 -52.019368 
L 88.415312 -51.782866 
L 88.415312 -51.546365 
L 88.415312 -51.309863 
L 88.415312 -51.073362 
L 88.415312 -50.836861 
L 88.415312 -50.600359 
L 88.415312 -50.363858 
L 88.415312 -50.127356 
L 88.415312 -49.890855 
L 88.415312 -49.654353 
L 88.415312 -49.417852 
L 88.415312 -49.18135 
z
" style="stroke: #000000; stroke-opacity: 0.8"/>
    </defs>
    <g clip-path="url(#peae515055a)">
     <use xlink:href="#m55f927bafa" x="0" y="168.549844" style="fill: #bdbdbb; fill-opacity: 0.8; stroke: #000000; stroke-opacity: 0.8"/>
    </g>
   </g>
   <g id="PolyCollection_4">
    <defs>
     <path id="m4b48dcb323" d="M 88.415312 -48.706357 
L 89.23023 -48.706357 
L 89.371241 -49.591856 
L 89.525185 -50.477356 
L 89.690877 -51.362855 
L 89.866625 -52.248355 
L 90.050239 -53.133854 
L 90.239066 -54.019354 
L 90.430058 -54.904853 
L 90.619853 -55.790353 
L 90.804898 -56.675852 
L 90.981575 -57.561352 
L 91.146347 -58.446851 
L 91.295909 -59.332351 
L 91.42734 -60.21785 
L 91.538236 -61.10335 
L 91.626834 -61.988849 
L 91.692109 -62.874348 
L 91.733836 -63.759848 
L 91.752619 -64.645347 
L 91.749886 -65.530847 
L 91.72784 -66.416346 
L 91.689376 -67.301846 
L 91.637961 -68.187345 
L 91.577486 -69.072845 
L 91.5121 -69.958344 
L 91.446022 -70.843844 
L 91.383356 -71.729343 
L 91.327909 -72.614843 
L 91.283019 -73.500342 
L 91.251415 -74.385842 
L 91.235104 -75.271341 
L 91.235299 -76.156841 
L 91.252386 -77.04234 
L 91.285934 -77.92784 
L 91.334752 -78.813339 
L 91.396976 -79.698839 
L 91.47019 -80.584338 
L 91.551569 -81.469838 
L 91.638032 -82.355337 
L 91.726401 -83.240837 
L 91.813547 -84.126336 
L 91.896523 -85.011836 
L 91.972674 -85.897335 
L 92.039715 -86.782835 
L 92.095781 -87.668334 
L 92.139447 -88.553834 
L 92.16972 -89.439333 
L 92.186009 -90.324833 
L 92.188071 -91.210332 
L 92.175955 -92.095832 
L 92.149936 -92.981331 
L 92.110453 -93.866831 
L 92.058051 -94.75233 
L 91.993338 -95.63783 
L 91.916952 -96.523329 
L 91.829541 -97.408829 
L 91.731761 -98.294328 
L 91.624281 -99.179828 
L 91.507795 -100.065327 
L 91.383048 -100.950827 
L 91.250848 -101.836326 
L 91.112091 -102.721826 
L 90.967773 -103.607325 
L 90.818992 -104.492825 
L 90.666945 -105.378324 
L 90.512919 -106.263824 
L 90.358261 -107.149323 
L 90.204357 -108.034823 
L 90.052586 -108.920322 
L 89.904292 -109.805822 
L 89.760737 -110.691321 
L 89.623068 -111.576821 
L 89.492286 -112.46232 
L 89.369219 -113.34782 
L 89.254506 -114.233319 
L 89.148587 -115.118819 
L 89.051708 -116.004318 
L 88.963921 -116.889818 
L 88.88511 -117.775317 
L 88.815 -118.660816 
L 88.753193 -119.546316 
L 88.699185 -120.431815 
L 88.652401 -121.317315 
L 88.612215 -122.202814 
L 88.57798 -123.088314 
L 88.549044 -123.973813 
L 88.524773 -124.859313 
L 88.504561 -125.744812 
L 88.487844 -126.630312 
L 88.474104 -127.515811 
L 88.462876 -128.401311 
L 88.453747 -129.28681 
L 88.446357 -130.17231 
L 88.440395 -131.057809 
L 88.435597 -131.943309 
L 88.431741 -132.828808 
L 88.428644 -133.714308 
L 88.426154 -134.599807 
L 88.424148 -135.485307 
L 88.422527 -136.370806 
L 88.421213 -137.256306 
L 88.415312 -137.256306 
L 88.415312 -137.256306 
L 88.415312 -136.370806 
L 88.415312 -135.485307 
L 88.415312 -134.599807 
L 88.415312 -133.714308 
L 88.415312 -132.828808 
L 88.415312 -131.943309 
L 88.415312 -131.057809 
L 88.415312 -130.17231 
L 88.415312 -129.28681 
L 88.415312 -128.401311 
L 88.415312 -127.515811 
L 88.415312 -126.630312 
L 88.415312 -125.744812 
L 88.415312 -124.859313 
L 88.415312 -123.973813 
L 88.415312 -123.088314 
L 88.415312 -122.202814 
L 88.415312 -121.317315 
L 88.415312 -120.431815 
L 88.415312 -119.546316 
L 88.415312 -118.660816 
L 88.415312 -117.775317 
L 88.415312 -116.889818 
L 88.415312 -116.004318 
L 88.415312 -115.118819 
L 88.415312 -114.233319 
L 88.415312 -113.34782 
L 88.415312 -112.46232 
L 88.415312 -111.576821 
L 88.415312 -110.691321 
L 88.415312 -109.805822 
L 88.415312 -108.920322 
L 88.415312 -108.034823 
L 88.415312 -107.149323 
L 88.415312 -106.263824 
L 88.415312 -105.378324 
L 88.415312 -104.492825 
L 88.415312 -103.607325 
L 88.415312 -102.721826 
L 88.415312 -101.836326 
L 88.415312 -100.950827 
L 88.415312 -100.065327 
L 88.415312 -99.179828 
L 88.415312 -98.294328 
L 88.415312 -97.408829 
L 88.415312 -96.523329 
L 88.415312 -95.63783 
L 88.415312 -94.75233 
L 88.415312 -93.866831 
L 88.415312 -92.981331 
L 88.415312 -92.095832 
L 88.415312 -91.210332 
L 88.415312 -90.324833 
L 88.415312 -89.439333 
L 88.415312 -88.553834 
L 88.415312 -87.668334 
L 88.415312 -86.782835 
L 88.415312 -85.897335 
L 88.415312 -85.011836 
L 88.415312 -84.126336 
L 88.415312 -83.240837 
L 88.415312 -82.355337 
L 88.415312 -81.469838 
L 88.415312 -80.584338 
L 88.415312 -79.698839 
L 88.415312 -78.813339 
L 88.415312 -77.92784 
L 88.415312 -77.04234 
L 88.415312 -76.156841 
L 88.415312 -75.271341 
L 88.415312 -74.385842 
L 88.415312 -73.500342 
L 88.415312 -72.614843 
L 88.415312 -71.729343 
L 88.415312 -70.843844 
L 88.415312 -69.958344 
L 88.415312 -69.072845 
L 88.415312 -68.187345 
L 88.415312 -67.301846 
L 88.415312 -66.416346 
L 88.415312 -65.530847 
L 88.415312 -64.645347 
L 88.415312 -63.759848 
L 88.415312 -62.874348 
L 88.415312 -61.988849 
L 88.415312 -61.10335 
L 88.415312 -60.21785 
L 88.415312 -59.332351 
L 88.415312 -58.446851 
L 88.415312 -57.561352 
L 88.415312 -56.675852 
L 88.415312 -55.790353 
L 88.415312 -54.904853 
L 88.415312 -54.019354 
L 88.415312 -53.133854 
L 88.415312 -52.248355 
L 88.415312 -51.362855 
L 88.415312 -50.477356 
L 88.415312 -49.591856 
L 88.415312 -48.706357 
z
" style="stroke: #000000; stroke-opacity: 0.8"/>
    </defs>
    <g clip-path="url(#peae515055a)">
     <use xlink:href="#m4b48dcb323" x="0" y="168.549844" style="fill: #ff812f; fill-opacity: 0.8; stroke: #000000; stroke-opacity: 0.8"/>
    </g>
   </g>
   <g id="matplotlib.axis_1">
    <g id="xtick_1">
     <g id="line2d_1">
      <defs>
       <path id="m6e3169f3ce" d="M 0 0 
L 0 -5 
" style="stroke: #000000"/>
      </defs>
      <g>
       <use xlink:href="#m6e3169f3ce" x="63.305312" y="132.815625" style="stroke: #000000"/>
      </g>
     </g>
     <g id="text_1">
      <!-- Fast -->
      <g transform="translate(52.609531 144.189219) scale(0.11 -0.11)">
       <defs>
        <path id="ArialMT-46" d="M 525 0 
L 525 4581 
L 3616 4581 
L 3616 4041 
L 1131 4041 
L 1131 2622 
L 3281 2622 
L 3281 2081 
L 1131 2081 
L 1131 0 
L 525 0 
z
" transform="scale(0.015625)"/>
        <path id="ArialMT-61" d="M 2588 409 
Q 2275 144 1986 34 
Q 1697 -75 1366 -75 
Q 819 -75 525 192 
Q 231 459 231 875 
Q 231 1119 342 1320 
Q 453 1522 633 1644 
Q 813 1766 1038 1828 
Q 1203 1872 1538 1913 
Q 2219 1994 2541 2106 
Q 2544 2222 2544 2253 
Q 2544 2597 2384 2738 
Q 2169 2928 1744 2928 
Q 1347 2928 1158 2789 
Q 969 2650 878 2297 
L 328 2372 
Q 403 2725 575 2942 
Q 747 3159 1072 3276 
Q 1397 3394 1825 3394 
Q 2250 3394 2515 3294 
Q 2781 3194 2906 3042 
Q 3031 2891 3081 2659 
Q 3109 2516 3109 2141 
L 3109 1391 
Q 3109 606 3145 398 
Q 3181 191 3288 0 
L 2700 0 
Q 2613 175 2588 409 
z
M 2541 1666 
Q 2234 1541 1622 1453 
Q 1275 1403 1131 1340 
Q 988 1278 909 1158 
Q 831 1038 831 891 
Q 831 666 1001 516 
Q 1172 366 1500 366 
Q 1825 366 2078 508 
Q 2331 650 2450 897 
Q 2541 1088 2541 1459 
L 2541 1666 
z
" transform="scale(0.015625)"/>
        <path id="ArialMT-73" d="M 197 991 
L 753 1078 
Q 800 744 1014 566 
Q 1228 388 1613 388 
Q 2000 388 2187 545 
Q 2375 703 2375 916 
Q 2375 1106 2209 1216 
Q 2094 1291 1634 1406 
Q 1016 1563 777 1677 
Q 538 1791 414 1992 
Q 291 2194 291 2438 
Q 291 2659 392 2848 
Q 494 3038 669 3163 
Q 800 3259 1026 3326 
Q 1253 3394 1513 3394 
Q 1903 3394 2198 3281 
Q 2494 3169 2634 2976 
Q 2775 2784 2828 2463 
L 2278 2388 
Q 2241 2644 2061 2787 
Q 1881 2931 1553 2931 
Q 1166 2931 1000 2803 
Q 834 2675 834 2503 
Q 834 2394 903 2306 
Q 972 2216 1119 2156 
Q 1203 2125 1616 2013 
Q 2213 1853 2448 1751 
Q 2684 1650 2818 1456 
Q 2953 1263 2953 975 
Q 2953 694 2789 445 
Q 2625 197 2315 61 
Q 2006 -75 1616 -75 
Q 969 -75 630 194 
Q 291 463 197 991 
z
" transform="scale(0.015625)"/>
        <path id="ArialMT-74" d="M 1650 503 
L 1731 6 
Q 1494 -44 1306 -44 
Q 1000 -44 831 53 
Q 663 150 594 308 
Q 525 466 525 972 
L 525 2881 
L 113 2881 
L 113 3319 
L 525 3319 
L 525 4141 
L 1084 4478 
L 1084 3319 
L 1650 3319 
L 1650 2881 
L 1084 2881 
L 1084 941 
Q 1084 700 1114 631 
Q 1144 563 1211 522 
Q 1278 481 1403 481 
Q 1497 481 1650 503 
z
" transform="scale(0.015625)"/>
       </defs>
       <use xlink:href="#ArialMT-46"/>
       <use xlink:href="#ArialMT-61" x="61.083984"/>
       <use xlink:href="#ArialMT-73" x="116.699219"/>
       <use xlink:href="#ArialMT-74" x="166.699219"/>
      </g>
     </g>
    </g>
    <g id="xtick_2">
     <g id="line2d_2">
      <g>
       <use xlink:href="#m6e3169f3ce" x="88.415312" y="132.815625" style="stroke: #000000"/>
      </g>
     </g>
     <g id="text_2">
      <!-- Slow -->
      <g transform="translate(76.494062 144.189219) scale(0.11 -0.11)">
       <defs>
        <path id="ArialMT-53" d="M 288 1472 
L 859 1522 
Q 900 1178 1048 958 
Q 1197 738 1509 602 
Q 1822 466 2213 466 
Q 2559 466 2825 569 
Q 3091 672 3220 851 
Q 3350 1031 3350 1244 
Q 3350 1459 3225 1620 
Q 3100 1781 2813 1891 
Q 2628 1963 1997 2114 
Q 1366 2266 1113 2400 
Q 784 2572 623 2826 
Q 463 3081 463 3397 
Q 463 3744 659 4045 
Q 856 4347 1234 4503 
Q 1613 4659 2075 4659 
Q 2584 4659 2973 4495 
Q 3363 4331 3572 4012 
Q 3781 3694 3797 3291 
L 3216 3247 
Q 3169 3681 2898 3903 
Q 2628 4125 2100 4125 
Q 1550 4125 1298 3923 
Q 1047 3722 1047 3438 
Q 1047 3191 1225 3031 
Q 1400 2872 2139 2705 
Q 2878 2538 3153 2413 
Q 3553 2228 3743 1945 
Q 3934 1663 3934 1294 
Q 3934 928 3725 604 
Q 3516 281 3123 101 
Q 2731 -78 2241 -78 
Q 1619 -78 1198 103 
Q 778 284 539 648 
Q 300 1013 288 1472 
z
" transform="scale(0.015625)"/>
        <path id="ArialMT-6c" d="M 409 0 
L 409 4581 
L 972 4581 
L 972 0 
L 409 0 
z
" transform="scale(0.015625)"/>
        <path id="ArialMT-6f" d="M 213 1659 
Q 213 2581 725 3025 
Q 1153 3394 1769 3394 
Q 2453 3394 2887 2945 
Q 3322 2497 3322 1706 
Q 3322 1066 3130 698 
Q 2938 331 2570 128 
Q 2203 -75 1769 -75 
Q 1072 -75 642 372 
Q 213 819 213 1659 
z
M 791 1659 
Q 791 1022 1069 705 
Q 1347 388 1769 388 
Q 2188 388 2466 706 
Q 2744 1025 2744 1678 
Q 2744 2294 2464 2611 
Q 2184 2928 1769 2928 
Q 1347 2928 1069 2612 
Q 791 2297 791 1659 
z
" transform="scale(0.015625)"/>
        <path id="ArialMT-77" d="M 1034 0 
L 19 3319 
L 600 3319 
L 1128 1403 
L 1325 691 
Q 1338 744 1497 1375 
L 2025 3319 
L 2603 3319 
L 3100 1394 
L 3266 759 
L 3456 1400 
L 4025 3319 
L 4572 3319 
L 3534 0 
L 2950 0 
L 2422 1988 
L 2294 2553 
L 1622 0 
L 1034 0 
z
" transform="scale(0.015625)"/>
       </defs>
       <use xlink:href="#ArialMT-53"/>
       <use xlink:href="#ArialMT-6c" x="66.699219"/>
       <use xlink:href="#ArialMT-6f" x="88.916016"/>
       <use xlink:href="#ArialMT-77" x="144.53125"/>
      </g>
     </g>
    </g>
    <g id="text_3">
     <!-- Population -->
     <g transform="translate(47.505625 158.964844) scale(0.12 -0.12)">
      <defs>
       <path id="ArialMT-50" d="M 494 0 
L 494 4581 
L 2222 4581 
Q 2678 4581 2919 4538 
Q 3256 4481 3484 4323 
Q 3713 4166 3852 3881 
Q 3991 3597 3991 3256 
Q 3991 2672 3619 2267 
Q 3247 1863 2275 1863 
L 1100 1863 
L 1100 0 
L 494 0 
z
M 1100 2403 
L 2284 2403 
Q 2872 2403 3119 2622 
Q 3366 2841 3366 3238 
Q 3366 3525 3220 3729 
Q 3075 3934 2838 4000 
Q 2684 4041 2272 4041 
L 1100 4041 
L 1100 2403 
z
" transform="scale(0.015625)"/>
       <path id="ArialMT-70" d="M 422 -1272 
L 422 3319 
L 934 3319 
L 934 2888 
Q 1116 3141 1344 3267 
Q 1572 3394 1897 3394 
Q 2322 3394 2647 3175 
Q 2972 2956 3137 2557 
Q 3303 2159 3303 1684 
Q 3303 1175 3120 767 
Q 2938 359 2589 142 
Q 2241 -75 1856 -75 
Q 1575 -75 1351 44 
Q 1128 163 984 344 
L 984 -1272 
L 422 -1272 
z
M 931 1641 
Q 931 1000 1190 694 
Q 1450 388 1819 388 
Q 2194 388 2461 705 
Q 2728 1022 2728 1688 
Q 2728 2322 2467 2637 
Q 2206 2953 1844 2953 
Q 1484 2953 1207 2617 
Q 931 2281 931 1641 
z
" transform="scale(0.015625)"/>
       <path id="ArialMT-75" d="M 2597 0 
L 2597 488 
Q 2209 -75 1544 -75 
Q 1250 -75 995 37 
Q 741 150 617 320 
Q 494 491 444 738 
Q 409 903 409 1263 
L 409 3319 
L 972 3319 
L 972 1478 
Q 972 1038 1006 884 
Q 1059 663 1231 536 
Q 1403 409 1656 409 
Q 1909 409 2131 539 
Q 2353 669 2445 892 
Q 2538 1116 2538 1541 
L 2538 3319 
L 3100 3319 
L 3100 0 
L 2597 0 
z
" transform="scale(0.015625)"/>
       <path id="ArialMT-69" d="M 425 3934 
L 425 4581 
L 988 4581 
L 988 3934 
L 425 3934 
z
M 425 0 
L 425 3319 
L 988 3319 
L 988 0 
L 425 0 
z
" transform="scale(0.015625)"/>
       <path id="ArialMT-6e" d="M 422 0 
L 422 3319 
L 928 3319 
L 928 2847 
Q 1294 3394 1984 3394 
Q 2284 3394 2536 3286 
Q 2788 3178 2913 3003 
Q 3038 2828 3088 2588 
Q 3119 2431 3119 2041 
L 3119 0 
L 2556 0 
L 2556 2019 
Q 2556 2363 2490 2533 
Q 2425 2703 2258 2804 
Q 2091 2906 1866 2906 
Q 1506 2906 1245 2678 
Q 984 2450 984 1813 
L 984 0 
L 422 0 
z
" transform="scale(0.015625)"/>
      </defs>
      <use xlink:href="#ArialMT-50"/>
      <use xlink:href="#ArialMT-6f" x="66.699219"/>
      <use xlink:href="#ArialMT-70" x="122.314453"/>
      <use xlink:href="#ArialMT-75" x="177.929688"/>
      <use xlink:href="#ArialMT-6c" x="233.544922"/>
      <use xlink:href="#ArialMT-61" x="255.761719"/>
      <use xlink:href="#ArialMT-74" x="311.376953"/>
      <use xlink:href="#ArialMT-69" x="339.160156"/>
      <use xlink:href="#ArialMT-6f" x="361.376953"/>
      <use xlink:href="#ArialMT-6e" x="416.992188"/>
     </g>
    </g>
   </g>
   <g id="matplotlib.axis_2">
    <g id="ytick_1">
     <g id="line2d_3">
      <defs>
       <path id="ma350fd1112" d="M 0 0 
L 5 0 
" style="stroke: #000000"/>
      </defs>
      <g>
       <use xlink:href="#ma350fd1112" x="38.195312" y="132.815625" style="stroke: #000000"/>
      </g>
     </g>
     <g id="text_4">
      <!-- 10 -->
      <g transform="translate(22.46125 136.752422) scale(0.11 -0.11)">
       <defs>
        <path id="ArialMT-31" d="M 2384 0 
L 1822 0 
L 1822 3584 
Q 1619 3391 1289 3197 
Q 959 3003 697 2906 
L 697 3450 
Q 1169 3672 1522 3987 
Q 1875 4303 2022 4600 
L 2384 4600 
L 2384 0 
z
" transform="scale(0.015625)"/>
        <path id="ArialMT-30" d="M 266 2259 
Q 266 3072 433 3567 
Q 600 4063 929 4331 
Q 1259 4600 1759 4600 
Q 2128 4600 2406 4451 
Q 2684 4303 2865 4023 
Q 3047 3744 3150 3342 
Q 3253 2941 3253 2259 
Q 3253 1453 3087 958 
Q 2922 463 2592 192 
Q 2263 -78 1759 -78 
Q 1097 -78 719 397 
Q 266 969 266 2259 
z
M 844 2259 
Q 844 1131 1108 757 
Q 1372 384 1759 384 
Q 2147 384 2411 759 
Q 2675 1134 2675 2259 
Q 2675 3391 2411 3762 
Q 2147 4134 1753 4134 
Q 1366 4134 1134 3806 
Q 844 3388 844 2259 
z
" transform="scale(0.015625)"/>
       </defs>
       <use xlink:href="#ArialMT-31"/>
       <use xlink:href="#ArialMT-30" x="55.615234"/>
      </g>
     </g>
    </g>
    <g id="ytick_2">
     <g id="line2d_4">
      <g>
       <use xlink:href="#ma350fd1112" x="38.195312" y="108.175625" style="stroke: #000000"/>
      </g>
     </g>
     <g id="text_5">
      <!-- 30 -->
      <g transform="translate(22.46125 112.112422) scale(0.11 -0.11)">
       <defs>
        <path id="ArialMT-33" d="M 269 1209 
L 831 1284 
Q 928 806 1161 595 
Q 1394 384 1728 384 
Q 2125 384 2398 659 
Q 2672 934 2672 1341 
Q 2672 1728 2419 1979 
Q 2166 2231 1775 2231 
Q 1616 2231 1378 2169 
L 1441 2663 
Q 1497 2656 1531 2656 
Q 1891 2656 2178 2843 
Q 2466 3031 2466 3422 
Q 2466 3731 2256 3934 
Q 2047 4138 1716 4138 
Q 1388 4138 1169 3931 
Q 950 3725 888 3313 
L 325 3413 
Q 428 3978 793 4289 
Q 1159 4600 1703 4600 
Q 2078 4600 2393 4439 
Q 2709 4278 2876 4000 
Q 3044 3722 3044 3409 
Q 3044 3113 2884 2869 
Q 2725 2625 2413 2481 
Q 2819 2388 3044 2092 
Q 3269 1797 3269 1353 
Q 3269 753 2831 336 
Q 2394 -81 1725 -81 
Q 1122 -81 723 278 
Q 325 638 269 1209 
z
" transform="scale(0.015625)"/>
       </defs>
       <use xlink:href="#ArialMT-33"/>
       <use xlink:href="#ArialMT-30" x="55.615234"/>
      </g>
     </g>
    </g>
    <g id="ytick_3">
     <g id="line2d_5">
      <g>
       <use xlink:href="#ma350fd1112" x="38.195312" y="83.535625" style="stroke: #000000"/>
      </g>
     </g>
     <g id="text_6">
      <!-- 50 -->
      <g transform="translate(22.46125 87.472422) scale(0.11 -0.11)">
       <defs>
        <path id="ArialMT-35" d="M 266 1200 
L 856 1250 
Q 922 819 1161 601 
Q 1400 384 1738 384 
Q 2144 384 2425 690 
Q 2706 997 2706 1503 
Q 2706 1984 2436 2262 
Q 2166 2541 1728 2541 
Q 1456 2541 1237 2417 
Q 1019 2294 894 2097 
L 366 2166 
L 809 4519 
L 3088 4519 
L 3088 3981 
L 1259 3981 
L 1013 2750 
Q 1425 3038 1878 3038 
Q 2478 3038 2890 2622 
Q 3303 2206 3303 1553 
Q 3303 931 2941 478 
Q 2500 -78 1738 -78 
Q 1113 -78 717 272 
Q 322 622 266 1200 
z
" transform="scale(0.015625)"/>
       </defs>
       <use xlink:href="#ArialMT-35"/>
       <use xlink:href="#ArialMT-30" x="55.615234"/>
      </g>
     </g>
    </g>
    <g id="ytick_4">
     <g id="line2d_6">
      <g>
       <use xlink:href="#ma350fd1112" x="38.195312" y="58.895625" style="stroke: #000000"/>
      </g>
     </g>
     <g id="text_7">
      <!-- 70 -->
      <g transform="translate(22.46125 62.832422) scale(0.11 -0.11)">
       <defs>
        <path id="ArialMT-37" d="M 303 3981 
L 303 4522 
L 3269 4522 
L 3269 4084 
Q 2831 3619 2401 2847 
Q 1972 2075 1738 1259 
Q 1569 684 1522 0 
L 944 0 
Q 953 541 1156 1306 
Q 1359 2072 1739 2783 
Q 2119 3494 2547 3981 
L 303 3981 
z
" transform="scale(0.015625)"/>
       </defs>
       <use xlink:href="#ArialMT-37"/>
       <use xlink:href="#ArialMT-30" x="55.615234"/>
      </g>
     </g>
    </g>
    <g id="ytick_5">
     <g id="line2d_7">
      <g>
       <use xlink:href="#ma350fd1112" x="38.195312" y="34.255625" style="stroke: #000000"/>
      </g>
     </g>
     <g id="text_8">
      <!-- 90 -->
      <g transform="translate(22.46125 38.192422) scale(0.11 -0.11)">
       <defs>
        <path id="ArialMT-39" d="M 350 1059 
L 891 1109 
Q 959 728 1153 556 
Q 1347 384 1650 384 
Q 1909 384 2104 503 
Q 2300 622 2425 820 
Q 2550 1019 2634 1356 
Q 2719 1694 2719 2044 
Q 2719 2081 2716 2156 
Q 2547 1888 2255 1720 
Q 1963 1553 1622 1553 
Q 1053 1553 659 1965 
Q 266 2378 266 3053 
Q 266 3750 677 4175 
Q 1088 4600 1706 4600 
Q 2153 4600 2523 4359 
Q 2894 4119 3086 3673 
Q 3278 3228 3278 2384 
Q 3278 1506 3087 986 
Q 2897 466 2520 194 
Q 2144 -78 1638 -78 
Q 1100 -78 759 220 
Q 419 519 350 1059 
z
M 2653 3081 
Q 2653 3566 2395 3850 
Q 2138 4134 1775 4134 
Q 1400 4134 1122 3828 
Q 844 3522 844 3034 
Q 844 2597 1108 2323 
Q 1372 2050 1759 2050 
Q 2150 2050 2401 2323 
Q 2653 2597 2653 3081 
z
" transform="scale(0.015625)"/>
       </defs>
       <use xlink:href="#ArialMT-39"/>
       <use xlink:href="#ArialMT-30" x="55.615234"/>
      </g>
     </g>
    </g>
    <g id="text_9">
     <!-- Frequency (Hz) -->
     <g transform="translate(15.935625 118.716562) rotate(-90) scale(0.12 -0.12)">
      <defs>
       <path id="ArialMT-72" d="M 416 0 
L 416 3319 
L 922 3319 
L 922 2816 
Q 1116 3169 1280 3281 
Q 1444 3394 1641 3394 
Q 1925 3394 2219 3213 
L 2025 2691 
Q 1819 2813 1613 2813 
Q 1428 2813 1281 2702 
Q 1134 2591 1072 2394 
Q 978 2094 978 1738 
L 978 0 
L 416 0 
z
" transform="scale(0.015625)"/>
       <path id="ArialMT-65" d="M 2694 1069 
L 3275 997 
Q 3138 488 2766 206 
Q 2394 -75 1816 -75 
Q 1088 -75 661 373 
Q 234 822 234 1631 
Q 234 2469 665 2931 
Q 1097 3394 1784 3394 
Q 2450 3394 2872 2941 
Q 3294 2488 3294 1666 
Q 3294 1616 3291 1516 
L 816 1516 
Q 847 969 1125 678 
Q 1403 388 1819 388 
Q 2128 388 2347 550 
Q 2566 713 2694 1069 
z
M 847 1978 
L 2700 1978 
Q 2663 2397 2488 2606 
Q 2219 2931 1791 2931 
Q 1403 2931 1139 2672 
Q 875 2413 847 1978 
z
" transform="scale(0.015625)"/>
       <path id="ArialMT-71" d="M 2538 -1272 
L 2538 353 
Q 2406 169 2170 47 
Q 1934 -75 1669 -75 
Q 1078 -75 651 397 
Q 225 869 225 1691 
Q 225 2191 398 2587 
Q 572 2984 901 3189 
Q 1231 3394 1625 3394 
Q 2241 3394 2594 2875 
L 2594 3319 
L 3100 3319 
L 3100 -1272 
L 2538 -1272 
z
M 803 1669 
Q 803 1028 1072 708 
Q 1341 388 1716 388 
Q 2075 388 2334 692 
Q 2594 997 2594 1619 
Q 2594 2281 2320 2615 
Q 2047 2950 1678 2950 
Q 1313 2950 1058 2639 
Q 803 2328 803 1669 
z
" transform="scale(0.015625)"/>
       <path id="ArialMT-63" d="M 2588 1216 
L 3141 1144 
Q 3050 572 2676 248 
Q 2303 -75 1759 -75 
Q 1078 -75 664 370 
Q 250 816 250 1647 
Q 250 2184 428 2587 
Q 606 2991 970 3192 
Q 1334 3394 1763 3394 
Q 2303 3394 2647 3120 
Q 2991 2847 3088 2344 
L 2541 2259 
Q 2463 2594 2264 2762 
Q 2066 2931 1784 2931 
Q 1359 2931 1093 2626 
Q 828 2322 828 1663 
Q 828 994 1084 691 
Q 1341 388 1753 388 
Q 2084 388 2306 591 
Q 2528 794 2588 1216 
z
" transform="scale(0.015625)"/>
       <path id="ArialMT-79" d="M 397 -1278 
L 334 -750 
Q 519 -800 656 -800 
Q 844 -800 956 -737 
Q 1069 -675 1141 -563 
Q 1194 -478 1313 -144 
Q 1328 -97 1363 -6 
L 103 3319 
L 709 3319 
L 1400 1397 
Q 1534 1031 1641 628 
Q 1738 1016 1872 1384 
L 2581 3319 
L 3144 3319 
L 1881 -56 
Q 1678 -603 1566 -809 
Q 1416 -1088 1222 -1217 
Q 1028 -1347 759 -1347 
Q 597 -1347 397 -1278 
z
" transform="scale(0.015625)"/>
       <path id="ArialMT-20" transform="scale(0.015625)"/>
       <path id="ArialMT-28" d="M 1497 -1347 
Q 1031 -759 709 28 
Q 388 816 388 1659 
Q 388 2403 628 3084 
Q 909 3875 1497 4659 
L 1900 4659 
Q 1522 4009 1400 3731 
Q 1209 3300 1100 2831 
Q 966 2247 966 1656 
Q 966 153 1900 -1347 
L 1497 -1347 
z
" transform="scale(0.015625)"/>
       <path id="ArialMT-48" d="M 513 0 
L 513 4581 
L 1119 4581 
L 1119 2700 
L 3500 2700 
L 3500 4581 
L 4106 4581 
L 4106 0 
L 3500 0 
L 3500 2159 
L 1119 2159 
L 1119 0 
L 513 0 
z
" transform="scale(0.015625)"/>
       <path id="ArialMT-7a" d="M 125 0 
L 125 456 
L 2238 2881 
Q 1878 2863 1603 2863 
L 250 2863 
L 250 3319 
L 2963 3319 
L 2963 2947 
L 1166 841 
L 819 456 
Q 1197 484 1528 484 
L 3063 484 
L 3063 0 
L 125 0 
z
" transform="scale(0.015625)"/>
       <path id="ArialMT-29" d="M 791 -1347 
L 388 -1347 
Q 1322 153 1322 1656 
Q 1322 2244 1188 2822 
Q 1081 3291 891 3722 
Q 769 4003 388 4659 
L 791 4659 
Q 1378 3875 1659 3084 
Q 1900 2403 1900 1659 
Q 1900 816 1576 28 
Q 1253 -759 791 -1347 
z
" transform="scale(0.015625)"/>
      </defs>
      <use xlink:href="#ArialMT-46"/>
      <use xlink:href="#ArialMT-72" x="61.083984"/>
      <use xlink:href="#ArialMT-65" x="94.384766"/>
      <use xlink:href="#ArialMT-71" x="150"/>
      <use xlink:href="#ArialMT-75" x="205.615234"/>
      <use xlink:href="#ArialMT-65" x="261.230469"/>
      <use xlink:href="#ArialMT-6e" x="316.845703"/>
      <use xlink:href="#ArialMT-63" x="372.460938"/>
      <use xlink:href="#ArialMT-79" x="422.460938"/>
      <use xlink:href="#ArialMT-20" x="472.460938"/>
      <use xlink:href="#ArialMT-28" x="500.244141"/>
      <use xlink:href="#ArialMT-48" x="533.544922"/>
      <use xlink:href="#ArialMT-7a" x="605.761719"/>
      <use xlink:href="#ArialMT-29" x="655.761719"/>
     </g>
    </g>
   </g>
   <g id="line2d_8">
    <path d="M 63.305312 78.474302 
L 56.653663 78.474302 
" clip-path="url(#peae515055a)" style="fill: none; stroke-dasharray: 4.44,1.92; stroke-dashoffset: 0; stroke: #000000; stroke-width: 1.2"/>
   </g>
   <g id="line2d_9">
    <path d="M 63.305312 71.067489 
L 56.358905 71.067489 
" clip-path="url(#peae515055a)" style="fill: none; stroke-dasharray: 4.44,1.92; stroke-dashoffset: 0; stroke: #000000; stroke-width: 1.2"/>
   </g>
   <g id="line2d_10">
    <path d="M 63.305312 63.660675 
L 57.18124 63.660675 
" clip-path="url(#peae515055a)" style="fill: none; stroke-dasharray: 4.44,1.92; stroke-dashoffset: 0; stroke: #000000; stroke-width: 1.2"/>
   </g>
   <g id="line2d_11">
    <path d="M 63.305312 100.694743 
L 66.085856 100.694743 
" clip-path="url(#peae515055a)" style="fill: none; stroke-dasharray: 4.44,1.92; stroke-dashoffset: 0; stroke: #000000; stroke-width: 1.2"/>
   </g>
   <g id="line2d_12">
    <path d="M 63.305312 82.662895 
L 66.376782 82.662895 
" clip-path="url(#peae515055a)" style="fill: none; stroke-dasharray: 4.44,1.92; stroke-dashoffset: 0; stroke: #000000; stroke-width: 1.2"/>
   </g>
   <g id="line2d_13">
    <path d="M 63.305312 68.598551 
L 66.391989 68.598551 
" clip-path="url(#peae515055a)" style="fill: none; stroke-dasharray: 4.44,1.92; stroke-dashoffset: 0; stroke: #000000; stroke-width: 1.2"/>
   </g>
   <g id="line2d_14">
    <path d="M 88.415312 110.935287 
L 75.29217 110.935287 
" clip-path="url(#peae515055a)" style="fill: none; stroke-dasharray: 4.44,1.92; stroke-dashoffset: 0; stroke: #000000; stroke-width: 1.2"/>
   </g>
   <g id="line2d_15">
    <path d="M 88.415312 107.671346 
L 75.980463 107.671346 
" clip-path="url(#peae515055a)" style="fill: none; stroke-dasharray: 4.44,1.92; stroke-dashoffset: 0; stroke: #000000; stroke-width: 1.2"/>
   </g>
   <g id="line2d_16">
    <path d="M 88.415312 103.163681 
L 75.580154 103.163681 
" clip-path="url(#peae515055a)" style="fill: none; stroke-dasharray: 4.44,1.92; stroke-dashoffset: 0; stroke: #000000; stroke-width: 1.2"/>
   </g>
   <g id="line2d_17">
    <path d="M 88.415312 103.163681 
L 91.751719 103.163681 
" clip-path="url(#peae515055a)" style="fill: none; stroke-dasharray: 4.44,1.92; stroke-dashoffset: 0; stroke: #000000; stroke-width: 1.2"/>
   </g>
   <g id="line2d_18">
    <path d="M 88.415312 84.142612 
L 91.840453 84.142612 
" clip-path="url(#peae515055a)" style="fill: none; stroke-dasharray: 4.44,1.92; stroke-dashoffset: 0; stroke: #000000; stroke-width: 1.2"/>
   </g>
   <g id="line2d_19">
    <path d="M 88.415312 73.536427 
L 92.040222 73.536427 
" clip-path="url(#peae515055a)" style="fill: none; stroke-dasharray: 4.44,1.92; stroke-dashoffset: 0; stroke: #000000; stroke-width: 1.2"/>
   </g>
   <g id="patch_3">
    <path d="M 38.195312 132.815625 
L 38.195312 21.935625 
" style="fill: none; stroke: #000000; stroke-width: 0.8; stroke-linejoin: miter; stroke-linecap: square"/>
   </g>
   <g id="patch_4">
    <path d="M 38.195312 132.815625 
L 113.525313 132.815625 
" style="fill: none; stroke: #000000; stroke-width: 0.8; stroke-linejoin: miter; stroke-linecap: square"/>
   </g>
   <g id="text_10">
    <!-- Burst frequency -->
    <g transform="translate(33.8425 15.935625) scale(0.12 -0.12)">
     <defs>
      <path id="ArialMT-42" d="M 469 0 
L 469 4581 
L 2188 4581 
Q 2713 4581 3030 4442 
Q 3347 4303 3526 4014 
Q 3706 3725 3706 3409 
Q 3706 3116 3547 2856 
Q 3388 2597 3066 2438 
Q 3481 2316 3704 2022 
Q 3928 1728 3928 1328 
Q 3928 1006 3792 729 
Q 3656 453 3456 303 
Q 3256 153 2954 76 
Q 2653 0 2216 0 
L 469 0 
z
M 1075 2656 
L 2066 2656 
Q 2469 2656 2644 2709 
Q 2875 2778 2992 2937 
Q 3109 3097 3109 3338 
Q 3109 3566 3000 3739 
Q 2891 3913 2687 3977 
Q 2484 4041 1991 4041 
L 1075 4041 
L 1075 2656 
z
M 1075 541 
L 2216 541 
Q 2509 541 2628 563 
Q 2838 600 2978 687 
Q 3119 775 3209 942 
Q 3300 1109 3300 1328 
Q 3300 1584 3169 1773 
Q 3038 1963 2805 2039 
Q 2572 2116 2134 2116 
L 1075 2116 
L 1075 541 
z
" transform="scale(0.015625)"/>
      <path id="ArialMT-66" d="M 556 0 
L 556 2881 
L 59 2881 
L 59 3319 
L 556 3319 
L 556 3672 
Q 556 4006 616 4169 
Q 697 4388 901 4523 
Q 1106 4659 1475 4659 
Q 1713 4659 2000 4603 
L 1916 4113 
Q 1741 4144 1584 4144 
Q 1328 4144 1222 4034 
Q 1116 3925 1116 3625 
L 1116 3319 
L 1763 3319 
L 1763 2881 
L 1116 2881 
L 1116 0 
L 556 0 
z
" transform="scale(0.015625)"/>
     </defs>
     <use xlink:href="#ArialMT-42"/>
     <use xlink:href="#ArialMT-75" x="66.699219"/>
     <use xlink:href="#ArialMT-72" x="122.314453"/>
     <use xlink:href="#ArialMT-73" x="155.615234"/>
     <use xlink:href="#ArialMT-74" x="205.615234"/>
     <use xlink:href="#ArialMT-20" x="233.398438"/>
     <use xlink:href="#ArialMT-66" x="261.181641"/>
     <use xlink:href="#ArialMT-72" x="288.964844"/>
     <use xlink:href="#ArialMT-65" x="322.265625"/>
     <use xlink:href="#ArialMT-71" x="377.880859"/>
     <use xlink:href="#ArialMT-75" x="433.496094"/>
     <use xlink:href="#ArialMT-65" x="489.111328"/>
     <use xlink:href="#ArialMT-6e" x="544.726562"/>
     <use xlink:href="#ArialMT-63" x="600.341797"/>
     <use xlink:href="#ArialMT-79" x="650.341797"/>
    </g>
   </g>
  </g>
 </g>
 <defs>
  <clipPath id="peae515055a">
   <rect x="38.195312" y="21.935625" width="75.33" height="110.88"/>
  </clipPath>
 </defs>
</svg>
