<?xml version="1.0" encoding="utf-8" standalone="no"?>
<!DOCTYPE svg PUBLIC "-//W3C//DTD SVG 1.1//EN"
  "http://www.w3.org/Graphics/SVG/1.1/DTD/svg11.dtd">
<svg xmlns:xlink="http://www.w3.org/1999/xlink" width="118.627344pt" height="168.403594pt" viewBox="0 0 118.627344 168.403594" xmlns="http://www.w3.org/2000/svg" version="1.1">
 <metadata>
  <rdf:RDF xmlns:dc="http://purl.org/dc/elements/1.1/" xmlns:cc="http://creativecommons.org/ns#" xmlns:rdf="http://www.w3.org/1999/02/22-rdf-syntax-ns#">
   <cc:Work>
    <dc:type rdf:resource="http://purl.org/dc/dcmitype/StillImage"/>
    <dc:date>2025-04-29T14:28:50.379527</dc:date>
    <dc:format>image/svg+xml</dc:format>
    <dc:creator>
     <cc:Agent>
      <dc:title>Matplotlib v3.7.2, https://matplotlib.org/</dc:title>
     </cc:Agent>
    </dc:creator>
   </cc:Work>
  </rdf:RDF>
 </metadata>
 <defs>
  <style type="text/css">*{stroke-linejoin: round; stroke-linecap: butt}</style>
 </defs>
 <g id="figure_1">
  <g id="patch_1">
   <path d="M 0 168.403594 
L 118.627344 168.403594 
L 118.627344 0 
L 0 0 
z
" style="fill: #ffffff"/>
  </g>
  <g id="axes_1">
   <g id="patch_2">
    <path d="M 32.078281 132.669375 
L 107.408281 132.669375 
L 107.408281 21.789375 
L 32.078281 21.789375 
z
" style="fill: #ffffff"/>
   </g>
   <g id="PolyCollection_1">
    <defs>
     <path id="m3f3e44799c" d="M 57.188281 -53.728603 
L 57.081982 -53.728603 
L 57.031813 -54.218025 
L 56.963017 -54.707447 
L 56.870939 -55.196868 
L 56.750605 -55.68629 
L 56.596982 -56.175712 
L 56.405278 -56.665133 
L 56.171266 -57.154555 
L 55.891575 -57.643977 
L 55.563904 -58.133399 
L 55.187127 -58.62282 
L 54.76127 -59.112242 
L 54.287391 -59.601664 
L 53.767393 -60.091085 
L 53.203852 -60.580507 
L 52.599925 -61.069929 
L 51.959387 -61.559351 
L 51.286826 -62.048772 
L 50.58795 -62.538194 
L 49.869952 -63.027616 
L 49.141825 -63.517038 
L 48.414528 -64.006459 
L 47.700932 -64.495881 
L 47.015502 -64.985303 
L 46.373733 -65.474724 
L 45.791403 -65.964146 
L 45.283724 -66.453568 
L 44.864485 -66.94299 
L 44.545278 -67.432411 
L 44.334857 -67.921833 
L 44.23867 -68.411255 
L 44.258577 -68.900676 
L 44.39277 -69.390098 
L 44.635871 -69.87952 
L 44.979236 -70.368942 
L 45.411438 -70.858363 
L 45.918911 -71.347785 
L 46.486721 -71.837207 
L 47.099382 -72.326628 
L 47.741658 -72.81605 
L 48.399263 -73.305472 
L 49.059387 -73.794894 
L 49.711029 -74.284315 
L 50.345132 -74.773737 
L 50.954538 -75.263159 
L 51.533832 -75.75258 
L 52.07913 -76.242002 
L 52.587839 -76.731424 
L 53.058461 -77.220846 
L 53.490417 -77.710267 
L 53.883916 -78.199689 
L 54.239849 -78.689111 
L 54.559691 -79.178533 
L 54.845409 -79.667954 
L 55.099362 -80.157376 
L 55.324191 -80.646798 
L 55.522716 -81.136219 
L 55.69782 -81.625641 
L 55.852351 -82.115063 
L 55.989026 -82.604485 
L 56.110358 -83.093906 
L 56.218597 -83.583328 
L 56.315701 -84.07275 
L 56.403325 -84.562171 
L 56.482835 -85.051593 
L 56.555332 -85.541015 
L 56.621695 -86.030437 
L 56.682616 -86.519858 
L 56.738634 -87.00928 
L 56.790165 -87.498702 
L 56.837522 -87.988123 
L 56.880931 -88.477545 
L 56.92055 -88.966967 
L 56.956486 -89.456389 
L 56.988818 -89.94581 
L 57.017627 -90.435232 
L 57.043014 -90.924654 
L 57.065125 -91.414075 
L 57.08416 -91.903497 
L 57.100372 -92.392919 
L 57.114061 -92.882341 
L 57.125553 -93.371762 
L 57.13518 -93.861184 
L 57.143256 -94.350606 
L 57.150059 -94.840028 
L 57.155824 -95.329449 
L 57.160736 -95.818871 
L 57.164935 -96.308293 
L 57.168526 -96.797714 
L 57.171588 -97.287136 
L 57.174187 -97.776558 
L 57.176382 -98.26598 
L 57.17823 -98.755401 
L 57.179786 -99.244823 
L 57.181103 -99.734245 
L 57.18223 -100.223666 
L 57.183205 -100.713088 
L 57.184059 -101.20251 
L 57.184813 -101.691932 
L 57.185476 -102.181353 
L 57.186056 -102.670775 
L 57.188281 -102.670775 
L 57.188281 -102.670775 
L 57.188281 -102.181353 
L 57.188281 -101.691932 
L 57.188281 -101.20251 
L 57.188281 -100.713088 
L 57.188281 -100.223666 
L 57.188281 -99.734245 
L 57.188281 -99.244823 
L 57.188281 -98.755401 
L 57.188281 -98.26598 
L 57.188281 -97.776558 
L 57.188281 -97.287136 
L 57.188281 -96.797714 
L 57.188281 -96.308293 
L 57.188281 -95.818871 
L 57.188281 -95.329449 
L 57.188281 -94.840028 
L 57.188281 -94.350606 
L 57.188281 -93.861184 
L 57.188281 -93.371762 
L 57.188281 -92.882341 
L 57.188281 -92.392919 
L 57.188281 -91.903497 
L 57.188281 -91.414075 
L 57.188281 -90.924654 
L 57.188281 -90.435232 
L 57.188281 -89.94581 
L 57.188281 -89.456389 
L 57.188281 -88.966967 
L 57.188281 -88.477545 
L 57.188281 -87.988123 
L 57.188281 -87.498702 
L 57.188281 -87.00928 
L 57.188281 -86.519858 
L 57.188281 -86.030437 
L 57.188281 -85.541015 
L 57.188281 -85.051593 
L 57.188281 -84.562171 
L 57.188281 -84.07275 
L 57.188281 -83.583328 
L 57.188281 -83.093906 
L 57.188281 -82.604485 
L 57.188281 -82.115063 
L 57.188281 -81.625641 
L 57.188281 -81.136219 
L 57.188281 -80.646798 
L 57.188281 -80.157376 
L 57.188281 -79.667954 
L 57.188281 -79.178533 
L 57.188281 -78.689111 
L 57.188281 -78.199689 
L 57.188281 -77.710267 
L 57.188281 -77.220846 
L 57.188281 -76.731424 
L 57.188281 -76.242002 
L 57.188281 -75.75258 
L 57.188281 -75.263159 
L 57.188281 -74.773737 
L 57.188281 -74.284315 
L 57.188281 -73.794894 
L 57.188281 -73.305472 
L 57.188281 -72.81605 
L 57.188281 -72.326628 
L 57.188281 -71.837207 
L 57.188281 -71.347785 
L 57.188281 -70.858363 
L 57.188281 -70.368942 
L 57.188281 -69.87952 
L 57.188281 -69.390098 
L 57.188281 -68.900676 
L 57.188281 -68.411255 
L 57.188281 -67.921833 
L 57.188281 -67.432411 
L 57.188281 -66.94299 
L 57.188281 -66.453568 
L 57.188281 -65.964146 
L 57.188281 -65.474724 
L 57.188281 -64.985303 
L 57.188281 -64.495881 
L 57.188281 -64.006459 
L 57.188281 -63.517038 
L 57.188281 -63.027616 
L 57.188281 -62.538194 
L 57.188281 -62.048772 
L 57.188281 -61.559351 
L 57.188281 -61.069929 
L 57.188281 -60.580507 
L 57.188281 -60.091085 
L 57.188281 -59.601664 
L 57.188281 -59.112242 
L 57.188281 -58.62282 
L 57.188281 -58.133399 
L 57.188281 -57.643977 
L 57.188281 -57.154555 
L 57.188281 -56.665133 
L 57.188281 -56.175712 
L 57.188281 -55.68629 
L 57.188281 -55.196868 
L 57.188281 -54.707447 
L 57.188281 -54.218025 
L 57.188281 -53.728603 
z
" style="stroke: #000000; stroke-opacity: 0.8"/>
    </defs>
    <g clip-path="url(#pda151f9383)">
     <use xlink:href="#m3f3e44799c" x="0" y="168.403594" style="fill: #bdbdbb; fill-opacity: 0.8; stroke: #000000; stroke-opacity: 0.8"/>
    </g>
   </g>
   <g id="PolyCollection_2">
    <defs>
     <path id="m437fb7017e" d="M 57.188281 -51.021492 
L 57.283203 -51.021492 
L 57.336015 -51.456394 
L 57.412494 -51.891296 
L 57.520329 -52.326198 
L 57.668484 -52.761101 
L 57.866972 -53.196003 
L 58.126483 -53.630905 
L 58.457857 -54.065807 
L 58.87141 -54.500709 
L 59.376145 -54.935612 
L 59.978874 -55.370514 
L 60.683287 -55.805416 
L 61.489048 -56.240318 
L 62.390998 -56.675221 
L 63.378568 -57.110123 
L 64.435545 -57.545025 
L 65.540288 -57.979927 
L 66.666457 -58.414829 
L 67.784266 -58.849732 
L 68.862147 -59.284634 
L 69.868678 -59.719536 
L 70.774544 -60.154438 
L 71.554309 -60.58934 
L 72.187827 -61.024243 
L 72.661154 -61.459145 
L 72.966921 -61.894047 
L 73.104186 -62.328949 
L 73.077832 -62.763852 
L 72.897639 -63.198754 
L 72.577141 -63.633656 
L 72.132431 -64.068558 
L 71.581047 -64.50346 
L 70.941045 -64.938363 
L 70.230326 -65.373265 
L 69.466227 -65.808167 
L 68.665311 -66.243069 
L 67.84328 -66.677972 
L 67.014905 -67.112874 
L 66.193894 -67.547776 
L 65.392673 -67.982678 
L 64.62209 -68.41758 
L 63.8911 -68.852483 
L 63.206515 -69.287385 
L 62.57288 -69.722287 
L 61.992511 -70.157189 
L 61.465704 -70.592092 
L 60.99108 -71.026994 
L 60.565996 -71.461896 
L 60.186977 -71.896798 
L 59.850096 -72.3317 
L 59.55128 -72.766603 
L 59.286522 -73.201505 
L 59.052018 -73.636407 
L 58.844239 -74.071309 
L 58.65998 -74.506212 
L 58.496374 -74.941114 
L 58.350912 -75.376016 
L 58.221438 -75.810918 
L 58.106126 -76.24582 
L 58.003443 -76.680723 
L 57.912082 -77.115625 
L 57.830893 -77.550527 
L 57.758817 -77.985429 
L 57.694846 -78.420332 
L 57.637999 -78.855234 
L 57.587338 -79.290136 
L 57.541999 -79.725038 
L 57.501233 -80.15994 
L 57.464436 -80.594843 
L 57.431168 -81.029745 
L 57.401143 -81.464647 
L 57.374196 -81.899549 
L 57.350237 -82.334451 
L 57.329199 -82.769354 
L 57.310985 -83.204256 
L 57.295432 -83.639158 
L 57.282295 -84.07406 
L 57.271253 -84.508963 
L 57.26193 -84.943865 
L 57.253939 -85.378767 
L 57.246918 -85.813669 
L 57.240569 -86.248571 
L 57.234684 -86.683474 
L 57.229145 -87.118376 
L 57.223922 -87.553278 
L 57.21904 -87.98818 
L 57.214558 -88.423083 
L 57.210537 -88.857985 
L 57.207018 -89.292887 
L 57.204013 -89.727789 
L 57.201498 -90.162691 
L 57.199421 -90.597594 
L 57.197712 -91.032496 
L 57.196294 -91.467398 
L 57.195097 -91.9023 
L 57.19406 -92.337203 
L 57.193141 -92.772105 
L 57.192314 -93.207007 
L 57.191567 -93.641909 
L 57.190899 -94.076811 
L 57.190313 -94.511714 
L 57.188281 -94.511714 
L 57.188281 -94.511714 
L 57.188281 -94.076811 
L 57.188281 -93.641909 
L 57.188281 -93.207007 
L 57.188281 -92.772105 
L 57.188281 -92.337203 
L 57.188281 -91.9023 
L 57.188281 -91.467398 
L 57.188281 -91.032496 
L 57.188281 -90.597594 
L 57.188281 -90.162691 
L 57.188281 -89.727789 
L 57.188281 -89.292887 
L 57.188281 -88.857985 
L 57.188281 -88.423083 
L 57.188281 -87.98818 
L 57.188281 -87.553278 
L 57.188281 -87.118376 
L 57.188281 -86.683474 
L 57.188281 -86.248571 
L 57.188281 -85.813669 
L 57.188281 -85.378767 
L 57.188281 -84.943865 
L 57.188281 -84.508963 
L 57.188281 -84.07406 
L 57.188281 -83.639158 
L 57.188281 -83.204256 
L 57.188281 -82.769354 
L 57.188281 -82.334451 
L 57.188281 -81.899549 
L 57.188281 -81.464647 
L 57.188281 -81.029745 
L 57.188281 -80.594843 
L 57.188281 -80.15994 
L 57.188281 -79.725038 
L 57.188281 -79.290136 
L 57.188281 -78.855234 
L 57.188281 -78.420332 
L 57.188281 -77.985429 
L 57.188281 -77.550527 
L 57.188281 -77.115625 
L 57.188281 -76.680723 
L 57.188281 -76.24582 
L 57.188281 -75.810918 
L 57.188281 -75.376016 
L 57.188281 -74.941114 
L 57.188281 -74.506212 
L 57.188281 -74.071309 
L 57.188281 -73.636407 
L 57.188281 -73.201505 
L 57.188281 -72.766603 
L 57.188281 -72.3317 
L 57.188281 -71.896798 
L 57.188281 -71.461896 
L 57.188281 -71.026994 
L 57.188281 -70.592092 
L 57.188281 -70.157189 
L 57.188281 -69.722287 
L 57.188281 -69.287385 
L 57.188281 -68.852483 
L 57.188281 -68.41758 
L 57.188281 -67.982678 
L 57.188281 -67.547776 
L 57.188281 -67.112874 
L 57.188281 -66.677972 
L 57.188281 -66.243069 
L 57.188281 -65.808167 
L 57.188281 -65.373265 
L 57.188281 -64.938363 
L 57.188281 -64.50346 
L 57.188281 -64.068558 
L 57.188281 -63.633656 
L 57.188281 -63.198754 
L 57.188281 -62.763852 
L 57.188281 -62.328949 
L 57.188281 -61.894047 
L 57.188281 -61.459145 
L 57.188281 -61.024243 
L 57.188281 -60.58934 
L 57.188281 -60.154438 
L 57.188281 -59.719536 
L 57.188281 -59.284634 
L 57.188281 -58.849732 
L 57.188281 -58.414829 
L 57.188281 -57.979927 
L 57.188281 -57.545025 
L 57.188281 -57.110123 
L 57.188281 -56.675221 
L 57.188281 -56.240318 
L 57.188281 -55.805416 
L 57.188281 -55.370514 
L 57.188281 -54.935612 
L 57.188281 -54.500709 
L 57.188281 -54.065807 
L 57.188281 -53.630905 
L 57.188281 -53.196003 
L 57.188281 -52.761101 
L 57.188281 -52.326198 
L 57.188281 -51.891296 
L 57.188281 -51.456394 
L 57.188281 -51.021492 
z
" style="stroke: #000000; stroke-opacity: 0.8"/>
    </defs>
    <g clip-path="url(#pda151f9383)">
     <use xlink:href="#m437fb7017e" x="0" y="168.403594" style="fill: #ff812f; fill-opacity: 0.8; stroke: #000000; stroke-opacity: 0.8"/>
    </g>
   </g>
   <g id="PolyCollection_3">
    <defs>
     <path id="m5d24539170" d="M 82.298281 -49.221344 
L 82.215784 -49.221344 
L 82.19425 -50.158745 
L 82.168512 -51.096146 
L 82.138055 -52.033548 
L 82.102347 -52.970949 
L 82.060837 -53.90835 
L 82.01296 -54.845751 
L 81.958142 -55.783152 
L 81.895813 -56.720554 
L 81.825427 -57.657955 
L 81.746484 -58.595356 
L 81.658565 -59.532757 
L 81.561372 -60.470159 
L 81.454765 -61.40756 
L 81.338803 -62.344961 
L 81.213768 -63.282362 
L 81.080176 -64.219763 
L 80.938767 -65.157165 
L 80.790467 -66.094566 
L 80.636323 -67.031967 
L 80.477424 -67.969368 
L 80.314797 -68.90677 
L 80.149322 -69.844171 
L 79.981646 -70.781572 
L 79.812151 -71.718973 
L 79.64095 -72.656374 
L 79.467957 -73.593776 
L 79.293009 -74.531177 
L 79.116031 -75.468578 
L 78.937242 -76.405979 
L 78.757354 -77.34338 
L 78.577751 -78.280782 
L 78.400596 -79.218183 
L 78.228865 -80.155584 
L 78.066257 -81.092985 
L 77.917007 -82.030387 
L 77.785599 -82.967788 
L 77.676398 -83.905189 
L 77.593261 -84.84259 
L 77.539158 -85.779991 
L 77.515851 -86.717393 
L 77.523682 -87.654794 
L 77.561486 -88.592195 
L 77.626658 -89.529596 
L 77.715349 -90.466998 
L 77.822793 -91.404399 
L 77.943703 -92.3418 
L 78.072716 -93.279201 
L 78.204822 -94.216602 
L 78.335737 -95.154004 
L 78.462194 -96.091405 
L 78.582116 -97.028806 
L 78.694668 -97.966207 
L 78.80019 -98.903608 
L 78.900028 -99.84101 
L 78.996292 -100.778411 
L 79.091554 -101.715812 
L 79.188543 -102.653213 
L 79.289843 -103.590615 
L 79.397637 -104.528016 
L 79.513507 -105.465417 
L 79.638304 -106.402818 
L 79.7721 -107.340219 
L 79.914203 -108.277621 
L 80.063253 -109.215022 
L 80.217349 -110.152423 
L 80.374225 -111.089824 
L 80.531435 -112.027226 
L 80.686531 -112.964627 
L 80.837227 -113.902028 
L 80.981531 -114.839429 
L 81.117834 -115.77683 
L 81.244966 -116.714232 
L 81.362197 -117.651633 
L 81.469222 -118.589034 
L 81.566101 -119.526435 
L 81.653194 -120.463837 
L 81.731083 -121.401238 
L 81.800488 -122.338639 
L 81.862204 -123.27604 
L 81.917031 -124.213441 
L 81.965739 -125.150843 
L 82.00903 -126.088244 
L 82.047522 -127.025645 
L 82.081746 -127.963046 
L 82.112153 -128.900447 
L 82.139118 -129.837849 
L 82.162957 -130.77525 
L 82.183945 -131.712651 
L 82.202321 -132.650052 
L 82.218307 -133.587454 
L 82.232114 -134.524855 
L 82.243942 -135.462256 
L 82.253991 -136.399657 
L 82.262454 -137.337058 
L 82.269518 -138.27446 
L 82.275362 -139.211861 
L 82.280155 -140.149262 
L 82.284053 -141.086663 
L 82.287196 -142.024065 
L 82.289711 -142.961466 
L 82.298281 -142.961466 
L 82.298281 -142.961466 
L 82.298281 -142.024065 
L 82.298281 -141.086663 
L 82.298281 -140.149262 
L 82.298281 -139.211861 
L 82.298281 -138.27446 
L 82.298281 -137.337058 
L 82.298281 -136.399657 
L 82.298281 -135.462256 
L 82.298281 -134.524855 
L 82.298281 -133.587454 
L 82.298281 -132.650052 
L 82.298281 -131.712651 
L 82.298281 -130.77525 
L 82.298281 -129.837849 
L 82.298281 -128.900447 
L 82.298281 -127.963046 
L 82.298281 -127.025645 
L 82.298281 -126.088244 
L 82.298281 -125.150843 
L 82.298281 -124.213441 
L 82.298281 -123.27604 
L 82.298281 -122.338639 
L 82.298281 -121.401238 
L 82.298281 -120.463837 
L 82.298281 -119.526435 
L 82.298281 -118.589034 
L 82.298281 -117.651633 
L 82.298281 -116.714232 
L 82.298281 -115.77683 
L 82.298281 -114.839429 
L 82.298281 -113.902028 
L 82.298281 -112.964627 
L 82.298281 -112.027226 
L 82.298281 -111.089824 
L 82.298281 -110.152423 
L 82.298281 -109.215022 
L 82.298281 -108.277621 
L 82.298281 -107.340219 
L 82.298281 -106.402818 
L 82.298281 -105.465417 
L 82.298281 -104.528016 
L 82.298281 -103.590615 
L 82.298281 -102.653213 
L 82.298281 -101.715812 
L 82.298281 -100.778411 
L 82.298281 -99.84101 
L 82.298281 -98.903608 
L 82.298281 -97.966207 
L 82.298281 -97.028806 
L 82.298281 -96.091405 
L 82.298281 -95.154004 
L 82.298281 -94.216602 
L 82.298281 -93.279201 
L 82.298281 -92.3418 
L 82.298281 -91.404399 
L 82.298281 -90.466998 
L 82.298281 -89.529596 
L 82.298281 -88.592195 
L 82.298281 -87.654794 
L 82.298281 -86.717393 
L 82.298281 -85.779991 
L 82.298281 -84.84259 
L 82.298281 -83.905189 
L 82.298281 -82.967788 
L 82.298281 -82.030387 
L 82.298281 -81.092985 
L 82.298281 -80.155584 
L 82.298281 -79.218183 
L 82.298281 -78.280782 
L 82.298281 -77.34338 
L 82.298281 -76.405979 
L 82.298281 -75.468578 
L 82.298281 -74.531177 
L 82.298281 -73.593776 
L 82.298281 -72.656374 
L 82.298281 -71.718973 
L 82.298281 -70.781572 
L 82.298281 -69.844171 
L 82.298281 -68.90677 
L 82.298281 -67.969368 
L 82.298281 -67.031967 
L 82.298281 -66.094566 
L 82.298281 -65.157165 
L 82.298281 -64.219763 
L 82.298281 -63.282362 
L 82.298281 -62.344961 
L 82.298281 -61.40756 
L 82.298281 -60.470159 
L 82.298281 -59.532757 
L 82.298281 -58.595356 
L 82.298281 -57.657955 
L 82.298281 -56.720554 
L 82.298281 -55.783152 
L 82.298281 -54.845751 
L 82.298281 -53.90835 
L 82.298281 -52.970949 
L 82.298281 -52.033548 
L 82.298281 -51.096146 
L 82.298281 -50.158745 
L 82.298281 -49.221344 
z
" style="stroke: #000000; stroke-opacity: 0.8"/>
    </defs>
    <g clip-path="url(#pda151f9383)">
     <use xlink:href="#m5d24539170" x="0" y="168.403594" style="fill: #bdbdbb; fill-opacity: 0.8; stroke: #000000; stroke-opacity: 0.8"/>
    </g>
   </g>
   <g id="PolyCollection_4">
    <defs>
     <path id="m85736b8735" d="M 82.298281 -44.415523 
L 82.831059 -44.415523 
L 83.071053 -44.721592 
L 83.393042 -45.027661 
L 83.813624 -45.33373 
L 84.348504 -45.639799 
L 85.010854 -45.945869 
L 85.809521 -46.251938 
L 86.747316 -46.558007 
L 87.81961 -46.864076 
L 89.01349 -47.170145 
L 90.307665 -47.476214 
L 91.673191 -47.782283 
L 93.075004 -48.088352 
L 94.474103 -48.394421 
L 95.830127 -48.70049 
L 97.104036 -49.006559 
L 98.260586 -49.312628 
L 99.270346 -49.618697 
L 100.111091 -49.924766 
L 100.768517 -50.230835 
L 101.236298 -50.536904 
L 101.515601 -50.842974 
L 101.614195 -51.149043 
L 101.545319 -51.455112 
L 101.326415 -51.761181 
L 100.97786 -52.06725 
L 100.521725 -52.373319 
L 99.98063 -52.679388 
L 99.376693 -52.985457 
L 98.730609 -53.291526 
L 98.060861 -53.597595 
L 97.383116 -53.903664 
L 96.709803 -54.209733 
L 96.049921 -54.515802 
L 95.40908 -54.821871 
L 94.789764 -55.12794 
L 94.191788 -55.434009 
L 93.612922 -55.740079 
L 93.049588 -56.046148 
L 92.497593 -56.352217 
L 91.95281 -56.658286 
L 91.411764 -56.964355 
L 90.872053 -57.270424 
L 90.332611 -57.576493 
L 89.793771 -57.882562 
L 89.257174 -58.188631 
L 88.725542 -58.4947 
L 88.202357 -58.800769 
L 87.691514 -59.106838 
L 87.196971 -59.412907 
L 86.722459 -59.718976 
L 86.271251 -60.025045 
L 85.846021 -60.331114 
L 85.448767 -60.637184 
L 85.080802 -60.943253 
L 84.742791 -61.249322 
L 84.434806 -61.555391 
L 84.156398 -61.86146 
L 83.906682 -62.167529 
L 83.6844 -62.473598 
L 83.488004 -62.779667 
L 83.315719 -63.085736 
L 83.165607 -63.391805 
L 83.035634 -63.697874 
L 82.923727 -64.003943 
L 82.827831 -64.310012 
L 82.745962 -64.616081 
L 82.67625 -64.92215 
L 82.616975 -65.228219 
L 82.566599 -65.534289 
L 82.523773 -65.840358 
L 82.487347 -66.146427 
L 82.456356 -66.452496 
L 82.430004 -66.758565 
L 82.407639 -67.064634 
L 82.388725 -67.370703 
L 82.372816 -67.676772 
L 82.35953 -67.982841 
L 82.34853 -68.28891 
L 82.339511 -68.594979 
L 82.332189 -68.901048 
L 82.326301 -69.207117 
L 82.321604 -69.513186 
L 82.317874 -69.819255 
L 82.314915 -70.125324 
L 82.312556 -70.431394 
L 82.310655 -70.737463 
L 82.309098 -71.043532 
L 82.307797 -71.349601 
L 82.306685 -71.65567 
L 82.305716 -71.961739 
L 82.304854 -72.267808 
L 82.304078 -72.573877 
L 82.303371 -72.879946 
L 82.30272 -73.186015 
L 82.30212 -73.492084 
L 82.301566 -73.798153 
L 82.301056 -74.104222 
L 82.30059 -74.410291 
L 82.30017 -74.71636 
L 82.299796 -75.022429 
L 82.298281 -75.022429 
L 82.298281 -75.022429 
L 82.298281 -74.71636 
L 82.298281 -74.410291 
L 82.298281 -74.104222 
L 82.298281 -73.798153 
L 82.298281 -73.492084 
L 82.298281 -73.186015 
L 82.298281 -72.879946 
L 82.298281 -72.573877 
L 82.298281 -72.267808 
L 82.298281 -71.961739 
L 82.298281 -71.65567 
L 82.298281 -71.349601 
L 82.298281 -71.043532 
L 82.298281 -70.737463 
L 82.298281 -70.431394 
L 82.298281 -70.125324 
L 82.298281 -69.819255 
L 82.298281 -69.513186 
L 82.298281 -69.207117 
L 82.298281 -68.901048 
L 82.298281 -68.594979 
L 82.298281 -68.28891 
L 82.298281 -67.982841 
L 82.298281 -67.676772 
L 82.298281 -67.370703 
L 82.298281 -67.064634 
L 82.298281 -66.758565 
L 82.298281 -66.452496 
L 82.298281 -66.146427 
L 82.298281 -65.840358 
L 82.298281 -65.534289 
L 82.298281 -65.228219 
L 82.298281 -64.92215 
L 82.298281 -64.616081 
L 82.298281 -64.310012 
L 82.298281 -64.003943 
L 82.298281 -63.697874 
L 82.298281 -63.391805 
L 82.298281 -63.085736 
L 82.298281 -62.779667 
L 82.298281 -62.473598 
L 82.298281 -62.167529 
L 82.298281 -61.86146 
L 82.298281 -61.555391 
L 82.298281 -61.249322 
L 82.298281 -60.943253 
L 82.298281 -60.637184 
L 82.298281 -60.331114 
L 82.298281 -60.025045 
L 82.298281 -59.718976 
L 82.298281 -59.412907 
L 82.298281 -59.106838 
L 82.298281 -58.800769 
L 82.298281 -58.4947 
L 82.298281 -58.188631 
L 82.298281 -57.882562 
L 82.298281 -57.576493 
L 82.298281 -57.270424 
L 82.298281 -56.964355 
L 82.298281 -56.658286 
L 82.298281 -56.352217 
L 82.298281 -56.046148 
L 82.298281 -55.740079 
L 82.298281 -55.434009 
L 82.298281 -55.12794 
L 82.298281 -54.821871 
L 82.298281 -54.515802 
L 82.298281 -54.209733 
L 82.298281 -53.903664 
L 82.298281 -53.597595 
L 82.298281 -53.291526 
L 82.298281 -52.985457 
L 82.298281 -52.679388 
L 82.298281 -52.373319 
L 82.298281 -52.06725 
L 82.298281 -51.761181 
L 82.298281 -51.455112 
L 82.298281 -51.149043 
L 82.298281 -50.842974 
L 82.298281 -50.536904 
L 82.298281 -50.230835 
L 82.298281 -49.924766 
L 82.298281 -49.618697 
L 82.298281 -49.312628 
L 82.298281 -49.006559 
L 82.298281 -48.70049 
L 82.298281 -48.394421 
L 82.298281 -48.088352 
L 82.298281 -47.782283 
L 82.298281 -47.476214 
L 82.298281 -47.170145 
L 82.298281 -46.864076 
L 82.298281 -46.558007 
L 82.298281 -46.251938 
L 82.298281 -45.945869 
L 82.298281 -45.639799 
L 82.298281 -45.33373 
L 82.298281 -45.027661 
L 82.298281 -44.721592 
L 82.298281 -44.415523 
z
" style="stroke: #000000; stroke-opacity: 0.8"/>
    </defs>
    <g clip-path="url(#pda151f9383)">
     <use xlink:href="#m85736b8735" x="0" y="168.403594" style="fill: #ff812f; fill-opacity: 0.8; stroke: #000000; stroke-opacity: 0.8"/>
    </g>
   </g>
   <g id="matplotlib.axis_1">
    <g id="xtick_1">
     <g id="line2d_1">
      <defs>
       <path id="m9c2cbba686" d="M 0 0 
L 0 -5 
" style="stroke: #000000"/>
      </defs>
      <g>
       <use xlink:href="#m9c2cbba686" x="57.188281" y="132.669375" style="stroke: #000000"/>
      </g>
     </g>
     <g id="text_1">
      <!-- Fast -->
      <g transform="translate(46.4925 144.042969) scale(0.11 -0.11)">
       <defs>
        <path id="ArialMT-46" d="M 525 0 
L 525 4581 
L 3616 4581 
L 3616 4041 
L 1131 4041 
L 1131 2622 
L 3281 2622 
L 3281 2081 
L 1131 2081 
L 1131 0 
L 525 0 
z
" transform="scale(0.015625)"/>
        <path id="ArialMT-61" d="M 2588 409 
Q 2275 144 1986 34 
Q 1697 -75 1366 -75 
Q 819 -75 525 192 
Q 231 459 231 875 
Q 231 1119 342 1320 
Q 453 1522 633 1644 
Q 813 1766 1038 1828 
Q 1203 1872 1538 1913 
Q 2219 1994 2541 2106 
Q 2544 2222 2544 2253 
Q 2544 2597 2384 2738 
Q 2169 2928 1744 2928 
Q 1347 2928 1158 2789 
Q 969 2650 878 2297 
L 328 2372 
Q 403 2725 575 2942 
Q 747 3159 1072 3276 
Q 1397 3394 1825 3394 
Q 2250 3394 2515 3294 
Q 2781 3194 2906 3042 
Q 3031 2891 3081 2659 
Q 3109 2516 3109 2141 
L 3109 1391 
Q 3109 606 3145 398 
Q 3181 191 3288 0 
L 2700 0 
Q 2613 175 2588 409 
z
M 2541 1666 
Q 2234 1541 1622 1453 
Q 1275 1403 1131 1340 
Q 988 1278 909 1158 
Q 831 1038 831 891 
Q 831 666 1001 516 
Q 1172 366 1500 366 
Q 1825 366 2078 508 
Q 2331 650 2450 897 
Q 2541 1088 2541 1459 
L 2541 1666 
z
" transform="scale(0.015625)"/>
        <path id="ArialMT-73" d="M 197 991 
L 753 1078 
Q 800 744 1014 566 
Q 1228 388 1613 388 
Q 2000 388 2187 545 
Q 2375 703 2375 916 
Q 2375 1106 2209 1216 
Q 2094 1291 1634 1406 
Q 1016 1563 777 1677 
Q 538 1791 414 1992 
Q 291 2194 291 2438 
Q 291 2659 392 2848 
Q 494 3038 669 3163 
Q 800 3259 1026 3326 
Q 1253 3394 1513 3394 
Q 1903 3394 2198 3281 
Q 2494 3169 2634 2976 
Q 2775 2784 2828 2463 
L 2278 2388 
Q 2241 2644 2061 2787 
Q 1881 2931 1553 2931 
Q 1166 2931 1000 2803 
Q 834 2675 834 2503 
Q 834 2394 903 2306 
Q 972 2216 1119 2156 
Q 1203 2125 1616 2013 
Q 2213 1853 2448 1751 
Q 2684 1650 2818 1456 
Q 2953 1263 2953 975 
Q 2953 694 2789 445 
Q 2625 197 2315 61 
Q 2006 -75 1616 -75 
Q 969 -75 630 194 
Q 291 463 197 991 
z
" transform="scale(0.015625)"/>
        <path id="ArialMT-74" d="M 1650 503 
L 1731 6 
Q 1494 -44 1306 -44 
Q 1000 -44 831 53 
Q 663 150 594 308 
Q 525 466 525 972 
L 525 2881 
L 113 2881 
L 113 3319 
L 525 3319 
L 525 4141 
L 1084 4478 
L 1084 3319 
L 1650 3319 
L 1650 2881 
L 1084 2881 
L 1084 941 
Q 1084 700 1114 631 
Q 1144 563 1211 522 
Q 1278 481 1403 481 
Q 1497 481 1650 503 
z
" transform="scale(0.015625)"/>
       </defs>
       <use xlink:href="#ArialMT-46"/>
       <use xlink:href="#ArialMT-61" x="61.083984"/>
       <use xlink:href="#ArialMT-73" x="116.699219"/>
       <use xlink:href="#ArialMT-74" x="166.699219"/>
      </g>
     </g>
    </g>
    <g id="xtick_2">
     <g id="line2d_2">
      <g>
       <use xlink:href="#m9c2cbba686" x="82.298281" y="132.669375" style="stroke: #000000"/>
      </g>
     </g>
     <g id="text_2">
      <!-- Slow -->
      <g transform="translate(70.377031 144.042969) scale(0.11 -0.11)">
       <defs>
        <path id="ArialMT-53" d="M 288 1472 
L 859 1522 
Q 900 1178 1048 958 
Q 1197 738 1509 602 
Q 1822 466 2213 466 
Q 2559 466 2825 569 
Q 3091 672 3220 851 
Q 3350 1031 3350 1244 
Q 3350 1459 3225 1620 
Q 3100 1781 2813 1891 
Q 2628 1963 1997 2114 
Q 1366 2266 1113 2400 
Q 784 2572 623 2826 
Q 463 3081 463 3397 
Q 463 3744 659 4045 
Q 856 4347 1234 4503 
Q 1613 4659 2075 4659 
Q 2584 4659 2973 4495 
Q 3363 4331 3572 4012 
Q 3781 3694 3797 3291 
L 3216 3247 
Q 3169 3681 2898 3903 
Q 2628 4125 2100 4125 
Q 1550 4125 1298 3923 
Q 1047 3722 1047 3438 
Q 1047 3191 1225 3031 
Q 1400 2872 2139 2705 
Q 2878 2538 3153 2413 
Q 3553 2228 3743 1945 
Q 3934 1663 3934 1294 
Q 3934 928 3725 604 
Q 3516 281 3123 101 
Q 2731 -78 2241 -78 
Q 1619 -78 1198 103 
Q 778 284 539 648 
Q 300 1013 288 1472 
z
" transform="scale(0.015625)"/>
        <path id="ArialMT-6c" d="M 409 0 
L 409 4581 
L 972 4581 
L 972 0 
L 409 0 
z
" transform="scale(0.015625)"/>
        <path id="ArialMT-6f" d="M 213 1659 
Q 213 2581 725 3025 
Q 1153 3394 1769 3394 
Q 2453 3394 2887 2945 
Q 3322 2497 3322 1706 
Q 3322 1066 3130 698 
Q 2938 331 2570 128 
Q 2203 -75 1769 -75 
Q 1072 -75 642 372 
Q 213 819 213 1659 
z
M 791 1659 
Q 791 1022 1069 705 
Q 1347 388 1769 388 
Q 2188 388 2466 706 
Q 2744 1025 2744 1678 
Q 2744 2294 2464 2611 
Q 2184 2928 1769 2928 
Q 1347 2928 1069 2612 
Q 791 2297 791 1659 
z
" transform="scale(0.015625)"/>
        <path id="ArialMT-77" d="M 1034 0 
L 19 3319 
L 600 3319 
L 1128 1403 
L 1325 691 
Q 1338 744 1497 1375 
L 2025 3319 
L 2603 3319 
L 3100 1394 
L 3266 759 
L 3456 1400 
L 4025 3319 
L 4572 3319 
L 3534 0 
L 2950 0 
L 2422 1988 
L 2294 2553 
L 1622 0 
L 1034 0 
z
" transform="scale(0.015625)"/>
       </defs>
       <use xlink:href="#ArialMT-53"/>
       <use xlink:href="#ArialMT-6c" x="66.699219"/>
       <use xlink:href="#ArialMT-6f" x="88.916016"/>
       <use xlink:href="#ArialMT-77" x="144.53125"/>
      </g>
     </g>
    </g>
    <g id="text_3">
     <!-- Population -->
     <g transform="translate(41.388594 158.818594) scale(0.12 -0.12)">
      <defs>
       <path id="ArialMT-50" d="M 494 0 
L 494 4581 
L 2222 4581 
Q 2678 4581 2919 4538 
Q 3256 4481 3484 4323 
Q 3713 4166 3852 3881 
Q 3991 3597 3991 3256 
Q 3991 2672 3619 2267 
Q 3247 1863 2275 1863 
L 1100 1863 
L 1100 0 
L 494 0 
z
M 1100 2403 
L 2284 2403 
Q 2872 2403 3119 2622 
Q 3366 2841 3366 3238 
Q 3366 3525 3220 3729 
Q 3075 3934 2838 4000 
Q 2684 4041 2272 4041 
L 1100 4041 
L 1100 2403 
z
" transform="scale(0.015625)"/>
       <path id="ArialMT-70" d="M 422 -1272 
L 422 3319 
L 934 3319 
L 934 2888 
Q 1116 3141 1344 3267 
Q 1572 3394 1897 3394 
Q 2322 3394 2647 3175 
Q 2972 2956 3137 2557 
Q 3303 2159 3303 1684 
Q 3303 1175 3120 767 
Q 2938 359 2589 142 
Q 2241 -75 1856 -75 
Q 1575 -75 1351 44 
Q 1128 163 984 344 
L 984 -1272 
L 422 -1272 
z
M 931 1641 
Q 931 1000 1190 694 
Q 1450 388 1819 388 
Q 2194 388 2461 705 
Q 2728 1022 2728 1688 
Q 2728 2322 2467 2637 
Q 2206 2953 1844 2953 
Q 1484 2953 1207 2617 
Q 931 2281 931 1641 
z
" transform="scale(0.015625)"/>
       <path id="ArialMT-75" d="M 2597 0 
L 2597 488 
Q 2209 -75 1544 -75 
Q 1250 -75 995 37 
Q 741 150 617 320 
Q 494 491 444 738 
Q 409 903 409 1263 
L 409 3319 
L 972 3319 
L 972 1478 
Q 972 1038 1006 884 
Q 1059 663 1231 536 
Q 1403 409 1656 409 
Q 1909 409 2131 539 
Q 2353 669 2445 892 
Q 2538 1116 2538 1541 
L 2538 3319 
L 3100 3319 
L 3100 0 
L 2597 0 
z
" transform="scale(0.015625)"/>
       <path id="ArialMT-69" d="M 425 3934 
L 425 4581 
L 988 4581 
L 988 3934 
L 425 3934 
z
M 425 0 
L 425 3319 
L 988 3319 
L 988 0 
L 425 0 
z
" transform="scale(0.015625)"/>
       <path id="ArialMT-6e" d="M 422 0 
L 422 3319 
L 928 3319 
L 928 2847 
Q 1294 3394 1984 3394 
Q 2284 3394 2536 3286 
Q 2788 3178 2913 3003 
Q 3038 2828 3088 2588 
Q 3119 2431 3119 2041 
L 3119 0 
L 2556 0 
L 2556 2019 
Q 2556 2363 2490 2533 
Q 2425 2703 2258 2804 
Q 2091 2906 1866 2906 
Q 1506 2906 1245 2678 
Q 984 2450 984 1813 
L 984 0 
L 422 0 
z
" transform="scale(0.015625)"/>
      </defs>
      <use xlink:href="#ArialMT-50"/>
      <use xlink:href="#ArialMT-6f" x="66.699219"/>
      <use xlink:href="#ArialMT-70" x="122.314453"/>
      <use xlink:href="#ArialMT-75" x="177.929688"/>
      <use xlink:href="#ArialMT-6c" x="233.544922"/>
      <use xlink:href="#ArialMT-61" x="255.761719"/>
      <use xlink:href="#ArialMT-74" x="311.376953"/>
      <use xlink:href="#ArialMT-69" x="339.160156"/>
      <use xlink:href="#ArialMT-6f" x="361.376953"/>
      <use xlink:href="#ArialMT-6e" x="416.992188"/>
     </g>
    </g>
   </g>
   <g id="matplotlib.axis_2">
    <g id="ytick_1">
     <g id="line2d_3">
      <defs>
       <path id="m2822e7d540" d="M 0 0 
L 5 0 
" style="stroke: #000000"/>
      </defs>
      <g>
       <use xlink:href="#m2822e7d540" x="32.078281" y="129.092601" style="stroke: #000000"/>
      </g>
     </g>
     <g id="text_4">
      <!-- 0 -->
      <g transform="translate(22.46125 133.029398) scale(0.11 -0.11)">
       <defs>
        <path id="ArialMT-30" d="M 266 2259 
Q 266 3072 433 3567 
Q 600 4063 929 4331 
Q 1259 4600 1759 4600 
Q 2128 4600 2406 4451 
Q 2684 4303 2865 4023 
Q 3047 3744 3150 3342 
Q 3253 2941 3253 2259 
Q 3253 1453 3087 958 
Q 2922 463 2592 192 
Q 2263 -78 1759 -78 
Q 1097 -78 719 397 
Q 266 969 266 2259 
z
M 844 2259 
Q 844 1131 1108 757 
Q 1372 384 1759 384 
Q 2147 384 2411 759 
Q 2675 1134 2675 2259 
Q 2675 3391 2411 3762 
Q 2147 4134 1753 4134 
Q 1366 4134 1134 3806 
Q 844 3388 844 2259 
z
" transform="scale(0.015625)"/>
       </defs>
       <use xlink:href="#ArialMT-30"/>
      </g>
     </g>
    </g>
    <g id="ytick_2">
     <g id="line2d_4">
      <g>
       <use xlink:href="#m2822e7d540" x="32.078281" y="93.324859" style="stroke: #000000"/>
      </g>
     </g>
     <g id="text_5">
      <!-- 1 -->
      <g transform="translate(22.46125 97.261656) scale(0.11 -0.11)">
       <defs>
        <path id="ArialMT-31" d="M 2384 0 
L 1822 0 
L 1822 3584 
Q 1619 3391 1289 3197 
Q 959 3003 697 2906 
L 697 3450 
Q 1169 3672 1522 3987 
Q 1875 4303 2022 4600 
L 2384 4600 
L 2384 0 
z
" transform="scale(0.015625)"/>
       </defs>
       <use xlink:href="#ArialMT-31"/>
      </g>
     </g>
    </g>
    <g id="ytick_3">
     <g id="line2d_5">
      <g>
       <use xlink:href="#m2822e7d540" x="32.078281" y="57.557117" style="stroke: #000000"/>
      </g>
     </g>
     <g id="text_6">
      <!-- 2 -->
      <g transform="translate(22.46125 61.493914) scale(0.11 -0.11)">
       <defs>
        <path id="ArialMT-32" d="M 3222 541 
L 3222 0 
L 194 0 
Q 188 203 259 391 
Q 375 700 629 1000 
Q 884 1300 1366 1694 
Q 2113 2306 2375 2664 
Q 2638 3022 2638 3341 
Q 2638 3675 2398 3904 
Q 2159 4134 1775 4134 
Q 1369 4134 1125 3890 
Q 881 3647 878 3216 
L 300 3275 
Q 359 3922 746 4261 
Q 1134 4600 1788 4600 
Q 2447 4600 2831 4234 
Q 3216 3869 3216 3328 
Q 3216 3053 3103 2787 
Q 2991 2522 2730 2228 
Q 2469 1934 1863 1422 
Q 1356 997 1212 845 
Q 1069 694 975 541 
L 3222 541 
z
" transform="scale(0.015625)"/>
       </defs>
       <use xlink:href="#ArialMT-32"/>
      </g>
     </g>
    </g>
    <g id="ytick_4">
     <g id="line2d_6">
      <g>
       <use xlink:href="#m2822e7d540" x="32.078281" y="21.789375" style="stroke: #000000"/>
      </g>
     </g>
     <g id="text_7">
      <!-- 3 -->
      <g transform="translate(22.46125 25.726172) scale(0.11 -0.11)">
       <defs>
        <path id="ArialMT-33" d="M 269 1209 
L 831 1284 
Q 928 806 1161 595 
Q 1394 384 1728 384 
Q 2125 384 2398 659 
Q 2672 934 2672 1341 
Q 2672 1728 2419 1979 
Q 2166 2231 1775 2231 
Q 1616 2231 1378 2169 
L 1441 2663 
Q 1497 2656 1531 2656 
Q 1891 2656 2178 2843 
Q 2466 3031 2466 3422 
Q 2466 3731 2256 3934 
Q 2047 4138 1716 4138 
Q 1388 4138 1169 3931 
Q 950 3725 888 3313 
L 325 3413 
Q 428 3978 793 4289 
Q 1159 4600 1703 4600 
Q 2078 4600 2393 4439 
Q 2709 4278 2876 4000 
Q 3044 3722 3044 3409 
Q 3044 3113 2884 2869 
Q 2725 2625 2413 2481 
Q 2819 2388 3044 2092 
Q 3269 1797 3269 1353 
Q 3269 753 2831 336 
Q 2394 -81 1725 -81 
Q 1122 -81 723 278 
Q 325 638 269 1209 
z
" transform="scale(0.015625)"/>
       </defs>
       <use xlink:href="#ArialMT-33"/>
      </g>
     </g>
    </g>
    <g id="text_8">
     <!-- Power (a.u.) -->
     <g transform="translate(15.935625 109.905) rotate(-90) scale(0.12 -0.12)">
      <defs>
       <path id="ArialMT-65" d="M 2694 1069 
L 3275 997 
Q 3138 488 2766 206 
Q 2394 -75 1816 -75 
Q 1088 -75 661 373 
Q 234 822 234 1631 
Q 234 2469 665 2931 
Q 1097 3394 1784 3394 
Q 2450 3394 2872 2941 
Q 3294 2488 3294 1666 
Q 3294 1616 3291 1516 
L 816 1516 
Q 847 969 1125 678 
Q 1403 388 1819 388 
Q 2128 388 2347 550 
Q 2566 713 2694 1069 
z
M 847 1978 
L 2700 1978 
Q 2663 2397 2488 2606 
Q 2219 2931 1791 2931 
Q 1403 2931 1139 2672 
Q 875 2413 847 1978 
z
" transform="scale(0.015625)"/>
       <path id="ArialMT-72" d="M 416 0 
L 416 3319 
L 922 3319 
L 922 2816 
Q 1116 3169 1280 3281 
Q 1444 3394 1641 3394 
Q 1925 3394 2219 3213 
L 2025 2691 
Q 1819 2813 1613 2813 
Q 1428 2813 1281 2702 
Q 1134 2591 1072 2394 
Q 978 2094 978 1738 
L 978 0 
L 416 0 
z
" transform="scale(0.015625)"/>
       <path id="ArialMT-20" transform="scale(0.015625)"/>
       <path id="ArialMT-28" d="M 1497 -1347 
Q 1031 -759 709 28 
Q 388 816 388 1659 
Q 388 2403 628 3084 
Q 909 3875 1497 4659 
L 1900 4659 
Q 1522 4009 1400 3731 
Q 1209 3300 1100 2831 
Q 966 2247 966 1656 
Q 966 153 1900 -1347 
L 1497 -1347 
z
" transform="scale(0.015625)"/>
       <path id="ArialMT-2e" d="M 581 0 
L 581 641 
L 1222 641 
L 1222 0 
L 581 0 
z
" transform="scale(0.015625)"/>
       <path id="ArialMT-29" d="M 791 -1347 
L 388 -1347 
Q 1322 153 1322 1656 
Q 1322 2244 1188 2822 
Q 1081 3291 891 3722 
Q 769 4003 388 4659 
L 791 4659 
Q 1378 3875 1659 3084 
Q 1900 2403 1900 1659 
Q 1900 816 1576 28 
Q 1253 -759 791 -1347 
z
" transform="scale(0.015625)"/>
      </defs>
      <use xlink:href="#ArialMT-50"/>
      <use xlink:href="#ArialMT-6f" x="66.699219"/>
      <use xlink:href="#ArialMT-77" x="122.314453"/>
      <use xlink:href="#ArialMT-65" x="194.53125"/>
      <use xlink:href="#ArialMT-72" x="250.146484"/>
      <use xlink:href="#ArialMT-20" x="283.447266"/>
      <use xlink:href="#ArialMT-28" x="311.230469"/>
      <use xlink:href="#ArialMT-61" x="344.53125"/>
      <use xlink:href="#ArialMT-2e" x="400.146484"/>
      <use xlink:href="#ArialMT-75" x="427.929688"/>
      <use xlink:href="#ArialMT-2e" x="483.544922"/>
      <use xlink:href="#ArialMT-29" x="511.328125"/>
     </g>
    </g>
   </g>
   <g id="line2d_7">
    <path d="M 57.188281 102.500542 
L 45.860319 102.500542 
" clip-path="url(#pda151f9383)" style="fill: none; stroke-dasharray: 4.44,1.92; stroke-dashoffset: 0; stroke: #000000; stroke-width: 1.2"/>
   </g>
   <g id="line2d_8">
    <path d="M 57.188281 99.395591 
L 44.278355 99.395591 
" clip-path="url(#pda151f9383)" style="fill: none; stroke-dasharray: 4.44,1.92; stroke-dashoffset: 0; stroke: #000000; stroke-width: 1.2"/>
   </g>
   <g id="line2d_9">
    <path d="M 57.188281 95.973233 
L 47.233539 95.973233 
" clip-path="url(#pda151f9383)" style="fill: none; stroke-dasharray: 4.44,1.92; stroke-dashoffset: 0; stroke: #000000; stroke-width: 1.2"/>
   </g>
   <g id="line2d_10">
    <path d="M 57.188281 107.750988 
L 71.655959 107.750988 
" clip-path="url(#pda151f9383)" style="fill: none; stroke-dasharray: 4.44,1.92; stroke-dashoffset: 0; stroke: #000000; stroke-width: 1.2"/>
   </g>
   <g id="line2d_11">
    <path d="M 57.188281 105.290351 
L 72.944621 105.290351 
" clip-path="url(#pda151f9383)" style="fill: none; stroke-dasharray: 4.44,1.92; stroke-dashoffset: 0; stroke: #000000; stroke-width: 1.2"/>
   </g>
   <g id="line2d_12">
    <path d="M 57.188281 102.285009 
L 68.89739 102.285009 
" clip-path="url(#pda151f9383)" style="fill: none; stroke-dasharray: 4.44,1.92; stroke-dashoffset: 0; stroke: #000000; stroke-width: 1.2"/>
   </g>
   <g id="line2d_13">
    <path d="M 82.298281 87.385049 
L 78.078739 87.385049 
" clip-path="url(#pda151f9383)" style="fill: none; stroke-dasharray: 4.44,1.92; stroke-dashoffset: 0; stroke: #000000; stroke-width: 1.2"/>
   </g>
   <g id="line2d_14">
    <path d="M 82.298281 80.293012 
L 77.538449 80.293012 
" clip-path="url(#pda151f9383)" style="fill: none; stroke-dasharray: 4.44,1.92; stroke-dashoffset: 0; stroke: #000000; stroke-width: 1.2"/>
   </g>
   <g id="line2d_15">
    <path d="M 82.298281 68.197446 
L 78.937815 68.197446 
" clip-path="url(#pda151f9383)" style="fill: none; stroke-dasharray: 4.44,1.92; stroke-dashoffset: 0; stroke: #000000; stroke-width: 1.2"/>
   </g>
   <g id="line2d_16">
    <path d="M 82.298281 118.209584 
L 100.699399 118.209584 
" clip-path="url(#pda151f9383)" style="fill: none; stroke-dasharray: 4.44,1.92; stroke-dashoffset: 0; stroke: #000000; stroke-width: 1.2"/>
   </g>
   <g id="line2d_17">
    <path d="M 82.298281 116.162537 
L 100.730585 116.162537 
" clip-path="url(#pda151f9383)" style="fill: none; stroke-dasharray: 4.44,1.92; stroke-dashoffset: 0; stroke: #000000; stroke-width: 1.2"/>
   </g>
   <g id="line2d_18">
    <path d="M 82.298281 113.227811 
L 94.694922 113.227811 
" clip-path="url(#pda151f9383)" style="fill: none; stroke-dasharray: 4.44,1.92; stroke-dashoffset: 0; stroke: #000000; stroke-width: 1.2"/>
   </g>
   <g id="patch_3">
    <path d="M 32.078281 132.669375 
L 32.078281 21.789375 
" style="fill: none; stroke: #000000; stroke-width: 0.8; stroke-linejoin: miter; stroke-linecap: square"/>
   </g>
   <g id="patch_4">
    <path d="M 32.078281 132.669375 
L 107.408281 132.669375 
" style="fill: none; stroke: #000000; stroke-width: 0.8; stroke-linejoin: miter; stroke-linecap: square"/>
   </g>
   <g id="text_9">
    <!-- Burst amplitude -->
    <g transform="translate(28.059219 15.789375) scale(0.12 -0.12)">
     <defs>
      <path id="ArialMT-42" d="M 469 0 
L 469 4581 
L 2188 4581 
Q 2713 4581 3030 4442 
Q 3347 4303 3526 4014 
Q 3706 3725 3706 3409 
Q 3706 3116 3547 2856 
Q 3388 2597 3066 2438 
Q 3481 2316 3704 2022 
Q 3928 1728 3928 1328 
Q 3928 1006 3792 729 
Q 3656 453 3456 303 
Q 3256 153 2954 76 
Q 2653 0 2216 0 
L 469 0 
z
M 1075 2656 
L 2066 2656 
Q 2469 2656 2644 2709 
Q 2875 2778 2992 2937 
Q 3109 3097 3109 3338 
Q 3109 3566 3000 3739 
Q 2891 3913 2687 3977 
Q 2484 4041 1991 4041 
L 1075 4041 
L 1075 2656 
z
M 1075 541 
L 2216 541 
Q 2509 541 2628 563 
Q 2838 600 2978 687 
Q 3119 775 3209 942 
Q 3300 1109 3300 1328 
Q 3300 1584 3169 1773 
Q 3038 1963 2805 2039 
Q 2572 2116 2134 2116 
L 1075 2116 
L 1075 541 
z
" transform="scale(0.015625)"/>
      <path id="ArialMT-6d" d="M 422 0 
L 422 3319 
L 925 3319 
L 925 2853 
Q 1081 3097 1340 3245 
Q 1600 3394 1931 3394 
Q 2300 3394 2536 3241 
Q 2772 3088 2869 2813 
Q 3263 3394 3894 3394 
Q 4388 3394 4653 3120 
Q 4919 2847 4919 2278 
L 4919 0 
L 4359 0 
L 4359 2091 
Q 4359 2428 4304 2576 
Q 4250 2725 4106 2815 
Q 3963 2906 3769 2906 
Q 3419 2906 3187 2673 
Q 2956 2441 2956 1928 
L 2956 0 
L 2394 0 
L 2394 2156 
Q 2394 2531 2256 2718 
Q 2119 2906 1806 2906 
Q 1569 2906 1367 2781 
Q 1166 2656 1075 2415 
Q 984 2175 984 1722 
L 984 0 
L 422 0 
z
" transform="scale(0.015625)"/>
      <path id="ArialMT-64" d="M 2575 0 
L 2575 419 
Q 2259 -75 1647 -75 
Q 1250 -75 917 144 
Q 584 363 401 755 
Q 219 1147 219 1656 
Q 219 2153 384 2558 
Q 550 2963 881 3178 
Q 1213 3394 1622 3394 
Q 1922 3394 2156 3267 
Q 2391 3141 2538 2938 
L 2538 4581 
L 3097 4581 
L 3097 0 
L 2575 0 
z
M 797 1656 
Q 797 1019 1065 703 
Q 1334 388 1700 388 
Q 2069 388 2326 689 
Q 2584 991 2584 1609 
Q 2584 2291 2321 2609 
Q 2059 2928 1675 2928 
Q 1300 2928 1048 2622 
Q 797 2316 797 1656 
z
" transform="scale(0.015625)"/>
     </defs>
     <use xlink:href="#ArialMT-42"/>
     <use xlink:href="#ArialMT-75" x="66.699219"/>
     <use xlink:href="#ArialMT-72" x="122.314453"/>
     <use xlink:href="#ArialMT-73" x="155.615234"/>
     <use xlink:href="#ArialMT-74" x="205.615234"/>
     <use xlink:href="#ArialMT-20" x="233.398438"/>
     <use xlink:href="#ArialMT-61" x="261.181641"/>
     <use xlink:href="#ArialMT-6d" x="316.796875"/>
     <use xlink:href="#ArialMT-70" x="400.097656"/>
     <use xlink:href="#ArialMT-6c" x="455.712891"/>
     <use xlink:href="#ArialMT-69" x="477.929688"/>
     <use xlink:href="#ArialMT-74" x="500.146484"/>
     <use xlink:href="#ArialMT-75" x="527.929688"/>
     <use xlink:href="#ArialMT-64" x="583.544922"/>
     <use xlink:href="#ArialMT-65" x="639.160156"/>
    </g>
   </g>
  </g>
 </g>
 <defs>
  <clipPath id="pda151f9383">
   <rect x="32.078281" y="21.789375" width="75.33" height="110.88"/>
  </clipPath>
 </defs>
</svg>
