<?xml version="1.0" encoding="utf-8" standalone="no"?>
<!DOCTYPE svg PUBLIC "-//W3C//DTD SVG 1.1//EN"
  "http://www.w3.org/Graphics/SVG/1.1/DTD/svg11.dtd">
<svg xmlns:xlink="http://www.w3.org/1999/xlink" width="170.151944pt" height="146.949891pt" viewBox="0 0 170.151944 146.949891" xmlns="http://www.w3.org/2000/svg" version="1.1">
 <metadata>
  <rdf:RDF xmlns:dc="http://purl.org/dc/elements/1.1/" xmlns:cc="http://creativecommons.org/ns#" xmlns:rdf="http://www.w3.org/1999/02/22-rdf-syntax-ns#">
   <cc:Work>
    <dc:type rdf:resource="http://purl.org/dc/dcmitype/StillImage"/>
    <dc:date>2025-04-28T20:21:05.064106</dc:date>
    <dc:format>image/svg+xml</dc:format>
    <dc:creator>
     <cc:Agent>
      <dc:title>Matplotlib v3.7.2, https://matplotlib.org/</dc:title>
     </cc:Agent>
    </dc:creator>
   </cc:Work>
  </rdf:RDF>
 </metadata>
 <defs>
  <style type="text/css">*{stroke-linejoin: round; stroke-linecap: butt}</style>
 </defs>
 <g id="figure_1">
  <g id="patch_1">
   <path d="M 0 146.949891 
L 170.151944 146.949891 
L 170.151944 0 
L 0 0 
z
" style="fill: #ffffff"/>
  </g>
  <g id="axes_1">
   <g id="patch_2">
    <path d="M 38.195312 110.928797 
L 127.475313 110.928797 
L 127.475313 11.136797 
L 38.195312 11.136797 
z
" style="fill: #ffffff"/>
   </g>
   <g id="PathCollection_1">
    <path d="M 10.295312 114.047297 
L 16.495312 114.047297 
L 22.695312 114.047297 
L 28.895312 114.047297 
L 35.095312 114.047297 
L 41.295312 114.047297 
L 47.495312 114.047297 
L 53.695312 114.047297 
L 59.895313 114.047297 
L 66.095313 114.047297 
L 72.295313 114.047297 
L 78.495313 114.047297 
L 84.695312 114.047297 
L 90.895313 114.047297 
L 97.095313 114.047297 
L 103.295313 114.047297 
L 109.495313 114.047297 
L 115.695313 114.047297 
L 121.895313 114.047297 
L 128.095313 114.047297 
L 134.295313 114.047297 
L 140.495313 114.047297 
L 146.695313 114.047297 
L 152.895313 114.047297 
L 159.095313 114.047297 
L 165.295313 114.047297 
L 171.495313 114.047297 
L 177.695313 114.047297 
L 183.895313 114.047297 
L 183.895313 107.810297 
L 183.895313 101.573297 
L 183.895313 95.336297 
L 183.895313 89.099297 
L 183.895313 82.862297 
L 183.895313 76.625297 
L 183.895313 70.388297 
L 183.895313 64.151297 
L 183.895313 57.914297 
L 183.895313 51.677297 
L 183.895313 45.440297 
L 183.895313 39.203297 
L 183.895313 32.966297 
L 183.895313 26.729297 
L 183.895313 20.492297 
L 183.895313 14.255297 
L 183.895313 8.018297 
L 183.895313 1.781297 
L 177.695313 1.781297 
L 171.495313 1.781297 
L 165.295313 1.781297 
L 159.095313 1.781297 
L 152.895313 1.781297 
L 146.695313 1.781297 
L 140.495313 1.781297 
L 134.295313 1.781297 
L 128.095313 1.781297 
L 121.895313 1.781297 
L 115.695313 1.781297 
L 109.495313 1.781297 
L 103.295313 1.781297 
L 97.095313 1.781297 
L 90.895313 1.781297 
L 84.695312 1.781297 
L 78.495313 1.781297 
L 72.295313 1.781297 
L 66.095313 1.781297 
L 59.895313 1.781297 
L 53.695312 1.781297 
L 47.495312 1.781297 
L 41.295312 1.781297 
L 35.095312 1.781297 
L 28.895312 1.781297 
L 22.695312 1.781297 
L 16.495312 1.781297 
L 10.295312 1.781297 
L 4.095312 1.781297 
L 4.095312 8.018297 
L 4.095312 14.255297 
L 4.095312 20.492297 
L 4.095312 26.729297 
L 4.095312 32.966297 
L 4.095312 39.203297 
L 4.095312 45.440297 
L 4.095312 51.677297 
L 4.095312 57.914297 
L 4.095312 64.151297 
L 4.095312 70.388297 
L 4.095312 76.625297 
L 4.095312 82.862297 
L 4.095312 89.099297 
L 4.095312 95.336297 
L 4.095312 101.573297 
L 4.095312 107.810297 
L 4.095312 114.047297 
z
M 44.631895 95.336297 
L 42.409517 89.099297 
L 43.315545 82.862297 
L 47.495312 76.701302 
L 47.515148 76.625297 
L 48.29675 70.388297 
L 48.190277 64.151297 
L 48.360194 57.914297 
L 49.574386 51.677297 
L 49.493044 45.440297 
L 48.330771 39.203297 
L 48.107251 32.966297 
L 49.481919 26.729297 
L 53.695312 21.292745 
L 55.04114 20.492297 
L 59.895313 16.722434 
L 66.095313 19.552502 
L 67.01003 20.492297 
L 72.295313 26.124643 
L 72.815082 26.729297 
L 77.670445 32.966297 
L 78.495313 34.319434 
L 82.889697 39.203297 
L 84.674483 45.440297 
L 84.695312 51.357408 
L 84.700195 51.677297 
L 84.695312 51.688037 
L 83.772962 57.914297 
L 80.472191 64.151297 
L 78.495313 67.187978 
L 77.867804 70.388297 
L 78.049319 76.625297 
L 78.189375 82.862297 
L 76.092042 89.099297 
L 72.295313 92.81999 
L 68.452919 95.336297 
L 66.095313 97.431477 
L 59.895313 100.471535 
L 53.695312 100.793603 
L 47.495312 98.283851 
z
" clip-path="url(#p0201261772)" style="fill: #372466"/>
   </g>
   <g id="PathCollection_2">
    <path d="M 47.495312 98.283851 
L 53.695312 100.793603 
L 59.895313 100.471535 
L 66.095313 97.431477 
L 68.452919 95.336297 
L 72.295313 92.81999 
L 76.092042 89.099297 
L 78.189375 82.862297 
L 78.049319 76.625297 
L 77.867804 70.388297 
L 78.495313 67.187978 
L 80.472191 64.151297 
L 83.772962 57.914297 
L 84.695312 51.688037 
L 84.700195 51.677297 
L 84.695312 51.357408 
L 84.674483 45.440297 
L 82.889697 39.203297 
L 78.495313 34.319434 
L 77.670445 32.966297 
L 72.815082 26.729297 
L 72.295313 26.124643 
L 67.01003 20.492297 
L 66.095313 19.552502 
L 59.895313 16.722434 
L 55.04114 20.492297 
L 53.695312 21.292745 
L 49.481919 26.729297 
L 48.107251 32.966297 
L 48.330771 39.203297 
L 49.493044 45.440297 
L 49.574386 51.677297 
L 48.360194 57.914297 
L 48.190277 64.151297 
L 48.29675 70.388297 
L 47.515148 76.625297 
L 47.495312 76.701302 
L 43.315545 82.862297 
L 42.409517 89.099297 
L 44.631895 95.336297 
z
M 48.113753 95.336297 
L 47.495312 94.551925 
L 44.137282 89.099297 
L 45.855316 82.862297 
L 47.495312 80.444936 
L 48.492161 76.625297 
L 49.777982 70.388297 
L 49.514189 64.151297 
L 49.819349 57.914297 
L 52.164385 51.677297 
L 52.020593 45.440297 
L 49.858344 39.203297 
L 49.531566 32.966297 
L 52.284915 26.729297 
L 53.695312 24.909458 
L 59.895313 20.805817 
L 66.095313 22.379838 
L 70.346561 26.729297 
L 72.295313 29.198619 
L 75.434182 32.966297 
L 78.495313 37.987868 
L 79.588927 39.203297 
L 82.984872 45.440297 
L 83.050444 51.677297 
L 81.385715 57.914297 
L 78.495313 62.020923 
L 77.770005 64.151297 
L 76.26676 70.388297 
L 76.614854 76.625297 
L 76.740317 82.862297 
L 72.56905 89.099297 
L 72.295313 89.367552 
L 66.095313 94.751816 
L 64.684498 95.336297 
L 59.895313 98.686315 
L 53.695312 99.244697 
z
" clip-path="url(#p0201261772)" style="fill: #4249b1"/>
   </g>
   <g id="PathCollection_3">
    <path d="M 53.695312 99.244697 
L 59.895313 98.686315 
L 64.684498 95.336297 
L 66.095313 94.751816 
L 72.295313 89.367552 
L 72.56905 89.099297 
L 76.740317 82.862297 
L 76.614854 76.625297 
L 76.26676 70.388297 
L 77.770005 64.151297 
L 78.495313 62.020923 
L 81.385715 57.914297 
L 83.050444 51.677297 
L 82.984872 45.440297 
L 79.588927 39.203297 
L 78.495313 37.987868 
L 75.434182 32.966297 
L 72.295312 29.198619 
L 70.346561 26.729297 
L 66.095313 22.379838 
L 59.895313 20.805817 
L 53.695312 24.909458 
L 52.284915 26.729297 
L 49.531566 32.966297 
L 49.858344 39.203297 
L 52.020593 45.440297 
L 52.164385 51.677297 
L 49.819349 57.914297 
L 49.514189 64.151297 
L 49.777982 70.388297 
L 48.492161 76.625297 
L 47.495312 80.444936 
L 45.855316 82.862297 
L 44.137282 89.099297 
L 47.495312 94.551925 
L 48.113753 95.336297 
z
M 50.325734 95.336297 
L 47.495312 91.746454 
L 45.865046 89.099297 
L 47.495312 84.564819 
L 47.739238 82.862297 
L 49.469174 76.625297 
L 51.259214 70.388297 
L 50.838102 64.151297 
L 51.278503 57.914297 
L 53.695312 52.912209 
L 53.968866 51.677297 
L 53.924608 45.440297 
L 53.695312 44.302278 
L 51.385918 39.203297 
L 50.955881 32.966297 
L 53.695312 28.009667 
L 54.626382 26.729297 
L 59.895313 22.359909 
L 66.095313 24.547147 
L 68.228189 26.729297 
L 72.295313 31.882873 
L 73.197918 32.966297 
L 77.801075 39.203297 
L 78.495313 40.996438 
L 81.295262 45.440297 
L 81.404478 51.677297 
L 78.998467 57.914297 
L 78.495313 58.629169 
L 76.615249 64.151297 
L 74.665715 70.388297 
L 75.180388 76.625297 
L 75.291258 82.862297 
L 72.295312 87.175301 
L 71.209921 89.099297 
L 66.095313 93.694497 
L 62.132348 95.336297 
L 59.895313 96.901095 
L 53.695312 97.695791 
z
" clip-path="url(#p0201261772)" style="fill: #466be3"/>
   </g>
   <g id="PathCollection_4">
    <path d="M 53.695312 97.695791 
L 59.895313 96.901095 
L 62.132348 95.336297 
L 66.095313 93.694497 
L 71.209921 89.099297 
L 72.295313 87.175301 
L 75.291258 82.862297 
L 75.180388 76.625297 
L 74.665715 70.388297 
L 76.615249 64.151297 
L 78.495313 58.629169 
L 78.998467 57.914297 
L 81.404478 51.677297 
L 81.295262 45.440297 
L 78.495313 40.996438 
L 77.801075 39.203297 
L 73.197918 32.966297 
L 72.295313 31.882873 
L 68.228189 26.729297 
L 66.095313 24.547147 
L 59.895313 22.359909 
L 54.626382 26.729297 
L 53.695312 28.009667 
L 50.955881 32.966297 
L 51.385918 39.203297 
L 53.695312 44.302278 
L 53.924608 45.440297 
L 53.968866 51.677297 
L 53.695312 52.912209 
L 51.278503 57.914297 
L 50.838102 64.151297 
L 51.259214 70.388297 
L 49.469174 76.625297 
L 47.739238 82.862297 
L 47.495312 84.564819 
L 45.865046 89.099297 
L 47.495312 91.746454 
L 50.325734 95.336297 
z
M 52.537716 95.336297 
L 47.539779 89.099297 
L 48.42776 82.862297 
L 50.446186 76.625297 
L 52.740447 70.388297 
L 52.162015 64.151297 
L 52.737658 57.914297 
L 53.695312 55.932231 
L 54.637851 51.677297 
L 54.604177 45.440297 
L 53.695312 40.929504 
L 52.913491 39.203297 
L 52.380196 32.966297 
L 53.695312 30.586772 
L 56.500421 26.729297 
L 59.895313 23.914001 
L 66.095313 26.714457 
L 66.109817 26.729297 
L 71.707201 32.966297 
L 72.295313 33.725487 
L 76.762852 39.203297 
L 78.495313 43.678054 
L 79.605652 45.440297 
L 79.758512 51.677297 
L 78.495313 54.752164 
L 77.907319 57.914297 
L 75.460492 64.151297 
L 73.064671 70.388297 
L 73.745923 76.625297 
L 73.842199 82.862297 
L 72.295312 85.089217 
L 70.03309 89.099297 
L 66.095313 92.637177 
L 59.895313 95.256052 
L 58.711772 95.336297 
L 53.695312 96.146885 
z
" clip-path="url(#p0201261772)" style="fill: #458afc"/>
   </g>
   <g id="PathCollection_5">
    <path d="M 53.695313 96.146885 
L 58.711772 95.336297 
L 59.895313 95.256052 
L 66.095313 92.637177 
L 70.03309 89.099297 
L 72.295312 85.089217 
L 73.842199 82.862297 
L 73.745923 76.625297 
L 73.064671 70.388297 
L 75.460492 64.151297 
L 77.907319 57.914297 
L 78.495313 54.752164 
L 79.758512 51.677297 
L 79.605652 45.440297 
L 78.495313 43.678054 
L 76.762852 39.203297 
L 72.295313 33.725487 
L 71.707201 32.966297 
L 66.109817 26.729297 
L 66.095313 26.714457 
L 59.895313 23.914001 
L 56.500421 26.729297 
L 53.695312 30.586772 
L 52.380196 32.966297 
L 52.913491 39.203297 
L 53.695312 40.929504 
L 54.604177 45.440297 
L 54.637851 51.677297 
L 53.695312 55.932231 
L 52.737658 57.914297 
L 52.162015 64.151297 
L 52.740447 70.388297 
L 50.446186 76.625297 
L 48.42776 82.862297 
L 47.539779 89.099297 
L 52.537716 95.336297 
z
M 48.327775 89.099297 
L 49.116282 82.862297 
L 51.423199 76.625297 
L 53.695312 71.215011 
L 53.964937 70.388297 
L 53.695312 66.072221 
L 53.485928 64.151297 
L 53.695312 62.185722 
L 53.886706 57.914297 
L 55.306837 51.677297 
L 55.283746 45.440297 
L 54.02977 39.203297 
L 53.762115 32.966297 
L 58.374459 26.729297 
L 59.895313 25.468093 
L 62.683344 26.729297 
L 66.095313 27.819089 
L 70.721063 32.966297 
L 72.295312 34.998489 
L 75.724629 39.203297 
L 78.264399 45.440297 
L 78.34323 51.677297 
L 77.1623 57.914297 
L 74.305735 64.151297 
L 72.295313 68.955002 
L 71.8812 70.388297 
L 72.295313 76.493027 
L 72.311458 76.625297 
L 72.393141 82.862297 
L 72.295313 83.003132 
L 68.856258 89.099297 
L 66.095313 91.579857 
L 59.895313 94.606134 
L 53.695312 94.928384 
z
" clip-path="url(#p0201261772)" style="fill: #35abf8"/>
   </g>
   <g id="PathCollection_6">
    <path d="M 53.695312 94.928384 
L 59.895313 94.606134 
L 66.095313 91.579857 
L 68.856258 89.099297 
L 72.295313 83.003132 
L 72.393141 82.862297 
L 72.311458 76.625297 
L 72.295313 76.493027 
L 71.8812 70.388297 
L 72.295313 68.955002 
L 74.305735 64.151297 
L 77.1623 57.914297 
L 78.34323 51.677297 
L 78.264399 45.440297 
L 75.724629 39.203297 
L 72.295312 34.998489 
L 70.721063 32.966297 
L 66.095313 27.819089 
L 62.683344 26.729297 
L 59.895313 25.468093 
L 58.374459 26.729297 
L 53.762115 32.966297 
L 54.02977 39.203297 
L 55.283746 45.440297 
L 55.306837 51.677297 
L 53.886706 57.914297 
L 53.695313 62.185722 
L 53.485928 64.151297 
L 53.695312 66.072221 
L 53.964937 70.388297 
L 53.695312 71.215011 
L 51.423199 76.625297 
L 49.116282 82.862297 
L 48.327775 89.099297 
z
M 49.11577 89.099297 
L 49.804805 82.862297 
L 52.400212 76.625297 
L 53.695312 73.541443 
L 54.723679 70.388297 
L 54.226335 64.151297 
L 54.443583 57.914297 
L 55.975822 51.677297 
L 55.963315 45.440297 
L 54.714863 39.203297 
L 54.633449 32.966297 
L 59.895313 26.918052 
L 66.095313 28.916394 
L 69.734924 32.966297 
L 72.295313 36.271492 
L 74.686406 39.203297 
L 77.590873 45.440297 
L 77.689247 51.677297 
L 76.417281 57.914297 
L 73.150979 64.151297 
L 72.295313 66.195826 
L 71.084009 70.388297 
L 71.666598 76.625297 
L 71.731669 82.862297 
L 67.679426 89.099297 
L 66.095313 90.522538 
L 59.895313 93.956216 
L 53.695312 94.07263 
z
" clip-path="url(#p0201261772)" style="fill: #1fc9dd"/>
   </g>
   <g id="PathCollection_7">
    <path d="M 53.695312 94.07263 
L 59.895313 93.956216 
L 66.095313 90.522538 
L 67.679426 89.099297 
L 71.731669 82.862297 
L 71.666598 76.625297 
L 71.084009 70.388297 
L 72.295313 66.195826 
L 73.150979 64.151297 
L 76.417281 57.914297 
L 77.689247 51.677297 
L 77.590873 45.440297 
L 74.686406 39.203297 
L 72.295312 36.271492 
L 69.734924 32.966297 
L 66.095313 28.916394 
L 59.895313 26.918052 
L 54.633449 32.966297 
L 54.714863 39.203297 
L 55.963315 45.440297 
L 55.975822 51.677297 
L 54.443583 57.914297 
L 54.226335 64.151297 
L 54.723679 70.388297 
L 53.695312 73.541443 
L 52.400212 76.625297 
L 49.804805 82.862297 
L 49.11577 89.099297 
z
M 49.903765 89.099297 
L 50.493327 82.862297 
L 53.377224 76.625297 
L 53.695312 75.867875 
L 55.482421 70.388297 
L 54.85712 64.151297 
L 55.000459 57.914297 
L 56.644807 51.677297 
L 56.642883 45.440297 
L 55.399956 39.203297 
L 55.504783 32.966297 
L 59.895313 27.919606 
L 66.095313 30.013699 
L 68.748786 32.966297 
L 72.295313 37.544494 
L 73.648183 39.203297 
L 76.917348 45.440297 
L 77.035265 51.677297 
L 75.672262 57.914297 
L 72.295312 63.814167 
L 72.115104 64.151297 
L 70.286818 70.388297 
L 71.030727 76.625297 
L 71.127218 82.862297 
L 66.502595 89.099297 
L 66.095313 89.465218 
L 59.895313 93.306299 
L 53.695312 93.216876 
z
" clip-path="url(#p0201261772)" style="fill: #19e2bb"/>
   </g>
   <g id="PathCollection_8">
    <path d="M 53.695312 93.216876 
L 59.895313 93.306299 
L 66.095313 89.465218 
L 66.502595 89.099297 
L 71.127218 82.862297 
L 71.030727 76.625297 
L 70.286818 70.388297 
L 72.115104 64.151297 
L 72.295313 63.814167 
L 75.672262 57.914297 
L 77.035265 51.677297 
L 76.917348 45.440297 
L 73.648183 39.203297 
L 72.295313 37.544494 
L 68.748786 32.966297 
L 66.095313 30.013699 
L 59.895313 27.919606 
L 55.504783 32.966297 
L 55.399956 39.203297 
L 56.642883 45.440297 
L 56.644807 51.677297 
L 55.000459 57.914297 
L 54.85712 64.151297 
L 55.482421 70.388297 
L 53.695312 75.867875 
L 53.377224 76.625297 
L 50.493327 82.862297 
L 49.903765 89.099297 
z
M 50.69176 89.099297 
L 51.181849 82.862297 
L 53.695312 77.597888 
L 54.102646 76.625297 
L 56.241163 70.388297 
L 55.487906 64.151297 
L 55.557336 57.914297 
L 57.313792 51.677297 
L 57.322452 45.440297 
L 56.085049 39.203297 
L 56.376117 32.966297 
L 59.895313 28.92116 
L 66.095313 31.111005 
L 67.762647 32.966297 
L 72.295313 38.817496 
L 72.60996 39.203297 
L 76.243822 45.440297 
L 76.381282 51.677297 
L 74.927243 57.914297 
L 72.295312 62.512543 
L 71.419341 64.151297 
L 69.489627 70.388297 
L 70.394855 76.625297 
L 70.522767 82.862297 
L 66.095313 88.588125 
L 65.433611 89.099297 
L 59.895313 92.656381 
L 53.695312 92.361122 
z
" clip-path="url(#p0201261772)" style="fill: #32f298"/>
   </g>
   <g id="PathCollection_9">
    <path d="M 53.695312 92.361122 
L 59.895313 92.656381 
L 65.433611 89.099297 
L 66.095313 88.588125 
L 70.522767 82.862297 
L 70.394855 76.625297 
L 69.489627 70.388297 
L 71.419341 64.151297 
L 72.295313 62.512543 
L 74.927243 57.914297 
L 76.381282 51.677297 
L 76.243822 45.440297 
L 72.60996 39.203297 
L 72.295313 38.817496 
L 67.762647 32.966297 
L 66.095313 31.111005 
L 59.895313 28.92116 
L 56.376117 32.966297 
L 56.085049 39.203297 
L 57.322452 45.440297 
L 57.313792 51.677297 
L 55.557336 57.914297 
L 55.487906 64.151297 
L 56.241163 70.388297 
L 54.102646 76.625297 
L 53.695312 77.597888 
L 51.181849 82.862297 
L 50.69176 89.099297 
z
M 51.479755 89.099297 
L 51.870371 82.862297 
L 53.695312 79.039987 
L 54.706614 76.625297 
L 56.999905 70.388297 
L 56.118691 64.151297 
L 56.114212 57.914297 
L 57.982778 51.677297 
L 58.002021 45.440297 
L 56.770142 39.203297 
L 57.247451 32.966297 
L 59.895313 29.922714 
L 66.095313 32.20831 
L 66.776508 32.966297 
L 71.723068 39.203297 
L 72.295313 39.98518 
L 75.570297 45.440297 
L 75.727299 51.677297 
L 74.182224 57.914297 
L 72.295313 61.21092 
L 70.723577 64.151297 
L 68.692436 70.388297 
L 69.758984 76.625297 
L 69.918317 82.862297 
L 66.095313 87.806416 
L 64.421704 89.099297 
L 59.895313 92.006464 
L 53.695312 91.505368 
z
" clip-path="url(#p0201261772)" style="fill: #5dfc6f"/>
   </g>
   <g id="PathCollection_10">
    <path d="M 53.695312 91.505368 
L 59.895313 92.006464 
L 64.421704 89.099297 
L 66.095313 87.806416 
L 69.918317 82.862297 
L 69.758984 76.625297 
L 68.692436 70.388297 
L 70.723577 64.151297 
L 72.295313 61.21092 
L 74.182224 57.914297 
L 75.727299 51.677297 
L 75.570297 45.440297 
L 72.295313 39.98518 
L 71.723068 39.203297 
L 66.776508 32.966297 
L 66.095313 32.20831 
L 59.895313 29.922714 
L 57.247451 32.966297 
L 56.770142 39.203297 
L 58.002021 45.440297 
L 57.982778 51.677297 
L 56.114212 57.914297 
L 56.118691 64.151297 
L 56.999905 70.388297 
L 54.706614 76.625297 
L 53.695312 79.039987 
L 51.870371 82.862297 
L 51.479755 89.099297 
z
M 52.26775 89.099297 
L 52.558893 82.862297 
L 53.695312 80.482085 
L 55.310582 76.625297 
L 57.758647 70.388297 
L 56.749476 64.151297 
L 56.671089 57.914297 
L 58.651763 51.677297 
L 58.68159 45.440297 
L 57.455234 39.203297 
L 58.118784 32.966297 
L 59.895313 30.924268 
L 65.278811 32.966297 
L 66.095313 33.279225 
L 70.901983 39.203297 
L 72.295313 41.107067 
L 74.896771 45.440297 
L 75.073316 51.677297 
L 73.437205 57.914297 
L 72.295313 59.909297 
L 70.027814 64.151297 
L 67.895245 70.388297 
L 69.123112 76.625297 
L 69.313866 82.862297 
L 66.095313 87.024707 
L 63.409797 89.099297 
L 59.895313 91.356546 
L 53.695312 90.649614 
z
" clip-path="url(#p0201261772)" style="fill: #8fff49"/>
   </g>
   <g id="PathCollection_11">
    <path d="M 53.695312 90.649614 
L 59.895313 91.356546 
L 63.409797 89.099297 
L 66.095313 87.024707 
L 69.313866 82.862297 
L 69.123112 76.625297 
L 67.895245 70.388297 
L 70.027814 64.151297 
L 72.295312 59.909297 
L 73.437205 57.914297 
L 75.073316 51.677297 
L 74.896771 45.440297 
L 72.295313 41.107067 
L 70.901983 39.203297 
L 66.095313 33.279225 
L 65.278811 32.966297 
L 59.895313 30.924268 
L 58.118784 32.966297 
L 57.455234 39.203297 
L 58.68159 45.440297 
L 58.651763 51.677297 
L 56.671089 57.914297 
L 56.749476 64.151297 
L 57.758647 70.388297 
L 55.310582 76.625297 
L 53.695312 80.482085 
L 52.558893 82.862297 
L 52.26775 89.099297 
z
M 53.055746 89.099297 
L 53.247415 82.862297 
L 53.695312 81.924184 
L 55.914551 76.625297 
L 58.517389 70.388297 
L 57.380262 64.151297 
L 57.227965 57.914297 
L 59.320748 51.677297 
L 59.361159 45.440297 
L 58.140327 39.203297 
L 58.990118 32.966297 
L 59.895313 31.925822 
L 62.638366 32.966297 
L 66.095313 34.291187 
L 70.080898 39.203297 
L 72.295313 42.228953 
L 74.223246 45.440297 
L 74.419334 51.677297 
L 72.692186 57.914297 
L 72.295313 58.607674 
L 69.33205 64.151297 
L 67.098054 70.388297 
L 68.487241 76.625297 
L 68.709415 82.862297 
L 66.095313 86.242998 
L 62.397891 89.099297 
L 59.895313 90.706629 
L 53.695312 89.793859 
z
" clip-path="url(#p0201261772)" style="fill: #b4f836"/>
   </g>
   <g id="PathCollection_12">
    <path d="M 53.695312 89.793859 
L 59.895313 90.706629 
L 62.397891 89.099297 
L 66.095313 86.242998 
L 68.709415 82.862297 
L 68.487241 76.625297 
L 67.098054 70.388297 
L 69.33205 64.151297 
L 72.295313 58.607674 
L 72.692186 57.914297 
L 74.419334 51.677297 
L 74.223246 45.440297 
L 72.295313 42.228953 
L 70.080898 39.203297 
L 66.095313 34.291187 
L 62.638366 32.966297 
L 59.895313 31.925822 
L 58.990118 32.966297 
L 58.140327 39.203297 
L 59.361159 45.440297 
L 59.320748 51.677297 
L 57.227965 57.914297 
L 57.380262 64.151297 
L 58.517389 70.388297 
L 55.914551 76.625297 
L 53.695312 81.924184 
L 53.247415 82.862297 
L 53.055746 89.099297 
z
M 54.398201 89.099297 
L 53.929814 82.862297 
L 56.518519 76.625297 
L 59.276131 70.388297 
L 58.011047 64.151297 
L 57.784841 57.914297 
L 59.895313 51.901234 
L 59.989828 51.677297 
L 60.046202 45.440297 
L 59.895313 44.688688 
L 58.82542 39.203297 
L 59.861452 32.966297 
L 59.895313 32.927376 
L 59.997922 32.966297 
L 66.095313 35.303149 
L 69.259812 39.203297 
L 72.295313 43.350839 
L 73.54972 45.440297 
L 73.765351 51.677297 
L 72.295313 56.84085 
L 71.988517 57.914297 
L 68.636287 64.151297 
L 66.300863 70.388297 
L 67.85137 76.625297 
L 68.104964 82.862297 
L 66.095313 85.461289 
L 61.385984 89.099297 
L 59.895313 90.056711 
z
" clip-path="url(#p0201261772)" style="fill: #d4e735"/>
   </g>
   <g id="PathCollection_13">
    <path d="M 59.895313 90.056711 
L 61.385984 89.099297 
L 66.095313 85.461289 
L 68.104964 82.862297 
L 67.85137 76.625297 
L 66.300863 70.388297 
L 68.636287 64.151297 
L 71.988517 57.914297 
L 72.295313 56.84085 
L 73.765351 51.677297 
L 73.54972 45.440297 
L 72.295313 43.350839 
L 69.259812 39.203297 
L 66.095313 35.303149 
L 59.997922 32.966297 
L 59.895313 32.927376 
L 59.861452 32.966297 
L 58.82542 39.203297 
L 59.895313 44.688688 
L 60.046202 45.440297 
L 59.989828 51.677297 
L 59.895313 51.901234 
L 57.784841 57.914297 
L 58.011047 64.151297 
L 59.276131 70.388297 
L 56.518519 76.625297 
L 53.929814 82.862297 
L 54.398201 89.099297 
z
M 58.129782 89.099297 
L 54.600814 82.862297 
L 57.122488 76.625297 
L 59.895313 70.628554 
L 66.095313 72.237011 
L 67.215498 76.625297 
L 67.500513 82.862297 
L 66.095313 84.679579 
L 60.374078 89.099297 
L 59.895313 89.406794 
z
M 58.641832 64.151297 
L 58.341718 57.914297 
L 59.895313 53.487862 
L 60.659488 51.677297 
L 60.751355 45.440297 
L 59.895313 41.176184 
L 59.510513 39.203297 
L 59.895313 36.90284 
L 66.095313 36.315111 
L 68.438727 39.203297 
L 72.295313 44.472725 
L 72.876195 45.440297 
L 73.111368 51.677297 
L 72.295313 54.543716 
L 71.331987 57.914297 
L 67.940523 64.151297 
L 66.095313 69.024559 
L 59.895313 69.859898 
z
" clip-path="url(#p0201261772)" style="fill: #eecf3a"/>
   </g>
   <g id="PathCollection_14">
    <path d="M 59.895313 89.406794 
L 60.374078 89.099297 
L 66.095313 84.679579 
L 67.500513 82.862297 
L 67.215498 76.625297 
L 66.095313 72.237011 
L 59.895313 70.628554 
L 57.122488 76.625297 
L 54.600814 82.862297 
L 58.129782 89.099297 
z
M 55.271815 82.862297 
L 57.726456 76.625297 
L 59.895313 71.934746 
L 66.095313 74.728013 
L 66.579627 76.625297 
L 66.896062 82.862297 
L 66.095313 83.89787 
L 59.895313 88.65627 
z
" clip-path="url(#p0201261772)" style="fill: #fbb637"/>
    <path d="M 59.895313 69.859898 
L 66.095313 69.024559 
L 67.940523 64.151297 
L 71.331987 57.914297 
L 72.295312 54.543716 
L 73.111368 51.677297 
L 72.876195 45.440297 
L 72.295313 44.472725 
L 68.438727 39.203297 
L 66.095313 36.315111 
L 59.895313 36.90284 
L 59.510513 39.203297 
L 59.895313 41.176184 
L 60.751355 45.440297 
L 60.659488 51.677297 
L 59.895313 53.487862 
L 58.341718 57.914297 
L 58.641832 64.151297 
z
M 59.272617 64.151297 
L 58.898594 57.914297 
L 59.895313 55.074491 
L 61.329147 51.677297 
L 61.456507 45.440297 
L 61.080816 39.203297 
L 66.095313 37.327074 
L 67.617642 39.203297 
L 72.168331 45.440297 
L 72.295313 47.666438 
L 72.457385 51.677297 
L 72.295313 52.246583 
L 70.675457 57.914297 
L 67.24476 64.151297 
L 66.095313 67.187024 
L 59.895313 66.987175 
z
" clip-path="url(#p0201261772)" style="fill: #fbb637"/>
   </g>
   <g id="PathCollection_15">
    <path d="M 59.895313 88.65627 
L 66.095313 83.89787 
L 66.896062 82.862297 
L 66.579627 76.625297 
L 66.095313 74.728013 
L 59.895313 71.934746 
L 57.726456 76.625297 
L 55.271815 82.862297 
z
M 55.942815 82.862297 
L 58.330425 76.625297 
L 59.895313 73.240939 
L 65.573023 76.625297 
L 66.095313 79.265249 
L 66.291611 82.862297 
L 66.095313 83.116161 
L 59.895313 87.8154 
z
" clip-path="url(#p0201261772)" style="fill: #fe932a"/>
    <path d="M 59.895313 66.987175 
L 66.095313 67.187024 
L 67.24476 64.151297 
L 70.675457 57.914297 
L 72.295313 52.246583 
L 72.457385 51.677297 
L 72.295313 47.666438 
L 72.168331 45.440297 
L 67.617642 39.203297 
L 66.095313 37.327074 
L 61.080816 39.203297 
L 61.456507 45.440297 
L 61.329147 51.677297 
L 59.895313 55.074491 
L 58.898594 57.914297 
L 59.272617 64.151297 
z
M 60.014909 64.151297 
L 59.895313 64.051637 
L 59.455471 57.914297 
L 59.895313 56.661119 
L 61.998806 51.677297 
L 62.16166 45.440297 
L 63.785441 39.203297 
L 66.095313 38.339036 
L 66.796556 39.203297 
L 71.245161 45.440297 
L 71.616441 51.677297 
L 70.018927 57.914297 
L 66.548996 64.151297 
L 66.095313 65.34949 
z
" clip-path="url(#p0201261772)" style="fill: #fe932a"/>
   </g>
   <g id="PathCollection_16">
    <path d="M 59.895313 87.8154 
L 66.095313 83.116161 
L 66.291611 82.862297 
L 66.095313 79.265249 
L 65.573023 76.625297 
L 59.895313 73.240939 
L 58.330425 76.625297 
L 55.942815 82.862297 
z
M 56.613815 82.862297 
L 58.934393 76.625297 
L 59.895313 74.547132 
L 63.381711 76.625297 
L 65.343113 82.862297 
L 59.895313 86.974531 
z
" clip-path="url(#p0201261772)" style="fill: #f66c19"/>
    <path d="M 66.095313 65.34949 
L 66.548996 64.151297 
L 70.018927 57.914297 
L 71.616441 51.677297 
L 71.245161 45.440297 
L 66.796556 39.203297 
L 66.095313 38.339036 
L 63.785441 39.203297 
L 62.16166 45.440297 
L 61.998806 51.677297 
L 59.895313 56.661119 
L 59.455471 57.914297 
L 59.895313 64.051637 
L 60.014909 64.151297 
z
M 60.146546 57.914297 
L 62.668465 51.677297 
L 62.866813 45.440297 
L 66.095313 39.395983 
L 70.321991 45.440297 
L 70.713898 51.677297 
L 69.362397 57.914297 
L 66.095313 63.743713 
z
" clip-path="url(#p0201261772)" style="fill: #f66c19"/>
   </g>
   <g id="PathCollection_17">
    <path d="M 59.895313 86.974531 
L 65.343113 82.862297 
L 63.381711 76.625297 
L 59.895313 74.547132 
L 58.934393 76.625297 
L 56.613815 82.862297 
z
M 57.284816 82.862297 
L 59.538361 76.625297 
L 59.895313 75.853325 
L 61.190399 76.625297 
L 64.229147 82.862297 
L 59.895313 86.133662 
z
" clip-path="url(#p0201261772)" style="fill: #e7490c"/>
    <path d="M 66.095313 63.743713 
L 69.362397 57.914297 
L 70.713898 51.677297 
L 70.321991 45.440297 
L 66.095313 39.395983 
L 62.866813 45.440297 
L 62.668465 51.677297 
L 60.146546 57.914297 
z
M 61.341967 57.914297 
L 63.338125 51.677297 
L 63.571966 45.440297 
L 66.095313 40.716152 
L 69.398821 45.440297 
L 69.811354 51.677297 
L 68.705867 57.914297 
L 66.095313 62.572276 
z
" clip-path="url(#p0201261772)" style="fill: #e7490c"/>
   </g>
   <g id="PathCollection_18">
    <path d="M 59.895313 86.133662 
L 64.229147 82.862297 
L 61.190399 76.625297 
L 59.895313 75.853325 
L 59.538361 76.625297 
L 57.284816 82.862297 
z
M 57.955816 82.862297 
L 59.895313 77.398419 
L 63.115182 82.862297 
L 59.895313 85.292792 
z
" clip-path="url(#p0201261772)" style="fill: #d02f05"/>
    <path d="M 66.095313 62.572276 
L 68.705867 57.914297 
L 69.811354 51.677297 
L 69.398821 45.440297 
L 66.095313 40.716152 
L 63.571966 45.440297 
L 63.338125 51.677297 
L 61.341967 57.914297 
z
M 62.537389 57.914297 
L 64.007784 51.677297 
L 64.277119 45.440297 
L 66.095313 42.036321 
L 68.47565 45.440297 
L 68.908811 51.677297 
L 68.049338 57.914297 
L 66.095313 61.400838 
z
" clip-path="url(#p0201261772)" style="fill: #d02f05"/>
   </g>
   <g id="PathCollection_19">
    <path d="M 59.895313 85.292792 
L 63.115182 82.862297 
L 59.895313 77.398419 
L 57.955816 82.862297 
z
M 58.626816 82.862297 
L 59.895313 79.288736 
L 62.001216 82.862297 
L 59.895313 84.451923 
z
" clip-path="url(#p0201261772)" style="fill: #b41b01"/>
    <path d="M 66.095313 61.400838 
L 68.049338 57.914297 
L 68.908811 51.677297 
L 68.47565 45.440297 
L 66.095313 42.036321 
L 64.277119 45.440297 
L 64.007784 51.677297 
L 62.537389 57.914297 
z
M 63.73281 57.914297 
L 64.677443 51.677297 
L 64.982272 45.440297 
L 66.095313 43.35649 
L 67.55248 45.440297 
L 68.006267 51.677297 
L 67.392808 57.914297 
L 66.095313 60.2294 
z
" clip-path="url(#p0201261772)" style="fill: #b41b01"/>
   </g>
   <g id="PathCollection_20">
    <path d="M 59.895313 84.451923 
L 62.001216 82.862297 
L 59.895313 79.288736 
L 58.626816 82.862297 
z
M 59.297816 82.862297 
L 59.895313 81.179053 
L 60.88725 82.862297 
L 59.895313 83.611054 
z
" clip-path="url(#p0201261772)" style="fill: #8e0a01"/>
    <path d="M 66.095313 60.2294 
L 67.392808 57.914297 
L 68.006267 51.677297 
L 67.55248 45.440297 
L 66.095313 43.35649 
L 64.982272 45.440297 
L 64.677443 51.677297 
L 63.73281 57.914297 
z
M 64.928232 57.914297 
L 65.347102 51.677297 
L 65.687424 45.440297 
L 66.095313 44.676659 
L 66.62931 45.440297 
L 67.103724 51.677297 
L 66.736278 57.914297 
L 66.095313 59.057962 
z
" clip-path="url(#p0201261772)" style="fill: #8e0a01"/>
   </g>
   <g id="PathCollection_21">
    <path d="M 59.895313 83.611054 
L 60.88725 82.862297 
L 59.895313 81.179053 
L 59.297816 82.862297 
z
" clip-path="url(#p0201261772)" style="fill: #7a0403"/>
    <path d="M 66.095313 59.057962 
L 66.736278 57.914297 
L 67.103724 51.677297 
L 66.62931 45.440297 
L 66.095313 44.676659 
L 65.687424 45.440297 
L 65.347102 51.677297 
L 64.928232 57.914297 
z
" clip-path="url(#p0201261772)" style="fill: #7a0403"/>
   </g>
   <g id="matplotlib.axis_1">
    <g id="xtick_1">
     <g id="line2d_1">
      <defs>
       <path id="mbcd5db0e4f" d="M 0 0 
L 0 -5 
" style="stroke: #000000"/>
      </defs>
      <g>
       <use xlink:href="#mbcd5db0e4f" x="38.195312" y="110.928797" style="stroke: #000000"/>
      </g>
     </g>
     <g id="text_1">
      <!-- 0.0 -->
      <g transform="translate(30.550313 122.302391) scale(0.11 -0.11)">
       <defs>
        <path id="ArialMT-30" d="M 266 2259 
Q 266 3072 433 3567 
Q 600 4063 929 4331 
Q 1259 4600 1759 4600 
Q 2128 4600 2406 4451 
Q 2684 4303 2865 4023 
Q 3047 3744 3150 3342 
Q 3253 2941 3253 2259 
Q 3253 1453 3087 958 
Q 2922 463 2592 192 
Q 2263 -78 1759 -78 
Q 1097 -78 719 397 
Q 266 969 266 2259 
z
M 844 2259 
Q 844 1131 1108 757 
Q 1372 384 1759 384 
Q 2147 384 2411 759 
Q 2675 1134 2675 2259 
Q 2675 3391 2411 3762 
Q 2147 4134 1753 4134 
Q 1366 4134 1134 3806 
Q 844 3388 844 2259 
z
" transform="scale(0.015625)"/>
        <path id="ArialMT-2e" d="M 581 0 
L 581 641 
L 1222 641 
L 1222 0 
L 581 0 
z
" transform="scale(0.015625)"/>
       </defs>
       <use xlink:href="#ArialMT-30"/>
       <use xlink:href="#ArialMT-2e" x="55.615234"/>
       <use xlink:href="#ArialMT-30" x="83.398438"/>
      </g>
     </g>
    </g>
    <g id="xtick_2">
     <g id="line2d_2">
      <g>
       <use xlink:href="#mbcd5db0e4f" x="82.835313" y="110.928797" style="stroke: #000000"/>
      </g>
     </g>
     <g id="text_2">
      <!-- 0.6 -->
      <g transform="translate(75.190313 122.302391) scale(0.11 -0.11)">
       <defs>
        <path id="ArialMT-36" d="M 3184 3459 
L 2625 3416 
Q 2550 3747 2413 3897 
Q 2184 4138 1850 4138 
Q 1581 4138 1378 3988 
Q 1113 3794 959 3422 
Q 806 3050 800 2363 
Q 1003 2672 1297 2822 
Q 1591 2972 1913 2972 
Q 2475 2972 2870 2558 
Q 3266 2144 3266 1488 
Q 3266 1056 3080 686 
Q 2894 316 2569 119 
Q 2244 -78 1831 -78 
Q 1128 -78 684 439 
Q 241 956 241 2144 
Q 241 3472 731 4075 
Q 1159 4600 1884 4600 
Q 2425 4600 2770 4297 
Q 3116 3994 3184 3459 
z
M 888 1484 
Q 888 1194 1011 928 
Q 1134 663 1356 523 
Q 1578 384 1822 384 
Q 2178 384 2434 671 
Q 2691 959 2691 1453 
Q 2691 1928 2437 2201 
Q 2184 2475 1800 2475 
Q 1419 2475 1153 2201 
Q 888 1928 888 1484 
z
" transform="scale(0.015625)"/>
       </defs>
       <use xlink:href="#ArialMT-30"/>
       <use xlink:href="#ArialMT-2e" x="55.615234"/>
       <use xlink:href="#ArialMT-36" x="83.398438"/>
      </g>
     </g>
    </g>
    <g id="xtick_3">
     <g id="line2d_3">
      <g>
       <use xlink:href="#mbcd5db0e4f" x="127.475313" y="110.928797" style="stroke: #000000"/>
      </g>
     </g>
     <g id="text_3">
      <!-- 1.2 -->
      <g transform="translate(119.830313 122.302391) scale(0.11 -0.11)">
       <defs>
        <path id="ArialMT-31" d="M 2384 0 
L 1822 0 
L 1822 3584 
Q 1619 3391 1289 3197 
Q 959 3003 697 2906 
L 697 3450 
Q 1169 3672 1522 3987 
Q 1875 4303 2022 4600 
L 2384 4600 
L 2384 0 
z
" transform="scale(0.015625)"/>
        <path id="ArialMT-32" d="M 3222 541 
L 3222 0 
L 194 0 
Q 188 203 259 391 
Q 375 700 629 1000 
Q 884 1300 1366 1694 
Q 2113 2306 2375 2664 
Q 2638 3022 2638 3341 
Q 2638 3675 2398 3904 
Q 2159 4134 1775 4134 
Q 1369 4134 1125 3890 
Q 881 3647 878 3216 
L 300 3275 
Q 359 3922 746 4261 
Q 1134 4600 1788 4600 
Q 2447 4600 2831 4234 
Q 3216 3869 3216 3328 
Q 3216 3053 3103 2787 
Q 2991 2522 2730 2228 
Q 2469 1934 1863 1422 
Q 1356 997 1212 845 
Q 1069 694 975 541 
L 3222 541 
z
" transform="scale(0.015625)"/>
       </defs>
       <use xlink:href="#ArialMT-31"/>
       <use xlink:href="#ArialMT-2e" x="55.615234"/>
       <use xlink:href="#ArialMT-32" x="83.398438"/>
      </g>
     </g>
    </g>
    <g id="text_4">
     <!-- Burst power (a.u.) -->
     <g transform="translate(35.155 137.224266) scale(0.12 -0.12)">
      <defs>
       <path id="ArialMT-42" d="M 469 0 
L 469 4581 
L 2188 4581 
Q 2713 4581 3030 4442 
Q 3347 4303 3526 4014 
Q 3706 3725 3706 3409 
Q 3706 3116 3547 2856 
Q 3388 2597 3066 2438 
Q 3481 2316 3704 2022 
Q 3928 1728 3928 1328 
Q 3928 1006 3792 729 
Q 3656 453 3456 303 
Q 3256 153 2954 76 
Q 2653 0 2216 0 
L 469 0 
z
M 1075 2656 
L 2066 2656 
Q 2469 2656 2644 2709 
Q 2875 2778 2992 2937 
Q 3109 3097 3109 3338 
Q 3109 3566 3000 3739 
Q 2891 3913 2687 3977 
Q 2484 4041 1991 4041 
L 1075 4041 
L 1075 2656 
z
M 1075 541 
L 2216 541 
Q 2509 541 2628 563 
Q 2838 600 2978 687 
Q 3119 775 3209 942 
Q 3300 1109 3300 1328 
Q 3300 1584 3169 1773 
Q 3038 1963 2805 2039 
Q 2572 2116 2134 2116 
L 1075 2116 
L 1075 541 
z
" transform="scale(0.015625)"/>
       <path id="ArialMT-75" d="M 2597 0 
L 2597 488 
Q 2209 -75 1544 -75 
Q 1250 -75 995 37 
Q 741 150 617 320 
Q 494 491 444 738 
Q 409 903 409 1263 
L 409 3319 
L 972 3319 
L 972 1478 
Q 972 1038 1006 884 
Q 1059 663 1231 536 
Q 1403 409 1656 409 
Q 1909 409 2131 539 
Q 2353 669 2445 892 
Q 2538 1116 2538 1541 
L 2538 3319 
L 3100 3319 
L 3100 0 
L 2597 0 
z
" transform="scale(0.015625)"/>
       <path id="ArialMT-72" d="M 416 0 
L 416 3319 
L 922 3319 
L 922 2816 
Q 1116 3169 1280 3281 
Q 1444 3394 1641 3394 
Q 1925 3394 2219 3213 
L 2025 2691 
Q 1819 2813 1613 2813 
Q 1428 2813 1281 2702 
Q 1134 2591 1072 2394 
Q 978 2094 978 1738 
L 978 0 
L 416 0 
z
" transform="scale(0.015625)"/>
       <path id="ArialMT-73" d="M 197 991 
L 753 1078 
Q 800 744 1014 566 
Q 1228 388 1613 388 
Q 2000 388 2187 545 
Q 2375 703 2375 916 
Q 2375 1106 2209 1216 
Q 2094 1291 1634 1406 
Q 1016 1563 777 1677 
Q 538 1791 414 1992 
Q 291 2194 291 2438 
Q 291 2659 392 2848 
Q 494 3038 669 3163 
Q 800 3259 1026 3326 
Q 1253 3394 1513 3394 
Q 1903 3394 2198 3281 
Q 2494 3169 2634 2976 
Q 2775 2784 2828 2463 
L 2278 2388 
Q 2241 2644 2061 2787 
Q 1881 2931 1553 2931 
Q 1166 2931 1000 2803 
Q 834 2675 834 2503 
Q 834 2394 903 2306 
Q 972 2216 1119 2156 
Q 1203 2125 1616 2013 
Q 2213 1853 2448 1751 
Q 2684 1650 2818 1456 
Q 2953 1263 2953 975 
Q 2953 694 2789 445 
Q 2625 197 2315 61 
Q 2006 -75 1616 -75 
Q 969 -75 630 194 
Q 291 463 197 991 
z
" transform="scale(0.015625)"/>
       <path id="ArialMT-74" d="M 1650 503 
L 1731 6 
Q 1494 -44 1306 -44 
Q 1000 -44 831 53 
Q 663 150 594 308 
Q 525 466 525 972 
L 525 2881 
L 113 2881 
L 113 3319 
L 525 3319 
L 525 4141 
L 1084 4478 
L 1084 3319 
L 1650 3319 
L 1650 2881 
L 1084 2881 
L 1084 941 
Q 1084 700 1114 631 
Q 1144 563 1211 522 
Q 1278 481 1403 481 
Q 1497 481 1650 503 
z
" transform="scale(0.015625)"/>
       <path id="ArialMT-20" transform="scale(0.015625)"/>
       <path id="ArialMT-70" d="M 422 -1272 
L 422 3319 
L 934 3319 
L 934 2888 
Q 1116 3141 1344 3267 
Q 1572 3394 1897 3394 
Q 2322 3394 2647 3175 
Q 2972 2956 3137 2557 
Q 3303 2159 3303 1684 
Q 3303 1175 3120 767 
Q 2938 359 2589 142 
Q 2241 -75 1856 -75 
Q 1575 -75 1351 44 
Q 1128 163 984 344 
L 984 -1272 
L 422 -1272 
z
M 931 1641 
Q 931 1000 1190 694 
Q 1450 388 1819 388 
Q 2194 388 2461 705 
Q 2728 1022 2728 1688 
Q 2728 2322 2467 2637 
Q 2206 2953 1844 2953 
Q 1484 2953 1207 2617 
Q 931 2281 931 1641 
z
" transform="scale(0.015625)"/>
       <path id="ArialMT-6f" d="M 213 1659 
Q 213 2581 725 3025 
Q 1153 3394 1769 3394 
Q 2453 3394 2887 2945 
Q 3322 2497 3322 1706 
Q 3322 1066 3130 698 
Q 2938 331 2570 128 
Q 2203 -75 1769 -75 
Q 1072 -75 642 372 
Q 213 819 213 1659 
z
M 791 1659 
Q 791 1022 1069 705 
Q 1347 388 1769 388 
Q 2188 388 2466 706 
Q 2744 1025 2744 1678 
Q 2744 2294 2464 2611 
Q 2184 2928 1769 2928 
Q 1347 2928 1069 2612 
Q 791 2297 791 1659 
z
" transform="scale(0.015625)"/>
       <path id="ArialMT-77" d="M 1034 0 
L 19 3319 
L 600 3319 
L 1128 1403 
L 1325 691 
Q 1338 744 1497 1375 
L 2025 3319 
L 2603 3319 
L 3100 1394 
L 3266 759 
L 3456 1400 
L 4025 3319 
L 4572 3319 
L 3534 0 
L 2950 0 
L 2422 1988 
L 2294 2553 
L 1622 0 
L 1034 0 
z
" transform="scale(0.015625)"/>
       <path id="ArialMT-65" d="M 2694 1069 
L 3275 997 
Q 3138 488 2766 206 
Q 2394 -75 1816 -75 
Q 1088 -75 661 373 
Q 234 822 234 1631 
Q 234 2469 665 2931 
Q 1097 3394 1784 3394 
Q 2450 3394 2872 2941 
Q 3294 2488 3294 1666 
Q 3294 1616 3291 1516 
L 816 1516 
Q 847 969 1125 678 
Q 1403 388 1819 388 
Q 2128 388 2347 550 
Q 2566 713 2694 1069 
z
M 847 1978 
L 2700 1978 
Q 2663 2397 2488 2606 
Q 2219 2931 1791 2931 
Q 1403 2931 1139 2672 
Q 875 2413 847 1978 
z
" transform="scale(0.015625)"/>
       <path id="ArialMT-28" d="M 1497 -1347 
Q 1031 -759 709 28 
Q 388 816 388 1659 
Q 388 2403 628 3084 
Q 909 3875 1497 4659 
L 1900 4659 
Q 1522 4009 1400 3731 
Q 1209 3300 1100 2831 
Q 966 2247 966 1656 
Q 966 153 1900 -1347 
L 1497 -1347 
z
" transform="scale(0.015625)"/>
       <path id="ArialMT-61" d="M 2588 409 
Q 2275 144 1986 34 
Q 1697 -75 1366 -75 
Q 819 -75 525 192 
Q 231 459 231 875 
Q 231 1119 342 1320 
Q 453 1522 633 1644 
Q 813 1766 1038 1828 
Q 1203 1872 1538 1913 
Q 2219 1994 2541 2106 
Q 2544 2222 2544 2253 
Q 2544 2597 2384 2738 
Q 2169 2928 1744 2928 
Q 1347 2928 1158 2789 
Q 969 2650 878 2297 
L 328 2372 
Q 403 2725 575 2942 
Q 747 3159 1072 3276 
Q 1397 3394 1825 3394 
Q 2250 3394 2515 3294 
Q 2781 3194 2906 3042 
Q 3031 2891 3081 2659 
Q 3109 2516 3109 2141 
L 3109 1391 
Q 3109 606 3145 398 
Q 3181 191 3288 0 
L 2700 0 
Q 2613 175 2588 409 
z
M 2541 1666 
Q 2234 1541 1622 1453 
Q 1275 1403 1131 1340 
Q 988 1278 909 1158 
Q 831 1038 831 891 
Q 831 666 1001 516 
Q 1172 366 1500 366 
Q 1825 366 2078 508 
Q 2331 650 2450 897 
Q 2541 1088 2541 1459 
L 2541 1666 
z
" transform="scale(0.015625)"/>
       <path id="ArialMT-29" d="M 791 -1347 
L 388 -1347 
Q 1322 153 1322 1656 
Q 1322 2244 1188 2822 
Q 1081 3291 891 3722 
Q 769 4003 388 4659 
L 791 4659 
Q 1378 3875 1659 3084 
Q 1900 2403 1900 1659 
Q 1900 816 1576 28 
Q 1253 -759 791 -1347 
z
" transform="scale(0.015625)"/>
      </defs>
      <use xlink:href="#ArialMT-42"/>
      <use xlink:href="#ArialMT-75" x="66.699219"/>
      <use xlink:href="#ArialMT-72" x="122.314453"/>
      <use xlink:href="#ArialMT-73" x="155.615234"/>
      <use xlink:href="#ArialMT-74" x="205.615234"/>
      <use xlink:href="#ArialMT-20" x="233.398438"/>
      <use xlink:href="#ArialMT-70" x="261.181641"/>
      <use xlink:href="#ArialMT-6f" x="316.796875"/>
      <use xlink:href="#ArialMT-77" x="372.412109"/>
      <use xlink:href="#ArialMT-65" x="444.628906"/>
      <use xlink:href="#ArialMT-72" x="500.244141"/>
      <use xlink:href="#ArialMT-20" x="533.544922"/>
      <use xlink:href="#ArialMT-28" x="561.328125"/>
      <use xlink:href="#ArialMT-61" x="594.628906"/>
      <use xlink:href="#ArialMT-2e" x="650.244141"/>
      <use xlink:href="#ArialMT-75" x="678.027344"/>
      <use xlink:href="#ArialMT-2e" x="733.642578"/>
      <use xlink:href="#ArialMT-29" x="761.425781"/>
     </g>
    </g>
   </g>
   <g id="matplotlib.axis_2">
    <g id="ytick_1">
     <g id="line2d_4">
      <defs>
       <path id="m213c71c464" d="M 0 0 
L 5 0 
" style="stroke: #000000"/>
      </defs>
      <g>
       <use xlink:href="#m213c71c464" x="38.195312" y="110.928797" style="stroke: #000000"/>
      </g>
     </g>
     <g id="text_5">
      <!-- 10 -->
      <g transform="translate(22.46125 114.865594) scale(0.11 -0.11)">
       <use xlink:href="#ArialMT-31"/>
       <use xlink:href="#ArialMT-30" x="55.615234"/>
      </g>
     </g>
    </g>
    <g id="ytick_2">
     <g id="line2d_5">
      <g>
       <use xlink:href="#m213c71c464" x="38.195312" y="85.980797" style="stroke: #000000"/>
      </g>
     </g>
     <g id="text_6">
      <!-- 30 -->
      <g transform="translate(22.46125 89.917594) scale(0.11 -0.11)">
       <defs>
        <path id="ArialMT-33" d="M 269 1209 
L 831 1284 
Q 928 806 1161 595 
Q 1394 384 1728 384 
Q 2125 384 2398 659 
Q 2672 934 2672 1341 
Q 2672 1728 2419 1979 
Q 2166 2231 1775 2231 
Q 1616 2231 1378 2169 
L 1441 2663 
Q 1497 2656 1531 2656 
Q 1891 2656 2178 2843 
Q 2466 3031 2466 3422 
Q 2466 3731 2256 3934 
Q 2047 4138 1716 4138 
Q 1388 4138 1169 3931 
Q 950 3725 888 3313 
L 325 3413 
Q 428 3978 793 4289 
Q 1159 4600 1703 4600 
Q 2078 4600 2393 4439 
Q 2709 4278 2876 4000 
Q 3044 3722 3044 3409 
Q 3044 3113 2884 2869 
Q 2725 2625 2413 2481 
Q 2819 2388 3044 2092 
Q 3269 1797 3269 1353 
Q 3269 753 2831 336 
Q 2394 -81 1725 -81 
Q 1122 -81 723 278 
Q 325 638 269 1209 
z
" transform="scale(0.015625)"/>
       </defs>
       <use xlink:href="#ArialMT-33"/>
       <use xlink:href="#ArialMT-30" x="55.615234"/>
      </g>
     </g>
    </g>
    <g id="ytick_3">
     <g id="line2d_6">
      <g>
       <use xlink:href="#m213c71c464" x="38.195312" y="61.032797" style="stroke: #000000"/>
      </g>
     </g>
     <g id="text_7">
      <!-- 50 -->
      <g transform="translate(22.46125 64.969594) scale(0.11 -0.11)">
       <defs>
        <path id="ArialMT-35" d="M 266 1200 
L 856 1250 
Q 922 819 1161 601 
Q 1400 384 1738 384 
Q 2144 384 2425 690 
Q 2706 997 2706 1503 
Q 2706 1984 2436 2262 
Q 2166 2541 1728 2541 
Q 1456 2541 1237 2417 
Q 1019 2294 894 2097 
L 366 2166 
L 809 4519 
L 3088 4519 
L 3088 3981 
L 1259 3981 
L 1013 2750 
Q 1425 3038 1878 3038 
Q 2478 3038 2890 2622 
Q 3303 2206 3303 1553 
Q 3303 931 2941 478 
Q 2500 -78 1738 -78 
Q 1113 -78 717 272 
Q 322 622 266 1200 
z
" transform="scale(0.015625)"/>
       </defs>
       <use xlink:href="#ArialMT-35"/>
       <use xlink:href="#ArialMT-30" x="55.615234"/>
      </g>
     </g>
    </g>
    <g id="ytick_4">
     <g id="line2d_7">
      <g>
       <use xlink:href="#m213c71c464" x="38.195312" y="36.084797" style="stroke: #000000"/>
      </g>
     </g>
     <g id="text_8">
      <!-- 70 -->
      <g transform="translate(22.46125 40.021594) scale(0.11 -0.11)">
       <defs>
        <path id="ArialMT-37" d="M 303 3981 
L 303 4522 
L 3269 4522 
L 3269 4084 
Q 2831 3619 2401 2847 
Q 1972 2075 1738 1259 
Q 1569 684 1522 0 
L 944 0 
Q 953 541 1156 1306 
Q 1359 2072 1739 2783 
Q 2119 3494 2547 3981 
L 303 3981 
z
" transform="scale(0.015625)"/>
       </defs>
       <use xlink:href="#ArialMT-37"/>
       <use xlink:href="#ArialMT-30" x="55.615234"/>
      </g>
     </g>
    </g>
    <g id="ytick_5">
     <g id="line2d_8">
      <g>
       <use xlink:href="#m213c71c464" x="38.195312" y="11.136797" style="stroke: #000000"/>
      </g>
     </g>
     <g id="text_9">
      <!-- 90 -->
      <g transform="translate(22.46125 15.073594) scale(0.11 -0.11)">
       <defs>
        <path id="ArialMT-39" d="M 350 1059 
L 891 1109 
Q 959 728 1153 556 
Q 1347 384 1650 384 
Q 1909 384 2104 503 
Q 2300 622 2425 820 
Q 2550 1019 2634 1356 
Q 2719 1694 2719 2044 
Q 2719 2081 2716 2156 
Q 2547 1888 2255 1720 
Q 1963 1553 1622 1553 
Q 1053 1553 659 1965 
Q 266 2378 266 3053 
Q 266 3750 677 4175 
Q 1088 4600 1706 4600 
Q 2153 4600 2523 4359 
Q 2894 4119 3086 3673 
Q 3278 3228 3278 2384 
Q 3278 1506 3087 986 
Q 2897 466 2520 194 
Q 2144 -78 1638 -78 
Q 1100 -78 759 220 
Q 419 519 350 1059 
z
M 2653 3081 
Q 2653 3566 2395 3850 
Q 2138 4134 1775 4134 
Q 1400 4134 1122 3828 
Q 844 3522 844 3034 
Q 844 2597 1108 2323 
Q 1372 2050 1759 2050 
Q 2150 2050 2401 2323 
Q 2653 2597 2653 3081 
z
" transform="scale(0.015625)"/>
       </defs>
       <use xlink:href="#ArialMT-39"/>
       <use xlink:href="#ArialMT-30" x="55.615234"/>
      </g>
     </g>
    </g>
    <g id="text_10">
     <!-- Frequency (Hz) -->
     <g transform="translate(15.935625 102.373734) rotate(-90) scale(0.12 -0.12)">
      <defs>
       <path id="ArialMT-46" d="M 525 0 
L 525 4581 
L 3616 4581 
L 3616 4041 
L 1131 4041 
L 1131 2622 
L 3281 2622 
L 3281 2081 
L 1131 2081 
L 1131 0 
L 525 0 
z
" transform="scale(0.015625)"/>
       <path id="ArialMT-71" d="M 2538 -1272 
L 2538 353 
Q 2406 169 2170 47 
Q 1934 -75 1669 -75 
Q 1078 -75 651 397 
Q 225 869 225 1691 
Q 225 2191 398 2587 
Q 572 2984 901 3189 
Q 1231 3394 1625 3394 
Q 2241 3394 2594 2875 
L 2594 3319 
L 3100 3319 
L 3100 -1272 
L 2538 -1272 
z
M 803 1669 
Q 803 1028 1072 708 
Q 1341 388 1716 388 
Q 2075 388 2334 692 
Q 2594 997 2594 1619 
Q 2594 2281 2320 2615 
Q 2047 2950 1678 2950 
Q 1313 2950 1058 2639 
Q 803 2328 803 1669 
z
" transform="scale(0.015625)"/>
       <path id="ArialMT-6e" d="M 422 0 
L 422 3319 
L 928 3319 
L 928 2847 
Q 1294 3394 1984 3394 
Q 2284 3394 2536 3286 
Q 2788 3178 2913 3003 
Q 3038 2828 3088 2588 
Q 3119 2431 3119 2041 
L 3119 0 
L 2556 0 
L 2556 2019 
Q 2556 2363 2490 2533 
Q 2425 2703 2258 2804 
Q 2091 2906 1866 2906 
Q 1506 2906 1245 2678 
Q 984 2450 984 1813 
L 984 0 
L 422 0 
z
" transform="scale(0.015625)"/>
       <path id="ArialMT-63" d="M 2588 1216 
L 3141 1144 
Q 3050 572 2676 248 
Q 2303 -75 1759 -75 
Q 1078 -75 664 370 
Q 250 816 250 1647 
Q 250 2184 428 2587 
Q 606 2991 970 3192 
Q 1334 3394 1763 3394 
Q 2303 3394 2647 3120 
Q 2991 2847 3088 2344 
L 2541 2259 
Q 2463 2594 2264 2762 
Q 2066 2931 1784 2931 
Q 1359 2931 1093 2626 
Q 828 2322 828 1663 
Q 828 994 1084 691 
Q 1341 388 1753 388 
Q 2084 388 2306 591 
Q 2528 794 2588 1216 
z
" transform="scale(0.015625)"/>
       <path id="ArialMT-79" d="M 397 -1278 
L 334 -750 
Q 519 -800 656 -800 
Q 844 -800 956 -737 
Q 1069 -675 1141 -563 
Q 1194 -478 1313 -144 
Q 1328 -97 1363 -6 
L 103 3319 
L 709 3319 
L 1400 1397 
Q 1534 1031 1641 628 
Q 1738 1016 1872 1384 
L 2581 3319 
L 3144 3319 
L 1881 -56 
Q 1678 -603 1566 -809 
Q 1416 -1088 1222 -1217 
Q 1028 -1347 759 -1347 
Q 597 -1347 397 -1278 
z
" transform="scale(0.015625)"/>
       <path id="ArialMT-48" d="M 513 0 
L 513 4581 
L 1119 4581 
L 1119 2700 
L 3500 2700 
L 3500 4581 
L 4106 4581 
L 4106 0 
L 3500 0 
L 3500 2159 
L 1119 2159 
L 1119 0 
L 513 0 
z
" transform="scale(0.015625)"/>
       <path id="ArialMT-7a" d="M 125 0 
L 125 456 
L 2238 2881 
Q 1878 2863 1603 2863 
L 250 2863 
L 250 3319 
L 2963 3319 
L 2963 2947 
L 1166 841 
L 819 456 
Q 1197 484 1528 484 
L 3063 484 
L 3063 0 
L 125 0 
z
" transform="scale(0.015625)"/>
      </defs>
      <use xlink:href="#ArialMT-46"/>
      <use xlink:href="#ArialMT-72" x="61.083984"/>
      <use xlink:href="#ArialMT-65" x="94.384766"/>
      <use xlink:href="#ArialMT-71" x="150"/>
      <use xlink:href="#ArialMT-75" x="205.615234"/>
      <use xlink:href="#ArialMT-65" x="261.230469"/>
      <use xlink:href="#ArialMT-6e" x="316.845703"/>
      <use xlink:href="#ArialMT-63" x="372.460938"/>
      <use xlink:href="#ArialMT-79" x="422.460938"/>
      <use xlink:href="#ArialMT-20" x="472.460938"/>
      <use xlink:href="#ArialMT-28" x="500.244141"/>
      <use xlink:href="#ArialMT-48" x="533.544922"/>
      <use xlink:href="#ArialMT-7a" x="605.761719"/>
      <use xlink:href="#ArialMT-29" x="655.761719"/>
     </g>
    </g>
   </g>
   <g id="patch_3">
    <path d="M 38.195312 110.928797 
L 38.195312 11.136797 
" style="fill: none; stroke: #000000; stroke-width: 0.8; stroke-linejoin: miter; stroke-linecap: square"/>
   </g>
   <g id="patch_4">
    <path d="M 38.195312 110.928797 
L 127.475313 110.928797 
" style="fill: none; stroke: #000000; stroke-width: 0.8; stroke-linejoin: miter; stroke-linecap: square"/>
   </g>
  </g>
  <g id="axes_2">
   <g id="patch_5">
    <path d="M 133.055313 110.928797 
L 138.044913 110.928797 
L 138.044913 11.136797 
L 133.055313 11.136797 
z
" style="fill: #ffffff"/>
   </g>
   <g id="QuadMesh_1">
    <path d="M 133.055313 110.928797 
L 138.044913 110.928797 
L 138.044913 105.939197 
L 133.055313 105.939197 
L 133.055313 110.928797 
" clip-path="url(#p9d563c2f50)" style="fill: #372466"/>
    <path d="M 133.055313 105.939197 
L 138.044913 105.939197 
L 138.044913 100.949597 
L 133.055313 100.949597 
L 133.055313 105.939197 
" clip-path="url(#p9d563c2f50)" style="fill: #4249b1"/>
    <path d="M 133.055313 100.949597 
L 138.044913 100.949597 
L 138.044913 95.959997 
L 133.055313 95.959997 
L 133.055313 100.949597 
" clip-path="url(#p9d563c2f50)" style="fill: #466be3"/>
    <path d="M 133.055313 95.959997 
L 138.044913 95.959997 
L 138.044913 90.970397 
L 133.055313 90.970397 
L 133.055313 95.959997 
" clip-path="url(#p9d563c2f50)" style="fill: #458afc"/>
    <path d="M 133.055313 90.970397 
L 138.044913 90.970397 
L 138.044913 85.980797 
L 133.055313 85.980797 
L 133.055313 90.970397 
" clip-path="url(#p9d563c2f50)" style="fill: #35abf8"/>
    <path d="M 133.055313 85.980797 
L 138.044913 85.980797 
L 138.044913 80.991197 
L 133.055313 80.991197 
L 133.055313 85.980797 
" clip-path="url(#p9d563c2f50)" style="fill: #1fc9dd"/>
    <path d="M 133.055313 80.991197 
L 138.044913 80.991197 
L 138.044913 76.001597 
L 133.055313 76.001597 
L 133.055313 80.991197 
" clip-path="url(#p9d563c2f50)" style="fill: #19e2bb"/>
    <path d="M 133.055313 76.001597 
L 138.044913 76.001597 
L 138.044913 71.011997 
L 133.055313 71.011997 
L 133.055313 76.001597 
" clip-path="url(#p9d563c2f50)" style="fill: #32f298"/>
    <path d="M 133.055313 71.011997 
L 138.044913 71.011997 
L 138.044913 66.022397 
L 133.055313 66.022397 
L 133.055313 71.011997 
" clip-path="url(#p9d563c2f50)" style="fill: #5dfc6f"/>
    <path d="M 133.055313 66.022397 
L 138.044913 66.022397 
L 138.044913 61.032797 
L 133.055313 61.032797 
L 133.055313 66.022397 
" clip-path="url(#p9d563c2f50)" style="fill: #8fff49"/>
    <path d="M 133.055313 61.032797 
L 138.044913 61.032797 
L 138.044913 56.043197 
L 133.055313 56.043197 
L 133.055313 61.032797 
" clip-path="url(#p9d563c2f50)" style="fill: #b4f836"/>
    <path d="M 133.055313 56.043197 
L 138.044913 56.043197 
L 138.044913 51.053597 
L 133.055313 51.053597 
L 133.055313 56.043197 
" clip-path="url(#p9d563c2f50)" style="fill: #d4e735"/>
    <path d="M 133.055313 51.053597 
L 138.044913 51.053597 
L 138.044913 46.063997 
L 133.055313 46.063997 
L 133.055313 51.053597 
" clip-path="url(#p9d563c2f50)" style="fill: #eecf3a"/>
    <path d="M 133.055313 46.063997 
L 138.044913 46.063997 
L 138.044913 41.074397 
L 133.055313 41.074397 
L 133.055313 46.063997 
" clip-path="url(#p9d563c2f50)" style="fill: #fbb637"/>
    <path d="M 133.055313 41.074397 
L 138.044913 41.074397 
L 138.044913 36.084797 
L 133.055313 36.084797 
L 133.055313 41.074397 
" clip-path="url(#p9d563c2f50)" style="fill: #fe932a"/>
    <path d="M 133.055313 36.084797 
L 138.044913 36.084797 
L 138.044913 31.095197 
L 133.055313 31.095197 
L 133.055313 36.084797 
" clip-path="url(#p9d563c2f50)" style="fill: #f66c19"/>
    <path d="M 133.055313 31.095197 
L 138.044913 31.095197 
L 138.044913 26.105597 
L 133.055313 26.105597 
L 133.055313 31.095197 
" clip-path="url(#p9d563c2f50)" style="fill: #e7490c"/>
    <path d="M 133.055313 26.105597 
L 138.044913 26.105597 
L 138.044913 21.115997 
L 133.055313 21.115997 
L 133.055313 26.105597 
" clip-path="url(#p9d563c2f50)" style="fill: #d02f05"/>
    <path d="M 133.055313 21.115997 
L 138.044913 21.115997 
L 138.044913 16.126397 
L 133.055313 16.126397 
L 133.055313 21.115997 
" clip-path="url(#p9d563c2f50)" style="fill: #b41b01"/>
    <path d="M 133.055313 16.126397 
L 138.044913 16.126397 
L 138.044913 11.136797 
L 133.055313 11.136797 
L 133.055313 16.126397 
" clip-path="url(#p9d563c2f50)" style="fill: #8e0a01"/>
    <path d="M 133.055313 11.136797 
L 138.044913 11.136797 
L 138.044913 6.147197 
L 133.055313 6.147197 
L 133.055313 11.136797 
" clip-path="url(#p9d563c2f50)" style="fill: #7a0403"/>
   </g>
   <g id="matplotlib.axis_3"/>
   <g id="matplotlib.axis_4">
    <g id="ytick_6">
     <g id="line2d_9">
      <defs>
       <path id="m83d623ec4e" d="M 0 0 
L -5 0 
" style="stroke: #000000"/>
      </defs>
      <g>
       <use xlink:href="#m83d623ec4e" x="138.044913" y="110.928797" style="stroke: #000000"/>
      </g>
     </g>
     <g id="text_11">
      <!-- 0.00 -->
      <g transform="translate(141.544913 114.865594) scale(0.11 -0.11)">
       <use xlink:href="#ArialMT-30"/>
       <use xlink:href="#ArialMT-2e" x="55.615234"/>
       <use xlink:href="#ArialMT-30" x="83.398438"/>
       <use xlink:href="#ArialMT-30" x="139.013672"/>
      </g>
     </g>
    </g>
    <g id="ytick_7">
     <g id="line2d_10">
      <g>
       <use xlink:href="#m83d623ec4e" x="138.044913" y="61.032797" style="stroke: #000000"/>
      </g>
     </g>
     <g id="text_12">
      <!-- 0.02 -->
      <g transform="translate(141.544913 64.969594) scale(0.11 -0.11)">
       <use xlink:href="#ArialMT-30"/>
       <use xlink:href="#ArialMT-2e" x="55.615234"/>
       <use xlink:href="#ArialMT-30" x="83.398438"/>
       <use xlink:href="#ArialMT-32" x="139.013672"/>
      </g>
     </g>
    </g>
    <g id="ytick_8">
     <g id="line2d_11">
      <g>
       <use xlink:href="#m83d623ec4e" x="138.044913" y="11.136797" style="stroke: #000000"/>
      </g>
     </g>
     <g id="text_13">
      <!-- 0.04 -->
      <g transform="translate(141.544913 15.073594) scale(0.11 -0.11)">
       <defs>
        <path id="ArialMT-34" d="M 2069 0 
L 2069 1097 
L 81 1097 
L 81 1613 
L 2172 4581 
L 2631 4581 
L 2631 1613 
L 3250 1613 
L 3250 1097 
L 2631 1097 
L 2631 0 
L 2069 0 
z
M 2069 1613 
L 2069 3678 
L 634 1613 
L 2069 1613 
z
" transform="scale(0.015625)"/>
       </defs>
       <use xlink:href="#ArialMT-30"/>
       <use xlink:href="#ArialMT-2e" x="55.615234"/>
       <use xlink:href="#ArialMT-30" x="83.398438"/>
       <use xlink:href="#ArialMT-34" x="139.013672"/>
      </g>
     </g>
    </g>
   </g>
   <g id="LineCollection_1"/>
   <g id="patch_6">
    <path d="M 133.055313 110.928797 
L 135.550113 110.928797 
L 138.044913 110.928797 
L 138.044913 11.136797 
L 135.550113 11.136797 
L 133.055313 11.136797 
L 133.055313 110.928797 
z
" style="fill: none; stroke: #000000; stroke-width: 0.8; stroke-linejoin: miter; stroke-linecap: square"/>
   </g>
  </g>
 </g>
 <defs>
  <clipPath id="p0201261772">
   <rect x="38.195312" y="11.136797" width="89.28" height="99.792"/>
  </clipPath>
  <clipPath id="p9d563c2f50">
   <rect x="133.055313" y="11.136797" width="4.9896" height="99.792"/>
  </clipPath>
 </defs>
</svg>
