<?xml version="1.0" encoding="utf-8" standalone="no"?>
<!DOCTYPE svg PUBLIC "-//W3C//DTD SVG 1.1//EN"
  "http://www.w3.org/Graphics/SVG/1.1/DTD/svg11.dtd">
<svg xmlns:xlink="http://www.w3.org/1999/xlink" width="125.078125pt" height="168.549844pt" viewBox="0 0 125.078125 168.549844" xmlns="http://www.w3.org/2000/svg" version="1.1">
 <metadata>
  <rdf:RDF xmlns:dc="http://purl.org/dc/elements/1.1/" xmlns:cc="http://creativecommons.org/ns#" xmlns:rdf="http://www.w3.org/1999/02/22-rdf-syntax-ns#">
   <cc:Work>
    <dc:type rdf:resource="http://purl.org/dc/dcmitype/StillImage"/>
    <dc:date>2025-04-29T14:28:50.120534</dc:date>
    <dc:format>image/svg+xml</dc:format>
    <dc:creator>
     <cc:Agent>
      <dc:title>Matplotlib v3.7.2, https://matplotlib.org/</dc:title>
     </cc:Agent>
    </dc:creator>
   </cc:Work>
  </rdf:RDF>
 </metadata>
 <defs>
  <style type="text/css">*{stroke-linejoin: round; stroke-linecap: butt}</style>
 </defs>
 <g id="figure_1">
  <g id="patch_1">
   <path d="M -0 168.549844 
L 125.078125 168.549844 
L 125.078125 0 
L -0 0 
z
" style="fill: #ffffff"/>
  </g>
  <g id="axes_1">
   <g id="patch_2">
    <path d="M 38.195312 132.815625 
L 113.525313 132.815625 
L 113.525313 21.935625 
L 38.195312 21.935625 
z
" style="fill: #ffffff"/>
   </g>
   <g id="PolyCollection_1">
    <defs>
     <path id="m5d0da9de87" d="M 63.305312 -82.339536 
L 63.290345 -82.339536 
L 63.285811 -82.815218 
L 63.280094 -83.2909 
L 63.272923 -83.766582 
L 63.263977 -84.242264 
L 63.252875 -84.717946 
L 63.239172 -85.193628 
L 63.222345 -85.66931 
L 63.201776 -86.144992 
L 63.176721 -86.620674 
L 63.146265 -87.096356 
L 63.109256 -87.572038 
L 63.064216 -88.04772 
L 63.009236 -88.523402 
L 62.94186 -88.999084 
L 62.858982 -89.474767 
L 62.756779 -89.950449 
L 62.630717 -90.426131 
L 62.475664 -90.901813 
L 62.286141 -91.377495 
L 62.056728 -91.853177 
L 61.782622 -92.328859 
L 61.460296 -92.804541 
L 61.088211 -93.280223 
L 60.667458 -93.755905 
L 60.202236 -94.231587 
L 59.700051 -94.707269 
L 59.17155 -95.182951 
L 58.629966 -95.658633 
L 58.090194 -96.134315 
L 57.567593 -96.609997 
L 57.07666 -97.085679 
L 56.629753 -97.561361 
L 56.236038 -98.037043 
L 55.900804 -98.512725 
L 55.625224 -98.988407 
L 55.406578 -99.464089 
L 55.238888 -99.939771 
L 55.113821 -100.415453 
L 55.021747 -100.891135 
L 54.95277 -101.366817 
L 54.897624 -101.842499 
L 54.84834 -102.318181 
L 54.798641 -102.793863 
L 54.744094 -103.269545 
L 54.682042 -103.745227 
L 54.611402 -104.220909 
L 54.532401 -104.696591 
L 54.446312 -105.172274 
L 54.35525 -105.647956 
L 54.262051 -106.123638 
L 54.170238 -106.59932 
L 54.084053 -107.075002 
L 54.008525 -107.550684 
L 53.949509 -108.026366 
L 53.91366 -108.502048 
L 53.908279 -108.97773 
L 53.941012 -109.453412 
L 54.019388 -109.929094 
L 54.150232 -110.404776 
L 54.338995 -110.880458 
L 54.589101 -111.35614 
L 54.90139 -111.831822 
L 55.273755 -112.307504 
L 55.701049 -112.783186 
L 56.175288 -113.258868 
L 56.686142 -113.73455 
L 57.221665 -114.210232 
L 57.769165 -114.685914 
L 58.316108 -115.161596 
L 58.85095 -115.637278 
L 59.363792 -116.11296 
L 59.846815 -116.588642 
L 60.29446 -117.064324 
L 60.703386 -117.540006 
L 61.072239 -118.015688 
L 61.401298 -118.49137 
L 61.692075 -118.967052 
L 61.946918 -119.442734 
L 62.168652 -119.918416 
L 62.36031 -120.394099 
L 62.524925 -120.869781 
L 62.665416 -121.345463 
L 62.784514 -121.821145 
L 62.884744 -122.296827 
L 62.968426 -122.772509 
L 63.037689 -123.248191 
L 63.094482 -123.723873 
L 63.140589 -124.199555 
L 63.177636 -124.675237 
L 63.207091 -125.150919 
L 63.230265 -125.626601 
L 63.248314 -126.102283 
L 63.262237 -126.577965 
L 63.272888 -127.053647 
L 63.280975 -127.529329 
L 63.287082 -128.005011 
L 63.291675 -128.480693 
L 63.295122 -128.956375 
L 63.297708 -129.432057 
L 63.29965 -129.907739 
L 63.305312 -129.907739 
L 63.305312 -129.907739 
L 63.305312 -129.432057 
L 63.305312 -128.956375 
L 63.305312 -128.480693 
L 63.305312 -128.005011 
L 63.305312 -127.529329 
L 63.305312 -127.053647 
L 63.305312 -126.577965 
L 63.305312 -126.102283 
L 63.305312 -125.626601 
L 63.305312 -125.150919 
L 63.305312 -124.675237 
L 63.305312 -124.199555 
L 63.305312 -123.723873 
L 63.305312 -123.248191 
L 63.305312 -122.772509 
L 63.305312 -122.296827 
L 63.305312 -121.821145 
L 63.305312 -121.345463 
L 63.305312 -120.869781 
L 63.305312 -120.394099 
L 63.305312 -119.918416 
L 63.305312 -119.442734 
L 63.305312 -118.967052 
L 63.305312 -118.49137 
L 63.305312 -118.015688 
L 63.305312 -117.540006 
L 63.305312 -117.064324 
L 63.305312 -116.588642 
L 63.305312 -116.11296 
L 63.305312 -115.637278 
L 63.305312 -115.161596 
L 63.305312 -114.685914 
L 63.305312 -114.210232 
L 63.305312 -113.73455 
L 63.305312 -113.258868 
L 63.305312 -112.783186 
L 63.305312 -112.307504 
L 63.305312 -111.831822 
L 63.305312 -111.35614 
L 63.305312 -110.880458 
L 63.305312 -110.404776 
L 63.305312 -109.929094 
L 63.305312 -109.453412 
L 63.305312 -108.97773 
L 63.305312 -108.502048 
L 63.305312 -108.026366 
L 63.305312 -107.550684 
L 63.305312 -107.075002 
L 63.305312 -106.59932 
L 63.305312 -106.123638 
L 63.305312 -105.647956 
L 63.305312 -105.172274 
L 63.305312 -104.696591 
L 63.305312 -104.220909 
L 63.305312 -103.745227 
L 63.305312 -103.269545 
L 63.305312 -102.793863 
L 63.305312 -102.318181 
L 63.305312 -101.842499 
L 63.305312 -101.366817 
L 63.305312 -100.891135 
L 63.305312 -100.415453 
L 63.305312 -99.939771 
L 63.305312 -99.464089 
L 63.305312 -98.988407 
L 63.305312 -98.512725 
L 63.305312 -98.037043 
L 63.305312 -97.561361 
L 63.305312 -97.085679 
L 63.305312 -96.609997 
L 63.305312 -96.134315 
L 63.305312 -95.658633 
L 63.305312 -95.182951 
L 63.305312 -94.707269 
L 63.305312 -94.231587 
L 63.305312 -93.755905 
L 63.305312 -93.280223 
L 63.305312 -92.804541 
L 63.305312 -92.328859 
L 63.305312 -91.853177 
L 63.305312 -91.377495 
L 63.305312 -90.901813 
L 63.305312 -90.426131 
L 63.305312 -89.950449 
L 63.305312 -89.474767 
L 63.305312 -88.999084 
L 63.305312 -88.523402 
L 63.305312 -88.04772 
L 63.305312 -87.572038 
L 63.305312 -87.096356 
L 63.305312 -86.620674 
L 63.305312 -86.144992 
L 63.305312 -85.66931 
L 63.305312 -85.193628 
L 63.305312 -84.717946 
L 63.305312 -84.242264 
L 63.305312 -83.766582 
L 63.305312 -83.2909 
L 63.305312 -82.815218 
L 63.305312 -82.339536 
z
" style="stroke: #000000; stroke-opacity: 0.8"/>
    </defs>
    <g clip-path="url(#pf6388f49ac)">
     <use xlink:href="#m5d0da9de87" x="0" y="168.549844" style="fill: #bdbdbb; fill-opacity: 0.8; stroke: #000000; stroke-opacity: 0.8"/>
    </g>
   </g>
   <g id="PolyCollection_2">
    <defs>
     <path id="mf5bfa22e4b" d="M 63.305312 -77.098811 
L 63.313092 -77.098811 
L 63.315659 -77.625978 
L 63.318958 -78.153144 
L 63.323171 -78.68031 
L 63.328522 -79.207477 
L 63.33528 -79.734643 
L 63.343777 -80.261809 
L 63.354411 -80.788976 
L 63.367658 -81.316142 
L 63.384094 -81.843308 
L 63.404407 -82.370475 
L 63.42942 -82.897641 
L 63.460127 -83.424807 
L 63.497725 -83.951974 
L 63.543666 -84.47914 
L 63.599702 -85.006306 
L 63.667945 -85.533473 
L 63.750907 -86.060639 
L 63.851522 -86.587806 
L 63.973133 -87.114972 
L 64.119405 -87.642138 
L 64.294178 -88.169305 
L 64.501213 -88.696471 
L 64.743857 -89.223637 
L 65.024639 -89.750804 
L 65.344818 -90.27797 
L 65.703959 -90.805136 
L 66.099577 -91.332303 
L 66.526943 -91.859469 
L 66.979086 -92.386635 
L 67.447037 -92.913802 
L 67.920312 -93.440968 
L 68.387607 -93.968134 
L 68.837616 -94.495301 
L 69.259889 -95.022467 
L 69.645626 -95.549633 
L 69.988294 -96.0768 
L 70.284006 -96.603966 
L 70.53162 -97.131132 
L 70.732564 -97.658299 
L 70.890427 -98.185465 
L 71.010394 -98.712631 
L 71.098604 -99.239798 
L 71.16152 -99.766964 
L 71.205383 -100.29413 
L 71.235792 -100.821297 
L 71.257444 -101.348463 
L 71.274012 -101.875629 
L 71.288149 -102.402796 
L 71.301574 -102.929962 
L 71.315199 -103.457128 
L 71.329254 -103.984295 
L 71.343377 -104.511461 
L 71.356662 -105.038627 
L 71.367648 -105.565794 
L 71.37427 -106.09296 
L 71.373789 -106.620126 
L 71.36274 -107.147293 
L 71.336932 -107.674459 
L 71.291527 -108.201625 
L 71.221227 -108.728792 
L 71.120578 -109.255958 
L 70.984377 -109.783124 
L 70.808145 -110.310291 
L 70.588628 -110.837457 
L 70.32425 -111.364623 
L 70.015462 -111.89179 
L 69.664925 -112.418956 
L 69.277496 -112.946122 
L 68.859993 -113.473289 
L 68.420778 -114.000455 
L 67.969187 -114.527621 
L 67.514889 -115.054788 
L 67.067234 -115.581954 
L 66.634686 -116.10912 
L 66.224372 -116.636287 
L 65.841803 -117.163453 
L 65.490764 -117.690619 
L 65.173363 -118.217786 
L 64.890203 -118.744952 
L 64.640639 -119.272118 
L 64.423073 -119.799285 
L 64.235246 -120.326451 
L 64.074508 -120.853617 
L 63.938034 -121.380784 
L 63.822993 -121.90795 
L 63.726664 -122.435116 
L 63.646507 -122.962283 
L 63.580206 -123.489449 
L 63.525681 -124.016615 
L 63.481089 -124.543782 
L 63.444817 -125.070948 
L 63.415463 -125.598114 
L 63.391827 -126.125281 
L 63.372886 -126.652447 
L 63.357779 -127.179613 
L 63.345787 -127.70678 
L 63.336315 -128.233946 
L 63.328875 -128.761112 
L 63.323065 -129.288279 
L 63.31856 -129.815445 
L 63.305312 -129.815445 
L 63.305312 -129.815445 
L 63.305312 -129.288279 
L 63.305312 -128.761112 
L 63.305312 -128.233946 
L 63.305312 -127.70678 
L 63.305312 -127.179613 
L 63.305312 -126.652447 
L 63.305312 -126.125281 
L 63.305312 -125.598114 
L 63.305312 -125.070948 
L 63.305312 -124.543782 
L 63.305312 -124.016615 
L 63.305312 -123.489449 
L 63.305312 -122.962283 
L 63.305312 -122.435116 
L 63.305312 -121.90795 
L 63.305312 -121.380784 
L 63.305312 -120.853617 
L 63.305312 -120.326451 
L 63.305312 -119.799285 
L 63.305312 -119.272118 
L 63.305312 -118.744952 
L 63.305312 -118.217786 
L 63.305312 -117.690619 
L 63.305312 -117.163453 
L 63.305312 -116.636287 
L 63.305312 -116.10912 
L 63.305312 -115.581954 
L 63.305312 -115.054788 
L 63.305312 -114.527621 
L 63.305312 -114.000455 
L 63.305312 -113.473289 
L 63.305312 -112.946122 
L 63.305312 -112.418956 
L 63.305312 -111.89179 
L 63.305312 -111.364623 
L 63.305312 -110.837457 
L 63.305312 -110.310291 
L 63.305312 -109.783124 
L 63.305312 -109.255958 
L 63.305312 -108.728792 
L 63.305312 -108.201625 
L 63.305312 -107.674459 
L 63.305312 -107.147293 
L 63.305312 -106.620126 
L 63.305312 -106.09296 
L 63.305312 -105.565794 
L 63.305312 -105.038627 
L 63.305312 -104.511461 
L 63.305312 -103.984295 
L 63.305312 -103.457128 
L 63.305312 -102.929962 
L 63.305312 -102.402796 
L 63.305312 -101.875629 
L 63.305312 -101.348463 
L 63.305312 -100.821297 
L 63.305312 -100.29413 
L 63.305312 -99.766964 
L 63.305312 -99.239798 
L 63.305312 -98.712631 
L 63.305312 -98.185465 
L 63.305312 -97.658299 
L 63.305312 -97.131132 
L 63.305312 -96.603966 
L 63.305312 -96.0768 
L 63.305312 -95.549633 
L 63.305312 -95.022467 
L 63.305312 -94.495301 
L 63.305312 -93.968134 
L 63.305312 -93.440968 
L 63.305312 -92.913802 
L 63.305312 -92.386635 
L 63.305312 -91.859469 
L 63.305312 -91.332303 
L 63.305312 -90.805136 
L 63.305312 -90.27797 
L 63.305312 -89.750804 
L 63.305312 -89.223637 
L 63.305312 -88.696471 
L 63.305312 -88.169305 
L 63.305312 -87.642138 
L 63.305312 -87.114972 
L 63.305312 -86.587806 
L 63.305312 -86.060639 
L 63.305312 -85.533473 
L 63.305312 -85.006306 
L 63.305312 -84.47914 
L 63.305312 -83.951974 
L 63.305312 -83.424807 
L 63.305312 -82.897641 
L 63.305312 -82.370475 
L 63.305312 -81.843308 
L 63.305312 -81.316142 
L 63.305312 -80.788976 
L 63.305312 -80.261809 
L 63.305312 -79.734643 
L 63.305312 -79.207477 
L 63.305312 -78.68031 
L 63.305312 -78.153144 
L 63.305312 -77.625978 
L 63.305312 -77.098811 
z
" style="stroke: #000000; stroke-opacity: 0.8"/>
    </defs>
    <g clip-path="url(#pf6388f49ac)">
     <use xlink:href="#mf5bfa22e4b" x="0" y="168.549844" style="fill: #ff812f; fill-opacity: 0.8; stroke: #000000; stroke-opacity: 0.8"/>
    </g>
   </g>
   <g id="PolyCollection_3">
    <defs>
     <path id="m86f88f362c" d="M 88.415312 -58.58347 
L 84.981345 -58.58347 
L 84.526468 -58.720939 
L 84.037163 -58.858407 
L 83.514806 -58.995875 
L 82.961411 -59.133343 
L 82.379631 -59.270811 
L 81.77275 -59.408279 
L 81.144653 -59.545747 
L 80.499778 -59.683216 
L 79.843053 -59.820684 
L 79.179812 -59.958152 
L 78.515705 -60.09562 
L 77.856584 -60.233088 
L 77.208389 -60.370556 
L 76.577022 -60.508024 
L 75.968219 -60.645493 
L 75.387416 -60.782961 
L 74.839629 -60.920429 
L 74.329331 -61.057897 
L 73.860341 -61.195365 
L 73.435732 -61.332833 
L 73.057751 -61.470302 
L 72.727764 -61.60777 
L 72.446221 -61.745238 
L 72.212649 -61.882706 
L 72.02567 -62.020174 
L 71.883046 -62.157642 
L 71.781757 -62.29511 
L 71.718095 -62.432579 
L 71.687782 -62.570047 
L 71.686111 -62.707515 
L 71.708093 -62.844983 
L 71.748611 -62.982451 
L 71.802573 -63.119919 
L 71.865056 -63.257388 
L 71.931438 -63.394856 
L 71.997503 -63.532324 
L 72.059525 -63.669792 
L 72.114322 -63.80726 
L 72.159274 -63.944728 
L 72.19232 -64.082196 
L 72.211924 -64.219665 
L 72.217016 -64.357133 
L 72.206931 -64.494601 
L 72.181324 -64.632069 
L 72.140101 -64.769537 
L 72.083353 -64.907005 
L 72.011311 -65.044473 
L 71.924319 -65.181942 
L 71.822837 -65.31941 
L 71.707468 -65.456878 
L 71.579008 -65.594346 
L 71.438519 -65.731814 
L 71.287408 -65.869282 
L 71.12751 -66.006751 
L 70.961163 -66.144219 
L 70.79126 -66.281687 
L 70.621279 -66.419155 
L 70.455271 -66.556623 
L 70.297809 -66.694091 
L 70.153897 -66.831559 
L 70.028833 -66.969028 
L 69.928044 -67.106496 
L 69.856891 -67.243964 
L 69.820466 -67.381432 
L 69.823381 -67.5189 
L 69.869576 -67.656368 
L 69.962152 -67.793837 
L 70.103242 -67.931305 
L 70.293931 -68.068773 
L 70.534226 -68.206241 
L 70.823078 -68.343709 
L 71.158461 -68.481177 
L 71.53749 -68.618645 
L 71.956579 -68.756114 
L 72.411617 -68.893582 
L 72.898163 -69.03105 
L 73.411629 -69.168518 
L 73.947455 -69.305986 
L 74.50126 -69.443454 
L 75.068951 -69.580922 
L 75.646808 -69.718391 
L 76.23152 -69.855859 
L 76.820188 -69.993327 
L 77.410297 -70.130795 
L 77.999661 -70.268263 
L 78.586351 -70.405731 
L 79.168619 -70.5432 
L 79.744814 -70.680668 
L 80.313316 -70.818136 
L 80.872483 -70.955604 
L 81.420606 -71.093072 
L 81.955903 -71.23054 
L 82.476522 -71.368008 
L 82.980565 -71.505477 
L 83.466136 -71.642945 
L 83.931388 -71.780413 
L 84.374588 -71.917881 
L 84.794178 -72.055349 
L 85.188833 -72.192817 
L 85.557507 -72.330286 
L 88.415312 -72.330286 
L 88.415312 -72.330286 
L 88.415312 -72.192817 
L 88.415312 -72.055349 
L 88.415312 -71.917881 
L 88.415312 -71.780413 
L 88.415312 -71.642945 
L 88.415312 -71.505477 
L 88.415312 -71.368008 
L 88.415312 -71.23054 
L 88.415312 -71.093072 
L 88.415312 -70.955604 
L 88.415312 -70.818136 
L 88.415312 -70.680668 
L 88.415312 -70.5432 
L 88.415312 -70.405731 
L 88.415312 -70.268263 
L 88.415312 -70.130795 
L 88.415312 -69.993327 
L 88.415312 -69.855859 
L 88.415312 -69.718391 
L 88.415312 -69.580922 
L 88.415312 -69.443454 
L 88.415312 -69.305986 
L 88.415312 -69.168518 
L 88.415312 -69.03105 
L 88.415312 -68.893582 
L 88.415312 -68.756114 
L 88.415312 -68.618645 
L 88.415312 -68.481177 
L 88.415312 -68.343709 
L 88.415312 -68.206241 
L 88.415312 -68.068773 
L 88.415312 -67.931305 
L 88.415312 -67.793837 
L 88.415312 -67.656368 
L 88.415312 -67.5189 
L 88.415312 -67.381432 
L 88.415312 -67.243964 
L 88.415312 -67.106496 
L 88.415312 -66.969028 
L 88.415312 -66.831559 
L 88.415312 -66.694091 
L 88.415312 -66.556623 
L 88.415312 -66.419155 
L 88.415312 -66.281687 
L 88.415312 -66.144219 
L 88.415312 -66.006751 
L 88.415312 -65.869282 
L 88.415312 -65.731814 
L 88.415312 -65.594346 
L 88.415312 -65.456878 
L 88.415312 -65.31941 
L 88.415312 -65.181942 
L 88.415312 -65.044473 
L 88.415312 -64.907005 
L 88.415312 -64.769537 
L 88.415312 -64.632069 
L 88.415312 -64.494601 
L 88.415312 -64.357133 
L 88.415312 -64.219665 
L 88.415312 -64.082196 
L 88.415312 -63.944728 
L 88.415312 -63.80726 
L 88.415312 -63.669792 
L 88.415312 -63.532324 
L 88.415312 -63.394856 
L 88.415312 -63.257388 
L 88.415312 -63.119919 
L 88.415312 -62.982451 
L 88.415312 -62.844983 
L 88.415312 -62.707515 
L 88.415312 -62.570047 
L 88.415312 -62.432579 
L 88.415312 -62.29511 
L 88.415312 -62.157642 
L 88.415312 -62.020174 
L 88.415312 -61.882706 
L 88.415312 -61.745238 
L 88.415312 -61.60777 
L 88.415312 -61.470302 
L 88.415312 -61.332833 
L 88.415312 -61.195365 
L 88.415312 -61.057897 
L 88.415312 -60.920429 
L 88.415312 -60.782961 
L 88.415312 -60.645493 
L 88.415312 -60.508024 
L 88.415312 -60.370556 
L 88.415312 -60.233088 
L 88.415312 -60.09562 
L 88.415312 -59.958152 
L 88.415312 -59.820684 
L 88.415312 -59.683216 
L 88.415312 -59.545747 
L 88.415312 -59.408279 
L 88.415312 -59.270811 
L 88.415312 -59.133343 
L 88.415312 -58.995875 
L 88.415312 -58.858407 
L 88.415312 -58.720939 
L 88.415312 -58.58347 
z
" style="stroke: #000000; stroke-opacity: 0.8"/>
    </defs>
    <g clip-path="url(#pf6388f49ac)">
     <use xlink:href="#m86f88f362c" x="0" y="168.549844" style="fill: #bdbdbb; fill-opacity: 0.8; stroke: #000000; stroke-opacity: 0.8"/>
    </g>
   </g>
   <g id="PolyCollection_4">
    <defs>
     <path id="m360e03ef6f" d="M 88.415312 -42.172279 
L 89.377127 -42.172279 
L 89.489282 -43.074738 
L 89.607901 -43.977197 
L 89.732365 -44.879656 
L 89.861898 -45.782115 
L 89.995576 -46.684574 
L 90.132329 -47.587033 
L 90.270955 -48.489493 
L 90.410134 -49.391952 
L 90.548449 -50.294411 
L 90.684411 -51.19687 
L 90.81648 -52.099329 
L 90.943102 -53.001788 
L 91.062734 -53.904247 
L 91.173879 -54.806707 
L 91.275117 -55.709166 
L 91.365142 -56.611625 
L 91.442783 -57.514084 
L 91.507042 -58.416543 
L 91.557113 -59.319002 
L 91.592402 -60.221461 
L 91.61255 -61.123921 
L 91.617437 -62.02638 
L 91.607192 -62.928839 
L 91.582196 -63.831298 
L 91.54307 -64.733757 
L 91.490675 -65.636216 
L 91.426086 -66.538675 
L 91.35058 -67.441135 
L 91.265609 -68.343594 
L 91.172773 -69.246053 
L 91.073785 -70.148512 
L 90.970446 -71.050971 
L 90.864603 -71.95343 
L 90.75812 -72.855889 
L 90.652839 -73.758349 
L 90.55055 -74.660808 
L 90.452958 -75.563267 
L 90.361651 -76.465726 
L 90.278078 -77.368185 
L 90.203521 -78.270644 
L 90.139079 -79.173103 
L 90.085649 -80.075563 
L 90.043918 -80.978022 
L 90.014351 -81.880481 
L 89.997193 -82.78294 
L 89.992463 -83.685399 
L 89.999965 -84.587858 
L 90.019291 -85.490317 
L 90.049834 -86.392777 
L 90.090804 -87.295236 
L 90.141242 -88.197695 
L 90.200042 -89.100154 
L 90.26597 -90.002613 
L 90.337688 -90.905072 
L 90.413775 -91.807531 
L 90.492756 -92.709991 
L 90.573123 -93.61245 
L 90.65336 -94.514909 
L 90.731969 -95.417368 
L 90.807491 -96.319827 
L 90.878528 -97.222286 
L 90.943767 -98.124745 
L 91.001993 -99.027205 
L 91.052114 -99.929664 
L 91.093168 -100.832123 
L 91.12434 -101.734582 
L 91.144971 -102.637041 
L 91.154565 -103.5395 
L 91.152796 -104.441959 
L 91.139507 -105.344418 
L 91.114709 -106.246878 
L 91.078582 -107.149337 
L 91.031463 -108.051796 
L 90.973842 -108.954255 
L 90.906346 -109.856714 
L 90.829729 -110.759173 
L 90.744854 -111.661632 
L 90.652677 -112.564092 
L 90.554226 -113.466551 
L 90.450584 -114.36901 
L 90.342865 -115.271469 
L 90.232195 -116.173928 
L 90.119694 -117.076387 
L 90.00645 -117.978846 
L 89.89351 -118.881306 
L 89.781856 -119.783765 
L 89.672394 -120.686224 
L 89.565942 -121.588683 
L 89.463222 -122.491142 
L 89.364848 -123.393601 
L 89.271332 -124.29606 
L 89.183072 -125.19852 
L 89.100362 -126.100979 
L 89.023392 -127.003438 
L 88.952254 -127.905897 
L 88.886951 -128.808356 
L 88.827407 -129.710815 
L 88.773474 -130.613274 
L 88.724942 -131.515734 
L 88.681557 -132.418193 
L 88.415312 -132.418193 
L 88.415312 -132.418193 
L 88.415312 -131.515734 
L 88.415312 -130.613274 
L 88.415312 -129.710815 
L 88.415312 -128.808356 
L 88.415312 -127.905897 
L 88.415312 -127.003438 
L 88.415312 -126.100979 
L 88.415312 -125.19852 
L 88.415312 -124.29606 
L 88.415312 -123.393601 
L 88.415312 -122.491142 
L 88.415312 -121.588683 
L 88.415312 -120.686224 
L 88.415312 -119.783765 
L 88.415312 -118.881306 
L 88.415312 -117.978846 
L 88.415312 -117.076387 
L 88.415312 -116.173928 
L 88.415312 -115.271469 
L 88.415312 -114.36901 
L 88.415312 -113.466551 
L 88.415312 -112.564092 
L 88.415312 -111.661632 
L 88.415312 -110.759173 
L 88.415312 -109.856714 
L 88.415312 -108.954255 
L 88.415312 -108.051796 
L 88.415312 -107.149337 
L 88.415312 -106.246878 
L 88.415312 -105.344418 
L 88.415312 -104.441959 
L 88.415312 -103.5395 
L 88.415312 -102.637041 
L 88.415312 -101.734582 
L 88.415312 -100.832123 
L 88.415312 -99.929664 
L 88.415312 -99.027205 
L 88.415312 -98.124745 
L 88.415312 -97.222286 
L 88.415312 -96.319827 
L 88.415312 -95.417368 
L 88.415312 -94.514909 
L 88.415312 -93.61245 
L 88.415312 -92.709991 
L 88.415312 -91.807531 
L 88.415312 -90.905072 
L 88.415312 -90.002613 
L 88.415312 -89.100154 
L 88.415312 -88.197695 
L 88.415312 -87.295236 
L 88.415312 -86.392777 
L 88.415312 -85.490317 
L 88.415312 -84.587858 
L 88.415312 -83.685399 
L 88.415312 -82.78294 
L 88.415312 -81.880481 
L 88.415312 -80.978022 
L 88.415312 -80.075563 
L 88.415312 -79.173103 
L 88.415312 -78.270644 
L 88.415312 -77.368185 
L 88.415312 -76.465726 
L 88.415312 -75.563267 
L 88.415312 -74.660808 
L 88.415312 -73.758349 
L 88.415312 -72.855889 
L 88.415312 -71.95343 
L 88.415312 -71.050971 
L 88.415312 -70.148512 
L 88.415312 -69.246053 
L 88.415312 -68.343594 
L 88.415312 -67.441135 
L 88.415312 -66.538675 
L 88.415312 -65.636216 
L 88.415312 -64.733757 
L 88.415312 -63.831298 
L 88.415312 -62.928839 
L 88.415312 -62.02638 
L 88.415312 -61.123921 
L 88.415312 -60.221461 
L 88.415312 -59.319002 
L 88.415312 -58.416543 
L 88.415312 -57.514084 
L 88.415312 -56.611625 
L 88.415312 -55.709166 
L 88.415312 -54.806707 
L 88.415312 -53.904247 
L 88.415312 -53.001788 
L 88.415312 -52.099329 
L 88.415312 -51.19687 
L 88.415312 -50.294411 
L 88.415312 -49.391952 
L 88.415312 -48.489493 
L 88.415312 -47.587033 
L 88.415312 -46.684574 
L 88.415312 -45.782115 
L 88.415312 -44.879656 
L 88.415312 -43.977197 
L 88.415312 -43.074738 
L 88.415312 -42.172279 
z
" style="stroke: #000000; stroke-opacity: 0.8"/>
    </defs>
    <g clip-path="url(#pf6388f49ac)">
     <use xlink:href="#m360e03ef6f" x="0" y="168.549844" style="fill: #ff812f; fill-opacity: 0.8; stroke: #000000; stroke-opacity: 0.8"/>
    </g>
   </g>
   <g id="matplotlib.axis_1">
    <g id="xtick_1">
     <g id="line2d_1">
      <defs>
       <path id="m86e79c35ae" d="M 0 0 
L 0 -5 
" style="stroke: #000000"/>
      </defs>
      <g>
       <use xlink:href="#m86e79c35ae" x="63.305312" y="132.815625" style="stroke: #000000"/>
      </g>
     </g>
     <g id="text_1">
      <!-- Fast -->
      <g transform="translate(52.609531 144.189219) scale(0.11 -0.11)">
       <defs>
        <path id="ArialMT-46" d="M 525 0 
L 525 4581 
L 3616 4581 
L 3616 4041 
L 1131 4041 
L 1131 2622 
L 3281 2622 
L 3281 2081 
L 1131 2081 
L 1131 0 
L 525 0 
z
" transform="scale(0.015625)"/>
        <path id="ArialMT-61" d="M 2588 409 
Q 2275 144 1986 34 
Q 1697 -75 1366 -75 
Q 819 -75 525 192 
Q 231 459 231 875 
Q 231 1119 342 1320 
Q 453 1522 633 1644 
Q 813 1766 1038 1828 
Q 1203 1872 1538 1913 
Q 2219 1994 2541 2106 
Q 2544 2222 2544 2253 
Q 2544 2597 2384 2738 
Q 2169 2928 1744 2928 
Q 1347 2928 1158 2789 
Q 969 2650 878 2297 
L 328 2372 
Q 403 2725 575 2942 
Q 747 3159 1072 3276 
Q 1397 3394 1825 3394 
Q 2250 3394 2515 3294 
Q 2781 3194 2906 3042 
Q 3031 2891 3081 2659 
Q 3109 2516 3109 2141 
L 3109 1391 
Q 3109 606 3145 398 
Q 3181 191 3288 0 
L 2700 0 
Q 2613 175 2588 409 
z
M 2541 1666 
Q 2234 1541 1622 1453 
Q 1275 1403 1131 1340 
Q 988 1278 909 1158 
Q 831 1038 831 891 
Q 831 666 1001 516 
Q 1172 366 1500 366 
Q 1825 366 2078 508 
Q 2331 650 2450 897 
Q 2541 1088 2541 1459 
L 2541 1666 
z
" transform="scale(0.015625)"/>
        <path id="ArialMT-73" d="M 197 991 
L 753 1078 
Q 800 744 1014 566 
Q 1228 388 1613 388 
Q 2000 388 2187 545 
Q 2375 703 2375 916 
Q 2375 1106 2209 1216 
Q 2094 1291 1634 1406 
Q 1016 1563 777 1677 
Q 538 1791 414 1992 
Q 291 2194 291 2438 
Q 291 2659 392 2848 
Q 494 3038 669 3163 
Q 800 3259 1026 3326 
Q 1253 3394 1513 3394 
Q 1903 3394 2198 3281 
Q 2494 3169 2634 2976 
Q 2775 2784 2828 2463 
L 2278 2388 
Q 2241 2644 2061 2787 
Q 1881 2931 1553 2931 
Q 1166 2931 1000 2803 
Q 834 2675 834 2503 
Q 834 2394 903 2306 
Q 972 2216 1119 2156 
Q 1203 2125 1616 2013 
Q 2213 1853 2448 1751 
Q 2684 1650 2818 1456 
Q 2953 1263 2953 975 
Q 2953 694 2789 445 
Q 2625 197 2315 61 
Q 2006 -75 1616 -75 
Q 969 -75 630 194 
Q 291 463 197 991 
z
" transform="scale(0.015625)"/>
        <path id="ArialMT-74" d="M 1650 503 
L 1731 6 
Q 1494 -44 1306 -44 
Q 1000 -44 831 53 
Q 663 150 594 308 
Q 525 466 525 972 
L 525 2881 
L 113 2881 
L 113 3319 
L 525 3319 
L 525 4141 
L 1084 4478 
L 1084 3319 
L 1650 3319 
L 1650 2881 
L 1084 2881 
L 1084 941 
Q 1084 700 1114 631 
Q 1144 563 1211 522 
Q 1278 481 1403 481 
Q 1497 481 1650 503 
z
" transform="scale(0.015625)"/>
       </defs>
       <use xlink:href="#ArialMT-46"/>
       <use xlink:href="#ArialMT-61" x="61.083984"/>
       <use xlink:href="#ArialMT-73" x="116.699219"/>
       <use xlink:href="#ArialMT-74" x="166.699219"/>
      </g>
     </g>
    </g>
    <g id="xtick_2">
     <g id="line2d_2">
      <g>
       <use xlink:href="#m86e79c35ae" x="88.415312" y="132.815625" style="stroke: #000000"/>
      </g>
     </g>
     <g id="text_2">
      <!-- Slow -->
      <g transform="translate(76.494062 144.189219) scale(0.11 -0.11)">
       <defs>
        <path id="ArialMT-53" d="M 288 1472 
L 859 1522 
Q 900 1178 1048 958 
Q 1197 738 1509 602 
Q 1822 466 2213 466 
Q 2559 466 2825 569 
Q 3091 672 3220 851 
Q 3350 1031 3350 1244 
Q 3350 1459 3225 1620 
Q 3100 1781 2813 1891 
Q 2628 1963 1997 2114 
Q 1366 2266 1113 2400 
Q 784 2572 623 2826 
Q 463 3081 463 3397 
Q 463 3744 659 4045 
Q 856 4347 1234 4503 
Q 1613 4659 2075 4659 
Q 2584 4659 2973 4495 
Q 3363 4331 3572 4012 
Q 3781 3694 3797 3291 
L 3216 3247 
Q 3169 3681 2898 3903 
Q 2628 4125 2100 4125 
Q 1550 4125 1298 3923 
Q 1047 3722 1047 3438 
Q 1047 3191 1225 3031 
Q 1400 2872 2139 2705 
Q 2878 2538 3153 2413 
Q 3553 2228 3743 1945 
Q 3934 1663 3934 1294 
Q 3934 928 3725 604 
Q 3516 281 3123 101 
Q 2731 -78 2241 -78 
Q 1619 -78 1198 103 
Q 778 284 539 648 
Q 300 1013 288 1472 
z
" transform="scale(0.015625)"/>
        <path id="ArialMT-6c" d="M 409 0 
L 409 4581 
L 972 4581 
L 972 0 
L 409 0 
z
" transform="scale(0.015625)"/>
        <path id="ArialMT-6f" d="M 213 1659 
Q 213 2581 725 3025 
Q 1153 3394 1769 3394 
Q 2453 3394 2887 2945 
Q 3322 2497 3322 1706 
Q 3322 1066 3130 698 
Q 2938 331 2570 128 
Q 2203 -75 1769 -75 
Q 1072 -75 642 372 
Q 213 819 213 1659 
z
M 791 1659 
Q 791 1022 1069 705 
Q 1347 388 1769 388 
Q 2188 388 2466 706 
Q 2744 1025 2744 1678 
Q 2744 2294 2464 2611 
Q 2184 2928 1769 2928 
Q 1347 2928 1069 2612 
Q 791 2297 791 1659 
z
" transform="scale(0.015625)"/>
        <path id="ArialMT-77" d="M 1034 0 
L 19 3319 
L 600 3319 
L 1128 1403 
L 1325 691 
Q 1338 744 1497 1375 
L 2025 3319 
L 2603 3319 
L 3100 1394 
L 3266 759 
L 3456 1400 
L 4025 3319 
L 4572 3319 
L 3534 0 
L 2950 0 
L 2422 1988 
L 2294 2553 
L 1622 0 
L 1034 0 
z
" transform="scale(0.015625)"/>
       </defs>
       <use xlink:href="#ArialMT-53"/>
       <use xlink:href="#ArialMT-6c" x="66.699219"/>
       <use xlink:href="#ArialMT-6f" x="88.916016"/>
       <use xlink:href="#ArialMT-77" x="144.53125"/>
      </g>
     </g>
    </g>
    <g id="text_3">
     <!-- Population -->
     <g transform="translate(47.505625 158.964844) scale(0.12 -0.12)">
      <defs>
       <path id="ArialMT-50" d="M 494 0 
L 494 4581 
L 2222 4581 
Q 2678 4581 2919 4538 
Q 3256 4481 3484 4323 
Q 3713 4166 3852 3881 
Q 3991 3597 3991 3256 
Q 3991 2672 3619 2267 
Q 3247 1863 2275 1863 
L 1100 1863 
L 1100 0 
L 494 0 
z
M 1100 2403 
L 2284 2403 
Q 2872 2403 3119 2622 
Q 3366 2841 3366 3238 
Q 3366 3525 3220 3729 
Q 3075 3934 2838 4000 
Q 2684 4041 2272 4041 
L 1100 4041 
L 1100 2403 
z
" transform="scale(0.015625)"/>
       <path id="ArialMT-70" d="M 422 -1272 
L 422 3319 
L 934 3319 
L 934 2888 
Q 1116 3141 1344 3267 
Q 1572 3394 1897 3394 
Q 2322 3394 2647 3175 
Q 2972 2956 3137 2557 
Q 3303 2159 3303 1684 
Q 3303 1175 3120 767 
Q 2938 359 2589 142 
Q 2241 -75 1856 -75 
Q 1575 -75 1351 44 
Q 1128 163 984 344 
L 984 -1272 
L 422 -1272 
z
M 931 1641 
Q 931 1000 1190 694 
Q 1450 388 1819 388 
Q 2194 388 2461 705 
Q 2728 1022 2728 1688 
Q 2728 2322 2467 2637 
Q 2206 2953 1844 2953 
Q 1484 2953 1207 2617 
Q 931 2281 931 1641 
z
" transform="scale(0.015625)"/>
       <path id="ArialMT-75" d="M 2597 0 
L 2597 488 
Q 2209 -75 1544 -75 
Q 1250 -75 995 37 
Q 741 150 617 320 
Q 494 491 444 738 
Q 409 903 409 1263 
L 409 3319 
L 972 3319 
L 972 1478 
Q 972 1038 1006 884 
Q 1059 663 1231 536 
Q 1403 409 1656 409 
Q 1909 409 2131 539 
Q 2353 669 2445 892 
Q 2538 1116 2538 1541 
L 2538 3319 
L 3100 3319 
L 3100 0 
L 2597 0 
z
" transform="scale(0.015625)"/>
       <path id="ArialMT-69" d="M 425 3934 
L 425 4581 
L 988 4581 
L 988 3934 
L 425 3934 
z
M 425 0 
L 425 3319 
L 988 3319 
L 988 0 
L 425 0 
z
" transform="scale(0.015625)"/>
       <path id="ArialMT-6e" d="M 422 0 
L 422 3319 
L 928 3319 
L 928 2847 
Q 1294 3394 1984 3394 
Q 2284 3394 2536 3286 
Q 2788 3178 2913 3003 
Q 3038 2828 3088 2588 
Q 3119 2431 3119 2041 
L 3119 0 
L 2556 0 
L 2556 2019 
Q 2556 2363 2490 2533 
Q 2425 2703 2258 2804 
Q 2091 2906 1866 2906 
Q 1506 2906 1245 2678 
Q 984 2450 984 1813 
L 984 0 
L 422 0 
z
" transform="scale(0.015625)"/>
      </defs>
      <use xlink:href="#ArialMT-50"/>
      <use xlink:href="#ArialMT-6f" x="66.699219"/>
      <use xlink:href="#ArialMT-70" x="122.314453"/>
      <use xlink:href="#ArialMT-75" x="177.929688"/>
      <use xlink:href="#ArialMT-6c" x="233.544922"/>
      <use xlink:href="#ArialMT-61" x="255.761719"/>
      <use xlink:href="#ArialMT-74" x="311.376953"/>
      <use xlink:href="#ArialMT-69" x="339.160156"/>
      <use xlink:href="#ArialMT-6f" x="361.376953"/>
      <use xlink:href="#ArialMT-6e" x="416.992188"/>
     </g>
    </g>
   </g>
   <g id="matplotlib.axis_2">
    <g id="ytick_1">
     <g id="line2d_3">
      <defs>
       <path id="mcb35fbc388" d="M 0 0 
L 5 0 
" style="stroke: #000000"/>
      </defs>
      <g>
       <use xlink:href="#mcb35fbc388" x="38.195312" y="132.815625" style="stroke: #000000"/>
      </g>
     </g>
     <g id="text_4">
      <!-- 10 -->
      <g transform="translate(22.46125 136.752422) scale(0.11 -0.11)">
       <defs>
        <path id="ArialMT-31" d="M 2384 0 
L 1822 0 
L 1822 3584 
Q 1619 3391 1289 3197 
Q 959 3003 697 2906 
L 697 3450 
Q 1169 3672 1522 3987 
Q 1875 4303 2022 4600 
L 2384 4600 
L 2384 0 
z
" transform="scale(0.015625)"/>
        <path id="ArialMT-30" d="M 266 2259 
Q 266 3072 433 3567 
Q 600 4063 929 4331 
Q 1259 4600 1759 4600 
Q 2128 4600 2406 4451 
Q 2684 4303 2865 4023 
Q 3047 3744 3150 3342 
Q 3253 2941 3253 2259 
Q 3253 1453 3087 958 
Q 2922 463 2592 192 
Q 2263 -78 1759 -78 
Q 1097 -78 719 397 
Q 266 969 266 2259 
z
M 844 2259 
Q 844 1131 1108 757 
Q 1372 384 1759 384 
Q 2147 384 2411 759 
Q 2675 1134 2675 2259 
Q 2675 3391 2411 3762 
Q 2147 4134 1753 4134 
Q 1366 4134 1134 3806 
Q 844 3388 844 2259 
z
" transform="scale(0.015625)"/>
       </defs>
       <use xlink:href="#ArialMT-31"/>
       <use xlink:href="#ArialMT-30" x="55.615234"/>
      </g>
     </g>
    </g>
    <g id="ytick_2">
     <g id="line2d_4">
      <g>
       <use xlink:href="#mcb35fbc388" x="38.195312" y="108.175625" style="stroke: #000000"/>
      </g>
     </g>
     <g id="text_5">
      <!-- 30 -->
      <g transform="translate(22.46125 112.112422) scale(0.11 -0.11)">
       <defs>
        <path id="ArialMT-33" d="M 269 1209 
L 831 1284 
Q 928 806 1161 595 
Q 1394 384 1728 384 
Q 2125 384 2398 659 
Q 2672 934 2672 1341 
Q 2672 1728 2419 1979 
Q 2166 2231 1775 2231 
Q 1616 2231 1378 2169 
L 1441 2663 
Q 1497 2656 1531 2656 
Q 1891 2656 2178 2843 
Q 2466 3031 2466 3422 
Q 2466 3731 2256 3934 
Q 2047 4138 1716 4138 
Q 1388 4138 1169 3931 
Q 950 3725 888 3313 
L 325 3413 
Q 428 3978 793 4289 
Q 1159 4600 1703 4600 
Q 2078 4600 2393 4439 
Q 2709 4278 2876 4000 
Q 3044 3722 3044 3409 
Q 3044 3113 2884 2869 
Q 2725 2625 2413 2481 
Q 2819 2388 3044 2092 
Q 3269 1797 3269 1353 
Q 3269 753 2831 336 
Q 2394 -81 1725 -81 
Q 1122 -81 723 278 
Q 325 638 269 1209 
z
" transform="scale(0.015625)"/>
       </defs>
       <use xlink:href="#ArialMT-33"/>
       <use xlink:href="#ArialMT-30" x="55.615234"/>
      </g>
     </g>
    </g>
    <g id="ytick_3">
     <g id="line2d_5">
      <g>
       <use xlink:href="#mcb35fbc388" x="38.195312" y="83.535625" style="stroke: #000000"/>
      </g>
     </g>
     <g id="text_6">
      <!-- 50 -->
      <g transform="translate(22.46125 87.472422) scale(0.11 -0.11)">
       <defs>
        <path id="ArialMT-35" d="M 266 1200 
L 856 1250 
Q 922 819 1161 601 
Q 1400 384 1738 384 
Q 2144 384 2425 690 
Q 2706 997 2706 1503 
Q 2706 1984 2436 2262 
Q 2166 2541 1728 2541 
Q 1456 2541 1237 2417 
Q 1019 2294 894 2097 
L 366 2166 
L 809 4519 
L 3088 4519 
L 3088 3981 
L 1259 3981 
L 1013 2750 
Q 1425 3038 1878 3038 
Q 2478 3038 2890 2622 
Q 3303 2206 3303 1553 
Q 3303 931 2941 478 
Q 2500 -78 1738 -78 
Q 1113 -78 717 272 
Q 322 622 266 1200 
z
" transform="scale(0.015625)"/>
       </defs>
       <use xlink:href="#ArialMT-35"/>
       <use xlink:href="#ArialMT-30" x="55.615234"/>
      </g>
     </g>
    </g>
    <g id="ytick_4">
     <g id="line2d_6">
      <g>
       <use xlink:href="#mcb35fbc388" x="38.195312" y="58.895625" style="stroke: #000000"/>
      </g>
     </g>
     <g id="text_7">
      <!-- 70 -->
      <g transform="translate(22.46125 62.832422) scale(0.11 -0.11)">
       <defs>
        <path id="ArialMT-37" d="M 303 3981 
L 303 4522 
L 3269 4522 
L 3269 4084 
Q 2831 3619 2401 2847 
Q 1972 2075 1738 1259 
Q 1569 684 1522 0 
L 944 0 
Q 953 541 1156 1306 
Q 1359 2072 1739 2783 
Q 2119 3494 2547 3981 
L 303 3981 
z
" transform="scale(0.015625)"/>
       </defs>
       <use xlink:href="#ArialMT-37"/>
       <use xlink:href="#ArialMT-30" x="55.615234"/>
      </g>
     </g>
    </g>
    <g id="ytick_5">
     <g id="line2d_7">
      <g>
       <use xlink:href="#mcb35fbc388" x="38.195312" y="34.255625" style="stroke: #000000"/>
      </g>
     </g>
     <g id="text_8">
      <!-- 90 -->
      <g transform="translate(22.46125 38.192422) scale(0.11 -0.11)">
       <defs>
        <path id="ArialMT-39" d="M 350 1059 
L 891 1109 
Q 959 728 1153 556 
Q 1347 384 1650 384 
Q 1909 384 2104 503 
Q 2300 622 2425 820 
Q 2550 1019 2634 1356 
Q 2719 1694 2719 2044 
Q 2719 2081 2716 2156 
Q 2547 1888 2255 1720 
Q 1963 1553 1622 1553 
Q 1053 1553 659 1965 
Q 266 2378 266 3053 
Q 266 3750 677 4175 
Q 1088 4600 1706 4600 
Q 2153 4600 2523 4359 
Q 2894 4119 3086 3673 
Q 3278 3228 3278 2384 
Q 3278 1506 3087 986 
Q 2897 466 2520 194 
Q 2144 -78 1638 -78 
Q 1100 -78 759 220 
Q 419 519 350 1059 
z
M 2653 3081 
Q 2653 3566 2395 3850 
Q 2138 4134 1775 4134 
Q 1400 4134 1122 3828 
Q 844 3522 844 3034 
Q 844 2597 1108 2323 
Q 1372 2050 1759 2050 
Q 2150 2050 2401 2323 
Q 2653 2597 2653 3081 
z
" transform="scale(0.015625)"/>
       </defs>
       <use xlink:href="#ArialMT-39"/>
       <use xlink:href="#ArialMT-30" x="55.615234"/>
      </g>
     </g>
    </g>
    <g id="text_9">
     <!-- Frequency (Hz) -->
     <g transform="translate(15.935625 118.716562) rotate(-90) scale(0.12 -0.12)">
      <defs>
       <path id="ArialMT-72" d="M 416 0 
L 416 3319 
L 922 3319 
L 922 2816 
Q 1116 3169 1280 3281 
Q 1444 3394 1641 3394 
Q 1925 3394 2219 3213 
L 2025 2691 
Q 1819 2813 1613 2813 
Q 1428 2813 1281 2702 
Q 1134 2591 1072 2394 
Q 978 2094 978 1738 
L 978 0 
L 416 0 
z
" transform="scale(0.015625)"/>
       <path id="ArialMT-65" d="M 2694 1069 
L 3275 997 
Q 3138 488 2766 206 
Q 2394 -75 1816 -75 
Q 1088 -75 661 373 
Q 234 822 234 1631 
Q 234 2469 665 2931 
Q 1097 3394 1784 3394 
Q 2450 3394 2872 2941 
Q 3294 2488 3294 1666 
Q 3294 1616 3291 1516 
L 816 1516 
Q 847 969 1125 678 
Q 1403 388 1819 388 
Q 2128 388 2347 550 
Q 2566 713 2694 1069 
z
M 847 1978 
L 2700 1978 
Q 2663 2397 2488 2606 
Q 2219 2931 1791 2931 
Q 1403 2931 1139 2672 
Q 875 2413 847 1978 
z
" transform="scale(0.015625)"/>
       <path id="ArialMT-71" d="M 2538 -1272 
L 2538 353 
Q 2406 169 2170 47 
Q 1934 -75 1669 -75 
Q 1078 -75 651 397 
Q 225 869 225 1691 
Q 225 2191 398 2587 
Q 572 2984 901 3189 
Q 1231 3394 1625 3394 
Q 2241 3394 2594 2875 
L 2594 3319 
L 3100 3319 
L 3100 -1272 
L 2538 -1272 
z
M 803 1669 
Q 803 1028 1072 708 
Q 1341 388 1716 388 
Q 2075 388 2334 692 
Q 2594 997 2594 1619 
Q 2594 2281 2320 2615 
Q 2047 2950 1678 2950 
Q 1313 2950 1058 2639 
Q 803 2328 803 1669 
z
" transform="scale(0.015625)"/>
       <path id="ArialMT-63" d="M 2588 1216 
L 3141 1144 
Q 3050 572 2676 248 
Q 2303 -75 1759 -75 
Q 1078 -75 664 370 
Q 250 816 250 1647 
Q 250 2184 428 2587 
Q 606 2991 970 3192 
Q 1334 3394 1763 3394 
Q 2303 3394 2647 3120 
Q 2991 2847 3088 2344 
L 2541 2259 
Q 2463 2594 2264 2762 
Q 2066 2931 1784 2931 
Q 1359 2931 1093 2626 
Q 828 2322 828 1663 
Q 828 994 1084 691 
Q 1341 388 1753 388 
Q 2084 388 2306 591 
Q 2528 794 2588 1216 
z
" transform="scale(0.015625)"/>
       <path id="ArialMT-79" d="M 397 -1278 
L 334 -750 
Q 519 -800 656 -800 
Q 844 -800 956 -737 
Q 1069 -675 1141 -563 
Q 1194 -478 1313 -144 
Q 1328 -97 1363 -6 
L 103 3319 
L 709 3319 
L 1400 1397 
Q 1534 1031 1641 628 
Q 1738 1016 1872 1384 
L 2581 3319 
L 3144 3319 
L 1881 -56 
Q 1678 -603 1566 -809 
Q 1416 -1088 1222 -1217 
Q 1028 -1347 759 -1347 
Q 597 -1347 397 -1278 
z
" transform="scale(0.015625)"/>
       <path id="ArialMT-20" transform="scale(0.015625)"/>
       <path id="ArialMT-28" d="M 1497 -1347 
Q 1031 -759 709 28 
Q 388 816 388 1659 
Q 388 2403 628 3084 
Q 909 3875 1497 4659 
L 1900 4659 
Q 1522 4009 1400 3731 
Q 1209 3300 1100 2831 
Q 966 2247 966 1656 
Q 966 153 1900 -1347 
L 1497 -1347 
z
" transform="scale(0.015625)"/>
       <path id="ArialMT-48" d="M 513 0 
L 513 4581 
L 1119 4581 
L 1119 2700 
L 3500 2700 
L 3500 4581 
L 4106 4581 
L 4106 0 
L 3500 0 
L 3500 2159 
L 1119 2159 
L 1119 0 
L 513 0 
z
" transform="scale(0.015625)"/>
       <path id="ArialMT-7a" d="M 125 0 
L 125 456 
L 2238 2881 
Q 1878 2863 1603 2863 
L 250 2863 
L 250 3319 
L 2963 3319 
L 2963 2947 
L 1166 841 
L 819 456 
Q 1197 484 1528 484 
L 3063 484 
L 3063 0 
L 125 0 
z
" transform="scale(0.015625)"/>
       <path id="ArialMT-29" d="M 791 -1347 
L 388 -1347 
Q 1322 153 1322 1656 
Q 1322 2244 1188 2822 
Q 1081 3291 891 3722 
Q 769 4003 388 4659 
L 791 4659 
Q 1378 3875 1659 3084 
Q 1900 2403 1900 1659 
Q 1900 816 1576 28 
Q 1253 -759 791 -1347 
z
" transform="scale(0.015625)"/>
      </defs>
      <use xlink:href="#ArialMT-46"/>
      <use xlink:href="#ArialMT-72" x="61.083984"/>
      <use xlink:href="#ArialMT-65" x="94.384766"/>
      <use xlink:href="#ArialMT-71" x="150"/>
      <use xlink:href="#ArialMT-75" x="205.615234"/>
      <use xlink:href="#ArialMT-65" x="261.230469"/>
      <use xlink:href="#ArialMT-6e" x="316.845703"/>
      <use xlink:href="#ArialMT-63" x="372.460938"/>
      <use xlink:href="#ArialMT-79" x="422.460938"/>
      <use xlink:href="#ArialMT-20" x="472.460938"/>
      <use xlink:href="#ArialMT-28" x="500.244141"/>
      <use xlink:href="#ArialMT-48" x="533.544922"/>
      <use xlink:href="#ArialMT-7a" x="605.761719"/>
      <use xlink:href="#ArialMT-29" x="655.761719"/>
     </g>
    </g>
   </g>
   <g id="line2d_8">
    <path d="M 63.305312 68.598551 
L 55.235392 68.598551 
" clip-path="url(#pf6388f49ac)" style="fill: none; stroke-dasharray: 4.44,1.92; stroke-dashoffset: 0; stroke: #000000; stroke-width: 1.2"/>
   </g>
   <g id="line2d_9">
    <path d="M 63.305312 62.770818 
L 54.329646 62.770818 
" clip-path="url(#pf6388f49ac)" style="fill: none; stroke-dasharray: 4.44,1.92; stroke-dashoffset: 0; stroke: #000000; stroke-width: 1.2"/>
   </g>
   <g id="line2d_10">
    <path d="M 63.305312 58.722799 
L 53.99837 58.722799 
" clip-path="url(#pf6388f49ac)" style="fill: none; stroke-dasharray: 4.44,1.92; stroke-dashoffset: 0; stroke: #000000; stroke-width: 1.2"/>
   </g>
   <g id="line2d_11">
    <path d="M 63.305312 71.067489 
L 70.670505 71.067489 
" clip-path="url(#pf6388f49ac)" style="fill: none; stroke-dasharray: 4.44,1.92; stroke-dashoffset: 0; stroke: #000000; stroke-width: 1.2"/>
   </g>
   <g id="line2d_12">
    <path d="M 63.305312 63.660675 
L 71.353054 63.660675 
" clip-path="url(#pf6388f49ac)" style="fill: none; stroke-dasharray: 4.44,1.92; stroke-dashoffset: 0; stroke: #000000; stroke-width: 1.2"/>
   </g>
   <g id="line2d_13">
    <path d="M 63.305312 58.722799 
L 70.971277 58.722799 
" clip-path="url(#pf6388f49ac)" style="fill: none; stroke-dasharray: 4.44,1.92; stroke-dashoffset: 0; stroke: #000000; stroke-width: 1.2"/>
   </g>
   <g id="line2d_14">
    <path d="M 88.415312 106.21037 
L 71.757296 106.21037 
" clip-path="url(#pf6388f49ac)" style="fill: none; stroke-dasharray: 4.44,1.92; stroke-dashoffset: 0; stroke: #000000; stroke-width: 1.2"/>
   </g>
   <g id="line2d_15">
    <path d="M 88.415312 103.163681 
L 71.768506 103.163681 
" clip-path="url(#pf6388f49ac)" style="fill: none; stroke-dasharray: 4.44,1.92; stroke-dashoffset: 0; stroke: #000000; stroke-width: 1.2"/>
   </g>
   <g id="line2d_16">
    <path d="M 88.415312 100.694743 
L 70.018948 100.694743 
" clip-path="url(#pf6388f49ac)" style="fill: none; stroke-dasharray: 4.44,1.92; stroke-dashoffset: 0; stroke: #000000; stroke-width: 1.2"/>
   </g>
   <g id="line2d_17">
    <path d="M 88.415312 107.370172 
L 91.613294 107.370172 
" clip-path="url(#pf6388f49ac)" style="fill: none; stroke-dasharray: 4.44,1.92; stroke-dashoffset: 0; stroke: #000000; stroke-width: 1.2"/>
   </g>
   <g id="line2d_18">
    <path d="M 88.415312 97.548095 
L 90.976163 97.548095 
" clip-path="url(#pf6388f49ac)" style="fill: none; stroke-dasharray: 4.44,1.92; stroke-dashoffset: 0; stroke: #000000; stroke-width: 1.2"/>
   </g>
   <g id="line2d_19">
    <path d="M 88.415312 65.324437 
L 91.152502 65.324437 
" clip-path="url(#pf6388f49ac)" style="fill: none; stroke-dasharray: 4.44,1.92; stroke-dashoffset: 0; stroke: #000000; stroke-width: 1.2"/>
   </g>
   <g id="patch_3">
    <path d="M 38.195312 132.815625 
L 38.195312 21.935625 
" style="fill: none; stroke: #000000; stroke-width: 0.8; stroke-linejoin: miter; stroke-linecap: square"/>
   </g>
   <g id="patch_4">
    <path d="M 38.195312 132.815625 
L 113.525313 132.815625 
" style="fill: none; stroke: #000000; stroke-width: 0.8; stroke-linejoin: miter; stroke-linecap: square"/>
   </g>
   <g id="text_10">
    <!-- Burst frequency -->
    <g transform="translate(33.8425 15.935625) scale(0.12 -0.12)">
     <defs>
      <path id="ArialMT-42" d="M 469 0 
L 469 4581 
L 2188 4581 
Q 2713 4581 3030 4442 
Q 3347 4303 3526 4014 
Q 3706 3725 3706 3409 
Q 3706 3116 3547 2856 
Q 3388 2597 3066 2438 
Q 3481 2316 3704 2022 
Q 3928 1728 3928 1328 
Q 3928 1006 3792 729 
Q 3656 453 3456 303 
Q 3256 153 2954 76 
Q 2653 0 2216 0 
L 469 0 
z
M 1075 2656 
L 2066 2656 
Q 2469 2656 2644 2709 
Q 2875 2778 2992 2937 
Q 3109 3097 3109 3338 
Q 3109 3566 3000 3739 
Q 2891 3913 2687 3977 
Q 2484 4041 1991 4041 
L 1075 4041 
L 1075 2656 
z
M 1075 541 
L 2216 541 
Q 2509 541 2628 563 
Q 2838 600 2978 687 
Q 3119 775 3209 942 
Q 3300 1109 3300 1328 
Q 3300 1584 3169 1773 
Q 3038 1963 2805 2039 
Q 2572 2116 2134 2116 
L 1075 2116 
L 1075 541 
z
" transform="scale(0.015625)"/>
      <path id="ArialMT-66" d="M 556 0 
L 556 2881 
L 59 2881 
L 59 3319 
L 556 3319 
L 556 3672 
Q 556 4006 616 4169 
Q 697 4388 901 4523 
Q 1106 4659 1475 4659 
Q 1713 4659 2000 4603 
L 1916 4113 
Q 1741 4144 1584 4144 
Q 1328 4144 1222 4034 
Q 1116 3925 1116 3625 
L 1116 3319 
L 1763 3319 
L 1763 2881 
L 1116 2881 
L 1116 0 
L 556 0 
z
" transform="scale(0.015625)"/>
     </defs>
     <use xlink:href="#ArialMT-42"/>
     <use xlink:href="#ArialMT-75" x="66.699219"/>
     <use xlink:href="#ArialMT-72" x="122.314453"/>
     <use xlink:href="#ArialMT-73" x="155.615234"/>
     <use xlink:href="#ArialMT-74" x="205.615234"/>
     <use xlink:href="#ArialMT-20" x="233.398438"/>
     <use xlink:href="#ArialMT-66" x="261.181641"/>
     <use xlink:href="#ArialMT-72" x="288.964844"/>
     <use xlink:href="#ArialMT-65" x="322.265625"/>
     <use xlink:href="#ArialMT-71" x="377.880859"/>
     <use xlink:href="#ArialMT-75" x="433.496094"/>
     <use xlink:href="#ArialMT-65" x="489.111328"/>
     <use xlink:href="#ArialMT-6e" x="544.726562"/>
     <use xlink:href="#ArialMT-63" x="600.341797"/>
     <use xlink:href="#ArialMT-79" x="650.341797"/>
    </g>
   </g>
  </g>
 </g>
 <defs>
  <clipPath id="pf6388f49ac">
   <rect x="38.195312" y="21.935625" width="75.33" height="110.88"/>
  </clipPath>
 </defs>
</svg>
