<?xml version="1.0" encoding="utf-8" standalone="no"?>
<!DOCTYPE svg PUBLIC "-//W3C//DTD SVG 1.1//EN"
  "http://www.w3.org/Graphics/SVG/1.1/DTD/svg11.dtd">
<svg xmlns:xlink="http://www.w3.org/1999/xlink" width="170.151944pt" height="146.949891pt" viewBox="0 0 170.151944 146.949891" xmlns="http://www.w3.org/2000/svg" version="1.1">
 <metadata>
  <rdf:RDF xmlns:dc="http://purl.org/dc/elements/1.1/" xmlns:cc="http://creativecommons.org/ns#" xmlns:rdf="http://www.w3.org/1999/02/22-rdf-syntax-ns#">
   <cc:Work>
    <dc:type rdf:resource="http://purl.org/dc/dcmitype/StillImage"/>
    <dc:date>2025-04-28T20:21:02.153421</dc:date>
    <dc:format>image/svg+xml</dc:format>
    <dc:creator>
     <cc:Agent>
      <dc:title>Matplotlib v3.7.2, https://matplotlib.org/</dc:title>
     </cc:Agent>
    </dc:creator>
   </cc:Work>
  </rdf:RDF>
 </metadata>
 <defs>
  <style type="text/css">*{stroke-linejoin: round; stroke-linecap: butt}</style>
 </defs>
 <g id="figure_1">
  <g id="patch_1">
   <path d="M 0 146.949891 
L 170.151944 146.949891 
L 170.151944 0 
L 0 0 
z
" style="fill: #ffffff"/>
  </g>
  <g id="axes_1">
   <g id="patch_2">
    <path d="M 38.195312 110.928797 
L 127.475313 110.928797 
L 127.475313 11.136797 
L 38.195312 11.136797 
z
" style="fill: #ffffff"/>
   </g>
   <g id="PathCollection_1">
    <path d="M 14.281027 114.047297 
L 19.595312 114.047297 
L 24.909598 114.047297 
L 30.223884 114.047297 
L 35.53817 114.047297 
L 40.852455 114.047297 
L 46.166741 114.047297 
L 51.481027 114.047297 
L 56.795313 114.047297 
L 62.109598 114.047297 
L 67.423884 114.047297 
L 72.73817 114.047297 
L 78.052455 114.047297 
L 83.366741 114.047297 
L 88.681027 114.047297 
L 93.995313 114.047297 
L 99.309598 114.047297 
L 104.623884 114.047297 
L 109.93817 114.047297 
L 115.252455 114.047297 
L 120.566741 114.047297 
L 125.881027 114.047297 
L 131.195312 114.047297 
L 136.509598 114.047297 
L 141.823884 114.047297 
L 147.13817 114.047297 
L 152.452455 114.047297 
L 157.766741 114.047297 
L 163.081027 114.047297 
L 163.081027 107.810297 
L 163.081027 101.573297 
L 163.081027 95.336297 
L 163.081027 89.099297 
L 163.081027 82.862297 
L 163.081027 76.625297 
L 163.081027 70.388297 
L 163.081027 64.151297 
L 163.081027 57.914297 
L 163.081027 51.677297 
L 163.081027 45.440297 
L 163.081027 39.203297 
L 163.081027 32.966297 
L 163.081027 26.729297 
L 163.081027 20.492297 
L 163.081027 14.255297 
L 163.081027 8.018297 
L 163.081027 1.781297 
L 157.766741 1.781297 
L 152.452455 1.781297 
L 147.13817 1.781297 
L 141.823884 1.781297 
L 136.509598 1.781297 
L 131.195312 1.781297 
L 125.881027 1.781297 
L 120.566741 1.781297 
L 115.252455 1.781297 
L 109.93817 1.781297 
L 104.623884 1.781297 
L 99.309598 1.781297 
L 93.995313 1.781297 
L 88.681027 1.781297 
L 83.366741 1.781297 
L 78.052455 1.781297 
L 72.73817 1.781297 
L 67.423884 1.781297 
L 62.109598 1.781297 
L 56.795313 1.781297 
L 51.481027 1.781297 
L 46.166741 1.781297 
L 40.852455 1.781297 
L 35.53817 1.781297 
L 30.223884 1.781297 
L 24.909598 1.781297 
L 19.595312 1.781297 
L 14.281027 1.781297 
L 8.966741 1.781297 
L 8.966741 8.018297 
L 8.966741 14.255297 
L 8.966741 20.492297 
L 8.966741 26.729297 
L 8.966741 32.966297 
L 8.966741 39.203297 
L 8.966741 45.440297 
L 8.966741 51.677297 
L 8.966741 57.914297 
L 8.966741 64.151297 
L 8.966741 70.388297 
L 8.966741 76.625297 
L 8.966741 82.862297 
L 8.966741 89.099297 
L 8.966741 95.336297 
L 8.966741 101.573297 
L 8.966741 107.810297 
L 8.966741 114.047297 
z
M 62.997799 57.914297 
L 62.109598 55.126118 
L 60.35153 51.677297 
L 62.109598 47.057263 
L 62.342294 45.440297 
L 63.889205 39.203297 
L 63.518232 32.966297 
L 65.174871 26.729297 
L 67.423884 23.685415 
L 71.530944 20.492297 
L 72.73817 19.366229 
L 78.052455 17.911722 
L 82.979556 20.492297 
L 83.366741 20.546016 
L 88.681027 22.153354 
L 93.995313 26.628091 
L 94.119296 26.729297 
L 99.309598 29.486941 
L 103.34822 32.966297 
L 104.623884 34.56663 
L 108.741431 39.203297 
L 108.58233 45.440297 
L 104.623884 49.23098 
L 101.541219 51.677297 
L 99.309598 53.319243 
L 93.995313 56.330647 
L 88.681027 57.872359 
L 88.573473 57.914297 
L 83.366741 62.424487 
L 78.052455 63.893435 
L 72.73817 63.926278 
L 67.423884 62.535561 
z
" clip-path="url(#p0ca59c8b33)" style="fill: #372466"/>
   </g>
   <g id="PathCollection_2">
    <path d="M 67.423884 62.535561 
L 72.73817 63.926278 
L 78.052455 63.893435 
L 83.366741 62.424487 
L 88.573473 57.914297 
L 88.681027 57.872359 
L 93.995312 56.330647 
L 99.309598 53.319243 
L 101.541219 51.677297 
L 104.623884 49.23098 
L 108.58233 45.440297 
L 108.741431 39.203297 
L 104.623884 34.56663 
L 103.34822 32.966297 
L 99.309598 29.486941 
L 94.119296 26.729297 
L 93.995313 26.628091 
L 88.681027 22.153354 
L 83.366741 20.546016 
L 82.979556 20.492297 
L 78.052455 17.911722 
L 72.73817 19.366229 
L 71.530944 20.492297 
L 67.423884 23.685415 
L 65.174871 26.729297 
L 63.518232 32.966297 
L 63.889205 39.203297 
L 62.342294 45.440297 
L 62.109598 47.057263 
L 60.35153 51.677297 
L 62.109598 55.126118 
L 62.997799 57.914297 
z
M 65.527727 57.914297 
L 62.756516 51.677297 
L 63.873312 45.440297 
L 66.429498 39.203297 
L 65.558209 32.966297 
L 67.423884 28.583969 
L 67.928936 26.729297 
L 72.73817 21.617182 
L 78.052455 20.845328 
L 83.366741 21.691018 
L 88.681027 24.602475 
L 91.171065 26.729297 
L 93.995312 28.574216 
L 98.881435 32.966297 
L 99.309598 33.600475 
L 103.929429 39.203297 
L 103.660308 45.440297 
L 99.309598 49.778207 
L 96.862091 51.677297 
L 93.995313 53.76998 
L 88.681027 56.470413 
L 84.978072 57.914297 
L 83.366741 59.310069 
L 78.052455 62.239742 
L 72.73817 62.469843 
L 67.423884 59.89407 
z
" clip-path="url(#p0ca59c8b33)" style="fill: #4249b1"/>
   </g>
   <g id="PathCollection_3">
    <path d="M 67.423884 59.89407 
L 72.73817 62.469843 
L 78.052455 62.239742 
L 83.366741 59.310069 
L 84.978072 57.914297 
L 88.681027 56.470413 
L 93.995313 53.76998 
L 96.862091 51.677297 
L 99.309598 49.778207 
L 103.660308 45.440297 
L 103.929429 39.203297 
L 99.309598 33.600475 
L 98.881435 32.966297 
L 93.995312 28.574216 
L 91.171065 26.729297 
L 88.681027 24.602475 
L 83.366741 21.691018 
L 78.052455 20.845328 
L 72.73817 21.617182 
L 67.928936 26.729297 
L 67.423884 28.583969 
L 65.558209 32.966297 
L 66.429498 39.203297 
L 63.873312 45.440297 
L 62.756516 51.677297 
L 65.527727 57.914297 
z
M 67.983625 57.914297 
L 67.423884 57.445406 
L 63.900011 51.677297 
L 65.404329 45.440297 
L 67.423884 41.172305 
L 67.915718 39.203297 
L 67.48219 32.966297 
L 69.233795 26.729297 
L 72.73817 23.004219 
L 78.052455 21.721408 
L 83.366741 22.83602 
L 88.483014 26.729297 
L 88.681027 26.848746 
L 93.995312 30.447311 
L 96.797645 32.966297 
L 99.309598 36.686901 
L 101.384504 39.203297 
L 100.93042 45.440297 
L 99.309598 47.05635 
L 93.995313 51.441567 
L 93.622 51.677297 
L 88.681027 55.068467 
L 83.366741 57.401057 
L 82.013725 57.914297 
L 78.052455 60.586048 
L 72.73817 61.013408 
z
" clip-path="url(#p0ca59c8b33)" style="fill: #466be3"/>
   </g>
   <g id="PathCollection_4">
    <path d="M 72.73817 61.013408 
L 78.052455 60.586048 
L 82.013725 57.914297 
L 83.366741 57.401057 
L 88.681027 55.068467 
L 93.622 51.677297 
L 93.995313 51.441567 
L 99.309598 47.05635 
L 100.93042 45.440297 
L 101.384504 39.203297 
L 99.309598 36.686901 
L 96.797645 32.966297 
L 93.995313 30.447311 
L 88.681027 26.848746 
L 88.483014 26.729297 
L 83.366741 22.83602 
L 78.052455 21.721408 
L 72.73817 23.004219 
L 69.233795 26.729297 
L 67.48219 32.966297 
L 67.915718 39.203297 
L 67.423884 41.172305 
L 65.404329 45.440297 
L 63.900011 51.677297 
L 67.423884 57.445406 
L 67.983625 57.914297 
z
M 70.218034 57.914297 
L 67.423884 55.573658 
L 65.043506 51.677297 
L 66.935347 45.440297 
L 67.423884 44.407855 
L 68.723917 39.203297 
L 68.164588 32.966297 
L 70.538653 26.729297 
L 72.73817 24.391257 
L 78.052455 22.597488 
L 83.366741 23.981022 
L 86.978332 26.729297 
L 88.681027 27.756424 
L 93.995313 32.320407 
L 94.713855 32.966297 
L 99.097899 39.203297 
L 98.777686 45.440297 
L 93.995313 50.151725 
L 91.579349 51.677297 
L 88.681027 53.666521 
L 83.366741 56.470997 
L 79.561878 57.914297 
L 78.052455 58.932355 
L 72.73817 59.556974 
z
" clip-path="url(#p0ca59c8b33)" style="fill: #458afc"/>
   </g>
   <g id="PathCollection_5">
    <path d="M 72.73817 59.556974 
L 78.052455 58.932355 
L 79.561878 57.914297 
L 83.366741 56.470997 
L 88.681027 53.666521 
L 91.579349 51.677297 
L 93.995313 50.151725 
L 98.777686 45.440297 
L 99.097899 39.203297 
L 94.713855 32.966297 
L 93.995313 32.320407 
L 88.681027 27.756424 
L 86.978332 26.729297 
L 83.366741 23.981022 
L 78.052455 22.597488 
L 72.73817 24.391257 
L 70.538653 26.729297 
L 68.164588 32.966297 
L 68.723917 39.203297 
L 67.423884 44.407855 
L 66.935347 45.440297 
L 65.043506 51.677297 
L 67.423884 55.573658 
L 70.218034 57.914297 
z
M 72.452444 57.914297 
L 67.423884 53.701909 
L 66.187001 51.677297 
L 67.423884 47.849734 
L 67.937826 45.440297 
L 69.532117 39.203297 
L 68.846986 32.966297 
L 71.843512 26.729297 
L 72.73817 25.778294 
L 78.052455 23.473568 
L 83.366741 25.126024 
L 85.47365 26.729297 
L 88.681027 28.664102 
L 93.349934 32.966297 
L 93.995313 33.961324 
L 97.951656 39.203297 
L 97.468421 45.440297 
L 93.995313 48.861882 
L 89.536697 51.677297 
L 88.681027 52.264575 
L 83.366741 55.540937 
L 78.052455 57.613839 
L 74.064803 57.914297 
L 72.73817 58.100539 
z
" clip-path="url(#p0ca59c8b33)" style="fill: #35abf8"/>
   </g>
   <g id="PathCollection_6">
    <path d="M 72.73817 58.100539 
L 74.064803 57.914297 
L 78.052455 57.613839 
L 83.366741 55.540937 
L 88.681027 52.264575 
L 89.536697 51.677297 
L 93.995313 48.861882 
L 97.468421 45.440297 
L 97.951656 39.203297 
L 93.995312 33.961324 
L 93.349934 32.966297 
L 88.681027 28.664102 
L 85.47365 26.729297 
L 83.366741 25.126024 
L 78.052455 23.473568 
L 72.73817 25.778294 
L 71.843512 26.729297 
L 68.846986 32.966297 
L 69.532117 39.203297 
L 67.937826 45.440297 
L 67.423884 47.849734 
L 66.187001 51.677297 
L 67.423884 53.701909 
L 72.452444 57.914297 
z
M 67.330496 51.677297 
L 67.423884 51.388305 
L 68.692616 45.440297 
L 70.340317 39.203297 
L 69.529384 32.966297 
L 72.73817 27.120138 
L 73.289419 26.729297 
L 78.052455 24.349649 
L 83.366741 26.271026 
L 83.968969 26.729297 
L 88.681027 29.57178 
L 92.364887 32.966297 
L 93.995312 35.480045 
L 96.805412 39.203297 
L 96.159156 45.440297 
L 93.995313 47.57204 
L 88.681027 51.243542 
L 87.854283 51.677297 
L 83.366741 54.610876 
L 78.052455 56.832157 
L 72.73817 57.111252 
L 67.423884 51.830161 
z
" clip-path="url(#p0ca59c8b33)" style="fill: #1fc9dd"/>
   </g>
   <g id="PathCollection_7">
    <path d="M 67.423884 51.830161 
L 72.73817 57.111252 
L 78.052455 56.832157 
L 83.366741 54.610876 
L 87.854283 51.677297 
L 88.681027 51.243542 
L 93.995313 47.57204 
L 96.159156 45.440297 
L 96.805412 39.203297 
L 93.995312 35.480045 
L 92.364887 32.966297 
L 88.681027 29.57178 
L 83.968969 26.729297 
L 83.366741 26.271026 
L 78.052455 24.349649 
L 73.289419 26.729297 
L 72.73817 27.120138 
L 69.529384 32.966297 
L 70.340317 39.203297 
L 68.692616 45.440297 
L 67.423884 51.388305 
L 67.330496 51.677297 
z
M 68.262458 51.677297 
L 69.447406 45.440297 
L 71.148517 39.203297 
L 70.211781 32.966297 
L 72.73817 28.363414 
L 75.042956 26.729297 
L 78.052455 25.225729 
L 81.990529 26.729297 
L 83.366741 27.095353 
L 88.681027 30.479458 
L 91.37984 32.966297 
L 93.995313 36.998765 
L 95.659168 39.203297 
L 94.849891 45.440297 
L 93.995313 46.282198 
L 88.681027 50.497101 
L 86.431556 51.677297 
L 83.366741 53.680816 
L 78.052455 56.050475 
L 72.73817 56.19046 
z
" clip-path="url(#p0ca59c8b33)" style="fill: #19e2bb"/>
   </g>
   <g id="PathCollection_8">
    <path d="M 72.73817 56.19046 
L 78.052455 56.050475 
L 83.366741 53.680816 
L 86.431556 51.677297 
L 88.681027 50.497101 
L 93.995313 46.282198 
L 94.849891 45.440297 
L 95.659168 39.203297 
L 93.995312 36.998765 
L 91.37984 32.966297 
L 88.681027 30.479458 
L 83.366741 27.095353 
L 81.990529 26.729297 
L 78.052455 25.225729 
L 75.042956 26.729297 
L 72.73817 28.363414 
L 70.211781 32.966297 
L 71.148517 39.203297 
L 69.447406 45.440297 
L 68.262458 51.677297 
z
M 69.175609 51.677297 
L 70.202196 45.440297 
L 71.956717 39.203297 
L 70.894179 32.966297 
L 72.73817 29.60669 
L 76.796494 26.729297 
L 78.052455 26.101809 
L 79.695941 26.729297 
L 83.366741 27.705685 
L 88.681027 31.387136 
L 90.394793 32.966297 
L 93.995312 38.517486 
L 94.512924 39.203297 
L 93.995313 42.728907 
L 93.69384 45.440297 
L 88.681027 49.75066 
L 85.008828 51.677297 
L 83.366741 52.750756 
L 78.052455 55.268793 
L 72.73817 55.269669 
z
" clip-path="url(#p0ca59c8b33)" style="fill: #32f298"/>
   </g>
   <g id="PathCollection_9">
    <path d="M 72.73817 55.269669 
L 78.052455 55.268793 
L 83.366741 52.750756 
L 85.008828 51.677297 
L 88.681027 49.75066 
L 93.69384 45.440297 
L 93.995313 42.728907 
L 94.512924 39.203297 
L 93.995312 38.517486 
L 90.394793 32.966297 
L 88.681027 31.387136 
L 83.366741 27.705685 
L 79.695941 26.729297 
L 78.052455 26.101809 
L 76.796494 26.729297 
L 72.73817 29.60669 
L 70.894179 32.966297 
L 71.956717 39.203297 
L 70.202196 45.440297 
L 69.175609 51.677297 
z
M 70.088759 51.677297 
L 70.956986 45.440297 
L 72.73817 39.289555 
L 72.757764 39.203297 
L 72.73817 39.08435 
L 71.576577 32.966297 
L 72.73817 30.849966 
L 78.052455 26.913333 
L 83.366741 28.316018 
L 88.681027 32.294814 
L 89.409746 32.966297 
L 93.600265 39.203297 
L 92.825753 45.440297 
L 88.681027 49.004219 
L 83.586101 51.677297 
L 83.366741 51.820696 
L 78.052455 54.48711 
L 72.73817 54.348877 
z
" clip-path="url(#p0ca59c8b33)" style="fill: #5dfc6f"/>
   </g>
   <g id="PathCollection_10">
    <path d="M 72.73817 54.348877 
L 78.052455 54.48711 
L 83.366741 51.820696 
L 83.586101 51.677297 
L 88.681027 49.004219 
L 92.825753 45.440297 
L 93.600265 39.203297 
L 89.409746 32.966297 
L 88.681027 32.294814 
L 83.366741 28.316018 
L 78.052455 26.913333 
L 72.73817 30.849966 
L 71.576577 32.966297 
L 72.73817 39.08435 
L 72.757764 39.203297 
L 72.73817 39.289555 
L 70.956986 45.440297 
L 70.088759 51.677297 
z
M 71.001909 51.677297 
L 71.711776 45.440297 
L 72.73817 41.895979 
L 73.349833 39.203297 
L 72.73817 35.490192 
L 72.258975 32.966297 
L 72.73817 32.093242 
L 78.052455 27.561904 
L 83.366741 28.92635 
L 88.480011 32.966297 
L 88.681027 33.232824 
L 92.879938 39.203297 
L 91.957667 45.440297 
L 88.681027 48.257778 
L 83.366741 51.129982 
L 82.060228 51.677297 
L 78.052455 53.705428 
L 72.73817 53.428086 
z
" clip-path="url(#p0ca59c8b33)" style="fill: #8fff49"/>
   </g>
   <g id="PathCollection_11">
    <path d="M 72.73817 53.428086 
L 78.052455 53.705428 
L 82.060228 51.677297 
L 83.366741 51.129982 
L 88.681027 48.257778 
L 91.957667 45.440297 
L 92.879938 39.203297 
L 88.681027 33.232824 
L 88.480011 32.966297 
L 83.366741 28.92635 
L 78.052455 27.561904 
L 72.73817 32.093242 
L 72.258975 32.966297 
L 72.73817 35.490192 
L 73.349833 39.203297 
L 72.73817 41.895979 
L 71.711776 45.440297 
L 71.001909 51.677297 
z
M 71.91506 51.677297 
L 72.466567 45.440297 
L 72.73817 44.502403 
L 73.941901 39.203297 
L 72.945557 32.966297 
L 78.052455 28.210475 
L 83.366741 29.536683 
L 87.707527 32.966297 
L 88.681027 34.257064 
L 92.159611 39.203297 
L 91.08958 45.440297 
L 88.681027 47.511337 
L 83.366741 50.482898 
L 80.515552 51.677297 
L 78.052455 52.923746 
L 72.73817 52.507294 
z
" clip-path="url(#p0ca59c8b33)" style="fill: #b4f836"/>
   </g>
   <g id="PathCollection_12">
    <path d="M 72.73817 52.507294 
L 78.052455 52.923746 
L 80.515552 51.677297 
L 83.366741 50.482898 
L 88.681027 47.511337 
L 91.08958 45.440297 
L 92.159611 39.203297 
L 88.681027 34.257064 
L 87.707527 32.966297 
L 83.366741 29.536683 
L 78.052455 28.210475 
L 72.945557 32.966297 
L 73.941901 39.203297 
L 72.73817 44.502403 
L 72.466567 45.440297 
L 71.91506 51.677297 
z
M 73.494126 51.677297 
L 73.25488 45.440297 
L 74.53397 39.203297 
L 73.642006 32.966297 
L 78.052455 28.859046 
L 83.366741 30.147015 
L 86.935043 32.966297 
L 88.681027 35.281305 
L 91.439283 39.203297 
L 90.221493 45.440297 
L 88.681027 46.764896 
L 83.366741 49.835815 
L 78.970877 51.677297 
L 78.052455 52.142064 
z
" clip-path="url(#p0ca59c8b33)" style="fill: #d4e735"/>
   </g>
   <g id="PathCollection_13">
    <path d="M 78.052455 52.142064 
L 78.970877 51.677297 
L 83.366741 49.835815 
L 88.681027 46.764896 
L 90.221493 45.440297 
L 91.439283 39.203297 
L 88.681027 35.281305 
L 86.935043 32.966297 
L 83.366741 30.147015 
L 78.052455 28.859046 
L 73.642006 32.966297 
L 74.53397 39.203297 
L 73.25488 45.440297 
L 73.494126 51.677297 
z
M 74.062038 45.440297 
L 75.126038 39.203297 
L 74.338455 32.966297 
L 78.052455 29.507617 
L 83.366741 30.757348 
L 86.162558 32.966297 
L 88.681027 36.305545 
L 90.718956 39.203297 
L 89.353407 45.440297 
L 88.681027 46.018455 
L 83.366741 49.188731 
L 78.052455 51.204582 
z
" clip-path="url(#p0ca59c8b33)" style="fill: #eecf3a"/>
   </g>
   <g id="PathCollection_14">
    <path d="M 78.052455 51.204582 
L 83.366741 49.188731 
L 88.681027 46.018455 
L 89.353407 45.440297 
L 90.718956 39.203297 
L 88.681027 36.305545 
L 86.162558 32.966297 
L 83.366741 30.757348 
L 78.052455 29.507617 
L 74.338455 32.966297 
L 75.126038 39.203297 
L 74.062038 45.440297 
z
M 74.869196 45.440297 
L 75.718107 39.203297 
L 75.034903 32.966297 
L 78.052455 30.156188 
L 83.366741 31.36768 
L 85.390074 32.966297 
L 88.681027 37.329785 
L 89.998629 39.203297 
L 88.681027 44.755932 
L 88.442281 45.440297 
L 83.366741 48.541647 
L 78.052455 50.038617 
z
" clip-path="url(#p0ca59c8b33)" style="fill: #fbb637"/>
   </g>
   <g id="PathCollection_15">
    <path d="M 78.052455 50.038617 
L 83.366741 48.541647 
L 88.442281 45.440297 
L 88.681027 44.755932 
L 89.998629 39.203297 
L 88.681027 37.329785 
L 85.390074 32.966297 
L 83.366741 31.36768 
L 78.052455 30.156188 
L 75.034903 32.966297 
L 75.718107 39.203297 
L 74.869196 45.440297 
z
M 75.676354 45.440297 
L 76.310176 39.203297 
L 75.731352 32.966297 
L 78.052455 30.804759 
L 83.366741 31.978013 
L 84.61759 32.966297 
L 88.681027 38.354025 
L 89.278302 39.203297 
L 88.681027 41.720332 
L 87.383291 45.440297 
L 83.366741 47.894563 
L 78.052455 48.872651 
z
" clip-path="url(#p0ca59c8b33)" style="fill: #fe932a"/>
   </g>
   <g id="PathCollection_16">
    <path d="M 78.052455 48.872651 
L 83.366741 47.894563 
L 87.383291 45.440297 
L 88.681027 41.720332 
L 89.278302 39.203297 
L 88.681027 38.354025 
L 84.61759 32.966297 
L 83.366741 31.978013 
L 78.052455 30.804759 
L 75.731352 32.966297 
L 76.310176 39.203297 
L 75.676354 45.440297 
z
M 76.483512 45.440297 
L 76.902244 39.203297 
L 76.427801 32.966297 
L 78.052455 31.45333 
L 83.366741 32.588346 
L 83.845106 32.966297 
L 88.507935 39.203297 
L 86.3243 45.440297 
L 83.366741 47.247479 
L 78.052455 47.706686 
z
" clip-path="url(#p0ca59c8b33)" style="fill: #f66c19"/>
   </g>
   <g id="PathCollection_17">
    <path d="M 78.052455 47.706686 
L 83.366741 47.247479 
L 86.3243 45.440297 
L 88.507935 39.203297 
L 83.845106 32.966297 
L 83.366741 32.588346 
L 78.052455 31.45333 
L 76.427801 32.966297 
L 76.902244 39.203297 
L 76.483512 45.440297 
z
M 77.29067 45.440297 
L 77.494313 39.203297 
L 77.12425 32.966297 
L 78.052455 32.101901 
L 82.185899 32.966297 
L 83.366741 33.499377 
L 87.494683 39.203297 
L 85.26531 45.440297 
L 83.366741 46.600395 
L 78.052455 46.54072 
z
" clip-path="url(#p0ca59c8b33)" style="fill: #e7490c"/>
   </g>
   <g id="PathCollection_18">
    <path d="M 78.052455 46.54072 
L 83.366741 46.600395 
L 85.26531 45.440297 
L 87.494683 39.203297 
L 83.366741 33.499377 
L 82.185899 32.966297 
L 78.052455 32.101901 
L 77.12425 32.966297 
L 77.494313 39.203297 
L 77.29067 45.440297 
z
M 78.404307 45.440297 
L 78.149706 39.203297 
L 78.052455 38.28708 
L 77.820699 32.966297 
L 78.052455 32.750472 
L 79.084504 32.966297 
L 83.366741 34.899472 
L 86.48143 39.203297 
L 84.20632 45.440297 
L 83.366741 45.953312 
z
" clip-path="url(#p0ca59c8b33)" style="fill: #d02f05"/>
   </g>
   <g id="PathCollection_19">
    <path d="M 83.366741 45.953312 
L 84.20632 45.440297 
L 86.48143 39.203297 
L 83.366741 34.899472 
L 79.084504 32.966297 
L 78.052455 32.750472 
L 77.820699 32.966297 
L 78.052455 38.28708 
L 78.149706 39.203297 
L 78.404307 45.440297 
z
M 79.846881 39.203297 
L 83.366741 36.299567 
L 85.468178 39.203297 
L 83.366741 44.873808 
z
" clip-path="url(#p0ca59c8b33)" style="fill: #b41b01"/>
   </g>
   <g id="PathCollection_20">
    <path d="M 83.366741 44.873808 
L 85.468178 39.203297 
L 83.366741 36.299567 
L 79.846881 39.203297 
z
M 81.544056 39.203297 
L 83.366741 37.699662 
L 84.454926 39.203297 
L 83.366741 42.139651 
z
" clip-path="url(#p0ca59c8b33)" style="fill: #8e0a01"/>
   </g>
   <g id="PathCollection_21">
    <path d="M 83.366741 42.139651 
L 84.454926 39.203297 
L 83.366741 37.699662 
L 81.544056 39.203297 
z
" clip-path="url(#p0ca59c8b33)" style="fill: #7a0403"/>
   </g>
   <g id="matplotlib.axis_1">
    <g id="xtick_1">
     <g id="line2d_1">
      <defs>
       <path id="m952bd3087a" d="M 0 0 
L 0 -5 
" style="stroke: #000000"/>
      </defs>
      <g>
       <use xlink:href="#m952bd3087a" x="38.195312" y="110.928797" style="stroke: #000000"/>
      </g>
     </g>
     <g id="text_1">
      <!-- 0.0 -->
      <g transform="translate(30.550313 122.302391) scale(0.11 -0.11)">
       <defs>
        <path id="ArialMT-30" d="M 266 2259 
Q 266 3072 433 3567 
Q 600 4063 929 4331 
Q 1259 4600 1759 4600 
Q 2128 4600 2406 4451 
Q 2684 4303 2865 4023 
Q 3047 3744 3150 3342 
Q 3253 2941 3253 2259 
Q 3253 1453 3087 958 
Q 2922 463 2592 192 
Q 2263 -78 1759 -78 
Q 1097 -78 719 397 
Q 266 969 266 2259 
z
M 844 2259 
Q 844 1131 1108 757 
Q 1372 384 1759 384 
Q 2147 384 2411 759 
Q 2675 1134 2675 2259 
Q 2675 3391 2411 3762 
Q 2147 4134 1753 4134 
Q 1366 4134 1134 3806 
Q 844 3388 844 2259 
z
" transform="scale(0.015625)"/>
        <path id="ArialMT-2e" d="M 581 0 
L 581 641 
L 1222 641 
L 1222 0 
L 581 0 
z
" transform="scale(0.015625)"/>
       </defs>
       <use xlink:href="#ArialMT-30"/>
       <use xlink:href="#ArialMT-2e" x="55.615234"/>
       <use xlink:href="#ArialMT-30" x="83.398438"/>
      </g>
     </g>
    </g>
    <g id="xtick_2">
     <g id="line2d_2">
      <g>
       <use xlink:href="#m952bd3087a" x="82.835313" y="110.928797" style="stroke: #000000"/>
      </g>
     </g>
     <g id="text_2">
      <!-- 0.7 -->
      <g transform="translate(75.190313 122.302391) scale(0.11 -0.11)">
       <defs>
        <path id="ArialMT-37" d="M 303 3981 
L 303 4522 
L 3269 4522 
L 3269 4084 
Q 2831 3619 2401 2847 
Q 1972 2075 1738 1259 
Q 1569 684 1522 0 
L 944 0 
Q 953 541 1156 1306 
Q 1359 2072 1739 2783 
Q 2119 3494 2547 3981 
L 303 3981 
z
" transform="scale(0.015625)"/>
       </defs>
       <use xlink:href="#ArialMT-30"/>
       <use xlink:href="#ArialMT-2e" x="55.615234"/>
       <use xlink:href="#ArialMT-37" x="83.398438"/>
      </g>
     </g>
    </g>
    <g id="xtick_3">
     <g id="line2d_3">
      <g>
       <use xlink:href="#m952bd3087a" x="127.475313" y="110.928797" style="stroke: #000000"/>
      </g>
     </g>
     <g id="text_3">
      <!-- 1.4 -->
      <g transform="translate(119.830313 122.302391) scale(0.11 -0.11)">
       <defs>
        <path id="ArialMT-31" d="M 2384 0 
L 1822 0 
L 1822 3584 
Q 1619 3391 1289 3197 
Q 959 3003 697 2906 
L 697 3450 
Q 1169 3672 1522 3987 
Q 1875 4303 2022 4600 
L 2384 4600 
L 2384 0 
z
" transform="scale(0.015625)"/>
        <path id="ArialMT-34" d="M 2069 0 
L 2069 1097 
L 81 1097 
L 81 1613 
L 2172 4581 
L 2631 4581 
L 2631 1613 
L 3250 1613 
L 3250 1097 
L 2631 1097 
L 2631 0 
L 2069 0 
z
M 2069 1613 
L 2069 3678 
L 634 1613 
L 2069 1613 
z
" transform="scale(0.015625)"/>
       </defs>
       <use xlink:href="#ArialMT-31"/>
       <use xlink:href="#ArialMT-2e" x="55.615234"/>
       <use xlink:href="#ArialMT-34" x="83.398438"/>
      </g>
     </g>
    </g>
    <g id="text_4">
     <!-- Burst power (a.u.) -->
     <g transform="translate(35.155 137.224266) scale(0.12 -0.12)">
      <defs>
       <path id="ArialMT-42" d="M 469 0 
L 469 4581 
L 2188 4581 
Q 2713 4581 3030 4442 
Q 3347 4303 3526 4014 
Q 3706 3725 3706 3409 
Q 3706 3116 3547 2856 
Q 3388 2597 3066 2438 
Q 3481 2316 3704 2022 
Q 3928 1728 3928 1328 
Q 3928 1006 3792 729 
Q 3656 453 3456 303 
Q 3256 153 2954 76 
Q 2653 0 2216 0 
L 469 0 
z
M 1075 2656 
L 2066 2656 
Q 2469 2656 2644 2709 
Q 2875 2778 2992 2937 
Q 3109 3097 3109 3338 
Q 3109 3566 3000 3739 
Q 2891 3913 2687 3977 
Q 2484 4041 1991 4041 
L 1075 4041 
L 1075 2656 
z
M 1075 541 
L 2216 541 
Q 2509 541 2628 563 
Q 2838 600 2978 687 
Q 3119 775 3209 942 
Q 3300 1109 3300 1328 
Q 3300 1584 3169 1773 
Q 3038 1963 2805 2039 
Q 2572 2116 2134 2116 
L 1075 2116 
L 1075 541 
z
" transform="scale(0.015625)"/>
       <path id="ArialMT-75" d="M 2597 0 
L 2597 488 
Q 2209 -75 1544 -75 
Q 1250 -75 995 37 
Q 741 150 617 320 
Q 494 491 444 738 
Q 409 903 409 1263 
L 409 3319 
L 972 3319 
L 972 1478 
Q 972 1038 1006 884 
Q 1059 663 1231 536 
Q 1403 409 1656 409 
Q 1909 409 2131 539 
Q 2353 669 2445 892 
Q 2538 1116 2538 1541 
L 2538 3319 
L 3100 3319 
L 3100 0 
L 2597 0 
z
" transform="scale(0.015625)"/>
       <path id="ArialMT-72" d="M 416 0 
L 416 3319 
L 922 3319 
L 922 2816 
Q 1116 3169 1280 3281 
Q 1444 3394 1641 3394 
Q 1925 3394 2219 3213 
L 2025 2691 
Q 1819 2813 1613 2813 
Q 1428 2813 1281 2702 
Q 1134 2591 1072 2394 
Q 978 2094 978 1738 
L 978 0 
L 416 0 
z
" transform="scale(0.015625)"/>
       <path id="ArialMT-73" d="M 197 991 
L 753 1078 
Q 800 744 1014 566 
Q 1228 388 1613 388 
Q 2000 388 2187 545 
Q 2375 703 2375 916 
Q 2375 1106 2209 1216 
Q 2094 1291 1634 1406 
Q 1016 1563 777 1677 
Q 538 1791 414 1992 
Q 291 2194 291 2438 
Q 291 2659 392 2848 
Q 494 3038 669 3163 
Q 800 3259 1026 3326 
Q 1253 3394 1513 3394 
Q 1903 3394 2198 3281 
Q 2494 3169 2634 2976 
Q 2775 2784 2828 2463 
L 2278 2388 
Q 2241 2644 2061 2787 
Q 1881 2931 1553 2931 
Q 1166 2931 1000 2803 
Q 834 2675 834 2503 
Q 834 2394 903 2306 
Q 972 2216 1119 2156 
Q 1203 2125 1616 2013 
Q 2213 1853 2448 1751 
Q 2684 1650 2818 1456 
Q 2953 1263 2953 975 
Q 2953 694 2789 445 
Q 2625 197 2315 61 
Q 2006 -75 1616 -75 
Q 969 -75 630 194 
Q 291 463 197 991 
z
" transform="scale(0.015625)"/>
       <path id="ArialMT-74" d="M 1650 503 
L 1731 6 
Q 1494 -44 1306 -44 
Q 1000 -44 831 53 
Q 663 150 594 308 
Q 525 466 525 972 
L 525 2881 
L 113 2881 
L 113 3319 
L 525 3319 
L 525 4141 
L 1084 4478 
L 1084 3319 
L 1650 3319 
L 1650 2881 
L 1084 2881 
L 1084 941 
Q 1084 700 1114 631 
Q 1144 563 1211 522 
Q 1278 481 1403 481 
Q 1497 481 1650 503 
z
" transform="scale(0.015625)"/>
       <path id="ArialMT-20" transform="scale(0.015625)"/>
       <path id="ArialMT-70" d="M 422 -1272 
L 422 3319 
L 934 3319 
L 934 2888 
Q 1116 3141 1344 3267 
Q 1572 3394 1897 3394 
Q 2322 3394 2647 3175 
Q 2972 2956 3137 2557 
Q 3303 2159 3303 1684 
Q 3303 1175 3120 767 
Q 2938 359 2589 142 
Q 2241 -75 1856 -75 
Q 1575 -75 1351 44 
Q 1128 163 984 344 
L 984 -1272 
L 422 -1272 
z
M 931 1641 
Q 931 1000 1190 694 
Q 1450 388 1819 388 
Q 2194 388 2461 705 
Q 2728 1022 2728 1688 
Q 2728 2322 2467 2637 
Q 2206 2953 1844 2953 
Q 1484 2953 1207 2617 
Q 931 2281 931 1641 
z
" transform="scale(0.015625)"/>
       <path id="ArialMT-6f" d="M 213 1659 
Q 213 2581 725 3025 
Q 1153 3394 1769 3394 
Q 2453 3394 2887 2945 
Q 3322 2497 3322 1706 
Q 3322 1066 3130 698 
Q 2938 331 2570 128 
Q 2203 -75 1769 -75 
Q 1072 -75 642 372 
Q 213 819 213 1659 
z
M 791 1659 
Q 791 1022 1069 705 
Q 1347 388 1769 388 
Q 2188 388 2466 706 
Q 2744 1025 2744 1678 
Q 2744 2294 2464 2611 
Q 2184 2928 1769 2928 
Q 1347 2928 1069 2612 
Q 791 2297 791 1659 
z
" transform="scale(0.015625)"/>
       <path id="ArialMT-77" d="M 1034 0 
L 19 3319 
L 600 3319 
L 1128 1403 
L 1325 691 
Q 1338 744 1497 1375 
L 2025 3319 
L 2603 3319 
L 3100 1394 
L 3266 759 
L 3456 1400 
L 4025 3319 
L 4572 3319 
L 3534 0 
L 2950 0 
L 2422 1988 
L 2294 2553 
L 1622 0 
L 1034 0 
z
" transform="scale(0.015625)"/>
       <path id="ArialMT-65" d="M 2694 1069 
L 3275 997 
Q 3138 488 2766 206 
Q 2394 -75 1816 -75 
Q 1088 -75 661 373 
Q 234 822 234 1631 
Q 234 2469 665 2931 
Q 1097 3394 1784 3394 
Q 2450 3394 2872 2941 
Q 3294 2488 3294 1666 
Q 3294 1616 3291 1516 
L 816 1516 
Q 847 969 1125 678 
Q 1403 388 1819 388 
Q 2128 388 2347 550 
Q 2566 713 2694 1069 
z
M 847 1978 
L 2700 1978 
Q 2663 2397 2488 2606 
Q 2219 2931 1791 2931 
Q 1403 2931 1139 2672 
Q 875 2413 847 1978 
z
" transform="scale(0.015625)"/>
       <path id="ArialMT-28" d="M 1497 -1347 
Q 1031 -759 709 28 
Q 388 816 388 1659 
Q 388 2403 628 3084 
Q 909 3875 1497 4659 
L 1900 4659 
Q 1522 4009 1400 3731 
Q 1209 3300 1100 2831 
Q 966 2247 966 1656 
Q 966 153 1900 -1347 
L 1497 -1347 
z
" transform="scale(0.015625)"/>
       <path id="ArialMT-61" d="M 2588 409 
Q 2275 144 1986 34 
Q 1697 -75 1366 -75 
Q 819 -75 525 192 
Q 231 459 231 875 
Q 231 1119 342 1320 
Q 453 1522 633 1644 
Q 813 1766 1038 1828 
Q 1203 1872 1538 1913 
Q 2219 1994 2541 2106 
Q 2544 2222 2544 2253 
Q 2544 2597 2384 2738 
Q 2169 2928 1744 2928 
Q 1347 2928 1158 2789 
Q 969 2650 878 2297 
L 328 2372 
Q 403 2725 575 2942 
Q 747 3159 1072 3276 
Q 1397 3394 1825 3394 
Q 2250 3394 2515 3294 
Q 2781 3194 2906 3042 
Q 3031 2891 3081 2659 
Q 3109 2516 3109 2141 
L 3109 1391 
Q 3109 606 3145 398 
Q 3181 191 3288 0 
L 2700 0 
Q 2613 175 2588 409 
z
M 2541 1666 
Q 2234 1541 1622 1453 
Q 1275 1403 1131 1340 
Q 988 1278 909 1158 
Q 831 1038 831 891 
Q 831 666 1001 516 
Q 1172 366 1500 366 
Q 1825 366 2078 508 
Q 2331 650 2450 897 
Q 2541 1088 2541 1459 
L 2541 1666 
z
" transform="scale(0.015625)"/>
       <path id="ArialMT-29" d="M 791 -1347 
L 388 -1347 
Q 1322 153 1322 1656 
Q 1322 2244 1188 2822 
Q 1081 3291 891 3722 
Q 769 4003 388 4659 
L 791 4659 
Q 1378 3875 1659 3084 
Q 1900 2403 1900 1659 
Q 1900 816 1576 28 
Q 1253 -759 791 -1347 
z
" transform="scale(0.015625)"/>
      </defs>
      <use xlink:href="#ArialMT-42"/>
      <use xlink:href="#ArialMT-75" x="66.699219"/>
      <use xlink:href="#ArialMT-72" x="122.314453"/>
      <use xlink:href="#ArialMT-73" x="155.615234"/>
      <use xlink:href="#ArialMT-74" x="205.615234"/>
      <use xlink:href="#ArialMT-20" x="233.398438"/>
      <use xlink:href="#ArialMT-70" x="261.181641"/>
      <use xlink:href="#ArialMT-6f" x="316.796875"/>
      <use xlink:href="#ArialMT-77" x="372.412109"/>
      <use xlink:href="#ArialMT-65" x="444.628906"/>
      <use xlink:href="#ArialMT-72" x="500.244141"/>
      <use xlink:href="#ArialMT-20" x="533.544922"/>
      <use xlink:href="#ArialMT-28" x="561.328125"/>
      <use xlink:href="#ArialMT-61" x="594.628906"/>
      <use xlink:href="#ArialMT-2e" x="650.244141"/>
      <use xlink:href="#ArialMT-75" x="678.027344"/>
      <use xlink:href="#ArialMT-2e" x="733.642578"/>
      <use xlink:href="#ArialMT-29" x="761.425781"/>
     </g>
    </g>
   </g>
   <g id="matplotlib.axis_2">
    <g id="ytick_1">
     <g id="line2d_4">
      <defs>
       <path id="mc906cd36a8" d="M 0 0 
L 5 0 
" style="stroke: #000000"/>
      </defs>
      <g>
       <use xlink:href="#mc906cd36a8" x="38.195312" y="110.928797" style="stroke: #000000"/>
      </g>
     </g>
     <g id="text_5">
      <!-- 10 -->
      <g transform="translate(22.46125 114.865594) scale(0.11 -0.11)">
       <use xlink:href="#ArialMT-31"/>
       <use xlink:href="#ArialMT-30" x="55.615234"/>
      </g>
     </g>
    </g>
    <g id="ytick_2">
     <g id="line2d_5">
      <g>
       <use xlink:href="#mc906cd36a8" x="38.195312" y="85.980797" style="stroke: #000000"/>
      </g>
     </g>
     <g id="text_6">
      <!-- 30 -->
      <g transform="translate(22.46125 89.917594) scale(0.11 -0.11)">
       <defs>
        <path id="ArialMT-33" d="M 269 1209 
L 831 1284 
Q 928 806 1161 595 
Q 1394 384 1728 384 
Q 2125 384 2398 659 
Q 2672 934 2672 1341 
Q 2672 1728 2419 1979 
Q 2166 2231 1775 2231 
Q 1616 2231 1378 2169 
L 1441 2663 
Q 1497 2656 1531 2656 
Q 1891 2656 2178 2843 
Q 2466 3031 2466 3422 
Q 2466 3731 2256 3934 
Q 2047 4138 1716 4138 
Q 1388 4138 1169 3931 
Q 950 3725 888 3313 
L 325 3413 
Q 428 3978 793 4289 
Q 1159 4600 1703 4600 
Q 2078 4600 2393 4439 
Q 2709 4278 2876 4000 
Q 3044 3722 3044 3409 
Q 3044 3113 2884 2869 
Q 2725 2625 2413 2481 
Q 2819 2388 3044 2092 
Q 3269 1797 3269 1353 
Q 3269 753 2831 336 
Q 2394 -81 1725 -81 
Q 1122 -81 723 278 
Q 325 638 269 1209 
z
" transform="scale(0.015625)"/>
       </defs>
       <use xlink:href="#ArialMT-33"/>
       <use xlink:href="#ArialMT-30" x="55.615234"/>
      </g>
     </g>
    </g>
    <g id="ytick_3">
     <g id="line2d_6">
      <g>
       <use xlink:href="#mc906cd36a8" x="38.195312" y="61.032797" style="stroke: #000000"/>
      </g>
     </g>
     <g id="text_7">
      <!-- 50 -->
      <g transform="translate(22.46125 64.969594) scale(0.11 -0.11)">
       <defs>
        <path id="ArialMT-35" d="M 266 1200 
L 856 1250 
Q 922 819 1161 601 
Q 1400 384 1738 384 
Q 2144 384 2425 690 
Q 2706 997 2706 1503 
Q 2706 1984 2436 2262 
Q 2166 2541 1728 2541 
Q 1456 2541 1237 2417 
Q 1019 2294 894 2097 
L 366 2166 
L 809 4519 
L 3088 4519 
L 3088 3981 
L 1259 3981 
L 1013 2750 
Q 1425 3038 1878 3038 
Q 2478 3038 2890 2622 
Q 3303 2206 3303 1553 
Q 3303 931 2941 478 
Q 2500 -78 1738 -78 
Q 1113 -78 717 272 
Q 322 622 266 1200 
z
" transform="scale(0.015625)"/>
       </defs>
       <use xlink:href="#ArialMT-35"/>
       <use xlink:href="#ArialMT-30" x="55.615234"/>
      </g>
     </g>
    </g>
    <g id="ytick_4">
     <g id="line2d_7">
      <g>
       <use xlink:href="#mc906cd36a8" x="38.195312" y="36.084797" style="stroke: #000000"/>
      </g>
     </g>
     <g id="text_8">
      <!-- 70 -->
      <g transform="translate(22.46125 40.021594) scale(0.11 -0.11)">
       <use xlink:href="#ArialMT-37"/>
       <use xlink:href="#ArialMT-30" x="55.615234"/>
      </g>
     </g>
    </g>
    <g id="ytick_5">
     <g id="line2d_8">
      <g>
       <use xlink:href="#mc906cd36a8" x="38.195312" y="11.136797" style="stroke: #000000"/>
      </g>
     </g>
     <g id="text_9">
      <!-- 90 -->
      <g transform="translate(22.46125 15.073594) scale(0.11 -0.11)">
       <defs>
        <path id="ArialMT-39" d="M 350 1059 
L 891 1109 
Q 959 728 1153 556 
Q 1347 384 1650 384 
Q 1909 384 2104 503 
Q 2300 622 2425 820 
Q 2550 1019 2634 1356 
Q 2719 1694 2719 2044 
Q 2719 2081 2716 2156 
Q 2547 1888 2255 1720 
Q 1963 1553 1622 1553 
Q 1053 1553 659 1965 
Q 266 2378 266 3053 
Q 266 3750 677 4175 
Q 1088 4600 1706 4600 
Q 2153 4600 2523 4359 
Q 2894 4119 3086 3673 
Q 3278 3228 3278 2384 
Q 3278 1506 3087 986 
Q 2897 466 2520 194 
Q 2144 -78 1638 -78 
Q 1100 -78 759 220 
Q 419 519 350 1059 
z
M 2653 3081 
Q 2653 3566 2395 3850 
Q 2138 4134 1775 4134 
Q 1400 4134 1122 3828 
Q 844 3522 844 3034 
Q 844 2597 1108 2323 
Q 1372 2050 1759 2050 
Q 2150 2050 2401 2323 
Q 2653 2597 2653 3081 
z
" transform="scale(0.015625)"/>
       </defs>
       <use xlink:href="#ArialMT-39"/>
       <use xlink:href="#ArialMT-30" x="55.615234"/>
      </g>
     </g>
    </g>
    <g id="text_10">
     <!-- Frequency (Hz) -->
     <g transform="translate(15.935625 102.373734) rotate(-90) scale(0.12 -0.12)">
      <defs>
       <path id="ArialMT-46" d="M 525 0 
L 525 4581 
L 3616 4581 
L 3616 4041 
L 1131 4041 
L 1131 2622 
L 3281 2622 
L 3281 2081 
L 1131 2081 
L 1131 0 
L 525 0 
z
" transform="scale(0.015625)"/>
       <path id="ArialMT-71" d="M 2538 -1272 
L 2538 353 
Q 2406 169 2170 47 
Q 1934 -75 1669 -75 
Q 1078 -75 651 397 
Q 225 869 225 1691 
Q 225 2191 398 2587 
Q 572 2984 901 3189 
Q 1231 3394 1625 3394 
Q 2241 3394 2594 2875 
L 2594 3319 
L 3100 3319 
L 3100 -1272 
L 2538 -1272 
z
M 803 1669 
Q 803 1028 1072 708 
Q 1341 388 1716 388 
Q 2075 388 2334 692 
Q 2594 997 2594 1619 
Q 2594 2281 2320 2615 
Q 2047 2950 1678 2950 
Q 1313 2950 1058 2639 
Q 803 2328 803 1669 
z
" transform="scale(0.015625)"/>
       <path id="ArialMT-6e" d="M 422 0 
L 422 3319 
L 928 3319 
L 928 2847 
Q 1294 3394 1984 3394 
Q 2284 3394 2536 3286 
Q 2788 3178 2913 3003 
Q 3038 2828 3088 2588 
Q 3119 2431 3119 2041 
L 3119 0 
L 2556 0 
L 2556 2019 
Q 2556 2363 2490 2533 
Q 2425 2703 2258 2804 
Q 2091 2906 1866 2906 
Q 1506 2906 1245 2678 
Q 984 2450 984 1813 
L 984 0 
L 422 0 
z
" transform="scale(0.015625)"/>
       <path id="ArialMT-63" d="M 2588 1216 
L 3141 1144 
Q 3050 572 2676 248 
Q 2303 -75 1759 -75 
Q 1078 -75 664 370 
Q 250 816 250 1647 
Q 250 2184 428 2587 
Q 606 2991 970 3192 
Q 1334 3394 1763 3394 
Q 2303 3394 2647 3120 
Q 2991 2847 3088 2344 
L 2541 2259 
Q 2463 2594 2264 2762 
Q 2066 2931 1784 2931 
Q 1359 2931 1093 2626 
Q 828 2322 828 1663 
Q 828 994 1084 691 
Q 1341 388 1753 388 
Q 2084 388 2306 591 
Q 2528 794 2588 1216 
z
" transform="scale(0.015625)"/>
       <path id="ArialMT-79" d="M 397 -1278 
L 334 -750 
Q 519 -800 656 -800 
Q 844 -800 956 -737 
Q 1069 -675 1141 -563 
Q 1194 -478 1313 -144 
Q 1328 -97 1363 -6 
L 103 3319 
L 709 3319 
L 1400 1397 
Q 1534 1031 1641 628 
Q 1738 1016 1872 1384 
L 2581 3319 
L 3144 3319 
L 1881 -56 
Q 1678 -603 1566 -809 
Q 1416 -1088 1222 -1217 
Q 1028 -1347 759 -1347 
Q 597 -1347 397 -1278 
z
" transform="scale(0.015625)"/>
       <path id="ArialMT-48" d="M 513 0 
L 513 4581 
L 1119 4581 
L 1119 2700 
L 3500 2700 
L 3500 4581 
L 4106 4581 
L 4106 0 
L 3500 0 
L 3500 2159 
L 1119 2159 
L 1119 0 
L 513 0 
z
" transform="scale(0.015625)"/>
       <path id="ArialMT-7a" d="M 125 0 
L 125 456 
L 2238 2881 
Q 1878 2863 1603 2863 
L 250 2863 
L 250 3319 
L 2963 3319 
L 2963 2947 
L 1166 841 
L 819 456 
Q 1197 484 1528 484 
L 3063 484 
L 3063 0 
L 125 0 
z
" transform="scale(0.015625)"/>
      </defs>
      <use xlink:href="#ArialMT-46"/>
      <use xlink:href="#ArialMT-72" x="61.083984"/>
      <use xlink:href="#ArialMT-65" x="94.384766"/>
      <use xlink:href="#ArialMT-71" x="150"/>
      <use xlink:href="#ArialMT-75" x="205.615234"/>
      <use xlink:href="#ArialMT-65" x="261.230469"/>
      <use xlink:href="#ArialMT-6e" x="316.845703"/>
      <use xlink:href="#ArialMT-63" x="372.460938"/>
      <use xlink:href="#ArialMT-79" x="422.460938"/>
      <use xlink:href="#ArialMT-20" x="472.460938"/>
      <use xlink:href="#ArialMT-28" x="500.244141"/>
      <use xlink:href="#ArialMT-48" x="533.544922"/>
      <use xlink:href="#ArialMT-7a" x="605.761719"/>
      <use xlink:href="#ArialMT-29" x="655.761719"/>
     </g>
    </g>
   </g>
   <g id="patch_3">
    <path d="M 38.195312 110.928797 
L 38.195312 11.136797 
" style="fill: none; stroke: #000000; stroke-width: 0.8; stroke-linejoin: miter; stroke-linecap: square"/>
   </g>
   <g id="patch_4">
    <path d="M 38.195312 110.928797 
L 127.475313 110.928797 
" style="fill: none; stroke: #000000; stroke-width: 0.8; stroke-linejoin: miter; stroke-linecap: square"/>
   </g>
  </g>
  <g id="axes_2">
   <g id="patch_5">
    <path d="M 133.055313 110.928797 
L 138.044913 110.928797 
L 138.044913 11.136797 
L 133.055313 11.136797 
z
" style="fill: #ffffff"/>
   </g>
   <g id="QuadMesh_1">
    <path d="M 133.055313 110.928797 
L 138.044913 110.928797 
L 138.044913 105.939197 
L 133.055313 105.939197 
L 133.055313 110.928797 
" clip-path="url(#pef388abc12)" style="fill: #372466"/>
    <path d="M 133.055313 105.939197 
L 138.044913 105.939197 
L 138.044913 100.949597 
L 133.055313 100.949597 
L 133.055313 105.939197 
" clip-path="url(#pef388abc12)" style="fill: #4249b1"/>
    <path d="M 133.055313 100.949597 
L 138.044913 100.949597 
L 138.044913 95.959997 
L 133.055313 95.959997 
L 133.055313 100.949597 
" clip-path="url(#pef388abc12)" style="fill: #466be3"/>
    <path d="M 133.055313 95.959997 
L 138.044913 95.959997 
L 138.044913 90.970397 
L 133.055313 90.970397 
L 133.055313 95.959997 
" clip-path="url(#pef388abc12)" style="fill: #458afc"/>
    <path d="M 133.055313 90.970397 
L 138.044913 90.970397 
L 138.044913 85.980797 
L 133.055313 85.980797 
L 133.055313 90.970397 
" clip-path="url(#pef388abc12)" style="fill: #35abf8"/>
    <path d="M 133.055313 85.980797 
L 138.044913 85.980797 
L 138.044913 80.991197 
L 133.055313 80.991197 
L 133.055313 85.980797 
" clip-path="url(#pef388abc12)" style="fill: #1fc9dd"/>
    <path d="M 133.055313 80.991197 
L 138.044913 80.991197 
L 138.044913 76.001597 
L 133.055313 76.001597 
L 133.055313 80.991197 
" clip-path="url(#pef388abc12)" style="fill: #19e2bb"/>
    <path d="M 133.055313 76.001597 
L 138.044913 76.001597 
L 138.044913 71.011997 
L 133.055313 71.011997 
L 133.055313 76.001597 
" clip-path="url(#pef388abc12)" style="fill: #32f298"/>
    <path d="M 133.055313 71.011997 
L 138.044913 71.011997 
L 138.044913 66.022397 
L 133.055313 66.022397 
L 133.055313 71.011997 
" clip-path="url(#pef388abc12)" style="fill: #5dfc6f"/>
    <path d="M 133.055313 66.022397 
L 138.044913 66.022397 
L 138.044913 61.032797 
L 133.055313 61.032797 
L 133.055313 66.022397 
" clip-path="url(#pef388abc12)" style="fill: #8fff49"/>
    <path d="M 133.055313 61.032797 
L 138.044913 61.032797 
L 138.044913 56.043197 
L 133.055313 56.043197 
L 133.055313 61.032797 
" clip-path="url(#pef388abc12)" style="fill: #b4f836"/>
    <path d="M 133.055313 56.043197 
L 138.044913 56.043197 
L 138.044913 51.053597 
L 133.055313 51.053597 
L 133.055313 56.043197 
" clip-path="url(#pef388abc12)" style="fill: #d4e735"/>
    <path d="M 133.055313 51.053597 
L 138.044913 51.053597 
L 138.044913 46.063997 
L 133.055313 46.063997 
L 133.055313 51.053597 
" clip-path="url(#pef388abc12)" style="fill: #eecf3a"/>
    <path d="M 133.055313 46.063997 
L 138.044913 46.063997 
L 138.044913 41.074397 
L 133.055313 41.074397 
L 133.055313 46.063997 
" clip-path="url(#pef388abc12)" style="fill: #fbb637"/>
    <path d="M 133.055313 41.074397 
L 138.044913 41.074397 
L 138.044913 36.084797 
L 133.055313 36.084797 
L 133.055313 41.074397 
" clip-path="url(#pef388abc12)" style="fill: #fe932a"/>
    <path d="M 133.055313 36.084797 
L 138.044913 36.084797 
L 138.044913 31.095197 
L 133.055313 31.095197 
L 133.055313 36.084797 
" clip-path="url(#pef388abc12)" style="fill: #f66c19"/>
    <path d="M 133.055313 31.095197 
L 138.044913 31.095197 
L 138.044913 26.105597 
L 133.055313 26.105597 
L 133.055313 31.095197 
" clip-path="url(#pef388abc12)" style="fill: #e7490c"/>
    <path d="M 133.055313 26.105597 
L 138.044913 26.105597 
L 138.044913 21.115997 
L 133.055313 21.115997 
L 133.055313 26.105597 
" clip-path="url(#pef388abc12)" style="fill: #d02f05"/>
    <path d="M 133.055313 21.115997 
L 138.044913 21.115997 
L 138.044913 16.126397 
L 133.055313 16.126397 
L 133.055313 21.115997 
" clip-path="url(#pef388abc12)" style="fill: #b41b01"/>
    <path d="M 133.055313 16.126397 
L 138.044913 16.126397 
L 138.044913 11.136797 
L 133.055313 11.136797 
L 133.055313 16.126397 
" clip-path="url(#pef388abc12)" style="fill: #8e0a01"/>
    <path d="M 133.055313 11.136797 
L 138.044913 11.136797 
L 138.044913 6.147197 
L 133.055313 6.147197 
L 133.055313 11.136797 
" clip-path="url(#pef388abc12)" style="fill: #7a0403"/>
   </g>
   <g id="matplotlib.axis_3"/>
   <g id="matplotlib.axis_4">
    <g id="ytick_6">
     <g id="line2d_9">
      <defs>
       <path id="m3e5a7e069d" d="M 0 0 
L -5 0 
" style="stroke: #000000"/>
      </defs>
      <g>
       <use xlink:href="#m3e5a7e069d" x="138.044913" y="110.928797" style="stroke: #000000"/>
      </g>
     </g>
     <g id="text_11">
      <!-- 0.00 -->
      <g transform="translate(141.544913 114.865594) scale(0.11 -0.11)">
       <use xlink:href="#ArialMT-30"/>
       <use xlink:href="#ArialMT-2e" x="55.615234"/>
       <use xlink:href="#ArialMT-30" x="83.398438"/>
       <use xlink:href="#ArialMT-30" x="139.013672"/>
      </g>
     </g>
    </g>
    <g id="ytick_7">
     <g id="line2d_10">
      <g>
       <use xlink:href="#m3e5a7e069d" x="138.044913" y="61.032797" style="stroke: #000000"/>
      </g>
     </g>
     <g id="text_12">
      <!-- 0.03 -->
      <g transform="translate(141.544913 64.969594) scale(0.11 -0.11)">
       <use xlink:href="#ArialMT-30"/>
       <use xlink:href="#ArialMT-2e" x="55.615234"/>
       <use xlink:href="#ArialMT-30" x="83.398438"/>
       <use xlink:href="#ArialMT-33" x="139.013672"/>
      </g>
     </g>
    </g>
    <g id="ytick_8">
     <g id="line2d_11">
      <g>
       <use xlink:href="#m3e5a7e069d" x="138.044913" y="11.136797" style="stroke: #000000"/>
      </g>
     </g>
     <g id="text_13">
      <!-- 0.06 -->
      <g transform="translate(141.544913 15.073594) scale(0.11 -0.11)">
       <defs>
        <path id="ArialMT-36" d="M 3184 3459 
L 2625 3416 
Q 2550 3747 2413 3897 
Q 2184 4138 1850 4138 
Q 1581 4138 1378 3988 
Q 1113 3794 959 3422 
Q 806 3050 800 2363 
Q 1003 2672 1297 2822 
Q 1591 2972 1913 2972 
Q 2475 2972 2870 2558 
Q 3266 2144 3266 1488 
Q 3266 1056 3080 686 
Q 2894 316 2569 119 
Q 2244 -78 1831 -78 
Q 1128 -78 684 439 
Q 241 956 241 2144 
Q 241 3472 731 4075 
Q 1159 4600 1884 4600 
Q 2425 4600 2770 4297 
Q 3116 3994 3184 3459 
z
M 888 1484 
Q 888 1194 1011 928 
Q 1134 663 1356 523 
Q 1578 384 1822 384 
Q 2178 384 2434 671 
Q 2691 959 2691 1453 
Q 2691 1928 2437 2201 
Q 2184 2475 1800 2475 
Q 1419 2475 1153 2201 
Q 888 1928 888 1484 
z
" transform="scale(0.015625)"/>
       </defs>
       <use xlink:href="#ArialMT-30"/>
       <use xlink:href="#ArialMT-2e" x="55.615234"/>
       <use xlink:href="#ArialMT-30" x="83.398438"/>
       <use xlink:href="#ArialMT-36" x="139.013672"/>
      </g>
     </g>
    </g>
   </g>
   <g id="LineCollection_1"/>
   <g id="patch_6">
    <path d="M 133.055313 110.928797 
L 135.550113 110.928797 
L 138.044913 110.928797 
L 138.044913 11.136797 
L 135.550113 11.136797 
L 133.055313 11.136797 
L 133.055313 110.928797 
z
" style="fill: none; stroke: #000000; stroke-width: 0.8; stroke-linejoin: miter; stroke-linecap: square"/>
   </g>
  </g>
 </g>
 <defs>
  <clipPath id="p0ca59c8b33">
   <rect x="38.195312" y="11.136797" width="89.28" height="99.792"/>
  </clipPath>
  <clipPath id="pef388abc12">
   <rect x="133.055313" y="11.136797" width="4.9896" height="99.792"/>
  </clipPath>
 </defs>
</svg>
