<?xml version="1.0" encoding="utf-8" standalone="no"?>
<!DOCTYPE svg PUBLIC "-//W3C//DTD SVG 1.1//EN"
  "http://www.w3.org/Graphics/SVG/1.1/DTD/svg11.dtd">
<svg xmlns:xlink="http://www.w3.org/1999/xlink" width="127.800313pt" height="168.403594pt" viewBox="0 0 127.800313 168.403594" xmlns="http://www.w3.org/2000/svg" version="1.1">
 <metadata>
  <rdf:RDF xmlns:dc="http://purl.org/dc/elements/1.1/" xmlns:cc="http://creativecommons.org/ns#" xmlns:rdf="http://www.w3.org/1999/02/22-rdf-syntax-ns#">
   <cc:Work>
    <dc:type rdf:resource="http://purl.org/dc/dcmitype/StillImage"/>
    <dc:date>2025-04-29T14:28:51.918576</dc:date>
    <dc:format>image/svg+xml</dc:format>
    <dc:creator>
     <cc:Agent>
      <dc:title>Matplotlib v3.7.2, https://matplotlib.org/</dc:title>
     </cc:Agent>
    </dc:creator>
   </cc:Work>
  </rdf:RDF>
 </metadata>
 <defs>
  <style type="text/css">*{stroke-linejoin: round; stroke-linecap: butt}</style>
 </defs>
 <g id="figure_1">
  <g id="patch_1">
   <path d="M 0 168.403594 
L 127.800313 168.403594 
L 127.800313 0 
L 0 0 
z
" style="fill: #ffffff"/>
  </g>
  <g id="axes_1">
   <g id="patch_2">
    <path d="M 41.25125 132.669375 
L 116.58125 132.669375 
L 116.58125 21.789375 
L 41.25125 21.789375 
z
" style="fill: #ffffff"/>
   </g>
   <g id="PolyCollection_1">
    <defs>
     <path id="m80cf7adb0a" d="M 66.36125 -58.046414 
L 66.262194 -58.046414 
L 66.212715 -58.490318 
L 66.142847 -58.934222 
L 66.046322 -59.378126 
L 65.915848 -59.82203 
L 65.743268 -60.265934 
L 65.51985 -60.709839 
L 65.236687 -61.153743 
L 64.885218 -61.597647 
L 64.457823 -62.041551 
L 63.948453 -62.485455 
L 63.353256 -62.929359 
L 62.671148 -63.373264 
L 61.904274 -63.817168 
L 61.058327 -64.261072 
L 60.14267 -64.704976 
L 59.170254 -65.14888 
L 58.157294 -65.592784 
L 57.122721 -66.036689 
L 56.087431 -66.480593 
L 55.073378 -66.924497 
L 54.102596 -67.368401 
L 53.196227 -67.812305 
L 52.373636 -68.256209 
L 51.651699 -68.700114 
L 51.044276 -69.144018 
L 50.561909 -69.587922 
L 50.211692 -70.031826 
L 49.997307 -70.47573 
L 49.919161 -70.919634 
L 49.974599 -71.363538 
L 50.158166 -71.807443 
L 50.461906 -72.251347 
L 50.875693 -72.695251 
L 51.387595 -73.139155 
L 51.984266 -73.583059 
L 52.651365 -74.026963 
L 53.373984 -74.470868 
L 54.137082 -74.914772 
L 54.925901 -75.358676 
L 55.72636 -75.80258 
L 56.525409 -76.246484 
L 57.31133 -76.690388 
L 58.07397 -77.134293 
L 58.804897 -77.578197 
L 59.497479 -78.022101 
L 60.146879 -78.466005 
L 60.749971 -78.909909 
L 61.305201 -79.353813 
L 61.812398 -79.797718 
L 62.272558 -80.241622 
L 62.687616 -80.685526 
L 63.060218 -81.12943 
L 63.39351 -81.573334 
L 63.690944 -82.017238 
L 63.956097 -82.461143 
L 64.192528 -82.905047 
L 64.403653 -83.348951 
L 64.592653 -83.792855 
L 64.762399 -84.236759 
L 64.915427 -84.680663 
L 65.053916 -85.124568 
L 65.179705 -85.568472 
L 65.294319 -86.012376 
L 65.399003 -86.45628 
L 65.494761 -86.900184 
L 65.582397 -87.344088 
L 65.662547 -87.787992 
L 65.73572 -88.231897 
L 65.802328 -88.675801 
L 65.862729 -89.119705 
L 65.917254 -89.563609 
L 65.966242 -90.007513 
L 66.010063 -90.451417 
L 66.049123 -90.895322 
L 66.083866 -91.339226 
L 66.114756 -91.78313 
L 66.14225 -92.227034 
L 66.166779 -92.670938 
L 66.188716 -93.114842 
L 66.208368 -93.558747 
L 66.225972 -94.002651 
L 66.241706 -94.446555 
L 66.255704 -94.890459 
L 66.268083 -95.334363 
L 66.27896 -95.778267 
L 66.288469 -96.222172 
L 66.296769 -96.666076 
L 66.304037 -97.10998 
L 66.310459 -97.553884 
L 66.316216 -97.997788 
L 66.321464 -98.441692 
L 66.326325 -98.885597 
L 66.330877 -99.329501 
L 66.335158 -99.773405 
L 66.339168 -100.217309 
L 66.342883 -100.661213 
L 66.346267 -101.105117 
L 66.349282 -101.549022 
L 66.351904 -101.992926 
L 66.354123 -102.43683 
L 66.36125 -102.43683 
L 66.36125 -102.43683 
L 66.36125 -101.992926 
L 66.36125 -101.549022 
L 66.36125 -101.105117 
L 66.36125 -100.661213 
L 66.36125 -100.217309 
L 66.36125 -99.773405 
L 66.36125 -99.329501 
L 66.36125 -98.885597 
L 66.36125 -98.441692 
L 66.36125 -97.997788 
L 66.36125 -97.553884 
L 66.36125 -97.10998 
L 66.36125 -96.666076 
L 66.36125 -96.222172 
L 66.36125 -95.778267 
L 66.36125 -95.334363 
L 66.36125 -94.890459 
L 66.36125 -94.446555 
L 66.36125 -94.002651 
L 66.36125 -93.558747 
L 66.36125 -93.114842 
L 66.36125 -92.670938 
L 66.36125 -92.227034 
L 66.36125 -91.78313 
L 66.36125 -91.339226 
L 66.36125 -90.895322 
L 66.36125 -90.451417 
L 66.36125 -90.007513 
L 66.36125 -89.563609 
L 66.36125 -89.119705 
L 66.36125 -88.675801 
L 66.36125 -88.231897 
L 66.36125 -87.787992 
L 66.36125 -87.344088 
L 66.36125 -86.900184 
L 66.36125 -86.45628 
L 66.36125 -86.012376 
L 66.36125 -85.568472 
L 66.36125 -85.124568 
L 66.36125 -84.680663 
L 66.36125 -84.236759 
L 66.36125 -83.792855 
L 66.36125 -83.348951 
L 66.36125 -82.905047 
L 66.36125 -82.461143 
L 66.36125 -82.017238 
L 66.36125 -81.573334 
L 66.36125 -81.12943 
L 66.36125 -80.685526 
L 66.36125 -80.241622 
L 66.36125 -79.797718 
L 66.36125 -79.353813 
L 66.36125 -78.909909 
L 66.36125 -78.466005 
L 66.36125 -78.022101 
L 66.36125 -77.578197 
L 66.36125 -77.134293 
L 66.36125 -76.690388 
L 66.36125 -76.246484 
L 66.36125 -75.80258 
L 66.36125 -75.358676 
L 66.36125 -74.914772 
L 66.36125 -74.470868 
L 66.36125 -74.026963 
L 66.36125 -73.583059 
L 66.36125 -73.139155 
L 66.36125 -72.695251 
L 66.36125 -72.251347 
L 66.36125 -71.807443 
L 66.36125 -71.363538 
L 66.36125 -70.919634 
L 66.36125 -70.47573 
L 66.36125 -70.031826 
L 66.36125 -69.587922 
L 66.36125 -69.144018 
L 66.36125 -68.700114 
L 66.36125 -68.256209 
L 66.36125 -67.812305 
L 66.36125 -67.368401 
L 66.36125 -66.924497 
L 66.36125 -66.480593 
L 66.36125 -66.036689 
L 66.36125 -65.592784 
L 66.36125 -65.14888 
L 66.36125 -64.704976 
L 66.36125 -64.261072 
L 66.36125 -63.817168 
L 66.36125 -63.373264 
L 66.36125 -62.929359 
L 66.36125 -62.485455 
L 66.36125 -62.041551 
L 66.36125 -61.597647 
L 66.36125 -61.153743 
L 66.36125 -60.709839 
L 66.36125 -60.265934 
L 66.36125 -59.82203 
L 66.36125 -59.378126 
L 66.36125 -58.934222 
L 66.36125 -58.490318 
L 66.36125 -58.046414 
z
" style="stroke: #000000; stroke-opacity: 0.8"/>
    </defs>
    <g clip-path="url(#pca84ce866c)">
     <use xlink:href="#m80cf7adb0a" x="0" y="168.403594" style="fill: #bdbdbb; fill-opacity: 0.8; stroke: #000000; stroke-opacity: 0.8"/>
    </g>
   </g>
   <g id="PolyCollection_2">
    <defs>
     <path id="m3fd518c008" d="M 66.36125 -50.654498 
L 66.39341 -50.654498 
L 66.417777 -51.185328 
L 66.456806 -51.716158 
L 66.516742 -52.246988 
L 66.605045 -52.777818 
L 66.729949 -53.308649 
L 66.899748 -53.839479 
L 67.121907 -54.370309 
L 67.40222 -54.901139 
L 67.744297 -55.43197 
L 68.149659 -55.9628 
L 68.618569 -56.49363 
L 69.151512 -57.02446 
L 69.750934 -57.55529 
L 70.422631 -58.086121 
L 71.176138 -58.616951 
L 72.023611 -59.147781 
L 72.977075 -59.678611 
L 74.044373 -60.209442 
L 75.224611 -60.740272 
L 76.504134 -61.271102 
L 77.854082 -61.801932 
L 79.23032 -62.332762 
L 80.576022 -62.863593 
L 81.826643 -63.394423 
L 82.916483 -63.925253 
L 83.785757 -64.456083 
L 84.386987 -64.986914 
L 84.689763 -65.517744 
L 84.683211 -66.048574 
L 84.376015 -66.579404 
L 83.794217 -67.110234 
L 82.977371 -67.641065 
L 81.973802 -68.171895 
L 80.835749 -68.702725 
L 79.615016 -69.233555 
L 78.35953 -69.764386 
L 77.110937 -70.295216 
L 75.903219 -70.826046 
L 74.762146 -71.356876 
L 73.705446 -71.887706 
L 72.743497 -72.418537 
L 71.880433 -72.949367 
L 71.115463 -73.480197 
L 70.444253 -74.011027 
L 69.860186 -74.541858 
L 69.355387 -75.072688 
L 68.921479 -75.603518 
L 68.550077 -76.134348 
L 68.233117 -76.665178 
L 67.963049 -77.196009 
L 67.732976 -77.726839 
L 67.536742 -78.257669 
L 67.368967 -78.788499 
L 67.225045 -79.31933 
L 67.101097 -79.85016 
L 66.993896 -80.38099 
L 66.90079 -80.91182 
L 66.819634 -81.44265 
L 66.748728 -81.973481 
L 66.686772 -82.504311 
L 66.632804 -83.035141 
L 66.586121 -83.565971 
L 66.546172 -84.096801 
L 66.512457 -84.627632 
L 66.484431 -85.158462 
L 66.461464 -85.689292 
L 66.442847 -86.220122 
L 66.427845 -86.750953 
L 66.415766 -87.281783 
L 66.406011 -87.812613 
L 66.398106 -88.343443 
L 66.391691 -88.874273 
L 66.386497 -89.405104 
L 66.382308 -89.935934 
L 66.378938 -90.466764 
L 66.376219 -90.997594 
L 66.373998 -91.528425 
L 66.372145 -92.059255 
L 66.370558 -92.590085 
L 66.369163 -93.120915 
L 66.367914 -93.651745 
L 66.366787 -94.182576 
L 66.365777 -94.713406 
L 66.364892 -95.244236 
L 66.364142 -95.775066 
L 66.363542 -96.305897 
L 66.363099 -96.836727 
L 66.362811 -97.367557 
L 66.362664 -97.898387 
L 66.362629 -98.429217 
L 66.362668 -98.960048 
L 66.362737 -99.490878 
L 66.362793 -100.021708 
L 66.362803 -100.552538 
L 66.362748 -101.083369 
L 66.362626 -101.614199 
L 66.362449 -102.145029 
L 66.36224 -102.675859 
L 66.362023 -103.206689 
L 66.361822 -103.73752 
L 66.36125 -103.73752 
L 66.36125 -103.73752 
L 66.36125 -103.206689 
L 66.36125 -102.675859 
L 66.36125 -102.145029 
L 66.36125 -101.614199 
L 66.36125 -101.083369 
L 66.36125 -100.552538 
L 66.36125 -100.021708 
L 66.36125 -99.490878 
L 66.36125 -98.960048 
L 66.36125 -98.429217 
L 66.36125 -97.898387 
L 66.36125 -97.367557 
L 66.36125 -96.836727 
L 66.36125 -96.305897 
L 66.36125 -95.775066 
L 66.36125 -95.244236 
L 66.36125 -94.713406 
L 66.36125 -94.182576 
L 66.36125 -93.651745 
L 66.36125 -93.120915 
L 66.36125 -92.590085 
L 66.36125 -92.059255 
L 66.36125 -91.528425 
L 66.36125 -90.997594 
L 66.36125 -90.466764 
L 66.36125 -89.935934 
L 66.36125 -89.405104 
L 66.36125 -88.874273 
L 66.36125 -88.343443 
L 66.36125 -87.812613 
L 66.36125 -87.281783 
L 66.36125 -86.750953 
L 66.36125 -86.220122 
L 66.36125 -85.689292 
L 66.36125 -85.158462 
L 66.36125 -84.627632 
L 66.36125 -84.096801 
L 66.36125 -83.565971 
L 66.36125 -83.035141 
L 66.36125 -82.504311 
L 66.36125 -81.973481 
L 66.36125 -81.44265 
L 66.36125 -80.91182 
L 66.36125 -80.38099 
L 66.36125 -79.85016 
L 66.36125 -79.31933 
L 66.36125 -78.788499 
L 66.36125 -78.257669 
L 66.36125 -77.726839 
L 66.36125 -77.196009 
L 66.36125 -76.665178 
L 66.36125 -76.134348 
L 66.36125 -75.603518 
L 66.36125 -75.072688 
L 66.36125 -74.541858 
L 66.36125 -74.011027 
L 66.36125 -73.480197 
L 66.36125 -72.949367 
L 66.36125 -72.418537 
L 66.36125 -71.887706 
L 66.36125 -71.356876 
L 66.36125 -70.826046 
L 66.36125 -70.295216 
L 66.36125 -69.764386 
L 66.36125 -69.233555 
L 66.36125 -68.702725 
L 66.36125 -68.171895 
L 66.36125 -67.641065 
L 66.36125 -67.110234 
L 66.36125 -66.579404 
L 66.36125 -66.048574 
L 66.36125 -65.517744 
L 66.36125 -64.986914 
L 66.36125 -64.456083 
L 66.36125 -63.925253 
L 66.36125 -63.394423 
L 66.36125 -62.863593 
L 66.36125 -62.332762 
L 66.36125 -61.801932 
L 66.36125 -61.271102 
L 66.36125 -60.740272 
L 66.36125 -60.209442 
L 66.36125 -59.678611 
L 66.36125 -59.147781 
L 66.36125 -58.616951 
L 66.36125 -58.086121 
L 66.36125 -57.55529 
L 66.36125 -57.02446 
L 66.36125 -56.49363 
L 66.36125 -55.9628 
L 66.36125 -55.43197 
L 66.36125 -54.901139 
L 66.36125 -54.370309 
L 66.36125 -53.839479 
L 66.36125 -53.308649 
L 66.36125 -52.777818 
L 66.36125 -52.246988 
L 66.36125 -51.716158 
L 66.36125 -51.185328 
L 66.36125 -50.654498 
z
" style="stroke: #000000; stroke-opacity: 0.8"/>
    </defs>
    <g clip-path="url(#pca84ce866c)">
     <use xlink:href="#m3fd518c008" x="0" y="168.403594" style="fill: #ff812f; fill-opacity: 0.8; stroke: #000000; stroke-opacity: 0.8"/>
    </g>
   </g>
   <g id="PolyCollection_3">
    <defs>
     <path id="m3013231729" d="M 91.47125 -52.954379 
L 91.304193 -52.954379 
L 91.209794 -54.351338 
L 91.077617 -55.748297 
L 90.900775 -57.145255 
L 90.674763 -58.542214 
L 90.398926 -59.939173 
L 90.07756 -61.336132 
L 89.720263 -62.733091 
L 89.341278 -64.13005 
L 88.957789 -65.527009 
L 88.587449 -66.923968 
L 88.24564 -68.320927 
L 87.943105 -69.717886 
L 87.6845 -71.114845 
L 87.468179 -72.511804 
L 87.287208 -73.908763 
L 87.131299 -75.305722 
L 86.989181 -76.702681 
L 86.850894 -78.09964 
L 86.709612 -79.496599 
L 86.562757 -80.893557 
L 86.412373 -82.290516 
L 86.264819 -83.687475 
L 86.129912 -85.084434 
L 86.019662 -86.481393 
L 85.946742 -87.878352 
L 85.922872 -89.275311 
L 85.957282 -90.67227 
L 86.055501 -92.069229 
L 86.21861 -93.466188 
L 86.443125 -94.863147 
L 86.721464 -96.260106 
L 87.042932 -97.657065 
L 87.394975 -99.054024 
L 87.764508 -100.450983 
L 88.139078 -101.847942 
L 88.507731 -103.244901 
L 88.861543 -104.64186 
L 89.193819 -106.038818 
L 89.500037 -107.435777 
L 89.777624 -108.832736 
L 90.025651 -110.229695 
L 90.244487 -111.626654 
L 90.435478 -113.023613 
L 90.600652 -114.420572 
L 90.742455 -115.817531 
L 90.863538 -117.21449 
L 90.966571 -118.611449 
L 91.054086 -120.008408 
L 91.12837 -121.405367 
L 91.191395 -122.802326 
L 91.244785 -124.199285 
L 91.289844 -125.596244 
L 91.3276 -126.993203 
L 91.358887 -128.390162 
L 91.384421 -129.78712 
L 91.40486 -131.184079 
L 91.420855 -132.581038 
L 91.43306 -133.977997 
L 91.442126 -135.374956 
L 91.448685 -136.771915 
L 91.453319 -138.168874 
L 91.45654 -139.565833 
L 91.458778 -140.962792 
L 91.460373 -142.359751 
L 91.46158 -143.75671 
L 91.462578 -145.153669 
L 91.46348 -146.550628 
L 91.46435 -147.947587 
L 91.465214 -149.344546 
L 91.466071 -150.741505 
L 91.466906 -152.138464 
L 91.467699 -153.535423 
L 91.468427 -154.932381 
L 91.469072 -156.32934 
L 91.469622 -157.726299 
L 91.470073 -159.123258 
L 91.470427 -160.520217 
L 91.470694 -161.917176 
L 91.470885 -163.314135 
L 91.471012 -164.711094 
L 91.471087 -166.108053 
L 91.471118 -167.505012 
L 91.471112 -168.901971 
L 91.471069 -170.29893 
L 91.470988 -171.695889 
L 91.470868 -173.092848 
L 91.470708 -174.489807 
L 91.470512 -175.886766 
L 91.470288 -177.283725 
L 91.470055 -178.680683 
L 91.469832 -180.077642 
L 91.469646 -181.474601 
L 91.469519 -182.87156 
L 91.469468 -184.268519 
L 91.4695 -185.665478 
L 91.46961 -187.062437 
L 91.469784 -188.459396 
L 91.470001 -189.856355 
L 91.470234 -191.253314 
L 91.470462 -192.650273 
L 91.47125 -192.650273 
L 91.47125 -192.650273 
L 91.47125 -191.253314 
L 91.47125 -189.856355 
L 91.47125 -188.459396 
L 91.47125 -187.062437 
L 91.47125 -185.665478 
L 91.47125 -184.268519 
L 91.47125 -182.87156 
L 91.47125 -181.474601 
L 91.47125 -180.077642 
L 91.47125 -178.680683 
L 91.47125 -177.283725 
L 91.47125 -175.886766 
L 91.47125 -174.489807 
L 91.47125 -173.092848 
L 91.47125 -171.695889 
L 91.47125 -170.29893 
L 91.47125 -168.901971 
L 91.47125 -167.505012 
L 91.47125 -166.108053 
L 91.47125 -164.711094 
L 91.47125 -163.314135 
L 91.47125 -161.917176 
L 91.47125 -160.520217 
L 91.47125 -159.123258 
L 91.47125 -157.726299 
L 91.47125 -156.32934 
L 91.47125 -154.932381 
L 91.47125 -153.535423 
L 91.47125 -152.138464 
L 91.47125 -150.741505 
L 91.47125 -149.344546 
L 91.47125 -147.947587 
L 91.47125 -146.550628 
L 91.47125 -145.153669 
L 91.47125 -143.75671 
L 91.47125 -142.359751 
L 91.47125 -140.962792 
L 91.47125 -139.565833 
L 91.47125 -138.168874 
L 91.47125 -136.771915 
L 91.47125 -135.374956 
L 91.47125 -133.977997 
L 91.47125 -132.581038 
L 91.47125 -131.184079 
L 91.47125 -129.78712 
L 91.47125 -128.390162 
L 91.47125 -126.993203 
L 91.47125 -125.596244 
L 91.47125 -124.199285 
L 91.47125 -122.802326 
L 91.47125 -121.405367 
L 91.47125 -120.008408 
L 91.47125 -118.611449 
L 91.47125 -117.21449 
L 91.47125 -115.817531 
L 91.47125 -114.420572 
L 91.47125 -113.023613 
L 91.47125 -111.626654 
L 91.47125 -110.229695 
L 91.47125 -108.832736 
L 91.47125 -107.435777 
L 91.47125 -106.038818 
L 91.47125 -104.64186 
L 91.47125 -103.244901 
L 91.47125 -101.847942 
L 91.47125 -100.450983 
L 91.47125 -99.054024 
L 91.47125 -97.657065 
L 91.47125 -96.260106 
L 91.47125 -94.863147 
L 91.47125 -93.466188 
L 91.47125 -92.069229 
L 91.47125 -90.67227 
L 91.47125 -89.275311 
L 91.47125 -87.878352 
L 91.47125 -86.481393 
L 91.47125 -85.084434 
L 91.47125 -83.687475 
L 91.47125 -82.290516 
L 91.47125 -80.893557 
L 91.47125 -79.496599 
L 91.47125 -78.09964 
L 91.47125 -76.702681 
L 91.47125 -75.305722 
L 91.47125 -73.908763 
L 91.47125 -72.511804 
L 91.47125 -71.114845 
L 91.47125 -69.717886 
L 91.47125 -68.320927 
L 91.47125 -66.923968 
L 91.47125 -65.527009 
L 91.47125 -64.13005 
L 91.47125 -62.733091 
L 91.47125 -61.336132 
L 91.47125 -59.939173 
L 91.47125 -58.542214 
L 91.47125 -57.145255 
L 91.47125 -55.748297 
L 91.47125 -54.351338 
L 91.47125 -52.954379 
z
" style="stroke: #000000; stroke-opacity: 0.8"/>
    </defs>
    <g clip-path="url(#pca84ce866c)">
     <use xlink:href="#m3013231729" x="0" y="168.403594" style="fill: #bdbdbb; fill-opacity: 0.8; stroke: #000000; stroke-opacity: 0.8"/>
    </g>
   </g>
   <g id="PolyCollection_4">
    <defs>
     <path id="mf9d35d32ec" d="M 91.47125 -44.222532 
L 94.098141 -44.222532 
L 94.458033 -45.125456 
L 94.830742 -46.028379 
L 95.209471 -46.931302 
L 95.586465 -47.834226 
L 95.953269 -48.737149 
L 96.301046 -49.640073 
L 96.620947 -50.542996 
L 96.904518 -51.445919 
L 97.144103 -52.348843 
L 97.333232 -53.251766 
L 97.466961 -54.154689 
L 97.542139 -55.057613 
L 97.557585 -55.960536 
L 97.514157 -56.863459 
L 97.414718 -57.766383 
L 97.263985 -58.669306 
L 97.068291 -59.572229 
L 96.835263 -60.475153 
L 96.573441 -61.378076 
L 96.291869 -62.280999 
L 95.999684 -63.183923 
L 95.705723 -64.086846 
L 95.41817 -64.989769 
L 95.144274 -65.892693 
L 94.890126 -66.795616 
L 94.660524 -67.698539 
L 94.458912 -68.601463 
L 94.287386 -69.504386 
L 94.146771 -70.407309 
L 94.036737 -71.310233 
L 93.955962 -72.213156 
L 93.902306 -73.116079 
L 93.873001 -74.019003 
L 93.864836 -74.921926 
L 93.874331 -75.82485 
L 93.897889 -76.727773 
L 93.931931 -77.630696 
L 93.973003 -78.53362 
L 94.01786 -79.436543 
L 94.063526 -80.339466 
L 94.107337 -81.24239 
L 94.146961 -82.145313 
L 94.18041 -83.048236 
L 94.20604 -83.95116 
L 94.222537 -84.854083 
L 94.228909 -85.757006 
L 94.224463 -86.65993 
L 94.208786 -87.562853 
L 94.181725 -88.465776 
L 94.143363 -89.3687 
L 94.093997 -90.271623 
L 94.034116 -91.174546 
L 93.964379 -92.07747 
L 93.885587 -92.980393 
L 93.798667 -93.883316 
L 93.70464 -94.78624 
L 93.604602 -95.689163 
L 93.499699 -96.592086 
L 93.391102 -97.49501 
L 93.279982 -98.397933 
L 93.167492 -99.300856 
L 93.05474 -100.20378 
L 92.942777 -101.106703 
L 92.832572 -102.009627 
L 92.725006 -102.91255 
L 92.620856 -103.815473 
L 92.520787 -104.718397 
L 92.425349 -105.62132 
L 92.334977 -106.524243 
L 92.249989 -107.427167 
L 92.170594 -108.33009 
L 92.096896 -109.233013 
L 92.028904 -110.135937 
L 91.966544 -111.03886 
L 91.909671 -111.941783 
L 91.858077 -112.844707 
L 91.811508 -113.74763 
L 91.769673 -114.650553 
L 91.732258 -115.553477 
L 91.698933 -116.4564 
L 91.669365 -117.359323 
L 91.643221 -118.262247 
L 91.620179 -119.16517 
L 91.599929 -120.068093 
L 91.582181 -120.971017 
L 91.566663 -121.87394 
L 91.553126 -122.776863 
L 91.54134 -123.679787 
L 91.531101 -124.58271 
L 91.522223 -125.485633 
L 91.51454 -126.388557 
L 91.507906 -127.29148 
L 91.502189 -128.194404 
L 91.497275 -129.097327 
L 91.493062 -130.00025 
L 91.48946 -130.903174 
L 91.48639 -131.806097 
L 91.483783 -132.70902 
L 91.481576 -133.611944 
L 91.479717 -134.514867 
L 91.47125 -134.514867 
L 91.47125 -134.514867 
L 91.47125 -133.611944 
L 91.47125 -132.70902 
L 91.47125 -131.806097 
L 91.47125 -130.903174 
L 91.47125 -130.00025 
L 91.47125 -129.097327 
L 91.47125 -128.194404 
L 91.47125 -127.29148 
L 91.47125 -126.388557 
L 91.47125 -125.485633 
L 91.47125 -124.58271 
L 91.47125 -123.679787 
L 91.47125 -122.776863 
L 91.47125 -121.87394 
L 91.47125 -120.971017 
L 91.47125 -120.068093 
L 91.47125 -119.16517 
L 91.47125 -118.262247 
L 91.47125 -117.359323 
L 91.47125 -116.4564 
L 91.47125 -115.553477 
L 91.47125 -114.650553 
L 91.47125 -113.74763 
L 91.47125 -112.844707 
L 91.47125 -111.941783 
L 91.47125 -111.03886 
L 91.47125 -110.135937 
L 91.47125 -109.233013 
L 91.47125 -108.33009 
L 91.47125 -107.427167 
L 91.47125 -106.524243 
L 91.47125 -105.62132 
L 91.47125 -104.718397 
L 91.47125 -103.815473 
L 91.47125 -102.91255 
L 91.47125 -102.009627 
L 91.47125 -101.106703 
L 91.47125 -100.20378 
L 91.47125 -99.300856 
L 91.47125 -98.397933 
L 91.47125 -97.49501 
L 91.47125 -96.592086 
L 91.47125 -95.689163 
L 91.47125 -94.78624 
L 91.47125 -93.883316 
L 91.47125 -92.980393 
L 91.47125 -92.07747 
L 91.47125 -91.174546 
L 91.47125 -90.271623 
L 91.47125 -89.3687 
L 91.47125 -88.465776 
L 91.47125 -87.562853 
L 91.47125 -86.65993 
L 91.47125 -85.757006 
L 91.47125 -84.854083 
L 91.47125 -83.95116 
L 91.47125 -83.048236 
L 91.47125 -82.145313 
L 91.47125 -81.24239 
L 91.47125 -80.339466 
L 91.47125 -79.436543 
L 91.47125 -78.53362 
L 91.47125 -77.630696 
L 91.47125 -76.727773 
L 91.47125 -75.82485 
L 91.47125 -74.921926 
L 91.47125 -74.019003 
L 91.47125 -73.116079 
L 91.47125 -72.213156 
L 91.47125 -71.310233 
L 91.47125 -70.407309 
L 91.47125 -69.504386 
L 91.47125 -68.601463 
L 91.47125 -67.698539 
L 91.47125 -66.795616 
L 91.47125 -65.892693 
L 91.47125 -64.989769 
L 91.47125 -64.086846 
L 91.47125 -63.183923 
L 91.47125 -62.280999 
L 91.47125 -61.378076 
L 91.47125 -60.475153 
L 91.47125 -59.572229 
L 91.47125 -58.669306 
L 91.47125 -57.766383 
L 91.47125 -56.863459 
L 91.47125 -55.960536 
L 91.47125 -55.057613 
L 91.47125 -54.154689 
L 91.47125 -53.251766 
L 91.47125 -52.348843 
L 91.47125 -51.445919 
L 91.47125 -50.542996 
L 91.47125 -49.640073 
L 91.47125 -48.737149 
L 91.47125 -47.834226 
L 91.47125 -46.931302 
L 91.47125 -46.028379 
L 91.47125 -45.125456 
L 91.47125 -44.222532 
z
" style="stroke: #000000; stroke-opacity: 0.8"/>
    </defs>
    <g clip-path="url(#pca84ce866c)">
     <use xlink:href="#mf9d35d32ec" x="0" y="168.403594" style="fill: #ff812f; fill-opacity: 0.8; stroke: #000000; stroke-opacity: 0.8"/>
    </g>
   </g>
   <g id="matplotlib.axis_1">
    <g id="xtick_1">
     <g id="line2d_1">
      <defs>
       <path id="m3b1ee06692" d="M 0 0 
L 0 -5 
" style="stroke: #000000"/>
      </defs>
      <g>
       <use xlink:href="#m3b1ee06692" x="66.36125" y="132.669375" style="stroke: #000000"/>
      </g>
     </g>
     <g id="text_1">
      <!-- Fast -->
      <g transform="translate(55.665469 144.042969) scale(0.11 -0.11)">
       <defs>
        <path id="ArialMT-46" d="M 525 0 
L 525 4581 
L 3616 4581 
L 3616 4041 
L 1131 4041 
L 1131 2622 
L 3281 2622 
L 3281 2081 
L 1131 2081 
L 1131 0 
L 525 0 
z
" transform="scale(0.015625)"/>
        <path id="ArialMT-61" d="M 2588 409 
Q 2275 144 1986 34 
Q 1697 -75 1366 -75 
Q 819 -75 525 192 
Q 231 459 231 875 
Q 231 1119 342 1320 
Q 453 1522 633 1644 
Q 813 1766 1038 1828 
Q 1203 1872 1538 1913 
Q 2219 1994 2541 2106 
Q 2544 2222 2544 2253 
Q 2544 2597 2384 2738 
Q 2169 2928 1744 2928 
Q 1347 2928 1158 2789 
Q 969 2650 878 2297 
L 328 2372 
Q 403 2725 575 2942 
Q 747 3159 1072 3276 
Q 1397 3394 1825 3394 
Q 2250 3394 2515 3294 
Q 2781 3194 2906 3042 
Q 3031 2891 3081 2659 
Q 3109 2516 3109 2141 
L 3109 1391 
Q 3109 606 3145 398 
Q 3181 191 3288 0 
L 2700 0 
Q 2613 175 2588 409 
z
M 2541 1666 
Q 2234 1541 1622 1453 
Q 1275 1403 1131 1340 
Q 988 1278 909 1158 
Q 831 1038 831 891 
Q 831 666 1001 516 
Q 1172 366 1500 366 
Q 1825 366 2078 508 
Q 2331 650 2450 897 
Q 2541 1088 2541 1459 
L 2541 1666 
z
" transform="scale(0.015625)"/>
        <path id="ArialMT-73" d="M 197 991 
L 753 1078 
Q 800 744 1014 566 
Q 1228 388 1613 388 
Q 2000 388 2187 545 
Q 2375 703 2375 916 
Q 2375 1106 2209 1216 
Q 2094 1291 1634 1406 
Q 1016 1563 777 1677 
Q 538 1791 414 1992 
Q 291 2194 291 2438 
Q 291 2659 392 2848 
Q 494 3038 669 3163 
Q 800 3259 1026 3326 
Q 1253 3394 1513 3394 
Q 1903 3394 2198 3281 
Q 2494 3169 2634 2976 
Q 2775 2784 2828 2463 
L 2278 2388 
Q 2241 2644 2061 2787 
Q 1881 2931 1553 2931 
Q 1166 2931 1000 2803 
Q 834 2675 834 2503 
Q 834 2394 903 2306 
Q 972 2216 1119 2156 
Q 1203 2125 1616 2013 
Q 2213 1853 2448 1751 
Q 2684 1650 2818 1456 
Q 2953 1263 2953 975 
Q 2953 694 2789 445 
Q 2625 197 2315 61 
Q 2006 -75 1616 -75 
Q 969 -75 630 194 
Q 291 463 197 991 
z
" transform="scale(0.015625)"/>
        <path id="ArialMT-74" d="M 1650 503 
L 1731 6 
Q 1494 -44 1306 -44 
Q 1000 -44 831 53 
Q 663 150 594 308 
Q 525 466 525 972 
L 525 2881 
L 113 2881 
L 113 3319 
L 525 3319 
L 525 4141 
L 1084 4478 
L 1084 3319 
L 1650 3319 
L 1650 2881 
L 1084 2881 
L 1084 941 
Q 1084 700 1114 631 
Q 1144 563 1211 522 
Q 1278 481 1403 481 
Q 1497 481 1650 503 
z
" transform="scale(0.015625)"/>
       </defs>
       <use xlink:href="#ArialMT-46"/>
       <use xlink:href="#ArialMT-61" x="61.083984"/>
       <use xlink:href="#ArialMT-73" x="116.699219"/>
       <use xlink:href="#ArialMT-74" x="166.699219"/>
      </g>
     </g>
    </g>
    <g id="xtick_2">
     <g id="line2d_2">
      <g>
       <use xlink:href="#m3b1ee06692" x="91.47125" y="132.669375" style="stroke: #000000"/>
      </g>
     </g>
     <g id="text_2">
      <!-- Slow -->
      <g transform="translate(79.55 144.042969) scale(0.11 -0.11)">
       <defs>
        <path id="ArialMT-53" d="M 288 1472 
L 859 1522 
Q 900 1178 1048 958 
Q 1197 738 1509 602 
Q 1822 466 2213 466 
Q 2559 466 2825 569 
Q 3091 672 3220 851 
Q 3350 1031 3350 1244 
Q 3350 1459 3225 1620 
Q 3100 1781 2813 1891 
Q 2628 1963 1997 2114 
Q 1366 2266 1113 2400 
Q 784 2572 623 2826 
Q 463 3081 463 3397 
Q 463 3744 659 4045 
Q 856 4347 1234 4503 
Q 1613 4659 2075 4659 
Q 2584 4659 2973 4495 
Q 3363 4331 3572 4012 
Q 3781 3694 3797 3291 
L 3216 3247 
Q 3169 3681 2898 3903 
Q 2628 4125 2100 4125 
Q 1550 4125 1298 3923 
Q 1047 3722 1047 3438 
Q 1047 3191 1225 3031 
Q 1400 2872 2139 2705 
Q 2878 2538 3153 2413 
Q 3553 2228 3743 1945 
Q 3934 1663 3934 1294 
Q 3934 928 3725 604 
Q 3516 281 3123 101 
Q 2731 -78 2241 -78 
Q 1619 -78 1198 103 
Q 778 284 539 648 
Q 300 1013 288 1472 
z
" transform="scale(0.015625)"/>
        <path id="ArialMT-6c" d="M 409 0 
L 409 4581 
L 972 4581 
L 972 0 
L 409 0 
z
" transform="scale(0.015625)"/>
        <path id="ArialMT-6f" d="M 213 1659 
Q 213 2581 725 3025 
Q 1153 3394 1769 3394 
Q 2453 3394 2887 2945 
Q 3322 2497 3322 1706 
Q 3322 1066 3130 698 
Q 2938 331 2570 128 
Q 2203 -75 1769 -75 
Q 1072 -75 642 372 
Q 213 819 213 1659 
z
M 791 1659 
Q 791 1022 1069 705 
Q 1347 388 1769 388 
Q 2188 388 2466 706 
Q 2744 1025 2744 1678 
Q 2744 2294 2464 2611 
Q 2184 2928 1769 2928 
Q 1347 2928 1069 2612 
Q 791 2297 791 1659 
z
" transform="scale(0.015625)"/>
        <path id="ArialMT-77" d="M 1034 0 
L 19 3319 
L 600 3319 
L 1128 1403 
L 1325 691 
Q 1338 744 1497 1375 
L 2025 3319 
L 2603 3319 
L 3100 1394 
L 3266 759 
L 3456 1400 
L 4025 3319 
L 4572 3319 
L 3534 0 
L 2950 0 
L 2422 1988 
L 2294 2553 
L 1622 0 
L 1034 0 
z
" transform="scale(0.015625)"/>
       </defs>
       <use xlink:href="#ArialMT-53"/>
       <use xlink:href="#ArialMT-6c" x="66.699219"/>
       <use xlink:href="#ArialMT-6f" x="88.916016"/>
       <use xlink:href="#ArialMT-77" x="144.53125"/>
      </g>
     </g>
    </g>
    <g id="text_3">
     <!-- Population -->
     <g transform="translate(50.561563 158.818594) scale(0.12 -0.12)">
      <defs>
       <path id="ArialMT-50" d="M 494 0 
L 494 4581 
L 2222 4581 
Q 2678 4581 2919 4538 
Q 3256 4481 3484 4323 
Q 3713 4166 3852 3881 
Q 3991 3597 3991 3256 
Q 3991 2672 3619 2267 
Q 3247 1863 2275 1863 
L 1100 1863 
L 1100 0 
L 494 0 
z
M 1100 2403 
L 2284 2403 
Q 2872 2403 3119 2622 
Q 3366 2841 3366 3238 
Q 3366 3525 3220 3729 
Q 3075 3934 2838 4000 
Q 2684 4041 2272 4041 
L 1100 4041 
L 1100 2403 
z
" transform="scale(0.015625)"/>
       <path id="ArialMT-70" d="M 422 -1272 
L 422 3319 
L 934 3319 
L 934 2888 
Q 1116 3141 1344 3267 
Q 1572 3394 1897 3394 
Q 2322 3394 2647 3175 
Q 2972 2956 3137 2557 
Q 3303 2159 3303 1684 
Q 3303 1175 3120 767 
Q 2938 359 2589 142 
Q 2241 -75 1856 -75 
Q 1575 -75 1351 44 
Q 1128 163 984 344 
L 984 -1272 
L 422 -1272 
z
M 931 1641 
Q 931 1000 1190 694 
Q 1450 388 1819 388 
Q 2194 388 2461 705 
Q 2728 1022 2728 1688 
Q 2728 2322 2467 2637 
Q 2206 2953 1844 2953 
Q 1484 2953 1207 2617 
Q 931 2281 931 1641 
z
" transform="scale(0.015625)"/>
       <path id="ArialMT-75" d="M 2597 0 
L 2597 488 
Q 2209 -75 1544 -75 
Q 1250 -75 995 37 
Q 741 150 617 320 
Q 494 491 444 738 
Q 409 903 409 1263 
L 409 3319 
L 972 3319 
L 972 1478 
Q 972 1038 1006 884 
Q 1059 663 1231 536 
Q 1403 409 1656 409 
Q 1909 409 2131 539 
Q 2353 669 2445 892 
Q 2538 1116 2538 1541 
L 2538 3319 
L 3100 3319 
L 3100 0 
L 2597 0 
z
" transform="scale(0.015625)"/>
       <path id="ArialMT-69" d="M 425 3934 
L 425 4581 
L 988 4581 
L 988 3934 
L 425 3934 
z
M 425 0 
L 425 3319 
L 988 3319 
L 988 0 
L 425 0 
z
" transform="scale(0.015625)"/>
       <path id="ArialMT-6e" d="M 422 0 
L 422 3319 
L 928 3319 
L 928 2847 
Q 1294 3394 1984 3394 
Q 2284 3394 2536 3286 
Q 2788 3178 2913 3003 
Q 3038 2828 3088 2588 
Q 3119 2431 3119 2041 
L 3119 0 
L 2556 0 
L 2556 2019 
Q 2556 2363 2490 2533 
Q 2425 2703 2258 2804 
Q 2091 2906 1866 2906 
Q 1506 2906 1245 2678 
Q 984 2450 984 1813 
L 984 0 
L 422 0 
z
" transform="scale(0.015625)"/>
      </defs>
      <use xlink:href="#ArialMT-50"/>
      <use xlink:href="#ArialMT-6f" x="66.699219"/>
      <use xlink:href="#ArialMT-70" x="122.314453"/>
      <use xlink:href="#ArialMT-75" x="177.929688"/>
      <use xlink:href="#ArialMT-6c" x="233.544922"/>
      <use xlink:href="#ArialMT-61" x="255.761719"/>
      <use xlink:href="#ArialMT-74" x="311.376953"/>
      <use xlink:href="#ArialMT-69" x="339.160156"/>
      <use xlink:href="#ArialMT-6f" x="361.376953"/>
      <use xlink:href="#ArialMT-6e" x="416.992188"/>
     </g>
    </g>
   </g>
   <g id="matplotlib.axis_2">
    <g id="ytick_1">
     <g id="line2d_3">
      <defs>
       <path id="m3ca9e84485" d="M 0 0 
L 5 0 
" style="stroke: #000000"/>
      </defs>
      <g>
       <use xlink:href="#m3ca9e84485" x="41.25125" y="125.739375" style="stroke: #000000"/>
      </g>
     </g>
     <g id="text_4">
      <!-- 0.0 -->
      <g transform="translate(22.46125 129.676172) scale(0.11 -0.11)">
       <defs>
        <path id="ArialMT-30" d="M 266 2259 
Q 266 3072 433 3567 
Q 600 4063 929 4331 
Q 1259 4600 1759 4600 
Q 2128 4600 2406 4451 
Q 2684 4303 2865 4023 
Q 3047 3744 3150 3342 
Q 3253 2941 3253 2259 
Q 3253 1453 3087 958 
Q 2922 463 2592 192 
Q 2263 -78 1759 -78 
Q 1097 -78 719 397 
Q 266 969 266 2259 
z
M 844 2259 
Q 844 1131 1108 757 
Q 1372 384 1759 384 
Q 2147 384 2411 759 
Q 2675 1134 2675 2259 
Q 2675 3391 2411 3762 
Q 2147 4134 1753 4134 
Q 1366 4134 1134 3806 
Q 844 3388 844 2259 
z
" transform="scale(0.015625)"/>
        <path id="ArialMT-2e" d="M 581 0 
L 581 641 
L 1222 641 
L 1222 0 
L 581 0 
z
" transform="scale(0.015625)"/>
       </defs>
       <use xlink:href="#ArialMT-30"/>
       <use xlink:href="#ArialMT-2e" x="55.615234"/>
       <use xlink:href="#ArialMT-30" x="83.398438"/>
      </g>
     </g>
    </g>
    <g id="ytick_2">
     <g id="line2d_4">
      <g>
       <use xlink:href="#m3ca9e84485" x="41.25125" y="91.089375" style="stroke: #000000"/>
      </g>
     </g>
     <g id="text_5">
      <!-- 0.5 -->
      <g transform="translate(22.46125 95.026172) scale(0.11 -0.11)">
       <defs>
        <path id="ArialMT-35" d="M 266 1200 
L 856 1250 
Q 922 819 1161 601 
Q 1400 384 1738 384 
Q 2144 384 2425 690 
Q 2706 997 2706 1503 
Q 2706 1984 2436 2262 
Q 2166 2541 1728 2541 
Q 1456 2541 1237 2417 
Q 1019 2294 894 2097 
L 366 2166 
L 809 4519 
L 3088 4519 
L 3088 3981 
L 1259 3981 
L 1013 2750 
Q 1425 3038 1878 3038 
Q 2478 3038 2890 2622 
Q 3303 2206 3303 1553 
Q 3303 931 2941 478 
Q 2500 -78 1738 -78 
Q 1113 -78 717 272 
Q 322 622 266 1200 
z
" transform="scale(0.015625)"/>
       </defs>
       <use xlink:href="#ArialMT-30"/>
       <use xlink:href="#ArialMT-2e" x="55.615234"/>
       <use xlink:href="#ArialMT-35" x="83.398438"/>
      </g>
     </g>
    </g>
    <g id="ytick_3">
     <g id="line2d_5">
      <g>
       <use xlink:href="#m3ca9e84485" x="41.25125" y="56.439375" style="stroke: #000000"/>
      </g>
     </g>
     <g id="text_6">
      <!-- 1.0 -->
      <g transform="translate(22.46125 60.376172) scale(0.11 -0.11)">
       <defs>
        <path id="ArialMT-31" d="M 2384 0 
L 1822 0 
L 1822 3584 
Q 1619 3391 1289 3197 
Q 959 3003 697 2906 
L 697 3450 
Q 1169 3672 1522 3987 
Q 1875 4303 2022 4600 
L 2384 4600 
L 2384 0 
z
" transform="scale(0.015625)"/>
       </defs>
       <use xlink:href="#ArialMT-31"/>
       <use xlink:href="#ArialMT-2e" x="55.615234"/>
       <use xlink:href="#ArialMT-30" x="83.398438"/>
      </g>
     </g>
    </g>
    <g id="ytick_4">
     <g id="line2d_6">
      <g>
       <use xlink:href="#m3ca9e84485" x="41.25125" y="21.789375" style="stroke: #000000"/>
      </g>
     </g>
     <g id="text_7">
      <!-- 1.5 -->
      <g transform="translate(22.46125 25.726172) scale(0.11 -0.11)">
       <use xlink:href="#ArialMT-31"/>
       <use xlink:href="#ArialMT-2e" x="55.615234"/>
       <use xlink:href="#ArialMT-35" x="83.398438"/>
      </g>
     </g>
    </g>
    <g id="text_8">
     <!-- Power (a.u.) -->
     <g transform="translate(15.935625 109.905) rotate(-90) scale(0.12 -0.12)">
      <defs>
       <path id="ArialMT-65" d="M 2694 1069 
L 3275 997 
Q 3138 488 2766 206 
Q 2394 -75 1816 -75 
Q 1088 -75 661 373 
Q 234 822 234 1631 
Q 234 2469 665 2931 
Q 1097 3394 1784 3394 
Q 2450 3394 2872 2941 
Q 3294 2488 3294 1666 
Q 3294 1616 3291 1516 
L 816 1516 
Q 847 969 1125 678 
Q 1403 388 1819 388 
Q 2128 388 2347 550 
Q 2566 713 2694 1069 
z
M 847 1978 
L 2700 1978 
Q 2663 2397 2488 2606 
Q 2219 2931 1791 2931 
Q 1403 2931 1139 2672 
Q 875 2413 847 1978 
z
" transform="scale(0.015625)"/>
       <path id="ArialMT-72" d="M 416 0 
L 416 3319 
L 922 3319 
L 922 2816 
Q 1116 3169 1280 3281 
Q 1444 3394 1641 3394 
Q 1925 3394 2219 3213 
L 2025 2691 
Q 1819 2813 1613 2813 
Q 1428 2813 1281 2702 
Q 1134 2591 1072 2394 
Q 978 2094 978 1738 
L 978 0 
L 416 0 
z
" transform="scale(0.015625)"/>
       <path id="ArialMT-20" transform="scale(0.015625)"/>
       <path id="ArialMT-28" d="M 1497 -1347 
Q 1031 -759 709 28 
Q 388 816 388 1659 
Q 388 2403 628 3084 
Q 909 3875 1497 4659 
L 1900 4659 
Q 1522 4009 1400 3731 
Q 1209 3300 1100 2831 
Q 966 2247 966 1656 
Q 966 153 1900 -1347 
L 1497 -1347 
z
" transform="scale(0.015625)"/>
       <path id="ArialMT-29" d="M 791 -1347 
L 388 -1347 
Q 1322 153 1322 1656 
Q 1322 2244 1188 2822 
Q 1081 3291 891 3722 
Q 769 4003 388 4659 
L 791 4659 
Q 1378 3875 1659 3084 
Q 1900 2403 1900 1659 
Q 1900 816 1576 28 
Q 1253 -759 791 -1347 
z
" transform="scale(0.015625)"/>
      </defs>
      <use xlink:href="#ArialMT-50"/>
      <use xlink:href="#ArialMT-6f" x="66.699219"/>
      <use xlink:href="#ArialMT-77" x="122.314453"/>
      <use xlink:href="#ArialMT-65" x="194.53125"/>
      <use xlink:href="#ArialMT-72" x="250.146484"/>
      <use xlink:href="#ArialMT-20" x="283.447266"/>
      <use xlink:href="#ArialMT-28" x="311.230469"/>
      <use xlink:href="#ArialMT-61" x="344.53125"/>
      <use xlink:href="#ArialMT-2e" x="400.146484"/>
      <use xlink:href="#ArialMT-75" x="427.929688"/>
      <use xlink:href="#ArialMT-2e" x="483.544922"/>
      <use xlink:href="#ArialMT-29" x="511.328125"/>
     </g>
    </g>
   </g>
   <g id="line2d_7">
    <path d="M 66.36125 99.621426 
L 51.530431 99.621426 
" clip-path="url(#pca84ce866c)" style="fill: none; stroke-dasharray: 4.44,1.92; stroke-dashoffset: 0; stroke: #000000; stroke-width: 1.2"/>
   </g>
   <g id="line2d_8">
    <path d="M 66.36125 96.792664 
L 50.061552 96.792664 
" clip-path="url(#pca84ce866c)" style="fill: none; stroke-dasharray: 4.44,1.92; stroke-dashoffset: 0; stroke: #000000; stroke-width: 1.2"/>
   </g>
   <g id="line2d_9">
    <path d="M 66.36125 93.502017 
L 54.113957 93.502017 
" clip-path="url(#pca84ce866c)" style="fill: none; stroke-dasharray: 4.44,1.92; stroke-dashoffset: 0; stroke: #000000; stroke-width: 1.2"/>
   </g>
   <g id="line2d_10">
    <path d="M 66.36125 104.908993 
L 82.046561 104.908993 
" clip-path="url(#pca84ce866c)" style="fill: none; stroke-dasharray: 4.44,1.92; stroke-dashoffset: 0; stroke: #000000; stroke-width: 1.2"/>
   </g>
   <g id="line2d_11">
    <path d="M 66.36125 102.404668 
L 84.69684 102.404668 
" clip-path="url(#pca84ce866c)" style="fill: none; stroke-dasharray: 4.44,1.92; stroke-dashoffset: 0; stroke: #000000; stroke-width: 1.2"/>
   </g>
   <g id="line2d_12">
    <path d="M 66.36125 99.638607 
L 80.695879 99.638607 
" clip-path="url(#pca84ce866c)" style="fill: none; stroke-dasharray: 4.44,1.92; stroke-dashoffset: 0; stroke: #000000; stroke-width: 1.2"/>
   </g>
   <g id="line2d_13">
    <path d="M 91.47125 92.044722 
L 87.02346 92.044722 
" clip-path="url(#pca84ce866c)" style="fill: none; stroke-dasharray: 4.44,1.92; stroke-dashoffset: 0; stroke: #000000; stroke-width: 1.2"/>
   </g>
   <g id="line2d_14">
    <path d="M 91.47125 81.31201 
L 85.982489 81.31201 
" clip-path="url(#pca84ce866c)" style="fill: none; stroke-dasharray: 4.44,1.92; stroke-dashoffset: 0; stroke: #000000; stroke-width: 1.2"/>
   </g>
   <g id="line2d_15">
    <path d="M 91.47125 73.148663 
L 86.516168 73.148663 
" clip-path="url(#pca84ce866c)" style="fill: none; stroke-dasharray: 4.44,1.92; stroke-dashoffset: 0; stroke: #000000; stroke-width: 1.2"/>
   </g>
   <g id="line2d_16">
    <path d="M 91.47125 113.703974 
L 97.519458 113.703974 
" clip-path="url(#pca84ce866c)" style="fill: none; stroke-dasharray: 4.44,1.92; stroke-dashoffset: 0; stroke: #000000; stroke-width: 1.2"/>
   </g>
   <g id="line2d_17">
    <path d="M 91.47125 110.717964 
L 97.425782 110.717964 
" clip-path="url(#pca84ce866c)" style="fill: none; stroke-dasharray: 4.44,1.92; stroke-dashoffset: 0; stroke: #000000; stroke-width: 1.2"/>
   </g>
   <g id="line2d_18">
    <path d="M 91.47125 84.712673 
L 94.199538 84.712673 
" clip-path="url(#pca84ce866c)" style="fill: none; stroke-dasharray: 4.44,1.92; stroke-dashoffset: 0; stroke: #000000; stroke-width: 1.2"/>
   </g>
   <g id="patch_3">
    <path d="M 41.25125 132.669375 
L 41.25125 21.789375 
" style="fill: none; stroke: #000000; stroke-width: 0.8; stroke-linejoin: miter; stroke-linecap: square"/>
   </g>
   <g id="patch_4">
    <path d="M 41.25125 132.669375 
L 116.58125 132.669375 
" style="fill: none; stroke: #000000; stroke-width: 0.8; stroke-linejoin: miter; stroke-linecap: square"/>
   </g>
   <g id="text_9">
    <!-- Burst amplitude -->
    <g transform="translate(37.232188 15.789375) scale(0.12 -0.12)">
     <defs>
      <path id="ArialMT-42" d="M 469 0 
L 469 4581 
L 2188 4581 
Q 2713 4581 3030 4442 
Q 3347 4303 3526 4014 
Q 3706 3725 3706 3409 
Q 3706 3116 3547 2856 
Q 3388 2597 3066 2438 
Q 3481 2316 3704 2022 
Q 3928 1728 3928 1328 
Q 3928 1006 3792 729 
Q 3656 453 3456 303 
Q 3256 153 2954 76 
Q 2653 0 2216 0 
L 469 0 
z
M 1075 2656 
L 2066 2656 
Q 2469 2656 2644 2709 
Q 2875 2778 2992 2937 
Q 3109 3097 3109 3338 
Q 3109 3566 3000 3739 
Q 2891 3913 2687 3977 
Q 2484 4041 1991 4041 
L 1075 4041 
L 1075 2656 
z
M 1075 541 
L 2216 541 
Q 2509 541 2628 563 
Q 2838 600 2978 687 
Q 3119 775 3209 942 
Q 3300 1109 3300 1328 
Q 3300 1584 3169 1773 
Q 3038 1963 2805 2039 
Q 2572 2116 2134 2116 
L 1075 2116 
L 1075 541 
z
" transform="scale(0.015625)"/>
      <path id="ArialMT-6d" d="M 422 0 
L 422 3319 
L 925 3319 
L 925 2853 
Q 1081 3097 1340 3245 
Q 1600 3394 1931 3394 
Q 2300 3394 2536 3241 
Q 2772 3088 2869 2813 
Q 3263 3394 3894 3394 
Q 4388 3394 4653 3120 
Q 4919 2847 4919 2278 
L 4919 0 
L 4359 0 
L 4359 2091 
Q 4359 2428 4304 2576 
Q 4250 2725 4106 2815 
Q 3963 2906 3769 2906 
Q 3419 2906 3187 2673 
Q 2956 2441 2956 1928 
L 2956 0 
L 2394 0 
L 2394 2156 
Q 2394 2531 2256 2718 
Q 2119 2906 1806 2906 
Q 1569 2906 1367 2781 
Q 1166 2656 1075 2415 
Q 984 2175 984 1722 
L 984 0 
L 422 0 
z
" transform="scale(0.015625)"/>
      <path id="ArialMT-64" d="M 2575 0 
L 2575 419 
Q 2259 -75 1647 -75 
Q 1250 -75 917 144 
Q 584 363 401 755 
Q 219 1147 219 1656 
Q 219 2153 384 2558 
Q 550 2963 881 3178 
Q 1213 3394 1622 3394 
Q 1922 3394 2156 3267 
Q 2391 3141 2538 2938 
L 2538 4581 
L 3097 4581 
L 3097 0 
L 2575 0 
z
M 797 1656 
Q 797 1019 1065 703 
Q 1334 388 1700 388 
Q 2069 388 2326 689 
Q 2584 991 2584 1609 
Q 2584 2291 2321 2609 
Q 2059 2928 1675 2928 
Q 1300 2928 1048 2622 
Q 797 2316 797 1656 
z
" transform="scale(0.015625)"/>
     </defs>
     <use xlink:href="#ArialMT-42"/>
     <use xlink:href="#ArialMT-75" x="66.699219"/>
     <use xlink:href="#ArialMT-72" x="122.314453"/>
     <use xlink:href="#ArialMT-73" x="155.615234"/>
     <use xlink:href="#ArialMT-74" x="205.615234"/>
     <use xlink:href="#ArialMT-20" x="233.398438"/>
     <use xlink:href="#ArialMT-61" x="261.181641"/>
     <use xlink:href="#ArialMT-6d" x="316.796875"/>
     <use xlink:href="#ArialMT-70" x="400.097656"/>
     <use xlink:href="#ArialMT-6c" x="455.712891"/>
     <use xlink:href="#ArialMT-69" x="477.929688"/>
     <use xlink:href="#ArialMT-74" x="500.146484"/>
     <use xlink:href="#ArialMT-75" x="527.929688"/>
     <use xlink:href="#ArialMT-64" x="583.544922"/>
     <use xlink:href="#ArialMT-65" x="639.160156"/>
    </g>
   </g>
  </g>
 </g>
 <defs>
  <clipPath id="pca84ce866c">
   <rect x="41.25125" y="21.789375" width="75.33" height="110.88"/>
  </clipPath>
 </defs>
</svg>
